<?xml version="1.0" encoding="utf-8"?>
<!-- Generator: Adobe Illustrator 18.1.1, SVG Export Plug-In . SVG Version: 6.00 Build 0)  -->
<svg version="1.1" id="Ebene_1" xmlns="http://www.w3.org/2000/svg" xmlns:xlink="http://www.w3.org/1999/xlink" x="0px" y="0px"
	 width="64px" height="64px" viewBox="0 0 64 64" enable-background="new 0 0 64 64" xml:space="preserve">
<g>
	<g>
		<path fill="#3C201D" d="M32,17.5c-4.7,0-8.5-3.8-8.5-8.5s3.8-8.5,8.5-8.5s8.5,3.8,8.5,8.5S36.7,17.5,32,17.5z"/>
		<path fill="#1E0E0E" d="M32,1c4.4,0,8,3.6,8,8s-3.6,8-8,8s-8-3.6-8-8S27.6,1,32,1 M32,0c-5,0-9,4-9,9c0,5,4,9,9,9s9-4,9-9
			C41,4,37,0,32,0L32,0z"/>
	</g>
	<g>
		<path fill="#3C201D" d="M27.6,63.5c-0.7,0-1.3-0.3-1.8-0.7l-8.5-8.5c-2.1-2.1-2.1-5.6,0-7.8l5.3-5.3l5.7,5.7L23,52.2l6.7,6.7
			c1,1,1,2.6,0,3.5l-0.4,0.4C28.9,63.2,28.3,63.5,27.6,63.5z"/>
		<path fill="#1E0E0E" d="M22.7,41.9l4.9,4.9L23,51.5l-0.7,0.7l0.7,0.7l6.4,6.4c0.8,0.8,0.8,2,0,2.8L29,62.4
			c-0.4,0.4-0.9,0.6-1.4,0.6s-1-0.2-1.4-0.6l-6.4-6.4l-2.1-2.1c-1.9-1.9-1.9-5.1,0-7.1L22.7,41.9 M22.7,40.5L17,46.2
			c-2.3,2.3-2.3,6.1,0,8.5l2.1,2.1l6.4,6.4c0.6,0.6,1.4,0.9,2.1,0.9s1.5-0.3,2.1-0.9l0.4-0.4c1.2-1.2,1.2-3.1,0-4.2l-6.4-6.4
			l5.3-5.3L22.7,40.5L22.7,40.5z"/>
	</g>
	<g>
		<path fill="#3C201D" d="M36.4,63.5c-0.7,0-1.3-0.3-1.8-0.7l-0.4-0.4c-1-1-1-2.6,0-3.5l6.7-6.7l-5.3-5.3l5.7-5.7l5.3,5.3
			c2.1,2.1,2.1,5.6,0,7.8l-8.5,8.5C37.7,63.2,37,63.5,36.4,63.5z"/>
		<path fill="#1E0E0E" d="M41.3,41.9l4.9,4.9c1.9,1.9,1.9,5.1,0,7.1l-2.1,2.1l-6.4,6.4c-0.4,0.4-0.9,0.6-1.4,0.6s-1-0.2-1.4-0.6
			l-0.4-0.4c-0.8-0.8-0.8-2,0-2.8l6.4-6.4l0.7-0.7L41,51.5l-4.6-4.6L41.3,41.9 M41.3,40.5L35,46.9l5.3,5.3l-6.4,6.4
			c-1.2,1.2-1.2,3.1,0,4.2l0.4,0.4c0.6,0.6,1.4,0.9,2.1,0.9s1.5-0.3,2.1-0.9l6.4-6.4l2.1-2.1c2.3-2.3,2.3-6.1,0-8.5L41.3,40.5
			L41.3,40.5z"/>
	</g>
	<g>
		<path fill="#3C201D" d="M51.2,38c-0.7,0-1.3-0.3-1.8-0.7l-9-9v8h-17v-8l-9,9c-0.5,0.5-1.1,0.7-1.8,0.7c-0.7,0-1.3-0.3-1.8-0.7
			c-1-1-1-2.6,0-3.5L23.7,21c0.5-0.5,1.1-0.7,1.8-0.7l0.1,0l0.1,0l12.6,0c0,0,0.1,0,0.1,0c0.7,0,1.4,0.3,1.8,0.7L53,33.7
			c1,1,1,2.6,0,3.5C52.5,37.7,51.9,38,51.2,38z"/>
		<path fill="#1E0E0E" d="M38.3,20.8L38.3,20.8l0.1,0l0,0l0,0l0.1,0c0.5,0,1,0.2,1.4,0.6l12.7,12.7c0.8,0.8,0.8,2,0,2.8
			c-0.4,0.4-0.9,0.6-1.4,0.6s-1-0.2-1.4-0.6l-8.1-8.1L40,27.1v2.4v6.3H24v-6.3v-2.4l-1.7,1.7l-8.1,8.1c-0.4,0.4-0.9,0.6-1.4,0.6
			c-0.5,0-1-0.2-1.4-0.6c-0.8-0.8-0.8-2,0-2.8l12.7-12.7c0.4-0.4,0.9-0.6,1.4-0.6l0.1,0l0,0l0,0c0,0,0.1,0,0.1,0H38.3 M38.3,19.8
			H25.7c0,0-0.1,0-0.1,0c0,0-0.1,0-0.1,0c-0.8,0-1.5,0.3-2.1,0.9L10.6,33.4c-1.2,1.2-1.2,3.1,0,4.2c0.6,0.6,1.4,0.9,2.1,0.9
			c0.8,0,1.5-0.3,2.1-0.9l8.1-8.1v7.3h18v-7.3l8.1,8.1c0.6,0.6,1.4,0.9,2.1,0.9s1.5-0.3,2.1-0.9c1.2-1.2,1.2-3.1,0-4.2L40.6,20.6
			c-0.6-0.6-1.4-0.9-2.1-0.9C38.5,19.8,38.4,19.8,38.3,19.8C38.4,19.8,38.4,19.8,38.3,19.8L38.3,19.8z"/>
	</g>
</g>
<polygon fill="#FFFFFF" stroke="#E8E8E8" stroke-linecap="round" stroke-linejoin="round" stroke-miterlimit="10" points="23,36.8 
	22.7,40.5 29,46.9 35,46.9 41.3,40.5 41,36.8 "/>
</svg>
