<?xml version="1.0" encoding="utf-8"?>
<!-- Generator: Adobe Illustrator 18.1.1, SVG Export Plug-In . SVG Version: 6.00 Build 0)  -->
<svg version="1.1" id="Ebene_1" xmlns="http://www.w3.org/2000/svg" xmlns:xlink="http://www.w3.org/1999/xlink" x="0px" y="0px"
	 width="64px" height="64px" viewBox="0 0 64 64" enable-background="new 0 0 64 64" xml:space="preserve">
<g>
	<g>
		<path fill="#C5C6C8" d="M3.12,24.88V23c0-2.14,1.74-3.88,3.88-3.88h6c1.03,0,1.88,0.84,1.88,1.88v0.88h-1.75V21.5
			c0-0.34-0.28-0.62-0.62-0.62H7c-1.17,0-2.12,0.95-2.12,2.12v1.88H3.12z"/>
		<path fill="#8C8C8C" d="M13,19.25c0.96,0,1.75,0.79,1.75,1.75v0.75h-1.5V21.5c0-0.41-0.34-0.75-0.75-0.75H7
			c-1.24,0-2.25,1.01-2.25,2.25v1.75h-1.5V23c0-2.07,1.68-3.75,3.75-3.75H13 M13,19H7c-2.2,0-4,1.8-4,4v2h2v-2c0-1.1,0.9-2,2-2h5.5
			c0.28,0,0.5,0.22,0.5,0.5V22h2v-1C15,19.9,14.1,19,13,19L13,19z"/>
	</g>
	<g>
		<linearGradient id="SVGID_1_" gradientUnits="userSpaceOnUse" x1="32" y1="26.1191" x2="32" y2="46.5">
			<stop  offset="0" style="stop-color:#FAFAFA"/>
			<stop  offset="1" style="stop-color:#DCDCDC"/>
		</linearGradient>
		<path fill="url(#SVGID_1_)" d="M13.7,46.5c-9.6,0-11.72-16.74-12.04-19.96l60.67-0.42c-0.17,1.57-0.96,6.5-4.36,12.71
			c-3.97,7.25-9,7.65-9.21,7.67H13.7z"/>
		<path fill="#B4B4B4" d="M61.77,26.62c-0.28,1.95-1.21,6.44-4.23,11.97c-3.88,7.08-8.6,7.4-8.76,7.41H13.7
			C4.98,46,2.69,31.18,2.22,27.04L61.77,26.62 M62.88,25.61L1.12,26.05c0,0,1.43,20.95,12.58,20.95s35.07,0,35.07,0
			s5.39-0.18,9.63-7.93C62.65,31.33,62.88,25.61,62.88,25.61L62.88,25.61z"/>
	</g>
	<g>
		<path fill="#F0F0F0" d="M1,26.58c-0.28,0-0.5-0.22-0.5-0.5V24.5h63v1.58c0,0.28-0.22,0.5-0.5,0.5H1z"/>
		<path fill="#B4B4B4" d="M63,25v1.08H1V25H63 M64,24H0v2.08c0,0.55,0.45,1,1,1h62c0.55,0,1-0.45,1-1V24L64,24z"/>
	</g>
</g>
</svg>
