<?xml version="1.0" encoding="utf-8"?>
<!-- Generator: Adobe Illustrator 18.1.1, SVG Export Plug-In . SVG Version: 6.00 Build 0)  -->
<svg version="1.1" id="Ebene_1" xmlns="http://www.w3.org/2000/svg" xmlns:xlink="http://www.w3.org/1999/xlink" x="0px" y="0px"
	 width="64px" height="64px" viewBox="0 0 64 64" enable-background="new 0 0 64 64" xml:space="preserve">
<g>
	<g>
		<rect x="58.5" y="25.5" fill="#845340" width="5" height="24"/>
		<path fill="#663629" d="M63,26v23h-4V26H63 M64,25h-6v25h6V25L64,25z"/>
	</g>
	<g>
		<linearGradient id="SVGID_1_" gradientUnits="userSpaceOnUse" x1="19.7097" y1="25.8555" x2="11.1442" y2="34.421">
			<stop  offset="0" style="stop-color:#FFFFFF"/>
			<stop  offset="1" style="stop-color:#C8C8C8"/>
		</linearGradient>
		<path fill="url(#SVGID_1_)" d="M20.75,36.92c-0.5,0-0.98-0.11-1.43-0.33L7.94,30.97c-0.78-0.38-1.36-1.05-1.64-1.87
			c-0.28-0.82-0.22-1.71,0.16-2.48l0.71-1.45c0.54-1.1,1.69-1.81,2.93-1.81c0.5,0,0.98,0.11,1.43,0.33l11.38,5.61
			c0.78,0.38,1.36,1.05,1.64,1.87c0.28,0.83,0.22,1.71-0.16,2.48l-0.71,1.45C23.14,36.2,21.99,36.92,20.75,36.92z"/>
		<path fill="#BEBEBE" d="M10.1,23.11v0.5c0.46,0,0.9,0.1,1.32,0.31l11.39,5.61c0.72,0.35,1.25,0.97,1.51,1.73s0.21,1.57-0.15,2.29
			l-0.71,1.45c-0.5,1.02-1.56,1.67-2.7,1.67c-0.46,0-0.9-0.1-1.32-0.31L8.05,30.75c-1.48-0.73-2.1-2.53-1.37-4.02l0.71-1.45
			c0.5-1.02,1.56-1.67,2.7-1.67V23.11 M10.1,23.11c-1.29,0-2.54,0.72-3.15,1.95l-0.71,1.45c-0.85,1.73-0.13,3.84,1.59,4.69
			l11.39,5.61c0.49,0.24,1.02,0.36,1.54,0.36c1.29,0,2.54-0.72,3.15-1.95l0.71-1.45c0.85-1.73,0.13-3.84-1.59-4.69l-11.39-5.61
			C11.14,23.23,10.62,23.11,10.1,23.11L10.1,23.11z"/>
	</g>
	<g>
		<rect x="5.5" y="32.5" fill="#845340" width="53" height="10"/>
		<path fill="#663629" d="M58,33v9H6v-9H58 M59,32H5v11h54V32L59,32z"/>
	</g>
	<g>
		<linearGradient id="SVGID_2_" gradientUnits="userSpaceOnUse" x1="38" y1="24.75" x2="38" y2="46">
			<stop  offset="0" style="stop-color:#F6B501"/>
			<stop  offset="0.3311" style="stop-color:#F09C0A"/>
			<stop  offset="0.7476" style="stop-color:#E98314"/>
			<stop  offset="1" style="stop-color:#E77A17"/>
		</linearGradient>
		<path fill="url(#SVGID_2_)" d="M54.25,31H40.5c0,0-7.6-0.1-12.5-2.5c-4.9-2.4-10-3.75-10-3.75V31v11.25
			c0,2.07,1.68,3.75,3.75,3.75H53c2.76,0,5-2.24,5-5v-6.25C58,32.68,56.32,31,54.25,31z"/>
		<linearGradient id="SVGID_3_" gradientUnits="userSpaceOnUse" x1="18" y1="35.375" x2="58" y2="35.375">
			<stop  offset="0" style="stop-color:#CC9200"/>
			<stop  offset="0.5481" style="stop-color:#DE820F"/>
			<stop  offset="1" style="stop-color:#E77A17"/>
		</linearGradient>
		<path fill="url(#SVGID_3_)" d="M19,26.08c1.8,0.55,5.25,1.69,8.56,3.32C32.6,31.86,40.17,32,40.5,32h13.75
			c1.52,0,2.75,1.23,2.75,2.75V41c0,2.21-1.79,4-4,4H21.75C20.23,45,19,43.77,19,42.25V31V26.08 M18,24.75V31v11.25
			c0,2.07,1.68,3.75,3.75,3.75H53c2.76,0,5-2.24,5-5v-6.25c0-2.07-1.68-3.75-3.75-3.75H40.5c0,0-7.6-0.1-12.5-2.5
			C23.1,26.1,18,24.75,18,24.75L18,24.75z"/>
	</g>
	
		<linearGradient id="SVGID_4_" gradientUnits="userSpaceOnUse" x1="19.6626" y1="31.7166" x2="27.0472" y2="31.7166" gradientTransform="matrix(1.2374 0.212 -0.1689 0.9856 -0.2171 -4.8231)">
		<stop  offset="0" style="stop-color:#CC9200"/>
		<stop  offset="0.5481" style="stop-color:#DE820F"/>
		<stop  offset="1" style="stop-color:#E77A17"/>
	</linearGradient>
	<polygon opacity="0.6" fill="url(#SVGID_4_)" points="27.79,32.78 18.65,31.21 18.86,30 28,31.57 	"/>
	<g>
		<rect x="0.5" y="14.5" fill="#845340" width="5" height="35"/>
		<path fill="#663629" d="M5,15v34H1V15H5 M6,14H0v36h6V14L6,14z"/>
	</g>
</g>
</svg>
