<?xml version="1.0" encoding="utf-8"?>
<!-- Generator: Adobe Illustrator 18.1.1, SVG Export Plug-In . SVG Version: 6.00 Build 0)  -->
<svg version="1.1" id="Ebene_1" xmlns="http://www.w3.org/2000/svg" xmlns:xlink="http://www.w3.org/1999/xlink" x="0px" y="0px"
	 width="64px" height="64px" viewBox="0 0 64 64" enable-background="new 0 0 64 64" xml:space="preserve">
<ellipse fill="#FFFFFF" cx="32" cy="32" rx="21.5" ry="30"/>
<path fill="#0064C8" d="M32,64c14.21,0,24-6.64,24-32C56,6.64,46.21,0,32,0C17.8,0,8,6.64,8,32C8,57.36,17.79,64,32,64L32,64z"/>
<path fill="#FFFFFF" d="M46.6,42.94L35.66,32L46.6,21.06L30.03,4.48v21.85l-9.11-9.12l-3.32,3.31L29.04,32L17.6,43.47l3.32,3.32
	l9.11-9.12v21.85L46.6,42.94z M39.98,21.09l-5.29,5.29l0-10.58L39.98,21.09z M34.69,37.62l5.29,5.29l-5.29,5.29L34.69,37.62z"/>
</svg>
