<?xml version="1.0" encoding="utf-8"?>
<!-- Generator: Adobe Illustrator 18.1.1, SVG Export Plug-In . SVG Version: 6.00 Build 0)  -->
<svg version="1.1" id="Ebene_1" xmlns="http://www.w3.org/2000/svg" xmlns:xlink="http://www.w3.org/1999/xlink" x="0px" y="0px"
	 width="64px" height="64px" viewBox="0 0 64 64" enable-background="new 0 0 64 64" xml:space="preserve">
<g>
	<g>
		<rect x="4.5" y="6.5" fill="#8B96AC" width="55" height="57"/>
		<path fill="#676B72" d="M59,7v56H5V7H59 M60,6h-1H5H4v1v56v1h1h54h1v-1V7V6L60,6z"/>
	</g>
	<g>
		<linearGradient id="SVGID_1_" gradientUnits="userSpaceOnUse" x1="10.5" y1="38" x2="53.5" y2="38">
			<stop  offset="0" style="stop-color:#C9D0E4"/>
			<stop  offset="0.0139" style="stop-color:#C4CADD"/>
			<stop  offset="0.0797" style="stop-color:#B0B4C3"/>
			<stop  offset="0.1524" style="stop-color:#A0A2AF"/>
			<stop  offset="0.2346" style="stop-color:#9596A1"/>
			<stop  offset="0.3343" style="stop-color:#8E8E99"/>
			<stop  offset="0.5" style="stop-color:#8C8C96"/>
			<stop  offset="0.6327" style="stop-color:#8E8F99"/>
			<stop  offset="0.7393" style="stop-color:#9698A3"/>
			<stop  offset="0.8368" style="stop-color:#A4A6B4"/>
			<stop  offset="0.9283" style="stop-color:#B6BBCC"/>
			<stop  offset="1" style="stop-color:#C9D0E4"/>
		</linearGradient>
		<path fill="url(#SVGID_1_)" d="M10.5,59.5V16.96c6.55-0.3,14.14-0.46,21.99-0.46c7.43,0,14.68,0.14,21.01,0.41V59.5H10.5z"/>
		<path fill="#666E7F" d="M32.49,17c7.25,0,14.31,0.14,20.51,0.39V59H11V17.43C17.42,17.15,24.83,17,32.49,17 M32.49,16
			c-8.33,0-16.07,0.18-22.49,0.48V60h44V16.43C47.78,16.16,40.4,16,32.49,16L32.49,16z"/>
	</g>
	<g>
		<rect x="14.5" y="1.5" fill="#E8422E" width="35" height="11"/>
		<path fill="#CC2215" d="M49,2v10H15V2H49 M50,1h-1H15h-1v1v10v1h1h34h1v-1V2V1L50,1z"/>
	</g>
	<g>
		<rect x="17.5" y="41.5" fill="#737A8E" width="14" height="14"/>
		<g>
			<path fill="#3F434C" d="M31,42v13H18V42H31 M32,41H17v15h15V41L32,41z"/>
		</g>
	</g>
	<g>
		<rect x="18" y="48" fill="#4B5059" width="11" height="1"/>
	</g>
	<circle cx="26" cy="48.5" r="2"/>
	<g>
		<linearGradient id="SVGID_2_" gradientUnits="userSpaceOnUse" x1="15.8943" y1="30.223" x2="49.8127" y2="10.6401">
			<stop  offset="0" style="stop-color:#CCD3E7"/>
			<stop  offset="0.1314" style="stop-color:#BFC5D7"/>
			<stop  offset="0.5145" style="stop-color:#9EA1AF"/>
			<stop  offset="0.8172" style="stop-color:#8A8A95"/>
			<stop  offset="1" style="stop-color:#82828C"/>
		</linearGradient>
		<path fill="url(#SVGID_2_)" d="M32,32.78c-11.85,0-21.5-6.6-21.5-14.7c0-0.36,0.03-0.74,0.1-1.19c6.57-0.26,14.14-0.39,21.91-0.39
			c7.36,0,14.58,0.12,20.9,0.35c0.07,0.47,0.1,0.86,0.1,1.23C53.5,26.19,43.86,32.78,32,32.78z"/>
		<path fill="#666E7F" d="M32.5,17c7.2,0,14.25,0.12,20.45,0.34c0.03,0.27,0.04,0.51,0.04,0.74c0,7.83-9.42,14.2-21,14.2
			s-21-6.37-21-14.2c0-0.22,0.01-0.45,0.04-0.71C17.5,17.13,24.9,17,32.5,17 M32.5,16c-8.23,0-15.9,0.15-22.34,0.41
			c-0.09,0.55-0.17,1.1-0.17,1.67c0,8.4,9.85,15.2,22,15.2s22-6.81,22-15.2c0-0.58-0.07-1.15-0.17-1.71C47.6,16.13,40.31,16,32.5,16
			L32.5,16z"/>
	</g>
	<rect x="15" y="6" fill="#CC2215" width="34" height="1"/>
	<rect x="44" y="2" fill="#CC2215" width="1" height="4"/>
	<rect x="19" y="2" fill="#CC2215" width="1" height="4"/>
	<g id="layer1_1_" transform="translate(106.80193,-432.76044)">
		<path id="path137" fill="#FFFFFF" d="M-79.16,442.8v-1.34h-0.5v1.34H-79.16"/>
		<path id="path139" fill="#FFFFFF" d="M-79.16,442.8v-1.34h-0.5v1.34H-79.16z"/>
		<path id="path141" fill="#FFFFFF" d="M-73.43,441.46l-0.67,0l-0.21,0.55c-0.02,0.05-0.02,0.13-0.02,0.13s-0.01-0.09-0.02-0.13
			l-0.21-0.55l-0.67,0l0,1.34l0.43,0V442c0,0,0,0.05,0.02,0.09l0.3,0.71h0.29l0.3-0.72c0.02-0.04,0.02-0.09,0.02-0.09v0.81h0.43
			V441.46"/>
		<path id="path143" fill="#FFFFFF" d="M-73.43,441.46l-0.67,0l-0.21,0.55c-0.02,0.05-0.02,0.13-0.02,0.13s-0.01-0.09-0.02-0.13
			l-0.21-0.55l-0.67,0l0,1.34l0.43,0V442c0,0,0,0.05,0.02,0.09l0.3,0.71h0.29l0.3-0.72c0.02-0.04,0.02-0.09,0.02-0.09v0.81h0.43
			V441.46z"/>
		<path id="path145" fill="#FFFFFF" d="M-69.71,441.46h-0.47v0.74c0,0,0-0.05-0.03-0.08l-0.56-0.65h-0.5v1.34h0.5v-0.74
			c0,0,0,0.05,0.03,0.08l0.54,0.65l0.49,0V441.46"/>
		<path id="path147" fill="#FFFFFF" d="M-69.71,441.46h-0.47v0.74c0,0,0-0.05-0.03-0.08l-0.56-0.65h-0.5v1.34h0.5v-0.74
			c0,0,0,0.05,0.03,0.08l0.54,0.65l0.49,0V441.46z"/>
		<path id="path149" fill="#FFFFFF" d="M-71.42,442.8l-0.68-1.34h-0.53l-0.68,1.34h0.45l0,0h0.07l0.13-0.25l0.58,0l0.13,0.25h0.02v0
			h0.46l0,0H-71.42z M-72.53,442.21c0,0,0.12-0.24,0.14-0.28c0.02-0.04,0.02-0.09,0.02-0.09s0,0.05,0.02,0.09l0.14,0.28
			L-72.53,442.21"/>
		<path id="path151" fill="#FFFFFF" d="M-71.42,442.8l-0.68-1.34h-0.53l-0.68,1.34h0.45l0,0h0.07l0.13-0.25l0.58,0l0.13,0.25h0.02v0
			h0.46l0,0H-71.42z M-72.53,442.21c0,0,0.12-0.24,0.14-0.28c0.02-0.04,0.02-0.09,0.02-0.09s0,0.05,0.02,0.09l0.14,0.28
			L-72.53,442.21z"/>
		<path id="path153" fill="#FFFFFF" d="M-78.24,442.44l0-0.19h0.75v-0.3h-0.75v-0.17h0.91v-0.33l-1.38,0v1.34h1.42v-0.36
			L-78.24,442.44"/>
		<path id="path155" fill="#FFFFFF" d="M-78.24,442.44l0-0.19h0.75v-0.3h-0.75v-0.17h0.91v-0.33l-1.38,0v1.34h1.42v-0.36
			L-78.24,442.44z"/>
		<path id="path157" fill="#FFFFFF" d="M-81.88,441.46l0.72,1.34h0.58l0.71-1.34h-0.56l-0.4,0.82c-0.02,0.04-0.02,0.09-0.02,0.09
			s0-0.05-0.02-0.09l-0.4-0.81L-81.88,441.46"/>
		<path id="path159" fill="#FFFFFF" d="M-81.88,441.46l0.72,1.34h0.58l0.71-1.34h-0.56l-0.4,0.82c-0.02,0.04-0.02,0.09-0.02,0.09
			s0-0.05-0.02-0.09l-0.4-0.81L-81.88,441.46z"/>
		<path id="path161" fill="#FFFFFF" d="M-75.57,440.76l-1.1,0c0,0-0.43,0.01-0.43,0.44c0,0.44,0.43,0.43,0.43,0.43l0.65,0
			c0,0,0.09,0,0.09,0.09c0,0.08-0.09,0.08-0.09,0.08h-1.05v0.37l1.09,0c0,0,0.46,0.02,0.46-0.46c0-0.41-0.46-0.42-0.46-0.42h-0.62
			c0,0-0.1,0-0.1-0.08c0-0.08,0.1-0.08,0.1-0.08h1.03V440.76"/>
		<path id="path163" fill="#FFFFFF" d="M-75.57,440.76l-1.1,0c0,0-0.43,0.01-0.43,0.44c0,0.44,0.43,0.43,0.43,0.43l0.65,0
			c0,0,0.09,0,0.09,0.09c0,0.08-0.09,0.08-0.09,0.08h-1.05v0.37l1.09,0c0,0,0.46,0.02,0.46-0.46c0-0.41-0.46-0.42-0.46-0.42h-0.62
			c0,0-0.1,0-0.1-0.08c0-0.08,0.1-0.08,0.1-0.08h1.03V440.76z"/>
		<path id="path165" fill="#FFFFFF" d="M-67.73,441.46h-0.47v0.74c0,0,0-0.05-0.03-0.08l-0.56-0.65h-0.5v1.34h0.5v-0.74
			c0,0,0,0.05,0.03,0.08l0.54,0.65l0.49,0V441.46"/>
		<path id="path167" fill="#FFFFFF" d="M-67.73,441.46h-0.47v0.74c0,0,0-0.05-0.03-0.08l-0.56-0.65h-0.5v1.34h0.5v-0.74
			c0,0,0,0.05,0.03,0.08l0.54,0.65l0.49,0V441.46z"/>
		<path id="path169" fill="#FFFFFF" d="M-75.57,442.36l-1.1,0c0,0-0.43,0.01-0.43,0.44c0,0.44,0.43,0.43,0.43,0.43l0.65,0
			c0,0,0.09,0,0.09,0.09c0,0.08-0.09,0.08-0.09,0.08h-1.05v0.37h1.09c0,0,0.46,0.02,0.46-0.46c0-0.41-0.46-0.42-0.46-0.42l-0.62,0
			c0,0-0.1,0-0.1-0.08c0-0.08,0.1-0.08,0.1-0.08l1.03,0V442.36"/>
		<path id="path171" fill="#FFFFFF" d="M-75.57,442.36l-1.1,0c0,0-0.43,0.01-0.43,0.44c0,0.44,0.43,0.43,0.43,0.43l0.65,0
			c0,0,0.09,0,0.09,0.09c0,0.08-0.09,0.08-0.09,0.08h-1.05v0.37h1.09c0,0,0.46,0.02,0.46-0.46c0-0.41-0.46-0.42-0.46-0.42l-0.62,0
			c0,0-0.1,0-0.1-0.08c0-0.08,0.1-0.08,0.1-0.08l1.03,0V442.36z"/>
	</g>
</g>
</svg>
