<?xml version="1.0" encoding="utf-8"?>
<!-- Generator: Adobe Illustrator 18.1.1, SVG Export Plug-In . SVG Version: 6.00 Build 0)  -->
<svg version="1.1" id="Ebene_1" xmlns="http://www.w3.org/2000/svg" xmlns:xlink="http://www.w3.org/1999/xlink" x="0px" y="0px"
	 width="64px" height="64px" viewBox="0 0 64 64" enable-background="new 0 0 64 64" xml:space="preserve">
<path fill="#527ECC" d="M24,37v22h7V44c0-0.6,0.5-1,1-1s1,0.4,1,1l0,15h7V37H24z"/>
<g>
	<path fill="#3C201D" d="M43,40.5c-0.8,0-1.5-0.7-1.5-1.5v-3.5h3V39C44.5,39.8,43.8,40.5,43,40.5z"/>
	<g>
		<path fill="#1E0E0E" d="M44,36v3c0,0.6-0.4,1-1,1s-1-0.4-1-1v-3H44 M45,35h-4v4c0,1.1,0.9,2,2,2s2-0.9,2-2V35L45,35z"/>
	</g>
</g>
<path d="M27.5,64L27.5,64c-1.9,0-3.5-1.6-3.5-3.5V59h7v1.5C31,62.4,29.5,64,27.5,64z"/>
<path d="M36.5,64L36.5,64c-1.9,0-3.5-1.6-3.5-3.5V59h7v1.5C40,62.4,38.5,64,36.5,64z"/>
<g>
	<path fill="#3C201D" d="M21,40.5c-0.8,0-1.5-0.7-1.5-1.5v-3.5h3V39C22.5,39.8,21.9,40.5,21,40.5z"/>
	<g>
		<path fill="#1E0E0E" d="M22,36v3c0,0.6-0.4,1-1,1c-0.6,0-1-0.4-1-1v-3H22 M23,35h-4v4c0,1.1,0.9,2,2,2s2-0.9,2-2V35L23,35z"/>
	</g>
</g>
<path fill="#000C51" d="M35.8,17h-7.5c-5.1,0-9.2,4.1-9.2,9.2v0.6c0,0.1-0.1,0.3-0.1,0.4V37h4v-5.4v-3.8c0-1.2,0.4-2.2,1-3.1V37h16
	V24.6c0.5,0.7,0.9,1.6,1,2.5c0,0.1,0,0.1,0,0.1V37h4v-9.2v-0.6v-1.1C45,21.1,40.9,17,35.8,17z"/>
<ellipse fill="#FFFFFF" cx="32" cy="17" rx="3.5" ry="2"/>
<g>
	<path fill="#3C201D" d="M32,16.5c-4.1,0-7.5-3.4-7.5-7.5s3.4-7.5,7.5-7.5s7.5,3.4,7.5,7.5S36.2,16.5,32,16.5z"/>
	<g>
		<path fill="#1E0E0E" d="M32,2c3.9,0,7,3.1,7,7s-3.1,7-7,7s-7-3.1-7-7S28.2,2,32,2 M32,1c-4.4,0-8,3.6-8,8c0,4.4,3.6,8,8,8
			s8-3.6,8-8C40,4.6,36.4,1,32,1L32,1z"/>
	</g>
</g>
<g>
	<path d="M40,9c0-4.4-3.6-8-8-8s-8,3.6-8,8c0,1,0.2,1.9,0.5,2.8c0.1-1.1,0.4-1.9,0.4-1.9c-0.1,1.6,1.3,2.3,1.3,2.3
		c0-2,4.4-4.2,7-6.1s1.9-3,1.9-3c0.7,0.1,1.7,0.9,1.9,1.1s1.4,1.9,1.8,3.1c0.2,0.7,0.6,3,0.5,4.7C39.8,11.1,40,10.1,40,9z"/>
</g>
<rect x="27.7" y="17.3" transform="matrix(0.7771 0.6293 -0.6293 0.7771 17.9915 -14.6954)" fill="#FFFFFF" width="4" height="1.5"/>
<rect x="32.4" y="17.3" transform="matrix(0.7771 -0.6293 0.6293 0.7771 -3.7067 25.6436)" fill="#FFFFFF" width="4" height="1.5"/>
</svg>
