<?xml version="1.0" encoding="utf-8"?>
<!-- Generator: Adobe Illustrator 18.1.1, SVG Export Plug-In . SVG Version: 6.00 Build 0)  -->
<svg version="1.1" id="Ebene_1" xmlns="http://www.w3.org/2000/svg" xmlns:xlink="http://www.w3.org/1999/xlink" x="0px" y="0px"
	 width="64px" height="64px" viewBox="0 0 64 64" enable-background="new 0 0 64 64" xml:space="preserve">
<g>
	<rect x="2.5" y="3.5" fill="#FFFFFF" width="59" height="57"/>
	<path fill="#7F7F7F" d="M61,4v56H3V4H61 M62,3H2v58h60V3L62,3z"/>
</g>
<g>
	<rect x="2.5" y="3.5" fill="#DC0000" width="59" height="13"/>
	<path fill="#990000" d="M61,4v12H3V4H61 M62,3H2v14h60V3L62,3z"/>
</g>
<g>
	<rect x="37" y="20" fill="#C8C8C8" width="6" height="6"/>
	<rect x="45" y="20" fill="#C8C8C8" width="6" height="6"/>
	<rect x="53" y="20" fill="#C8C8C8" width="6" height="6"/>
	<rect x="5" y="28" fill="#C8C8C8" width="6" height="6"/>
	<rect x="13" y="28" fill="#C8C8C8" width="6" height="6"/>
	<rect x="21" y="28" fill="#C8C8C8" width="6" height="6"/>
	<rect x="29" y="28" fill="#C8C8C8" width="6" height="6"/>
	<rect x="37" y="28" fill="#C8C8C8" width="6" height="6"/>
	<rect x="45" y="28" fill="#C8C8C8" width="6" height="6"/>
	<rect x="53" y="28" fill="#C8C8C8" width="6" height="6"/>
	<rect x="5" y="36" fill="#C8C8C8" width="6" height="6"/>
	<rect x="13" y="36" fill="#C8C8C8" width="6" height="6"/>
	<rect x="21" y="36" fill="#C8C8C8" width="6" height="6"/>
	<rect x="29" y="36" fill="#C8C8C8" width="6" height="6"/>
	<rect x="37" y="36" fill="#C8C8C8" width="6" height="6"/>
	<rect x="45" y="36" fill="#C8C8C8" width="6" height="6"/>
	<rect x="53" y="36" fill="#C8C8C8" width="6" height="6"/>
	<rect x="5" y="44" fill="#C8C8C8" width="6" height="6"/>
	<rect x="13" y="44" fill="#C8C8C8" width="6" height="6"/>
	<rect x="21" y="44" fill="#C8C8C8" width="6" height="6"/>
	<rect x="29" y="44" fill="#C8C8C8" width="6" height="6"/>
	<rect x="37" y="44" fill="#C8C8C8" width="6" height="6"/>
	<rect x="45" y="44" fill="#C8C8C8" width="6" height="6"/>
	<rect x="53" y="44" fill="#C8C8C8" width="6" height="6"/>
	<rect x="5" y="52" fill="#C8C8C8" width="6" height="6"/>
	<rect x="13" y="52" fill="#C8C8C8" width="6" height="6"/>
	<rect x="21" y="52" fill="#C8C8C8" width="6" height="6"/>
	<rect x="29" y="52" fill="#C8C8C8" width="6" height="6"/>
	<rect x="37" y="52" fill="#C8C8C8" width="6" height="6"/>
	<rect x="45" y="52" fill="#C8C8C8" width="6" height="6"/>
</g>
<rect x="3" y="17" fill="#E6E6E6" width="58" height="1"/>
</svg>
