<?xml version="1.0" encoding="utf-8"?>
<!-- Generator: Adobe Illustrator 18.1.1, SVG Export Plug-In . SVG Version: 6.00 Build 0)  -->
<svg version="1.1" id="Ebene_1" xmlns="http://www.w3.org/2000/svg" xmlns:xlink="http://www.w3.org/1999/xlink" x="0px" y="0px"
	 width="64px" height="64px" viewBox="0 0 64 64" enable-background="new 0 0 64 64" xml:space="preserve">
<g>
	<path fill="#EFE918" d="M32,27.64c-14.35,0-23.5-2.06-23.5-3.48s9.15-3.48,23.5-3.48s23.5,2.06,23.5,3.48S46.35,27.64,32,27.64z"/>
	<g>
		<path fill="#BFBFBF" d="M32,21.17c14.31,0,21.88,1.91,22.93,2.98c-1.06,1.07-8.62,2.98-22.93,2.98s-21.88-1.91-22.93-2.98
			C10.12,23.08,17.69,21.17,32,21.17 M32,20.17c-13.25,0-24,1.78-24,3.98s10.75,3.98,24,3.98c13.25,0,24-1.78,24-3.98
			S45.25,20.17,32,20.17L32,20.17z"/>
	</g>
</g>
<g>
	<path fill="#FCE857" d="M25.61,16.94c-1.09,0-1.98-0.88-1.98-1.97c0-0.29,0.07-0.59,0.21-0.87l0.22-0.44l-0.48,0.08
		c-0.05,0.01-0.1,0.01-0.16,0.02l-0.09,0.01l-0.12,0.07c-0.33,0.33-0.76,0.51-1.22,0.51c-0.94,0-1.7-0.76-1.7-1.69
		c0-0.23,0.05-0.45,0.13-0.66l0.04-0.08l-0.03-0.09c-0.1-0.31-0.14-0.57-0.14-0.83c0-1.55,1.26-2.81,2.82-2.81
		c0.39,0,0.76,0.08,1.12,0.23l0.24,0.1l0.09-0.24c0.4-1.07,1.4-1.76,2.54-1.76c1.5,0,2.72,1.22,2.72,2.71c0,0.4-0.1,0.8-0.29,1.19
		l-0.09,0.18l0.16,0.12c0.61,0.47,0.96,1.17,0.96,1.93c0,1.34-1.1,2.43-2.45,2.43c-0.07,0-0.14-0.01-0.2-0.02l-0.24-0.03l-0.11,0.23
		C27.41,16.24,26.59,16.94,25.61,16.94z"/>
	<path fill="#F4D731" d="M27.1,6.76c1.36,0,2.47,1.1,2.47,2.46c0,0.36-0.09,0.73-0.26,1.08l-0.18,0.37l0.33,0.25
		c0.55,0.42,0.87,1.05,0.87,1.73c0,1.2-0.99,2.18-2.2,2.18c-0.05,0-0.11-0.01-0.16-0.02l-0.1-0.01l-0.48-0.06l-0.07,0.47
		c-0.13,0.84-0.85,1.46-1.71,1.46c-0.96,0-1.73-0.77-1.73-1.72c0-0.25,0.06-0.51,0.19-0.76l0.44-0.88l-0.97,0.17
		c-0.04,0.01-0.08,0.01-0.12,0.01l-0.07,0.01l-0.18,0.02l-0.13,0.13c-0.28,0.28-0.65,0.44-1.04,0.44c-0.8,0-1.45-0.65-1.45-1.44
		c0-0.2,0.04-0.39,0.11-0.56l0.07-0.17l-0.06-0.18c-0.09-0.28-0.13-0.52-0.13-0.76c0-1.41,1.15-2.56,2.57-2.56
		c0.35,0,0.7,0.07,1.02,0.21l0.48,0.21l0.19-0.49C25.15,7.39,26.06,6.76,27.1,6.76 M27.1,6.26c-1.27,0-2.35,0.8-2.78,1.92
		c-0.37-0.16-0.79-0.25-1.22-0.25c-1.69,0-3.07,1.37-3.07,3.06c0,0.32,0.06,0.62,0.15,0.91c-0.1,0.23-0.15,0.49-0.15,0.76
		c0,1.07,0.87,1.94,1.95,1.94c0.55,0,1.04-0.23,1.4-0.59c0.08-0.01,0.16-0.01,0.24-0.02c-0.15,0.3-0.24,0.63-0.24,0.98
		c0,1.23,1,2.22,2.23,2.22c1.11,0,2.03-0.82,2.2-1.88c0.1,0.01,0.2,0.03,0.31,0.03c1.49,0,2.7-1.2,2.7-2.68
		c0-0.87-0.42-1.63-1.06-2.12c0.2-0.4,0.32-0.83,0.32-1.3C30.07,7.59,28.74,6.26,27.1,6.26L27.1,6.26z"/>
</g>
<g>
	<path fill="#F8EEC9" d="M34.91,28.88c-1.42,0-2.73-0.72-3.49-1.94l-0.17-0.27l-0.22,0.23c-0.65,0.68-1.52,1.05-2.45,1.05
		c-1.86,0-3.37-1.51-3.37-3.36c0-1.85,1.51-3.36,3.37-3.36c0.98,0,1.92,0.44,2.57,1.21l0.21,0.25l0.19-0.26
		c0.78-1.09,2.03-1.74,3.36-1.74c2.27,0,4.12,1.84,4.12,4.1C39.03,27.04,37.18,28.88,34.91,28.88z"/>
	<path fill="#EDDCA6" d="M34.91,20.93c2.13,0,3.87,1.73,3.87,3.85c0,2.12-1.73,3.85-3.87,3.85c-1.34,0-2.56-0.68-3.28-1.82
		l-0.34-0.54l-0.44,0.46c-0.6,0.63-1.4,0.97-2.26,0.97c-1.72,0-3.12-1.4-3.12-3.11s1.4-3.11,3.12-3.11c0.91,0,1.78,0.41,2.38,1.12
		l0.42,0.49l0.37-0.52C32.48,21.54,33.66,20.93,34.91,20.93 M34.91,20.43c-1.48,0-2.78,0.73-3.57,1.85
		c-0.67-0.78-1.65-1.29-2.76-1.29c-2,0-3.62,1.62-3.62,3.61c0,2,1.62,3.61,3.62,3.61c1.04,0,1.97-0.44,2.63-1.13
		c0.77,1.23,2.13,2.06,3.7,2.06c2.41,0,4.37-1.95,4.37-4.35C39.28,22.38,37.32,20.43,34.91,20.43L34.91,20.43z"/>
</g>
<g>
	<path fill="#F9ECB0" d="M33.98,16.94c-0.82,0-1.56-0.46-1.93-1.19l-0.08-0.15l-0.31,0.03c-0.06,0.01-0.13,0.02-0.2,0.02
		c-2.07,0-3.75-1.67-3.75-3.73s1.68-3.73,3.75-3.73c0.05,0,0.1,0.01,0.15,0.01l0.42,0.04l-0.02-0.29C32,7.81,32,7.78,32,7.74
		c0-1.29,1.06-2.34,2.35-2.34s2.35,1.05,2.35,2.34c0,0.4-0.11,0.78-0.32,1.15l-0.33,0.58l0.63-0.22c0.29-0.1,0.56-0.15,0.83-0.15
		c1.4,0,2.54,1.13,2.54,2.53c0,0.97-0.55,1.84-1.44,2.26l-0.11,0.05l-0.03,0.12c-0.32,1.36-1.52,2.31-2.92,2.31l-0.1-0.01
		l-0.11,0.06C34.95,16.76,34.48,16.94,33.98,16.94z"/>
	<path fill="#EFDC8F" d="M34.35,5.65c1.16,0,2.1,0.94,2.1,2.09c0,0.35-0.1,0.7-0.28,1.03l-0.66,1.15l1.26-0.43
		c0.27-0.09,0.51-0.14,0.75-0.14c1.26,0,2.29,1.02,2.29,2.28c0,0.87-0.5,1.65-1.3,2.04l-0.22,0.1l-0.05,0.23
		c-0.29,1.25-1.39,2.12-2.63,2.12l-0.05-0.01l-0.03,0l-0.18,0l-0.14,0.12c-0.35,0.29-0.77,0.45-1.21,0.45
		c-0.72,0-1.38-0.41-1.71-1.06l-0.15-0.3l-0.34,0.03c-0.05,0-0.1,0.01-0.15,0.02c-0.05,0.01-0.11,0.02-0.16,0.02
		c-1.93,0-3.5-1.56-3.5-3.48c0-1.92,1.57-3.48,3.5-3.48c0.04,0,0.08,0.01,0.11,0.01c0.05,0.01,0.1,0.01,0.15,0.02l0.59,0.04
		l-0.05-0.58c0-0.04-0.01-0.07-0.01-0.11c0-0.02-0.01-0.04-0.01-0.07C32.24,6.59,33.19,5.65,34.35,5.65 M34.35,5.15
		c-1.44,0-2.6,1.16-2.6,2.59c0,0.07,0.02,0.14,0.02,0.22c-0.1-0.01-0.2-0.03-0.3-0.03c-2.21,0-4,1.78-4,3.98c0,2.2,1.79,3.98,4,3.98
		c0.12,0,0.24-0.03,0.36-0.04c0.4,0.79,1.21,1.33,2.15,1.33c0.59,0,1.12-0.22,1.53-0.56c0.02,0,0.03,0,0.05,0
		c1.55,0,2.83-1.07,3.16-2.51c0.93-0.45,1.58-1.39,1.58-2.49c0-1.53-1.25-2.78-2.79-2.78c-0.32,0-0.62,0.06-0.91,0.16
		c0.22-0.38,0.35-0.81,0.35-1.28C36.95,6.31,35.79,5.15,34.35,5.15L34.35,5.15z"/>
</g>
<g>
	<path fill="#FCE857" d="M32.77,25.46c-1.15,0-2.17-0.7-2.6-1.79l-0.09-0.23l-0.23,0.09c-0.29,0.11-0.59,0.17-0.88,0.17
		c-0.67,0-1.29-0.27-1.76-0.75c-1.65-0.85-2.64-2.43-2.64-4.19c0-2.57,2.1-4.66,4.67-4.66c0.46,0,0.93,0.08,1.46,0.25l0.16,0.05
		l0.11-0.13c0.38-0.46,0.94-0.73,1.53-0.73c1.09,0,1.98,0.88,1.98,1.97c0,0.28-0.06,0.56-0.19,0.83l-0.17,0.37l0.4-0.01l0.12-0.01
		c1.96,0,3.56,1.59,3.56,3.55c0,1.62-1.11,3.03-2.7,3.43l-0.12,0.03l-0.05,0.11C34.87,24.81,33.86,25.46,32.77,25.46z"/>
	<path fill="#F4D731" d="M32.49,13.8c0.95,0,1.73,0.77,1.73,1.72c0,0.24-0.06,0.49-0.17,0.73l-0.35,0.74l0.82-0.03
		c0.04,0,0.08-0.01,0.11-0.01c1.83,0,3.31,1.48,3.31,3.3c0,1.51-1.03,2.81-2.51,3.18l-0.23,0.06l-0.1,0.22
		c-0.42,0.91-1.33,1.5-2.33,1.5c-1.05,0-1.98-0.64-2.37-1.63l-0.18-0.46l-0.46,0.18c-0.26,0.1-0.53,0.15-0.79,0.15
		c-0.6,0-1.16-0.24-1.58-0.67l-0.06-0.06l-0.08-0.04c-1.5-0.76-2.43-2.26-2.43-3.91c0-2.43,1.98-4.41,4.42-4.41
		c0.43,0,0.88,0.08,1.38,0.24l0.32,0.11l0.22-0.26C31.49,14.03,31.97,13.8,32.49,13.8 M32.49,13.3c-0.7,0-1.31,0.32-1.72,0.82
		c-0.49-0.16-1-0.27-1.53-0.27h0c-2.72,0-4.92,2.2-4.92,4.91c0,1.91,1.11,3.55,2.71,4.36c0.49,0.51,1.17,0.83,1.94,0.83
		c0.34,0,0.67-0.07,0.97-0.19c0.45,1.13,1.54,1.94,2.84,1.94c1.24,0,2.3-0.74,2.79-1.79c1.65-0.41,2.89-1.9,2.89-3.67
		c0-2.1-1.71-3.8-3.81-3.8c-0.04,0-0.08,0.01-0.12,0.01c0.13-0.29,0.22-0.6,0.22-0.94C34.72,14.29,33.72,13.3,32.49,13.3L32.49,13.3
		z"/>
</g>
<g>
	<path fill="#E8D877" d="M20.38,25.32c-1.04,0-2.02-0.41-2.74-1.15c-0.72-0.73-1.11-1.7-1.1-2.72c0.01-1.02,0.42-1.98,1.15-2.7
		c0.39-0.38,0.87-0.67,1.42-0.86l0.26-0.09l-0.11-0.25c-0.6-1.32-0.3-2.88,0.73-3.88c0.65-0.64,1.51-0.99,2.43-0.99
		c0.94,0,1.82,0.37,2.48,1.04c0.53,0.54,0.86,1.24,0.95,2.03l0.03,0.27l0.27-0.05c0.08-0.02,0.16-0.02,0.23-0.02
		c0.2,0,0.49,0.05,0.72,0.29c0.33,0.34,0.38,0.86,0.12,1.27l-0.17,0.27l0.31,0.1c0.56,0.18,1.05,0.47,1.43,0.86
		c0.65,0.66,1,1.53,0.99,2.45c-0.01,0.92-0.38,1.79-1.04,2.43c-0.65,0.63-1.51,0.98-2.42,0.98l0,0c-0.9,0-1.76-0.34-2.41-0.97
		l-0.21-0.2l-0.17,0.24c-0.15,0.21-0.3,0.39-0.46,0.54C22.35,24.93,21.39,25.32,20.38,25.32z"/>
	<path fill="#D6C056" d="M22.41,12.94c0.87,0,1.69,0.34,2.3,0.96c0.49,0.5,0.8,1.15,0.88,1.88l0.06,0.54l0.53-0.11
		c0.06-0.01,0.12-0.02,0.19-0.02c0.15,0,0.37,0.04,0.55,0.22c0.25,0.26,0.29,0.64,0.08,0.96l-0.35,0.55l0.62,0.2
		c0.52,0.17,0.97,0.43,1.33,0.8c0.6,0.61,0.93,1.42,0.92,2.27c-0.01,0.86-0.35,1.66-0.97,2.26c-0.6,0.59-1.4,0.91-2.24,0.91
		c-0.84,0-1.63-0.32-2.24-0.9l-0.42-0.4l-0.34,0.48c-0.14,0.2-0.28,0.37-0.43,0.51c-0.68,0.66-1.57,1.02-2.52,1.02
		c-0.97,0-1.89-0.38-2.57-1.07c-0.67-0.68-1.03-1.59-1.02-2.54c0.01-0.95,0.39-1.85,1.08-2.52c0.37-0.36,0.81-0.63,1.33-0.81
		l0.52-0.18l-0.23-0.5c-0.55-1.22-0.28-2.67,0.67-3.59C20.77,13.27,21.57,12.94,22.41,12.94 M22.41,12.44
		c-0.94,0-1.88,0.35-2.6,1.06c-1.15,1.11-1.4,2.78-0.78,4.16c-0.55,0.19-1.07,0.49-1.51,0.92c-1.61,1.58-1.64,4.15-0.06,5.77
		c0.8,0.81,1.86,1.22,2.92,1.22c1.03,0,2.07-0.39,2.86-1.16c0.18-0.18,0.34-0.38,0.49-0.58c0.72,0.69,1.65,1.04,2.58,1.04
		c0.93,0,1.87-0.35,2.59-1.05c1.47-1.43,1.5-3.78,0.06-5.24c-0.44-0.45-0.97-0.75-1.53-0.92c0.31-0.49,0.28-1.15-0.15-1.58
		c-0.25-0.25-0.57-0.37-0.9-0.37c-0.1,0-0.19,0.01-0.28,0.03c-0.09-0.79-0.42-1.56-1.02-2.17C24.34,12.81,23.38,12.44,22.41,12.44
		L22.41,12.44z"/>
</g>
<g>
	<path fill="#F9ECB0" d="M40.02,30.83c-1.2,0-2.21-0.86-2.41-2.05l-0.02-0.11l-0.09-0.06c-1-0.64-1.6-1.73-1.6-2.9
		c0-1.79,1.41-3.29,3.2-3.43l0.15-0.01l0.06-0.14c0.47-1.05,1.51-1.73,2.66-1.73c1.6,0,2.91,1.3,2.91,2.9
		c0,0.53-0.15,1.06-0.44,1.52l-0.16,0.26l0.28,0.11c0.87,0.34,1.44,1.16,1.44,2.09c0,1.24-1.01,2.25-2.26,2.25
		c-0.39,0-0.76-0.1-1.12-0.31l-0.24-0.14l-0.11,0.26C41.89,30.24,41,30.83,40.02,30.83z"/>
	<path fill="#EFDC8F" d="M41.98,20.65c1.47,0,2.66,1.19,2.66,2.65c0,0.48-0.14,0.96-0.41,1.39l-0.32,0.51l0.56,0.22
		c0.78,0.3,1.28,1.03,1.28,1.86c0,1.1-0.9,2-2.01,2c-0.34,0-0.68-0.09-0.99-0.27l-0.49-0.28l-0.22,0.51
		c-0.35,0.81-1.14,1.33-2.02,1.33c-1.08,0-1.99-0.77-2.16-1.84l-0.04-0.22l-0.19-0.12c-0.93-0.6-1.48-1.6-1.48-2.69
		c0-1.66,1.31-3.05,2.97-3.18l0.3-0.02l0.12-0.27C39.97,21.27,40.93,20.65,41.98,20.65 M41.98,20.15c-1.29,0-2.4,0.78-2.89,1.88
		c-1.92,0.15-3.43,1.73-3.43,3.68c0,1.31,0.69,2.45,1.71,3.11c0.21,1.28,1.31,2.26,2.65,2.26c1.11,0,2.07-0.67,2.48-1.63
		c0.37,0.21,0.79,0.34,1.24,0.34c1.38,0,2.51-1.12,2.51-2.5c0-1.06-0.66-1.96-1.6-2.32c0.3-0.48,0.48-1.05,0.48-1.65
		C45.14,21.56,43.72,20.15,41.98,20.15L41.98,20.15z"/>
</g>
<g>
	<path fill="#E8D877" d="M37.14,22.49c-2.02,0-3.65-1.63-3.65-3.64c0-1.12,0.52-2.16,1.42-2.86l0.11-0.09L35,15.77
		c-0.02-0.13-0.03-0.19-0.03-0.25c0-0.94,0.67-1.75,1.59-1.93l0.15-0.03l0.04-0.15c0.33-1.23,1.45-2.08,2.71-2.08
		c1.55,0,2.82,1.26,2.82,2.8c0,0.39-0.08,0.77-0.24,1.13l-0.1,0.23l0.23,0.1c0.86,0.37,1.42,1.22,1.42,2.15
		c0,1.29-1.05,2.34-2.35,2.34c-0.15,0-0.29-0.02-0.43-0.04l-0.2-0.04l-0.08,0.19C39.97,21.59,38.64,22.49,37.14,22.49z"/>
	<path fill="#D6C056" d="M39.46,11.58L39.46,11.58c1.42,0,2.57,1.15,2.57,2.55c0,0.35-0.07,0.7-0.22,1.03l-0.21,0.46l0.46,0.2
		c0.77,0.33,1.27,1.09,1.27,1.92c0,1.15-0.94,2.09-2.1,2.09c-0.11,0-0.23-0.01-0.38-0.04l-0.4-0.07L40.3,20.1
		c-0.52,1.3-1.76,2.14-3.16,2.14c-1.88,0-3.4-1.52-3.4-3.39c0-1.04,0.48-2.01,1.32-2.66l0.23-0.18l-0.04-0.28l-0.01-0.07
		c-0.01-0.05-0.02-0.1-0.02-0.15c0-0.82,0.58-1.53,1.39-1.69l0.3-0.06l0.08-0.3C37.29,12.36,38.31,11.58,39.46,11.58 M39.46,11.08
		c-1.42,0-2.6,0.96-2.95,2.27c-1.02,0.2-1.79,1.1-1.79,2.18c0,0.1,0.02,0.19,0.03,0.28c-0.92,0.71-1.52,1.81-1.52,3.05
		c0,2.15,1.75,3.89,3.9,3.89c1.65,0,3.05-1.02,3.62-2.45c0.15,0.03,0.31,0.05,0.47,0.05c1.43,0,2.6-1.16,2.6-2.59
		c0-1.07-0.65-1.98-1.57-2.38c0.17-0.38,0.27-0.79,0.27-1.24C42.53,12.45,41.16,11.08,39.46,11.08L39.46,11.08z"/>
</g>
<g>
	<path fill="#F9ECB0" d="M47.55,22.31c-0.99,0-1.94-0.38-2.68-1.06l-0.1-0.09l-0.13,0.03c-0.33,0.08-0.64,0.12-0.92,0.12
		c-2.21,0-4.01-1.79-4.01-3.99c0-1.14,0.51-2.24,1.39-3l0.17-0.15l-0.13-0.18c-0.28-0.4-0.43-0.86-0.43-1.34
		c0-1.29,1.05-2.34,2.35-2.34c1,0,1.89,0.64,2.22,1.59l0.07,0.2l0.2-0.03c0.14-0.02,0.23-0.03,0.33-0.03c1.26,0,2.28,1.01,2.28,2.26
		v0.2l0.2,0.06c1.81,0.38,3.12,1.99,3.12,3.83C51.48,20.55,49.72,22.31,47.55,22.31z"/>
	<path fill="#EFDC8F" d="M43.07,10.55c0.9,0,1.69,0.57,1.98,1.42l0.17,0.39l0.41-0.06c0.08-0.01,0.17-0.03,0.26-0.03
		c1.11,0,2.01,0.89,2.03,1.98l0,0.01l0,0.04l0,0.41l0.4,0.08c1.69,0.35,2.92,1.86,2.92,3.59c0,2.02-1.65,3.67-3.68,3.67
		c-0.93,0-1.82-0.35-2.51-1l-0.2-0.18l-0.26,0.06c-0.31,0.07-0.6,0.11-0.86,0.11c-2.07,0-3.76-1.68-3.76-3.74
		c0-1.07,0.48-2.09,1.31-2.81l0.34-0.3l-0.26-0.37c-0.25-0.35-0.38-0.77-0.38-1.19C40.97,11.49,41.91,10.55,43.07,10.55
		 M43.07,10.05c-1.43,0-2.6,1.16-2.6,2.59c0,0.55,0.18,1.06,0.47,1.48c-0.9,0.78-1.48,1.91-1.48,3.19c0,2.34,1.9,4.24,4.26,4.24
		c0.34,0,0.66-0.05,0.98-0.12c0.75,0.7,1.74,1.13,2.85,1.13c2.31,0,4.18-1.87,4.18-4.17c0-2.01-1.42-3.68-3.32-4.08
		c0-0.01,0-0.01,0-0.02c0-1.39-1.13-2.51-2.53-2.51c-0.12,0-0.24,0.02-0.36,0.04C45.18,10.79,44.22,10.05,43.07,10.05L43.07,10.05z"
		/>
</g>
<g>
	<path fill="#F9ECB0" d="M19.75,35.37c-2.74,0-4.99-2.14-5.12-4.87l-0.01-0.14l-0.12-0.07c-1.2-0.64-1.94-1.86-1.94-3.19
		c0-2.01,1.64-3.64,3.66-3.64c0.28,0,0.56,0.04,0.9,0.13l0.27,0.07l0.04-0.28c0.15-1.11,1.11-1.96,2.23-1.96
		c1.22,0,2.23,0.99,2.25,2.21l0,0.27l0.42-0.05c0.1-0.01,0.19-0.03,0.29-0.03c2.37,0,4.3,1.92,4.3,4.28c0,1.56-0.87,2.99-2.26,3.75
		l-0.08,0.04l-0.03,0.09C23.82,34.01,21.89,35.37,19.75,35.37z"/>
	<path fill="#EFDC8F" d="M19.66,21.67c1.09,0,1.99,0.88,2.01,1.97l0.01,0.54l0.54-0.06c0.06-0.01,0.11-0.01,0.17-0.02
		c0.08-0.01,0.17-0.02,0.25-0.02c2.24,0,4.05,1.81,4.05,4.03c0,1.46-0.82,2.82-2.13,3.53l-0.17,0.09l-0.07,0.18
		c-0.71,1.92-2.55,3.21-4.58,3.21c-2.6,0-4.74-2.04-4.87-4.63l-0.01-0.28l-0.25-0.13c-1.11-0.59-1.81-1.73-1.81-2.97
		c0-1.87,1.53-3.39,3.41-3.39c0.26,0,0.52,0.04,0.84,0.12l0.54,0.14l0.07-0.56C17.81,22.42,18.66,21.67,19.66,21.67 M19.66,21.17
		c-1.27,0-2.31,0.95-2.48,2.17c-0.31-0.08-0.63-0.13-0.96-0.13c-2.16,0-3.91,1.74-3.91,3.89c0,1.48,0.84,2.76,2.07,3.41
		c0.14,2.84,2.48,5.11,5.37,5.11c2.32,0,4.29-1.48,5.05-3.54c1.42-0.77,2.39-2.25,2.39-3.97c0-2.5-2.04-4.53-4.55-4.53
		c-0.16,0-0.31,0.03-0.47,0.05C22.14,22.27,21.03,21.17,19.66,21.17L19.66,21.17z"/>
</g>
<g>
	<path fill="#F9ECB0" d="M16.4,21.01c-2.5,0-4.58-1.95-4.74-4.45l-0.01-0.2l-0.19-0.03c-1.3-0.23-2.24-1.35-2.24-2.66
		c0-1.5,1.22-2.71,2.73-2.71l0.19,0.02l0.24,0.02l0.02-0.24c0.12-1.15,1.08-2.02,2.24-2.02c0.78,0,1.5,0.4,1.92,1.07l0.1,0.16
		l0.18-0.06c0.11-0.03,0.21-0.07,0.31-0.07c0.58,0,1.05,0.47,1.05,1.05c0,0.19-0.07,0.38-0.2,0.58l-0.18,0.26l0.3,0.11
		c1.86,0.71,3.06,2.45,3.06,4.42C21.17,18.88,19.03,21.01,16.4,21.01z"/>
	<path fill="#EFDC8F" d="M14.64,8.99c0.7,0,1.33,0.36,1.7,0.95l0.2,0.33l0.37-0.11c0.09-0.03,0.17-0.05,0.23-0.05
		c0.44,0,0.8,0.36,0.8,0.8c0,0.14-0.05,0.28-0.16,0.43l-0.36,0.52l0.59,0.23c1.76,0.68,2.9,2.32,2.9,4.19c0,2.48-2.03,4.5-4.52,4.5
		c-2.37,0-4.34-1.85-4.49-4.22l-0.02-0.39l-0.39-0.07c-1.18-0.21-2.04-1.23-2.04-2.41c0-1.36,1.11-2.46,2.48-2.46
		c0.02,0,0.04,0,0.06,0.01c0.04,0.01,0.08,0.01,0.12,0.01l0.48,0.03l0.05-0.48C12.75,9.76,13.61,8.99,14.64,8.99 M14.64,8.49
		c-1.3,0-2.35,0.98-2.49,2.24c-0.07-0.01-0.14-0.02-0.21-0.02c-1.64,0-2.98,1.33-2.98,2.96c0,1.46,1.06,2.66,2.45,2.91
		c0.17,2.61,2.33,4.68,4.99,4.68c2.77,0,5.02-2.24,5.02-5c0-2.13-1.34-3.93-3.22-4.66c0.14-0.21,0.25-0.45,0.25-0.72
		c0-0.72-0.59-1.3-1.3-1.3c-0.14,0-0.26,0.04-0.38,0.08C16.32,8.96,15.54,8.49,14.64,8.49L14.64,8.49z"/>
</g>
<g>
	<path fill="#FCE857" d="M50.62,28.6c-0.6,0-1.15-0.28-1.51-0.77l-0.14-0.19l-0.2,0.13c-0.28,0.18-0.6,0.28-0.93,0.28
		c-0.94,0-1.7-0.76-1.7-1.69c0-0.14,0.02-0.28,0.07-0.45l0.06-0.22l-0.21-0.08c-1.19-0.47-1.96-1.59-1.96-2.86
		c0-1.68,1.38-3.06,3.07-3.08l0.13,0l0.07-0.11c0.78-1.21,2.11-1.93,3.54-1.93c2.32,0,4.21,1.88,4.21,4.19
		c0,1.7-1.02,3.22-2.61,3.88l-0.23,0.1l0.09,0.23c0.09,0.23,0.14,0.46,0.14,0.7C52.51,27.76,51.66,28.6,50.62,28.6z"/>
	<path fill="#F4D731" d="M50.9,17.87c2.18,0,3.96,1.77,3.96,3.94c0,1.6-0.96,3.03-2.45,3.64l-0.46,0.19l0.19,0.46
		c0.08,0.2,0.12,0.4,0.12,0.61c0,0.9-0.74,1.63-1.64,1.63c-0.52,0-1-0.25-1.31-0.67l-0.28-0.38l-0.4,0.26
		c-0.24,0.16-0.51,0.24-0.8,0.24c-0.8,0-1.45-0.65-1.45-1.44c0-0.11,0.02-0.23,0.06-0.38l0.12-0.43l-0.42-0.16
		c-1.1-0.43-1.81-1.46-1.81-2.63c0-1.55,1.27-2.82,2.82-2.83l0.27,0l0.15-0.23C48.31,18.55,49.55,17.87,50.9,17.87 M50.9,17.37
		c-1.57,0-2.95,0.82-3.75,2.04c-1.84,0.01-3.32,1.5-3.32,3.33c0,1.41,0.88,2.61,2.12,3.1c-0.05,0.17-0.08,0.34-0.08,0.52
		c0,1.08,0.87,1.94,1.95,1.94c0.39,0,0.76-0.12,1.07-0.32c0.39,0.53,1.01,0.88,1.72,0.88c1.19,0,2.14-0.96,2.14-2.13
		c0-0.28-0.06-0.55-0.16-0.8c1.62-0.67,2.76-2.25,2.76-4.11C55.36,19.37,53.37,17.37,50.9,17.37L50.9,17.37z"/>
</g>
<g>
	<path fill="#FCE857" d="M12.03,27.31c-1.5,0-2.72-1.22-2.72-2.71c0-0.8,0.36-1.56,0.99-2.08l0.22-0.18l-0.21-0.19
		c-0.41-0.38-0.63-0.89-0.63-1.43c0-1.09,0.89-1.98,1.98-1.98c0.51,0,1,0.2,1.37,0.56l0.1,0.1l0.13-0.03
		c0.16-0.04,0.3-0.06,0.44-0.06c0.95,0,1.73,0.74,1.78,1.68l0.01,0.15l0.13,0.06c0.84,0.39,1.35,1.2,1.35,2.12
		c0,1.26-1.03,2.31-2.3,2.34l-0.15,0l-0.07,0.14C14.01,26.72,13.07,27.31,12.03,27.31z"/>
	<path fill="#F4D731" d="M11.66,18.98c0.45,0,0.87,0.17,1.2,0.49l0.2,0.19l0.27-0.07c0.14-0.04,0.26-0.05,0.38-0.05
		c0.81,0,1.49,0.64,1.53,1.45l0.02,0.3l0.27,0.13c0.75,0.35,1.21,1.07,1.21,1.89c0,1.12-0.92,2.06-2.05,2.09l-0.3,0.01l-0.13,0.27
		c-0.42,0.86-1.27,1.39-2.22,1.39c-1.36,0-2.47-1.11-2.47-2.46c0-0.72,0.33-1.41,0.9-1.88l0.44-0.36l-0.42-0.39
		c-0.36-0.33-0.55-0.78-0.55-1.25C9.93,19.76,10.71,18.98,11.66,18.98 M11.66,18.48c-1.24,0-2.23,1-2.23,2.23
		c0,0.64,0.28,1.21,0.71,1.62c-0.66,0.54-1.08,1.35-1.08,2.27c0,1.64,1.33,2.96,2.97,2.96c1.18,0,2.18-0.69,2.67-1.67
		c1.41-0.03,2.54-1.18,2.54-2.59c0-1.04-0.62-1.93-1.5-2.34c-0.06-1.07-0.95-1.92-2.03-1.92c-0.17,0-0.34,0.03-0.5,0.07
		C12.81,18.72,12.26,18.48,11.66,18.48L11.66,18.48z"/>
</g>
<path fill="#FFFFFF" d="M16.9,58.81l-2.75-33.01c-2.94-0.56-4.63-1.18-5.08-1.65c0.04-0.04,0.11-0.09,0.17-0.14l-1.24,0l3.69,33.15
	C12.7,57.8,14.51,58.36,16.9,58.81z"/>
<path fill="#FFFFFF" d="M32,27.14V60h5l0.92-32.98C36.09,27.1,34.13,27.14,32,27.14z"/>
<path fill="#FFFFFF" d="M47.1,58.81l2.75-33.01c-1.62,0.31-3.62,0.59-6,0.82l-1.83,32.9C43.91,59.34,45.61,59.1,47.1,58.81z"/>
<path fill="#FFFFFF" d="M27,59.88l-0.91-32.86c-2.19-0.09-4.17-0.23-5.94-0.4l1.83,32.9C23.54,59.69,25.23,59.8,27,59.88z"/>
<path fill="#F63000" d="M21.97,59.53l-1.83-32.9c-2.38-0.23-4.38-0.51-6-0.82l2.75,33.01C18.39,59.1,20.09,59.34,21.97,59.53z"/>
<path fill="#F63000" d="M32,60V27.14c-2.13,0-4.09-0.05-5.92-0.12L27,59.88C28.6,59.96,30.27,60,32,60z"/>
<path fill="#F63000" d="M47.1,58.81c2.39-0.45,4.21-1.02,5.22-1.65L56,24.02l-1.24,0c0.06,0.05,0.13,0.09,0.17,0.14
	c-0.45,0.47-2.14,1.09-5.08,1.65L47.1,58.81z"/>
<path fill="#F63000" d="M42.03,59.53l1.83-32.9c-1.77,0.17-3.75,0.3-5.94,0.4L37,59.88C38.77,59.8,40.46,59.69,42.03,59.53z"/>
<g opacity="0.4">
	<linearGradient id="SVGID_1_" gradientUnits="userSpaceOnUse" x1="8" y1="42.008" x2="56" y2="42.008">
		<stop  offset="0" style="stop-color:#000000"/>
		<stop  offset="1" style="stop-color:#000000;stop-opacity:0.6"/>
	</linearGradient>
	<path fill="url(#SVGID_1_)" d="M54.84,25.4l-3.46,31.14C48.88,57.77,42.02,59,32,59c-10.02,0-16.88-1.23-19.38-2.46L9.16,25.4
		c2.81,1.41,11.07,2.74,22.84,2.74C43.77,28.14,52.03,26.81,54.84,25.4 M56,24.02h-1.24c0.06,0.05,0.14,0.09,0.18,0.14
		c-1.04,1.07-8.6,2.99-22.94,2.99c-14.33,0-21.9-1.91-22.94-2.99c0.04-0.04,0.11-0.09,0.18-0.14H8l3.69,33.15
		C14.32,58.81,22.41,60,32,60c9.59,0,17.68-1.19,20.31-2.83L56,24.02L56,24.02z"/>
</g>
</svg>
