<?xml version="1.0" encoding="utf-8"?>
<!-- Generator: Adobe Illustrator 18.1.1, SVG Export Plug-In . SVG Version: 6.00 Build 0)  -->
<svg version="1.1" id="Ebene_1" xmlns="http://www.w3.org/2000/svg" xmlns:xlink="http://www.w3.org/1999/xlink" x="0px" y="0px"
	 width="64px" height="64px" viewBox="0 0 64 64" enable-background="new 0 0 64 64" xml:space="preserve">
<g>
	<path fill="#F0F0F0" d="M18,60.5c-4.69,0-8.5-3.81-8.5-8.5V18c0-4.52,3.54-8.23,8-8.49V5.5h29v4.01c4.46,0.26,8,3.97,8,8.49v34
		c0,4.69-3.81,8.5-8.5,8.5H18z"/>
	<g>
		<path fill="#C8C8C8" d="M46,6v4c4.4,0,8,3.6,8,8v34c0,4.4-3.6,8-8,8H18c-4.4,0-8-3.6-8-8V18c0-4.4,3.6-8,8-8V6H46 M47,5h-1H18h-1
			v1v3.06c-4.49,0.5-8,4.32-8,8.94v34c0,4.96,4.04,9,9,9h28c4.96,0,9-4.04,9-9V18c0-4.62-3.51-8.45-8-8.94V6V5L47,5z"/>
	</g>
</g>
<g>
	<path fill="#F0F0F0" d="M15,7.5c-0.83,0-1.5-0.67-1.5-1.5V5c0-0.83,0.67-1.5,1.5-1.5h34c0.83,0,1.5,0.67,1.5,1.5v1
		c0,0.83-0.67,1.5-1.5,1.5H15z"/>
	<g>
		<path fill="#C8C8C8" d="M49,4c0.55,0,1,0.45,1,1v1c0,0.55-0.45,1-1,1H15c-0.55,0-1-0.45-1-1V5c0-0.55,0.45-1,1-1H49 M49,3H15
			c-1.1,0-2,0.9-2,2v1c0,1.1,0.9,2,2,2h34c1.1,0,2-0.9,2-2V5C51,3.9,50.1,3,49,3L49,3z"/>
	</g>
</g>
<g>
	<defs>
		<path id="SVGID_91_" d="M46,10V6H18v4c-4.4,0-8,3.6-8,8v34c0,4.4,3.6,8,8,8h28c4.4,0,8-3.6,8-8V18C54,13.6,50.4,10,46,10z"/>
	</defs>
	<clipPath id="SVGID_1_">
		<use xlink:href="#SVGID_91_"  overflow="visible"/>
	</clipPath>
	<g clip-path="url(#SVGID_1_)">
		<g>
			<rect x="10" y="35" fill="#C8C8C8" width="44" height="25"/>
		</g>
	</g>
</g>
</svg>
