<?xml version="1.0" encoding="utf-8"?>
<!-- Generator: Adobe Illustrator 18.1.1, SVG Export Plug-In . SVG Version: 6.00 Build 0)  -->
<svg version="1.1" id="Ebene_1" xmlns="http://www.w3.org/2000/svg" xmlns:xlink="http://www.w3.org/1999/xlink" x="0px" y="0px"
	 width="64px" height="64px" viewBox="0 0 64 64" enable-background="new 0 0 64 64" xml:space="preserve">
<g>
	<path fill="#1E82FF" d="M32,2.5c0.98,0,1.76,0.79,1.76,1.76v8.25l2.82-4.09c0.35-0.5,0.9-0.77,1.47-0.76
		c0.34,0,0.68,0.11,0.98,0.31c0.8,0.55,1.01,1.65,0.45,2.45l-5.73,8.31v3.56v6.66l8.85-5.11l4.33-9.11
		c0.42-0.88,1.47-1.25,2.35-0.84c0.33,0.16,0.59,0.4,0.76,0.7c0.29,0.49,0.33,1.1,0.07,1.65l-2.13,4.49l7.15-4.13
		c0.85-0.49,1.92-0.2,2.41,0.65c0.49,0.85,0.2,1.92-0.65,2.41l-7.15,4.13l4.96,0.4c0.61,0.05,1.12,0.4,1.4,0.89
		c0.17,0.3,0.25,0.64,0.22,1.01c-0.08,0.97-0.92,1.69-1.9,1.62l-10.06-0.8L35.52,32l5.77,3.33l3.08,1.78l10.06-0.8
		c0.97-0.08,1.82,0.64,1.9,1.62c0.03,0.36-0.05,0.71-0.22,1.01c-0.28,0.49-0.79,0.84-1.4,0.89l-4.96,0.4l7.15,4.13
		c0.85,0.49,1.13,1.56,0.65,2.41c-0.49,0.85-1.56,1.13-2.41,0.64l-7.15-4.13l2.13,4.49c0.26,0.55,0.22,1.17-0.07,1.65
		c-0.17,0.29-0.43,0.54-0.76,0.69c-0.88,0.42-1.93,0.05-2.35-0.83l-4.33-9.11l-8.85-5.11v6.66v3.56l5.73,8.31
		c0.55,0.8,0.35,1.9-0.45,2.45c-0.3,0.21-0.64,0.31-0.98,0.31c-0.57,0.01-1.12-0.26-1.47-0.76l-2.82-4.09v8.25
		c0,0.98-0.79,1.76-1.76,1.76c-0.98,0-1.76-0.79-1.76-1.76v-8.25l-2.82,4.09c-0.35,0.5-0.9,0.77-1.47,0.76
		c-0.34,0-0.68-0.11-0.98-0.31c-0.8-0.55-1.01-1.65-0.45-2.45l5.73-8.31v-3.56v-6.66l-5.77,3.33l-3.08,1.78l-4.33,9.11
		c-0.42,0.88-1.47,1.25-2.35,0.83c-0.33-0.16-0.59-0.4-0.76-0.69c-0.29-0.49-0.33-1.1-0.07-1.65l2.14-4.49l-7.15,4.13
		c-0.85,0.49-1.92,0.2-2.41-0.64c-0.49-0.85-0.2-1.92,0.64-2.41l7.15-4.13l-4.96-0.4c-0.61-0.05-1.12-0.4-1.4-0.89
		c-0.17-0.3-0.25-0.64-0.22-1.01c0.08-0.97,0.92-1.69,1.9-1.62l10.06,0.8l3.08-1.78L28.48,32l-8.85-5.11l-10.06,0.8
		c-0.97,0.08-1.82-0.64-1.9-1.62c-0.03-0.36,0.05-0.71,0.22-1.01c0.28-0.49,0.79-0.84,1.4-0.89l4.96-0.4L7.1,19.66
		c-0.85-0.49-1.13-1.56-0.64-2.41c0.49-0.85,1.56-1.13,2.41-0.65l7.15,4.13l-2.14-4.49c-0.26-0.55-0.22-1.17,0.07-1.65
		c0.17-0.29,0.43-0.54,0.76-0.7c0.88-0.42,1.93-0.05,2.35,0.84l4.33,9.11l8.85,5.11v-6.66v-3.56l-5.73-8.31
		c-0.55-0.8-0.35-1.9,0.45-2.45c0.3-0.21,0.64-0.31,0.98-0.31c0.57-0.01,1.12,0.26,1.47,0.76l2.82,4.09V4.26
		C30.24,3.29,31.02,2.5,32,2.5L32,2.5z"/>
</g>
</svg>
