<?xml version="1.0" encoding="utf-8"?>
<!-- Generator: Adobe Illustrator 18.1.1, SVG Export Plug-In . SVG Version: 6.00 Build 0)  -->
<svg version="1.1" id="Ebene_1" xmlns="http://www.w3.org/2000/svg" xmlns:xlink="http://www.w3.org/1999/xlink" x="0px" y="0px"
	 width="64px" height="64px" viewBox="0 0 64 64" enable-background="new 0 0 64 64" xml:space="preserve">
<g>
	<path fill="#ECECED" d="M32,61.5C15.73,61.5,2.5,48.27,2.5,32S15.73,2.5,32,2.5S61.5,15.73,61.5,32S48.27,61.5,32,61.5z"/>
	<path fill="#9B9C9E" d="M32,3c15.99,0,29,13.01,29,29S47.99,61,32,61S3,47.99,3,32S16.01,3,32,3 M32,2C15.43,2,2,15.43,2,32
		s13.43,30,30,30s30-13.43,30-30S48.57,2,32,2L32,2z"/>
</g>
<g>
	<path fill="#FFFFFF" d="M32,54.5C19.59,54.5,9.5,44.41,9.5,32S19.59,9.5,32,9.5c12.41,0,22.5,10.09,22.5,22.5S44.41,54.5,32,54.5z"
		/>
	<g>
		<path fill="#9B9C9E" d="M32,10c12.15,0,22,9.85,22,22s-9.85,22-22,22s-22-9.85-22-22S19.85,10,32,10 M32,9C19.32,9,9,19.32,9,32
			s10.32,23,23,23s23-10.32,23-23S44.68,9,32,9L32,9z"/>
	</g>
</g>
<rect x="31" y="13" fill="#1A171B" width="2" height="24"/>
<rect x="27" y="31" fill="#1A171B" width="20" height="2"/>
<g>
	<path opacity="0.15" d="M23.89,15.95l-1.52-2.63l-1.73,1l1.52,2.63C22.71,16.58,23.29,16.25,23.89,15.95z"/>
	<path opacity="0.15" d="M14.91,26.38l-2.93-0.79l-0.52,1.93l2.92,0.78C14.52,27.66,14.7,27.01,14.91,26.38z"/>
	<path opacity="0.15" d="M28.31,14.38l-0.78-2.92l-1.93,0.52l0.79,2.93C27.01,14.7,27.66,14.52,28.31,14.38z"/>
	<path opacity="0.15" d="M20.01,18.6l-2.16-2.16l-1.41,1.41l2.16,2.16C19.04,19.52,19.52,19.04,20.01,18.6z"/>
	<path opacity="0.15" d="M16.94,22.15l-2.63-1.52l-1,1.73l2.63,1.52C16.25,23.29,16.58,22.71,16.94,22.15z"/>
	<path opacity="0.15" d="M49.62,28.31l2.92-0.78l-0.52-1.93l-2.93,0.79C49.3,27.01,49.48,27.66,49.62,28.31z"/>
	<path opacity="0.15" d="M48.05,23.89l2.63-1.52l-1-1.73l-2.63,1.52C47.42,22.71,47.75,23.29,48.05,23.89z"/>
	<path opacity="0.15" d="M45.4,20.01l2.16-2.16l-1.41-1.41l-2.16,2.16C44.48,19.04,44.96,19.52,45.4,20.01z"/>
	<path d="M32,14c0.34,0,0.67,0.03,1,0.05V11h-2v3.05C31.33,14.03,31.66,14,32,14z"/>
	<path d="M14,32c0-0.34,0.03-0.67,0.05-1H11v2h3.05C14.03,32.67,14,32.34,14,32z"/>
	<path opacity="0.15" d="M37.62,14.91l0.79-2.93l-1.93-0.52l-0.78,2.92C36.34,14.52,36.99,14.7,37.62,14.91z"/>
	<path opacity="0.15" d="M41.85,16.94l1.52-2.63l-1.73-1l-1.52,2.63C40.71,16.25,41.29,16.58,41.85,16.94z"/>
	<path d="M32,50c-0.34,0-0.67-0.03-1-0.05V53h2v-3.05C32.67,49.97,32.34,50,32,50z"/>
	<path opacity="0.15" d="M47.06,41.85l2.63,1.52l1-1.73l-2.63-1.52C47.75,40.71,47.42,41.29,47.06,41.85z"/>
	<path opacity="0.15" d="M43.99,45.4l2.16,2.16l1.41-1.41l-2.16-2.16C44.96,44.48,44.48,44.96,43.99,45.4z"/>
	<path opacity="0.15" d="M49.09,37.62l2.93,0.79l0.52-1.93l-2.92-0.78C49.48,36.34,49.3,36.99,49.09,37.62z"/>
	<path d="M49.95,31c0.02,0.33,0.05,0.66,0.05,1s-0.03,0.67-0.05,1H53v-2H49.95z"/>
	<path opacity="0.15" d="M40.11,48.05l1.52,2.63l1.73-1l-1.52-2.63C41.29,47.42,40.71,47.75,40.11,48.05z"/>
	<path opacity="0.15" d="M26.38,49.09l-0.79,2.93l1.93,0.52l0.78-2.92C27.66,49.48,27.01,49.3,26.38,49.09z"/>
	<path opacity="0.15" d="M15.95,40.11l-2.63,1.52l1,1.73l2.63-1.52C16.58,41.29,16.25,40.71,15.95,40.11z"/>
	<path opacity="0.15" d="M18.6,43.99l-2.16,2.16l1.41,1.41l2.16-2.16C19.52,44.96,19.04,44.48,18.6,43.99z"/>
	<path opacity="0.15" d="M35.69,49.62l0.78,2.92l1.93-0.52l-0.79-2.93C36.99,49.3,36.34,49.48,35.69,49.62z"/>
	<path opacity="0.15" d="M14.38,35.69l-2.92,0.78l0.52,1.93l2.93-0.79C14.7,36.99,14.52,36.34,14.38,35.69z"/>
	<path opacity="0.15" d="M22.15,47.06l-1.52,2.63l1.73,1l1.52-2.63C23.29,47.75,22.71,47.42,22.15,47.06z"/>
</g>
<rect x="24.88" y="36.75" transform="matrix(0.7071 0.7071 -0.7071 0.7071 37.25 -15.4295)" fill="#C80000" width="24.75" height="1"/>
<g>
	<circle fill="#ECECED" cx="32" cy="32" r="1.5"/>
	<g>
		<path fill="#C80000" d="M32,31c0.55,0,1,0.45,1,1s-0.45,1-1,1s-1-0.45-1-1S31.45,31,32,31 M32,30c-1.1,0-2,0.9-2,2s0.9,2,2,2
			s2-0.9,2-2S33.1,30,32,30L32,30z"/>
	</g>
</g>
</svg>
