<?xml version="1.0" encoding="utf-8"?>
<!-- Generator: Adobe Illustrator 18.1.1, SVG Export Plug-In . SVG Version: 6.00 Build 0)  -->
<svg version="1.1" id="Ebene_1" xmlns="http://www.w3.org/2000/svg" xmlns:xlink="http://www.w3.org/1999/xlink" x="0px" y="0px"
	 width="64px" height="64px" viewBox="0 0 64 64" enable-background="new 0 0 64 64" xml:space="preserve">
<path fill="#3D01A4" d="M1.14,40.27c1.52,5.68,4.11,10.17,8.27,14.32l11.28-11.28c-1.96-1.96-3.39-4.42-4.13-7.18L1.14,40.27z"/>
<path fill="#FEFE33" d="M62.86,23.73l-15.42,4.13C47.79,29.18,48,30.57,48,32s-0.21,2.82-0.56,4.14l15.42,4.13
	C64.38,34.59,64.38,29.41,62.86,23.73z"/>
<path fill="#A7194B" d="M20.69,20.69L9.41,9.41c-4.16,4.16-6.75,8.64-8.27,14.32l15.42,4.13C17.3,25.11,18.73,22.64,20.69,20.69z"/>
<path fill="#8601AF" d="M16,32c0-1.43,0.21-2.82,0.56-4.14L1.14,23.73c-1.52,5.68-1.52,10.86,0,16.54l15.42-4.13
	C16.21,34.82,16,33.43,16,32z"/>
<path fill="#0391CE" d="M32,48c-1.43,0-2.82-0.21-4.14-0.56l-4.13,15.42c5.68,1.52,10.86,1.52,16.54,0l-4.13-15.42
	C34.82,47.79,33.43,48,32,48z"/>
<path fill="#D0EA2B" d="M47.44,36.14c-0.74,2.75-2.17,5.22-4.13,7.18l11.28,11.28c4.16-4.16,6.75-8.64,8.27-14.32L47.44,36.14z"/>
<path fill="#66B032" d="M43.31,43.31c-1.96,1.96-4.42,3.39-7.18,4.13l4.13,15.42c5.68-1.52,10.17-4.11,14.32-8.27L43.31,43.31z"/>
<path fill="#0247FE" d="M20.69,43.31L9.41,54.59c4.16,4.16,8.64,6.75,14.32,8.27l4.13-15.42C25.11,46.7,22.64,45.27,20.69,43.31z"/>
<path fill="#FD5308" d="M32,16c1.43,0,2.82,0.21,4.14,0.56l4.13-15.42c-5.68-1.52-10.86-1.52-16.54,0l4.13,15.42
	C29.18,16.21,30.57,16,32,16z"/>
<path fill="#FE2712" d="M27.86,16.56L23.73,1.14C18.05,2.66,13.57,5.25,9.41,9.41l11.28,11.28C22.64,18.73,25.11,17.3,27.86,16.56z"
	/>
<path fill="#FB9902" d="M43.31,20.69L54.59,9.41c-4.16-4.16-8.64-6.75-14.32-8.27l-4.13,15.42C38.89,17.3,41.36,18.73,43.31,20.69z"
	/>
<path fill="#FABC02" d="M62.86,23.73c-1.52-5.68-4.11-10.17-8.27-14.32L43.31,20.69c1.96,1.96,3.39,4.42,4.13,7.18L62.86,23.73z"/>
</svg>
