<?xml version="1.0" encoding="utf-8"?>
<!-- Generator: Adobe Illustrator 18.1.1, SVG Export Plug-In . SVG Version: 6.00 Build 0)  -->
<svg version="1.1" id="Ebene_1" xmlns="http://www.w3.org/2000/svg" xmlns:xlink="http://www.w3.org/1999/xlink" x="0px" y="0px"
	 width="64px" height="64px" viewBox="0 0 64 64" enable-background="new 0 0 64 64" xml:space="preserve">
<g>
	<path fill="#ECECED" d="M10.5,53.5v-43h43v43H10.5z M14.5,49.5h35v-35h-35V49.5z"/>
	<path fill="#9B9C9E" d="M53,11v42H11V11H53 M14,50h1h34h1v-1V15v-1h-1H15h-1v1v34V50 M54,10H10v44h44V10L54,10z M15,49V15h34v34H15
		L15,49z"/>
</g>
<g>
	<polygon fill="#F0F0F0" points="15.5,48.6 15.5,15.4 32.5,11.62 32.5,52.38 	"/>
	<path fill="#646464" d="M32,12.25v39.51L16,48.2V15.8L32,12.25 M33,11l-18,4v34l18,4V11L33,11z"/>
</g>
<g>
	<polygon fill="#D9F1FF" points="18.5,44.61 18.5,19.39 29.5,16.64 29.5,47.36 	"/>
	<g>
		<path fill="#7AADCC" d="M29,17.28v29.44l-10-2.5V19.78L29,17.28 M30,16l-12,3v26l12,3V16L30,16z"/>
	</g>
</g>
<path fill="#646464" d="M25.46,30.4l4.98-0.4c0.27-0.02,0.52,0.18,0.54,0.46v0C31,30.73,30.8,30.98,30.52,31l-4.98,0.4
	c-0.27,0.02-0.52-0.18-0.54-0.46l0,0C24.98,30.66,25.19,30.42,25.46,30.4z"/>
<ellipse fill="#646464" cx="30.62" cy="30.5" rx="0.62" ry="1"/>
</svg>
