<?xml version="1.0" encoding="utf-8"?>
<!-- Generator: Adobe Illustrator 18.1.1, SVG Export Plug-In . SVG Version: 6.00 Build 0)  -->
<svg version="1.1" id="Ebene_1" xmlns="http://www.w3.org/2000/svg" xmlns:xlink="http://www.w3.org/1999/xlink" x="0px" y="0px"
	 width="64px" height="64px" viewBox="0 0 64 64" enable-background="new 0 0 64 64" xml:space="preserve">
<g>
	<g>
		<polygon fill="#FAFAFA" points="17.5,44.61 17.5,9.41 63.5,0.6 63.5,56.36 		"/>
		<path fill="#AAAAAA" d="M63,1.21v54.5L18,44.22V9.83L63,1.21 M64,0L17,9v36l47,12V0L64,0z"/>
	</g>
	<g>
		<linearGradient id="SVGID_1_" gradientUnits="userSpaceOnUse" x1="20.3975" y1="38.8891" x2="36.8356" y2="35.9907">
			<stop  offset="0" style="stop-color:#F0F0F0"/>
			<stop  offset="1" style="stop-color:#C8C8C8"/>
		</linearGradient>
		<polygon fill="url(#SVGID_1_)" points="23.5,56.48 23.5,18.44 33.5,17.07 33.5,56.48 		"/>
		<g>
			<path fill="#AAAAAA" d="M33,17.65v38.34h-9V18.87L33,17.65 M34,16.5L23,18v38.98h11V16.5L34,16.5z"/>
		</g>
	</g>
	<g>
		<polygon fill="#FAFAFA" points="0.5,4.66 17.5,9.38 17.5,44.62 0.5,49.34 		"/>
		<path fill="#AAAAAA" d="M1,5.32l16,4.44v34.48L1,48.68V5.32 M0,4v46l18-5V9L0,4L0,4z"/>
	</g>
	<g>
		<linearGradient id="SVGID_2_" gradientUnits="userSpaceOnUse" x1="42.4482" y1="39.7958" x2="63.4705" y2="36.089">
			<stop  offset="0" style="stop-color:#F0F0F0"/>
			<stop  offset="1" style="stop-color:#C8C8C8"/>
		</linearGradient>
		<polygon fill="url(#SVGID_2_)" points="45.5,57.1 45.5,15.44 59.5,13.57 59.5,60.61 		"/>
		<g>
			<path fill="#AAAAAA" d="M59,14.14v45.83l-13-3.26V15.88L59,14.14 M60,13l-15,2v42.49l15,3.76V13L60,13z"/>
		</g>
	</g>
	<g>
		<linearGradient id="SVGID_3_" gradientUnits="userSpaceOnUse" x1="26.716" y1="50.0945" x2="29.7059" y2="41.8798">
			<stop  offset="0" style="stop-color:#F0F0F0"/>
			<stop  offset="1" style="stop-color:#C8C8C8"/>
		</linearGradient>
		<polygon fill="url(#SVGID_3_)" points="20.27,47.75 33.5,43.26 33.5,51.5 		"/>
		<path fill="#AAAAAA" d="M33,43.96v6.88l-11.04-3.13L33,43.96 M34,42.56l-15.41,5.23L34,52.16V42.56L34,42.56z"/>
	</g>
	<g>
		<linearGradient id="SVGID_4_" gradientUnits="userSpaceOnUse" x1="50.3594" y1="57.6631" x2="50.3594" y2="47.8379">
			<stop  offset="0" style="stop-color:#F0F0F0"/>
			<stop  offset="1" style="stop-color:#C8C8C8"/>
		</linearGradient>
		<polygon fill="url(#SVGID_4_)" points="41.22,53.19 59.5,47.84 59.5,57.66 		"/>
		<path fill="#AAAAAA" d="M59,48.51v8.52l-15.85-3.88L59,48.51 M60,47.17l-20.71,6.07L60,58.3V47.17L60,47.17z"/>
	</g>
	<g>
		<polygon fill="#996D4D" points="0.5,63.5 0.5,50.37 17.01,45.52 63.5,57.39 63.5,63.5 		"/>
		<g>
			<path fill="#663629" d="M17.02,46.04L63,57.78V63H1V50.75L17.02,46.04 M17,45L0,50v14h64v-7L17,45L17,45z"/>
		</g>
	</g>
	<line fill="none" stroke="#663629" stroke-miterlimit="10" x1="64" y1="61.25" x2="14.67" y2="46.3"/>
	<line fill="none" stroke="#663629" stroke-miterlimit="10" x1="60" y1="64" x2="10.71" y2="47.55"/>
	<line fill="none" stroke="#663629" stroke-miterlimit="10" x1="46.08" y1="64" x2="6.65" y2="48.75"/>
	<line fill="none" stroke="#663629" stroke-miterlimit="10" x1="35.17" y1="64.33" x2="2.08" y2="50"/>
	<line fill="none" stroke="#663629" stroke-miterlimit="10" x1="21.42" y1="64" x2="0" y2="53.17"/>
	<line fill="none" stroke="#663629" stroke-miterlimit="10" x1="8.58" y1="64" x2="0" y2="58.58"/>
	<line fill="none" stroke="#663629" stroke-miterlimit="10" x1="2.5" y1="60.16" x2="8.05" y2="57.24"/>
	<line fill="none" stroke="#663629" stroke-miterlimit="10" x1="14.67" y1="60.59" x2="20.29" y2="57.89"/>
	<line fill="none" stroke="#663629" stroke-miterlimit="10" x1="9.59" y1="53.17" x2="14.1" y2="51.63"/>
	<line fill="none" stroke="#663629" stroke-miterlimit="10" x1="29.51" y1="61.88" x2="34.79" y2="59.63"/>
	<line fill="none" stroke="#663629" stroke-miterlimit="10" x1="20.68" y1="54.18" x2="26.04" y2="52.4"/>
	<line fill="none" stroke="#663629" stroke-miterlimit="10" x1="44.38" y1="63.34" x2="50.29" y2="60.76"/>
	<line fill="none" stroke="#663629" stroke-miterlimit="10" x1="19.3" y1="50.42" x2="23.89" y2="49.09"/>
	<line fill="none" stroke="#663629" stroke-miterlimit="10" x1="40.5" y1="57.49" x2="46.08" y2="55.59"/>
	<line fill="none" stroke="#663629" stroke-miterlimit="10" x1="31.01" y1="51.25" x2="34.79" y2="50"/>
	<line fill="none" stroke="#663629" stroke-miterlimit="10" x1="55.95" y1="58.81" x2="60.58" y2="56.54"/>
</g>
</svg>
