<?xml version="1.0" encoding="utf-8"?>
<!-- Generator: Adobe Illustrator 18.1.1, SVG Export Plug-In . SVG Version: 6.00 Build 0)  -->
<svg version="1.1" id="Ebene_1" xmlns="http://www.w3.org/2000/svg" xmlns:xlink="http://www.w3.org/1999/xlink" x="0px" y="0px"
	 width="64px" height="64px" viewBox="0 0 64 64" enable-background="new 0 0 64 64" xml:space="preserve">
<g>
	<polygon fill="#ECECED" points="47.5,58.5 47.5,7.5 16.5,7.5 16.5,58.5 12.5,58.5 12.5,3.5 51.5,3.5 51.5,58.5 	"/>
	<path fill="#9B9C9E" d="M51,4v54h-3V8V7h-1H17h-1v1v50h-3V4H51 M52,3H12v56h5V8h30v51h5V3L52,3z"/>
</g>
<g>
	<rect x="17.5" y="8.5" fill="#F0F0F0" width="29" height="50"/>
	<path fill="#646464" d="M46,9v49H18V9H46 M47,8H17v51h30V8L47,8z"/>
</g>
<circle fill="#646464" cx="43" cy="37" r="1"/>
<path fill="#646464" d="M39.5,32h4c0.28,0,0.5,0.22,0.5,0.5l0,0c0,0.28-0.22,0.5-0.5,0.5h-4c-0.28,0-0.5-0.22-0.5-0.5l0,0
	C39,32.22,39.22,32,39.5,32z"/>
</svg>
