<?xml version="1.0" encoding="utf-8"?>
<!-- Generator: Adobe Illustrator 18.1.1, SVG Export Plug-In . SVG Version: 6.00 Build 0)  -->
<svg version="1.1" id="Ebene_1" xmlns="http://www.w3.org/2000/svg" xmlns:xlink="http://www.w3.org/1999/xlink" x="0px" y="0px"
	 width="64px" height="64px" viewBox="0 0 64 64" enable-background="new 0 0 64 64" xml:space="preserve">
<g>
	<g>
		<path fill="#FCD703" d="M6.93,58.5c-0.9,0-1.71-0.47-2.17-1.25c-0.45-0.78-0.45-1.72,0-2.5l25.07-43.43
			c0.45-0.78,1.26-1.25,2.17-1.25s1.71,0.47,2.17,1.25l25.07,43.43c0.45,0.78,0.45,1.72,0,2.5c-0.45,0.78-1.26,1.25-2.17,1.25H6.93z
			"/>
		<path d="M32,11.57c0.22,0,0.61,0.06,0.87,0.5L57.94,55.5c0.25,0.44,0.11,0.81,0,1c-0.11,0.19-0.36,0.5-0.87,0.5H6.93
			c-0.5,0-0.76-0.31-0.87-0.5c-0.11-0.19-0.25-0.56,0-1l25.07-43.43C31.39,11.64,31.78,11.57,32,11.57 M32,8.57
			c-1.35,0-2.69,0.67-3.46,2L3.46,54c-1.54,2.67,0.38,6,3.46,6h50.14c3.08,0,5-3.33,3.46-6L35.46,10.57
			C34.69,9.24,33.35,8.57,32,8.57L32,8.57z"/>
	</g>
	<g>
		<polygon points="37.03,32.59 29.06,37.19 34.29,23.57 29.55,23.57 24.58,42.14 32.58,37.52 30.75,48.2 29.3,46.12 30.61,53.57 
			35.25,46.94 32.91,48.53 		"/>
	</g>
</g>
</svg>
