<?xml version="1.0" encoding="utf-8"?>
<!-- Generator: Adobe Illustrator 18.1.1, SVG Export Plug-In . SVG Version: 6.00 Build 0)  -->
<svg version="1.1" id="Ebene_1" xmlns="http://www.w3.org/2000/svg" xmlns:xlink="http://www.w3.org/1999/xlink" x="0px" y="0px"
	 width="64px" height="64px" viewBox="0 0 64 64" enable-background="new 0 0 64 64" xml:space="preserve">
<g>
	<path fill="#FFA500" d="M6.93,59.5c-1.26,0-2.4-0.65-3.03-1.75c-0.63-1.1-0.63-2.41,0-3.5l25.07-43.43
		c0.63-1.1,1.77-1.75,3.03-1.75s2.4,0.65,3.03,1.75L60.1,54.25c0.63,1.1,0.63,2.41,0,3.5c-0.63,1.09-1.77,1.75-3.03,1.75H6.93z"/>
	<path fill="#E58200" d="M32,9.57c1.08,0,2.06,0.56,2.6,1.5L59.67,54.5c0.54,0.94,0.54,2.06,0,3c-0.54,0.94-1.51,1.5-2.6,1.5H6.93
		c-1.08,0-2.06-0.56-2.6-1.5c-0.54-0.94-0.54-2.06,0-3L29.4,11.07C29.94,10.14,30.92,9.57,32,9.57 M32,8.57
		c-1.35,0-2.69,0.67-3.46,2L3.46,54c-1.54,2.67,0.38,6,3.46,6h50.14c3.08,0,5-3.33,3.46-6L35.46,10.57
		C34.69,9.24,33.35,8.57,32,8.57L32,8.57z"/>
</g>
<g>
	<polygon fill="#FFFFFF" points="30.16,44.5 28.66,31.74 28.65,23.5 35.31,23.5 35.31,31.68 33.76,44.5 	"/>
	<path fill="#E58200" d="M34.81,24v7.68L33.32,44H30.6l-1.45-12.32V24H34.81 M35.81,23h-1h-5.66h-1v1v7.68v0.06l0.01,0.06
		l1.45,12.32l0.1,0.88h0.89h2.71h0.89l0.11-0.88L35.8,31.8l0.01-0.06v-0.06V24V23L35.81,23z"/>
</g>
<g>
	<rect x="28.5" y="46.5" fill="#FFFFFF" width="7" height="7"/>
	<path fill="#E58200" d="M35,47v6h-6v-6H35 M36,46h-1h-6h-1v1v6v1h1h6h1v-1v-6V46L36,46z"/>
</g>
</svg>
