<?xml version="1.0" encoding="utf-8"?>
<!-- Generator: Adobe Illustrator 18.1.1, SVG Export Plug-In . SVG Version: 6.00 Build 0)  -->
<svg version="1.1" id="Ebene_1" xmlns="http://www.w3.org/2000/svg" xmlns:xlink="http://www.w3.org/1999/xlink" x="0px" y="0px"
	 width="64px" height="64px" viewBox="0 0 64 64" enable-background="new 0 0 64 64" xml:space="preserve">
<g>
	<g>
		<rect x="25.5" y="9.5" fill="#8B96AC" width="7" height="13"/>
		<path fill="#676B72" d="M32,10v12h-6V10H32 M33,9h-8v14h8V9L33,9z"/>
	</g>
	<g>
		<path fill="#8B96AC" d="M46.5,39.5V36c0-1.38-1.12-2.5-2.5-2.5H8.5v-11h15V18c0-0.83,0.67-1.5,1.5-1.5h8c0.83,0,1.5,0.67,1.5,1.5
			v4.5H46c6.34,0,11.5,5.16,11.5,11.5v5.5H46.5z"/>
		<path fill="#676B72" d="M33,17c0.55,0,1,0.45,1,1v4v1h1h11c6.07,0,11,4.93,11,11v5H47v-3c0-1.65-1.35-3-3-3H9V23h14h1v-1v-4
			c0-0.55,0.45-1,1-1H33 M33,16h-8c-1.1,0-2,0.9-2,2v4H8v12h36c1.1,0,2,0.9,2,2v4h12v-6c0-6.63-5.37-12-12-12H35v-4
			C35,16.9,34.1,16,33,16L33,16z"/>
	</g>
	<g>
		<g id="path412">
			<path fill="#1E82FF" d="M51.55,59.5c0-0.01-0.1-0.02-0.19-0.03c-0.15-0.02-0.3-0.03-0.4-0.07l-0.05-0.02l-0.05-0.01
				c-2.29-0.41-4.25-2.72-4.36-5.17l0-0.75c0.07-0.4,0.16-0.9,0.35-1.36c0.18-0.34,0.37-0.72,0.6-1.08l0.74-1.03
				c1.58-1.94,2.85-3.85,3.85-5.8c1.03,2.43,2.61,4.51,3.89,6.05c0.15,0.23,0.34,0.49,0.55,0.75c0.24,0.38,0.53,0.85,0.75,1.35
				c0.12,0.33,0.22,0.75,0.27,1.22l0,0.62c-0.02,0.1-0.03,0.19-0.03,0.27c0,0.03,0,0.07-0.01,0.1l-0.03,0.06l0,0.05
				c-0.25,2.24-2.14,4.31-4.29,4.7l-0.05,0.01l-0.05,0.02c-0.1,0.04-0.25,0.06-0.4,0.07c-0.08,0.01-0.15,0.02-0.23,0.03H51.55z"/>
			<path fill="#1271D8" d="M52,45.31c1.03,2.08,2.38,3.84,3.5,5.21c0.17,0.26,0.35,0.5,0.54,0.74c0.25,0.4,0.51,0.82,0.71,1.25
				c0.11,0.31,0.19,0.66,0.24,1.05v0.57c-0.02,0.12-0.03,0.22-0.03,0.3l0,0l-0.02,0.04l-0.02,0.14c-0.23,2.04-1.93,3.91-3.89,4.26
				l-0.12,0.03l-0.08,0.03c-0.04,0.02-0.18,0.03-0.27,0.04c-0.07,0.01-0.14,0.02-0.21,0.02h-0.76c-0.07-0.01-0.14-0.02-0.21-0.02
				c-0.09-0.01-0.22-0.02-0.27-0.04l-0.1-0.04l-0.1-0.02c-2.08-0.37-3.85-2.47-3.94-4.65v-0.7c0.07-0.41,0.15-0.84,0.3-1.21
				c0.2-0.39,0.37-0.71,0.56-1.01l0.72-1C49.94,48.63,51.07,46.98,52,45.31 M52.06,43c-1.11,2.41-2.59,4.63-4.28,6.69l-0.75,1.05
				c-0.24,0.37-0.44,0.77-0.64,1.16c-0.2,0.49-0.3,1.03-0.38,1.54v0.78c0.12,2.64,2.2,5.18,4.77,5.64c0.24,0.1,0.53,0.1,0.78,0.14
				h0.91c0.25-0.04,0.53-0.04,0.78-0.14c2.38-0.43,4.43-2.67,4.7-5.13c0.06-0.15,0.02-0.34,0.07-0.48V53.5
				c-0.06-0.46-0.16-0.93-0.31-1.36c-0.23-0.52-0.52-0.99-0.82-1.46c-0.2-0.24-0.38-0.5-0.55-0.75c-1.58-1.91-3.03-3.95-3.95-6.25
				L52.06,43L52.06,43z"/>
		</g>
	</g>
	<g>
		<path fill="#8B96AC" d="M41,13.5c-1.41,0-2.71-0.66-3.58-1.8l-0.15-0.2H31.5v-5h5.77l0.15-0.2c0.87-1.15,2.17-1.8,3.58-1.8
			c2.48,0,4.5,2.02,4.5,4.5S43.48,13.5,41,13.5z"/>
		<path fill="#676B72" d="M41,5c2.21,0,4,1.79,4,4s-1.79,4-4,4c-1.25,0-2.41-0.58-3.18-1.6l-0.3-0.4h-0.5H32V7h5.02h0.5l0.3-0.4
			C38.59,5.58,39.75,5,41,5 M41,4c-1.63,0-3.06,0.79-3.98,2H31v6h6.02c0.91,1.21,2.35,2,3.98,2c2.76,0,5-2.24,5-5S43.76,4,41,4L41,4
			z"/>
	</g>
	<g>
		<path fill="#8B96AC" d="M19,13.5c-2.48,0-4.5-2.02-4.5-4.5s2.02-4.5,4.5-4.5c1.41,0,2.71,0.66,3.58,1.8l0.15,0.2h3.77v5h-3.77
			l-0.15,0.2C21.71,12.84,20.41,13.5,19,13.5z"/>
		<path fill="#676B72" d="M19,5c1.25,0,2.41,0.58,3.18,1.6l0.3,0.4h0.5H26v4h-3.02h-0.5l-0.3,0.4C21.41,12.42,20.25,13,19,13
			c-2.21,0-4-1.79-4-4S16.79,5,19,5 M19,4c-2.76,0-5,2.24-5,5s2.24,5,5,5c1.63,0,3.06-0.79,3.98-2H27V6h-4.02
			C22.06,4.79,20.63,4,19,4L19,4z"/>
	</g>
	<g>
		<path fill="#8B96AC" d="M29,13.5c-2.48,0-4.5-2.02-4.5-4.5s2.02-4.5,4.5-4.5s4.5,2.02,4.5,4.5S31.48,13.5,29,13.5z"/>
		<path fill="#676B72" d="M29,5c2.21,0,4,1.79,4,4s-1.79,4-4,4s-4-1.79-4-4S26.79,5,29,5 M29,4c-2.76,0-5,2.24-5,5s2.24,5,5,5
			s5-2.24,5-5S31.76,4,29,4L29,4z"/>
	</g>
	<path fill="none" stroke="#676B72" stroke-miterlimit="10" d="M23,22c3.32,2,8.68,2,12,0"/>
	<g>
		<path fill="#8B96AC" d="M4.5,38.5v-21H7c0.83,0,1.5,0.67,1.5,1.5v18c0,0.83-0.67,1.5-1.5,1.5H4.5z"/>
		<path fill="#676B72" d="M7,18c0.55,0,1,0.45,1,1v18c0,0.55-0.45,1-1,1H5V18H7 M7,17H4v22h3c1.1,0,2-0.9,2-2V19C9,17.9,8.1,17,7,17
			L7,17z"/>
	</g>
</g>
</svg>
