<?xml version="1.0" encoding="utf-8"?>
<!-- Generator: Adobe Illustrator 18.1.1, SVG Export Plug-In . SVG Version: 6.00 Build 0)  -->
<svg version="1.1" id="Ebene_1" xmlns="http://www.w3.org/2000/svg" xmlns:xlink="http://www.w3.org/1999/xlink" x="0px" y="0px"
	 width="64px" height="64px" viewBox="0 0 64 64" enable-background="new 0 0 64 64" xml:space="preserve">
<path fill="#B2B2B2" d="M54.13,40.06C50.74,9.58,33.08,1.9,28.37,0.39c-0.56-0.18-1.1,0.27-1.06,0.85
	c0.77,12.02-5.18,18.82-5.18,18.82s-7.83,9.75-10,13s-5.42,15.67,3,26c7.2,8.84,15.26,2.55,17.43,0.55c0.33-0.3,0.82-0.27,1.14,0.04
	c3.61,3.56,7.79,4.48,11.43,1.41C56.54,51.45,54.13,40.06,54.13,40.06z"/>
<path fill="#D8D8D8" d="M32.74,59.06c0,0-5.88,5.33-10,0s-2-14-2-14s3.21-7.46,10-15c0,0,2.67-2.92,3-5c0,0,9.08,4.83,10,17
	c0.92,12.17-9,19-9,19L32.74,59.06z"/>
<path fill="#F2F2F2" d="M32.48,59.06c0,0,6.79-1.96,8-14c0,0,0.88-3.88-6-10l-8,9c0,0-3,3.04-3,8s3,7,3,7S29.15,62.4,32.48,59.06z"
	/>
</svg>
