<?xml version="1.0" encoding="utf-8"?>
<!-- Generator: Adobe Illustrator 18.1.1, SVG Export Plug-In . SVG Version: 6.00 Build 0)  -->
<svg version="1.1" id="Ebene_1" xmlns="http://www.w3.org/2000/svg" xmlns:xlink="http://www.w3.org/1999/xlink" x="0px" y="0px"
	 width="64px" height="64px" viewBox="0 0 64 64" enable-background="new 0 0 64 64" xml:space="preserve">
<path fill="#F01428" d="M54,40C50.61,9.51,32.95,1.84,28.24,0.32c-0.56-0.18-1.1,0.27-1.06,0.85C27.94,13.19,22,20,22,20
	s-7.83,9.75-10,13s-5.42,15.67,3,26c7.2,8.84,15.26,2.55,17.43,0.55c0.33-0.3,0.82-0.27,1.14,0.04C37.19,63.15,41.36,64.07,45,61
	C56.41,51.39,54,40,54,40z"/>
<path fill="#FF8200" d="M33,59c0,0-5.88,5.33-10,0s-2-14-2-14s3.21-7.46,10-15c0,0,2.67-2.92,3-5c0,0,9.08,4.83,10,17s-9,19-9,19
	L33,59z"/>
<path fill="#FFC800" d="M33,59c0,0,6.79-1.96,8-14c0,0,0.88-3.88-6-10l-8,9c0,0-3,3.04-3,8s3,7,3,7S29.67,62.33,33,59z"/>
</svg>
