<?xml version="1.0" encoding="utf-8"?>
<!-- Generator: Adobe Illustrator 18.1.1, SVG Export Plug-In . SVG Version: 6.00 Build 0)  -->
<svg version="1.1" id="Ebene_1" xmlns="http://www.w3.org/2000/svg" xmlns:xlink="http://www.w3.org/1999/xlink" x="0px" y="0px"
	 width="64px" height="64px" viewBox="0 0 64 64" enable-background="new 0 0 64 64" xml:space="preserve">
<g>
	<linearGradient id="SVGID_1_" gradientUnits="userSpaceOnUse" x1="3" y1="46.5" x2="61" y2="46.5">
		<stop  offset="0" style="stop-color:#FFFFFF;stop-opacity:0"/>
		<stop  offset="0.2" style="stop-color:#000000"/>
		<stop  offset="0.8" style="stop-color:#000000"/>
		<stop  offset="1" style="stop-color:#FFFFFF;stop-opacity:0"/>
	</linearGradient>
	<rect x="3" y="46" fill="url(#SVGID_1_)" width="58" height="1"/>
	<g>
		<polygon fill="#F0F0F0" points="12.5,59.5 12.5,14.31 32,4.56 51.5,14.31 51.5,59.5 		"/>
		<path fill="#C8C8C8" d="M32,5.12l19,9.5V59H13V14.62L32,5.12 M32,4L12,14v46h40V14L32,4L32,4z"/>
	</g>
	<polyline fill="none" stroke="#2E7DE5" stroke-width="1.5" stroke-miterlimit="10" points="58,17.5 32,4.5 6,17.5 	"/>
	<g>
		<rect x="12.5" y="33.5" fill="#F0F0F0" width="39" height="13"/>
		<g>
			<path fill="#C8C8C8" d="M51,34v12H13V34H51 M52,33H12v14h40V33L52,33z"/>
		</g>
	</g>
	<g>
		<rect x="12.5" y="20.5" fill="#FFCCD3" width="39" height="13"/>
		<g>
			<path fill="#FF6666" d="M51,21v12H13V21H51 M52,20H12v14h40V20L52,20z"/>
		</g>
	</g>
	<g>
		<rect x="17.5" y="23.5" fill="#FFCCD3" width="5" height="6"/>
		<g>
			<path fill="#FF6666" d="M22,24v5h-4v-5H22 M23,23h-6v7h6V23L23,23z"/>
		</g>
	</g>
	<g>
		<rect x="22.5" y="23.5" fill="#FFCCD3" width="5" height="6"/>
		<g>
			<path fill="#FF6666" d="M27,24v5h-4v-5H27 M28,23h-6v7h6V23L28,23z"/>
		</g>
	</g>
	<g>
		<rect x="25.43" y="12.43" fill="#F0F0F0" width="5.14" height="5.14"/>
		<path fill="#C8C8C8" d="M30.14,12.86v4.29h-4.29v-4.29H30.14 M31,12h-6v6h6V12L31,12z"/>
	</g>
	<g>
		<rect x="33.43" y="12.43" fill="#F0F0F0" width="5.14" height="5.14"/>
		<path fill="#C8C8C8" d="M38.14,12.86v4.29h-4.29v-4.29H38.14 M39,12h-6v6h6V12L39,12z"/>
	</g>
	<g>
		<rect x="40.5" y="36.5" fill="#F0F0F0" width="6" height="10"/>
		<path fill="#C8C8C8" d="M46,37v9h-5v-9H46 M47,36h-7v11h7V36L47,36z"/>
	</g>
	<g>
		<rect x="31.5" y="23.5" fill="#FFCCD3" width="5" height="6"/>
		<g>
			<path fill="#FF6666" d="M36,24v5h-4v-5H36 M37,23h-6v7h6V23L37,23z"/>
		</g>
	</g>
	<g>
		<rect x="17.43" y="36.43" fill="#F0F0F0" width="5.13" height="6.13"/>
		<path fill="#C8C8C8" d="M22.13,36.87v5.27h-4.27v-5.27H22.13 M23,36h-6v7h6V36L23,36z"/>
	</g>
	<g>
		<rect x="22.43" y="36.43" fill="#F0F0F0" width="5.13" height="6.13"/>
		<path fill="#C8C8C8" d="M27.13,36.87v5.27h-4.27v-5.27H27.13 M28,36h-6v7h6V36L28,36z"/>
	</g>
	<g>
		<rect x="31.43" y="36.43" fill="#F0F0F0" width="5.13" height="6.13"/>
		<path fill="#C8C8C8" d="M36.13,36.87v5.27h-4.27v-5.27H36.13 M37,36h-6v7h6V36L37,36z"/>
	</g>
	<g>
		<rect x="40.5" y="23.5" fill="#FFCCD3" width="6" height="6"/>
		<g>
			<path fill="#FF6666" d="M46,24v5h-5v-5H46 M47,23h-7v7h7V23L47,23z"/>
		</g>
	</g>
	<rect x="44" y="41" fill="#C8C8C8" width="1" height="1"/>
</g>
</svg>
