<?xml version="1.0" encoding="utf-8"?>
<!-- Generator: Adobe Illustrator 18.1.1, SVG Export Plug-In . SVG Version: 6.00 Build 0)  -->
<svg version="1.1" id="Ebene_1" xmlns="http://www.w3.org/2000/svg" xmlns:xlink="http://www.w3.org/1999/xlink" x="0px" y="0px"
	 width="64px" height="64px" viewBox="0 0 64 64" enable-background="new 0 0 64 64" xml:space="preserve">
<g>
	<path fill="#FF3355" d="M18,59.5c-0.83,0-1.5-0.67-1.5-1.5V38c0-1.38-1.12-2.5-2.5-2.5H4.83c-0.74,0-1.2-0.48-1.39-0.93
		c-0.19-0.45-0.2-1.11,0.33-1.63l27.18-28.8C31.22,3.86,31.6,3.71,32,3.71s0.78,0.16,1.06,0.44l27.16,28.78
		c0.53,0.53,0.52,1.2,0.33,1.65c-0.19,0.45-0.65,0.93-1.39,0.93H50c-1.38,0-2.5,1.12-2.5,2.5v20c0,0.83-0.67,1.5-1.5,1.5H18z"/>
	<path fill="#CC1526" d="M32,4.21c0.27,0,0.52,0.1,0.69,0.27l27.19,28.81c0.44,0.44,0.28,0.94,0.22,1.09
		c-0.06,0.14-0.3,0.62-0.92,0.62H50c-1.65,0-3,1.35-3,3v20c0,0.55-0.45,1-1,1H18c-0.55,0-1-0.45-1-1V38c0-1.65-1.35-3-3-3H4.83
		c-0.62,0-0.86-0.47-0.92-0.62c-0.06-0.14-0.22-0.65,0.24-1.11L31.29,4.5C31.48,4.31,31.73,4.21,32,4.21 M32,3.21
		c-0.51,0-1.02,0.2-1.41,0.59L3.41,32.59C2.15,33.85,3.05,36,4.83,36H14c1.1,0,2,0.9,2,2v20c0,1.1,0.9,2,2,2h28c1.1,0,2-0.9,2-2V38
		c0-1.1,0.9-2,2-2h9.17c1.78,0,2.67-2.15,1.41-3.41L33.41,3.79C33.02,3.4,32.51,3.21,32,3.21L32,3.21z"/>
</g>
</svg>
