<?xml version="1.0" encoding="utf-8"?>
<!-- Generator: Adobe Illustrator 18.1.1, SVG Export Plug-In . SVG Version: 6.00 Build 0)  -->
<svg version="1.1" id="Ebene_1" xmlns="http://www.w3.org/2000/svg" xmlns:xlink="http://www.w3.org/1999/xlink" x="0px" y="0px"
	 width="64px" height="64px" viewBox="0 0 64 64" enable-background="new 0 0 64 64" xml:space="preserve">
<g>
	<polygon fill="#ECECED" points="47.5,58.5 47.5,7.5 16.5,7.5 16.5,58.5 12.5,58.5 12.5,3.5 51.5,3.5 51.5,58.5 	"/>
	<path fill="#9B9C9E" d="M51,4v54h-3V8V7h-1H17h-1v1v50h-3V4H51 M52,3H12v56h5V8h30v51h5V3L52,3z"/>
</g>
<g>
	<polygon fill="#646464" points="17.5,58.61 17.5,8.39 32.5,4.64 32.5,62.36 	"/>
	<g>
		<path fill="#282828" d="M32,5.28v56.44l-14-3.5V8.78L32,5.28 M33,4L17,8v51l16,4V4L33,4z"/>
	</g>
</g>
<ellipse fill="#DCDCF0" cx="30.5" cy="34" rx="0.5" ry="1"/>
<g>
	<g>
		<path fill="#282828" d="M26,12v43l-4-1V13L26,12 M27,10.72l-1.24,0.31l-4,1L21,12.22V13v41v0.78l0.76,0.19l4,1L27,56.28V55V12
			V10.72L27,10.72z"/>
	</g>
</g>
<g>
	<polygon fill="#D9F1FF" points="22.5,53.61 22.5,13.39 25.5,12.64 25.5,54.36 	"/>
	<path fill="#7AADCC" d="M25,13.28v40.44l-2-0.5V13.78L25,13.28 M26,12l-4,1v41l4,1V12L26,12z"/>
</g>
<g>
	<rect x="27.5" y="12.5" fill="#DCDCF0" width="2" height="42"/>
	<path fill="#595959" d="M29,13v41h-1V13H29 M30,12h-1h-1h-1v1v41v1h1h1h1v-1V13V12L30,12z"/>
</g>
</svg>
