<?xml version="1.0" encoding="utf-8"?>
<!-- Generator: Adobe Illustrator 18.1.1, SVG Export Plug-In . SVG Version: 6.00 Build 0)  -->
<svg version="1.1" id="Ebene_1" xmlns="http://www.w3.org/2000/svg" xmlns:xlink="http://www.w3.org/1999/xlink" x="0px" y="0px"
	 width="64px" height="64px" viewBox="0 0 64 64" enable-background="new 0 0 64 64" xml:space="preserve">
<g>
	<g>
		<rect x="9.5" y="14.5" fill="#282828" width="15" height="4"/>
		<path fill="#3C3C3C" d="M24,15v3H10v-3H24 M25,14h-1H10H9v1v3v1h1h14h1v-1v-3V14L25,14z"/>
	</g>
	<g>
		<rect x="24.5" y="14.5" fill="#282828" width="15" height="4"/>
		<path fill="#3C3C3C" d="M39,15v3H25v-3H39 M40,14h-1H25h-1v1v3v1h1h14h1v-1v-3V14L40,14z"/>
	</g>
	<g>
		<rect x="39.5" y="14.5" fill="#282828" width="15" height="4"/>
		<path fill="#3C3C3C" d="M54,15v3H40v-3H54 M55,14h-1H40h-1v1v3v1h1h14h1v-1v-3V14L55,14z"/>
	</g>
	<g>
		<rect x="9.5" y="18.5" fill="#282828" width="15" height="11"/>
		<path fill="#3C3C3C" d="M24,19v10H10V19H24 M25,18h-1H10H9v1v10v1h1h14h1v-1V19V18L25,18z"/>
	</g>
	<g>
		<rect x="24.5" y="18.5" fill="#282828" width="15" height="11"/>
		<path fill="#3C3C3C" d="M39,19v10H25V19H39 M40,18h-1H25h-1v1v10v1h1h14h1v-1V19V18L40,18z"/>
	</g>
	<g>
		<rect x="39.5" y="18.5" fill="#282828" width="15" height="11"/>
		<path fill="#3C3C3C" d="M54,19v10H40V19H54 M55,18h-1H40h-1v1v10v1h1h14h1v-1V19V18L55,18z"/>
	</g>
	<g>
		<rect x="9.5" y="29.5" fill="#282828" width="15" height="11"/>
		<path fill="#3C3C3C" d="M24,30v10H10V30H24 M25,29h-1H10H9v1v10v1h1h14h1v-1V30V29L25,29z"/>
	</g>
	<g>
		<rect x="24.5" y="29.5" fill="#282828" width="15" height="11"/>
		<path fill="#3C3C3C" d="M39,30v10H25V30H39 M40,29h-1H25h-1v1v10v1h1h14h1v-1V30V29L40,29z"/>
	</g>
	<g>
		<rect x="39.5" y="29.5" fill="#282828" width="15" height="11"/>
		<path fill="#3C3C3C" d="M54,30v10H40V30H54 M55,29h-1H40h-1v1v10v1h1h14h1v-1V30V29L55,29z"/>
	</g>
	<g>
		<polygon fill="#F0F0F0" points="55.5,53.5 55.5,18.5 8.5,18.5 8.5,53.5 3.5,53.5 3.5,13.5 60.5,13.5 60.5,53.5 		"/>
		<path fill="#C8C8C8" d="M60,14v4v35h-4V18H8v35H4V18v-4h4h48H60 M61,13h-1h-4H8H4H3v1v4v35v1h1h4h1v-1V19h46v34v1h1h4h1v-1V18v-4
			V13L61,13z"/>
	</g>
</g>
</svg>
