<?xml version="1.0" encoding="utf-8"?>
<!-- Generator: Adobe Illustrator 18.1.1, SVG Export Plug-In . SVG Version: 6.00 Build 0)  -->
<svg version="1.1" id="Ebene_1" xmlns="http://www.w3.org/2000/svg" xmlns:xlink="http://www.w3.org/1999/xlink" x="0px" y="0px"
	 width="64px" height="64px" viewBox="0 0 64 64" enable-background="new 0 0 64 64" xml:space="preserve">
<g>
	<g>
		<rect x="9.5" y="15.5" fill="#282828" width="15" height="8"/>
		<path fill="#3C3C3C" d="M24,16v7H10v-7H24 M25,15h-1H10H9v1v7v1h1h14h1v-1v-7V15L25,15z"/>
	</g>
	<g>
		<rect x="24.5" y="15.5" fill="#282828" width="15" height="8"/>
		<path fill="#3C3C3C" d="M39,16v7H25v-7H39 M40,15h-1H25h-1v1v7v1h1h14h1v-1v-7V15L40,15z"/>
	</g>
	<g>
		<rect x="39.5" y="15.5" fill="#282828" width="15" height="8"/>
		<path fill="#3C3C3C" d="M54,16v7H40v-7H54 M55,15h-1H40h-1v1v7v1h1h14h1v-1v-7V15L55,15z"/>
	</g>
	<g>
		<rect x="9.5" y="23.5" fill="#282828" width="15" height="11"/>
		<path fill="#3C3C3C" d="M24,24v10H10V24H24 M25,23h-1H10H9v1v10v1h1h14h1v-1V24V23L25,23z"/>
	</g>
	<g>
		<rect x="24.5" y="23.5" fill="#282828" width="15" height="11"/>
		<path fill="#3C3C3C" d="M39,24v10H25V24H39 M40,23h-1H25h-1v1v10v1h1h14h1v-1V24V23L40,23z"/>
	</g>
	<g>
		<rect x="39.5" y="23.5" fill="#282828" width="15" height="11"/>
		<path fill="#3C3C3C" d="M54,24v10H40V24H54 M55,23h-1H40h-1v1v10v1h1h14h1v-1V24V23L55,23z"/>
	</g>
	<g>
		<polygon fill="#F0F0F0" points="55.5,53.5 55.5,18.5 8.5,18.5 8.5,53.5 3.5,53.5 3.5,13.5 60.5,13.5 60.5,53.5 		"/>
		<path fill="#C8C8C8" d="M60,14v4v35h-4V18H8v35H4V18v-4h4h48H60 M61,13h-1h-4H8H4H3v1v4v35v1h1h4h1v-1V19h46v34v1h1h4h1v-1V18v-4
			V13L61,13z"/>
	</g>
</g>
</svg>
