<?xml version="1.0" encoding="utf-8"?>
<!-- Generator: Adobe Illustrator 18.1.1, SVG Export Plug-In . SVG Version: 6.00 Build 0)  -->
<svg version="1.1" id="Ebene_1" xmlns="http://www.w3.org/2000/svg" xmlns:xlink="http://www.w3.org/1999/xlink" x="0px" y="0px"
	 width="64px" height="64px" viewBox="0 0 64 64" enable-background="new 0 0 64 64" xml:space="preserve">
<g>
	<g>
		<rect x="9.5" y="15.5" fill="#282828" width="15" height="11"/>
		<path fill="#3C3C3C" d="M24,16v10H10V16H24 M25,15h-1H10H9v1v10v1h1h14h1v-1V16V15L25,15z"/>
	</g>
	<g>
		<rect x="24.5" y="15.5" fill="#282828" width="15" height="11"/>
		<path fill="#3C3C3C" d="M39,16v10H25V16H39 M40,15h-1H25h-1v1v10v1h1h14h1v-1V16V15L40,15z"/>
	</g>
	<g>
		<rect x="39.5" y="15.5" fill="#282828" width="15" height="11"/>
		<path fill="#3C3C3C" d="M54,16v10H40V16H54 M55,15h-1H40h-1v1v10v1h1h14h1v-1V16V15L55,15z"/>
	</g>
	<g>
		<rect x="9.5" y="26.5" fill="#282828" width="15" height="11"/>
		<path fill="#3C3C3C" d="M24,27v10H10V27H24 M25,26h-1H10H9v1v10v1h1h14h1v-1V27V26L25,26z"/>
	</g>
	<g>
		<rect x="24.5" y="26.5" fill="#282828" width="15" height="11"/>
		<path fill="#3C3C3C" d="M39,27v10H25V27H39 M40,26h-1H25h-1v1v10v1h1h14h1v-1V27V26L40,26z"/>
	</g>
	<g>
		<rect x="39.5" y="26.5" fill="#282828" width="15" height="11"/>
		<path fill="#3C3C3C" d="M54,27v10H40V27H54 M55,26h-1H40h-1v1v10v1h1h14h1v-1V27V26L55,26z"/>
	</g>
	<g>
		<rect x="9.5" y="37.5" fill="#282828" width="15" height="11"/>
		<path fill="#3C3C3C" d="M24,38v10H10V38H24 M25,37h-1H10H9v1v10v1h1h14h1v-1V38V37L25,37z"/>
	</g>
	<g>
		<rect x="24.5" y="37.5" fill="#282828" width="15" height="11"/>
		<path fill="#3C3C3C" d="M39,38v10H25V38H39 M40,37h-1H25h-1v1v10v1h1h14h1v-1V38V37L40,37z"/>
	</g>
	<g>
		<rect x="39.5" y="37.5" fill="#282828" width="15" height="11"/>
		<path fill="#3C3C3C" d="M54,38v10H40V38H54 M55,37h-1H40h-1v1v10v1h1h14h1v-1V38V37L55,37z"/>
	</g>
	<g>
		<polygon fill="#F0F0F0" points="55.5,53.5 55.5,18.5 8.5,18.5 8.5,53.5 3.5,53.5 3.5,13.5 60.5,13.5 60.5,53.5 		"/>
		<path fill="#C8C8C8" d="M60,14v4v35h-4V18H8v35H4V18v-4h4h48H60 M61,13h-1h-4H8H4H3v1v4v35v1h1h4h1v-1V19h46v34v1h1h4h1v-1V18v-4
			V13L61,13z"/>
	</g>
</g>
</svg>
