<?xml version="1.0" encoding="utf-8"?>
<!-- Generator: Adobe Illustrator 18.1.1, SVG Export Plug-In . SVG Version: 6.00 Build 0)  -->
<svg version="1.1" id="Ebene_1" xmlns="http://www.w3.org/2000/svg" xmlns:xlink="http://www.w3.org/1999/xlink" x="0px" y="0px"
	 width="64px" height="64px" viewBox="0 0 64 64" enable-background="new 0 0 64 64" xml:space="preserve">
<g>
	<g>
		<polygon fill="#F0F0F0" points="55.5,53.5 55.5,18.5 8.5,18.5 8.5,53.5 3.5,53.5 3.5,13.5 60.5,13.5 60.5,53.5 		"/>
		<path fill="#C8C8C8" d="M60,14v4v35h-4V18H8v35H4V18v-4h4h48H60 M61,13h-1h-4H8H4H3v1v4v35v1h1h4h1v-1V19h46v34v1h1h4h1v-1V18v-4
			V13L61,13z"/>
	</g>
</g>
</svg>
