<?xml version="1.0" encoding="utf-8"?>
<!-- Generator: Adobe Illustrator 18.1.1, SVG Export Plug-In . SVG Version: 6.00 Build 0)  -->
<svg version="1.1" id="Ebene_1" xmlns="http://www.w3.org/2000/svg" xmlns:xlink="http://www.w3.org/1999/xlink" x="0px" y="0px"
	 width="64px" height="64px" viewBox="0 0 64 64" enable-background="new 0 0 64 64" xml:space="preserve">
<g>
	<g>
		<rect x="9.5" y="16.5" fill="#282828" width="15" height="11"/>
		<path fill="#3C3C3C" d="M24,17v10H10V17H24 M25,16h-1H10H9v1v10v1h1h14h1v-1V17V16L25,16z"/>
	</g>
	<g>
		<rect x="24.5" y="16.5" fill="#282828" width="15" height="11"/>
		<path fill="#3C3C3C" d="M39,17v10H25V17H39 M40,16h-1H25h-1v1v10v1h1h14h1v-1V17V16L40,16z"/>
	</g>
	<g>
		<rect x="39.5" y="16.5" fill="#282828" width="15" height="11"/>
		<path fill="#3C3C3C" d="M54,17v10H40V17H54 M55,16h-1H40h-1v1v10v1h1h14h1v-1V17V16L55,16z"/>
	</g>
	<g>
		<rect x="9.5" y="27.5" fill="#282828" width="15" height="11"/>
		<path fill="#3C3C3C" d="M24,28v10H10V28H24 M25,27h-1H10H9v1v10v1h1h14h1v-1V28V27L25,27z"/>
	</g>
	<g>
		<rect x="24.5" y="27.5" fill="#282828" width="15" height="11"/>
		<path fill="#3C3C3C" d="M39,28v10H25V28H39 M40,27h-1H25h-1v1v10v1h1h14h1v-1V28V27L40,27z"/>
	</g>
	<g>
		<rect x="39.5" y="27.5" fill="#282828" width="15" height="11"/>
		<path fill="#3C3C3C" d="M54,28v10H40V28H54 M55,27h-1H40h-1v1v10v1h1h14h1v-1V28V27L55,27z"/>
	</g>
	<g>
		<polygon fill="#F0F0F0" points="55.5,53.5 55.5,18.5 8.5,18.5 8.5,53.5 3.5,53.5 3.5,13.5 60.5,13.5 60.5,53.5 		"/>
		<path fill="#C8C8C8" d="M60,14v4v35h-4V18H8v35H4V18v-4h4h48H60 M61,13h-1h-4H8H4H3v1v4v35v1h1h4h1v-1V19h46v34v1h1h4h1v-1V18v-4
			V13L61,13z"/>
	</g>
</g>
</svg>
