<?xml version="1.0" encoding="utf-8"?>
<!-- Generator: Adobe Illustrator 18.1.1, SVG Export Plug-In . SVG Version: 6.00 Build 0)  -->
<svg version="1.1" id="Ebene_1" xmlns="http://www.w3.org/2000/svg" xmlns:xlink="http://www.w3.org/1999/xlink" x="0px" y="0px"
	 width="64px" height="64px" viewBox="0 0 64 64" enable-background="new 0 0 64 64" xml:space="preserve">
<g>
	<g>
		<polygon fill="#FFCCD3" points="12.5,45.5 12.5,25.35 32,18.53 51.5,25.35 51.5,45.5 		"/>
		<g>
			<path fill="#FF6666" d="M32,19.06l19,6.65V45H13V25.71L32,19.06 M32,18l-20,7v21h40V25L32,18L32,18z"/>
		</g>
	</g>
	<line fill="none" stroke="#2E7DE5" stroke-width="1.5" stroke-miterlimit="10" x1="32" y1="18.5" x2="6.29" y2="27.5"/>
	<line fill="none" stroke="#2E7DE5" stroke-width="1.5" stroke-miterlimit="10" x1="32" y1="18.5" x2="57.71" y2="27.5"/>
	<g>
		<rect x="20.5" y="27.5" fill="#FFCCD3" width="23" height="18"/>
		<g>
			<path fill="#FF6666" d="M43,28v17H21V28H43 M44,27H20v19h24V27L44,27z"/>
		</g>
	</g>
</g>
</svg>
