<?xml version="1.0" encoding="utf-8"?>
<!-- Generator: Adobe Illustrator 18.1.1, SVG Export Plug-In . SVG Version: 6.00 Build 0)  -->
<svg version="1.1" id="Ebene_1" xmlns="http://www.w3.org/2000/svg" xmlns:xlink="http://www.w3.org/1999/xlink" x="0px" y="0px"
	 width="64px" height="64px" viewBox="0 0 64 64" enable-background="new 0 0 64 64" xml:space="preserve">
<g>
	<g>
		<polygon fill="#F0F0F0" points="0.5,59.5 0.5,14.31 20,4.56 39.5,14.31 39.5,59.5 		"/>
		<path fill="#C8C8C8" d="M20,5.12l19,9.5V59H1V14.62L20,5.12 M20,4L0,14v46h40V14L20,4L20,4z"/>
	</g>
	<g>
		<rect x="0.5" y="33.5" fill="#F0F0F0" width="39" height="13"/>
		<g>
			<path fill="#C8C8C8" d="M39,34v12H1V34H39 M40,33H0v14h40V33L40,33z"/>
		</g>
	</g>
	<g>
		<rect x="0.5" y="20.5" fill="#F0F0F0" width="39" height="13"/>
		<g>
			<path fill="#C8C8C8" d="M39,21v12H1V21H39 M40,20H0v14h40V20L40,20z"/>
		</g>
	</g>
	<g>
		<polygon fill="#FFCCD3" points="39.5,46.5 39.5,28.6 60.5,32.42 60.5,46.5 		"/>
		<g>
			<path fill="#FF6666" d="M40,29.2l20,3.64V46H40V29.2 M39,28v19h22V32L39,28L39,28z"/>
		</g>
	</g>
	<g>
		<rect x="5.43" y="23.43" fill="#F0F0F0" width="5.13" height="6.13"/>
		<path fill="#C8C8C8" d="M10.13,23.87v5.27H5.87v-5.27H10.13 M11,23H5v7h6V23L11,23z"/>
	</g>
	<g>
		<rect x="10.43" y="23.43" fill="#F0F0F0" width="5.13" height="6.13"/>
		<path fill="#C8C8C8" d="M15.13,23.87v5.27h-4.27v-5.27H15.13 M16,23h-6v7h6V23L16,23z"/>
	</g>
	<g>
		<rect x="28.5" y="36.5" fill="#F0F0F0" width="6" height="10"/>
		<path fill="#C8C8C8" d="M34,37v9h-5v-9H34 M35,36h-7v11h7V36L35,36z"/>
	</g>
	<g>
		<rect x="19.43" y="23.43" fill="#F0F0F0" width="5.13" height="6.13"/>
		<path fill="#C8C8C8" d="M24.13,23.87v5.27h-4.27v-5.27H24.13 M25,23h-6v7h6V23L25,23z"/>
	</g>
	<g>
		<rect x="5.43" y="36.43" fill="#F0F0F0" width="5.13" height="6.13"/>
		<path fill="#C8C8C8" d="M10.13,36.87v5.27H5.87v-5.27H10.13 M11,36H5v7h6V36L11,36z"/>
	</g>
	<g>
		<rect x="10.43" y="36.43" fill="#F0F0F0" width="5.13" height="6.13"/>
		<path fill="#C8C8C8" d="M15.13,36.87v5.27h-4.27v-5.27H15.13 M16,36h-6v7h6V36L16,36z"/>
	</g>
	<g>
		<rect x="19.43" y="36.43" fill="#F0F0F0" width="5.13" height="6.13"/>
		<path fill="#C8C8C8" d="M24.13,36.87v5.27h-4.27v-5.27H24.13 M25,36h-6v7h6V36L25,36z"/>
	</g>
	<g>
		<rect x="28.47" y="23.47" fill="#F0F0F0" width="6.06" height="6.06"/>
		<path fill="#C8C8C8" d="M34.06,23.94v5.13h-5.13v-5.13H34.06 M35,23h-7v7h7V23L35,23z"/>
	</g>
	<rect x="32" y="41" fill="#C8C8C8" width="1" height="1"/>
	<g>
		<polygon fill="#F0F0F0" points="0.5,20.5 0.5,14.31 20,4.56 39.5,14.31 39.5,20.5 		"/>
		<g>
			<path fill="#C8C8C8" d="M20,5.12l19,9.5V20H1v-5.38L20,5.12 M20,4L0,14v7h40v-7L20,4L20,4z"/>
		</g>
	</g>
	<line fill="none" stroke="#2E7DE5" stroke-width="1.5" stroke-miterlimit="10" x1="20" y1="4.5" x2="-6" y2="17.5"/>
	<line fill="none" stroke="#2E7DE5" stroke-width="1.5" stroke-miterlimit="10" x1="20" y1="4.5" x2="46" y2="17.5"/>
	<g>
		<rect x="13.5" y="12.5" fill="#F0F0F0" width="5" height="5"/>
		<g>
			<path fill="#C8C8C8" d="M18,13v4h-4v-4H18 M19,12h-6v6h6V12L19,12z"/>
		</g>
	</g>
	<g>
		<rect x="21.5" y="12.5" fill="#F0F0F0" width="5" height="5"/>
		<g>
			<path fill="#C8C8C8" d="M26,13v4h-4v-4H26 M27,12h-6v6h6V12L27,12z"/>
		</g>
	</g>
	<g>
		<rect x="42.5" y="36.5" fill="#FFCCD3" width="15" height="10"/>
		<path fill="#FF6666" d="M57,37v9H43v-9H57 M58,36H42v11h16V36L58,36z"/>
	</g>
	<line fill="none" stroke="#2E7DE5" stroke-width="1.5" stroke-miterlimit="10" x1="39" y1="28" x2="64" y2="32.55"/>
</g>
</svg>
