<?xml version="1.0" encoding="utf-8"?>
<!-- Generator: Adobe Illustrator 18.1.1, SVG Export Plug-In . SVG Version: 6.00 Build 0)  -->
<svg version="1.1" id="Ebene_1" xmlns="http://www.w3.org/2000/svg" xmlns:xlink="http://www.w3.org/1999/xlink" x="0px" y="0px"
	 width="64px" height="64px" viewBox="0 0 64 64" enable-background="new 0 0 64 64" xml:space="preserve">
<g>
	<path fill="#006633" stroke="#009949" stroke-width="0.25" stroke-miterlimit="10" d="M44.22,39.65c-1.58,0-2.94,0.6-3.63,1.47
		l-6.06-4.51l-3.83-0.97l-3.84,1.45l-2.25,1.45c-1.09-1.35-3.01-2.25-5.21-2.25c-3.4,0-6.16,2.14-6.16,4.77s2.76,4.77,6.16,4.77
		c2.47,0,4.58-1.13,5.57-2.76c0.52,1.14,1.61,1.79,2.63,1.5c0.3-0.09,0.56-0.25,0.77-0.46c0.62,1.21,2.42,1.63,4.13,0.93
		c0.44-0.18,0.83-0.42,1.16-0.69c0.25,1.35,1.96,2.4,4.06,2.4c2,0,3.66-0.95,4.03-2.2c0.69,0.34,1.54,0.56,2.46,0.56
		c2.27,0,4.11-1.22,4.11-2.73C48.33,40.88,46.49,39.65,44.22,39.65z"/>
	<path fill="#006633" stroke="#009949" stroke-width="0.25" stroke-miterlimit="10" d="M47.16,17.62c0.19-0.32,0.31-0.7,0.31-1.1
		c0-1.22-1.02-2.21-2.28-2.21c-0.48,0-0.93,0.15-1.3,0.4l-3.89-3.26l-7.66,1.02l-7.23,5.19L14.3,25.42
		c-0.38-0.27-0.84-0.44-1.35-0.44c-1.26,0-2.28,0.99-2.28,2.21c0,1.22,1.02,2.21,2.28,2.21c0.32,0,0.62-0.07,0.9-0.18l0.66,2.07
		l9.35-1.21l1.31-4.03l15.32-2.91l7.47-4.8L47.16,17.62z"/>
	<path fill="#00A532" stroke="#2AAA00" stroke-width="0.25" stroke-miterlimit="10" d="M59.77,25.91c-0.85-0.96-1.93-1.45-2.73-1.33
		c1.16-1.09,1.42-2.8,0.53-4.03c-0.6-0.83-1.58-1.24-2.59-1.18c0.22-0.79,0.13-1.62-0.34-2.28c-0.9-1.25-2.81-1.41-4.25-0.37
		c-0.06,0.04-0.1,0.09-0.15,0.13c-0.05-0.29-0.16-0.58-0.35-0.83c-0.71-0.99-2.19-1.13-3.31-0.33c-0.64,0.46-1.01,1.14-1.08,1.82
		c-0.58-0.54-1.4-0.88-2.32-0.88c-1.74,0-3.16,1.2-3.16,2.68c0,0.69,0.32,1.31,0.82,1.79l-0.02,0.02c-0.73-0.94-2.17-1.07-3.26-0.28
		c-1.11,0.8-1.44,2.26-0.73,3.24c0.49,0.68,1.34,0.95,2.19,0.8l0.26,3.38l7.52,2.42h6.74l0.7-0.37c0.09,0.17,0.19,0.33,0.32,0.47
		c0.83,0.93,2.23,1.04,3.13,0.24c0.48-0.43,0.72-1.03,0.71-1.64c0.78,0.38,1.55,0.41,2.02-0.01C61.17,28.72,60.88,27.16,59.77,25.91
		z"/>
	<path fill="#008833" stroke="#2AAA00" stroke-width="0.25" stroke-miterlimit="10" d="M58.06,35.69c-0.59-0.5-1.25-0.81-1.86-0.91
		c0.65-0.79,0.95-1.82,0.69-2.84c-0.44-1.77-2.32-2.83-4.21-2.36c-1.62,0.4-2.7,1.8-2.7,3.3l-8.96,0.2l-2.97,2.17
		c-0.26-0.05-0.53-0.08-0.81-0.08c-1.9,0-3.44,1.15-3.44,2.56c0,0.84,0.55,1.58,1.4,2.05c-0.52,0.75-0.69,1.61-0.36,2.35
		c0.59,1.29,2.46,1.69,4.2,0.9c0.25-0.11,0.48-0.25,0.7-0.4c-0.01,0.65,0.19,1.25,0.64,1.66c1.03,0.97,2.92,0.62,4.22-0.77
		c0.2-0.22,0.37-0.45,0.52-0.69c0.84,0.71,2.17,1.01,3.54,0.67c1.11-0.28,1.99-0.91,2.51-1.67c0.8,0.63,1.99,0.89,3.2,0.59
		c1.59-0.4,2.69-1.62,2.77-2.92c0.79,0.21,1.53,0.09,1.94-0.39C59.78,38.29,59.32,36.76,58.06,35.69z"/>
	<path fill="#16BF2E" stroke="#2AAA00" stroke-width="0.25" stroke-miterlimit="10" d="M55.66,32.16c0.16-1.35-0.49-2.53-1.45-2.64
		c-0.2-0.02-0.39,0.01-0.58,0.08c0.19-0.28,0.3-0.6,0.3-0.93c0-1.2-1.34-2.17-2.98-2.17c-0.81,0-1.55,0.24-2.08,0.62
		c0.01-0.38-0.08-0.74-0.31-1.03c-0.68-0.84-2.2-0.74-3.4,0.23c-0.6,0.48-1,1.09-1.17,1.68c-0.38-0.36-0.88-0.65-1.48-0.82
		c-1.48-0.42-2.93,0.07-3.22,1.11s0.66,2.23,2.15,2.65c0.07,0.02,0.15,0.03,0.22,0.05l-0.56,0.98l1.33,1.34
		c-0.18,0.66-0.09,1.5,0.31,2.3c0.57,1.14,1.58,1.81,2.46,1.75c-0.07,0.94,0.4,1.82,1.24,2.15c1.06,0.42,2.3-0.2,2.76-1.38
		c0.03-0.08,0.05-0.17,0.07-0.25c0.25,0.2,0.55,0.38,0.88,0.53c1.28,0.58,2.57,0.48,2.9-0.23c0.16-0.34,0.05-0.76-0.23-1.16
		c1.19,0.49,2.37,0.36,2.69-0.32c0.32-0.7-0.39-1.71-1.59-2.28C54.76,34.31,55.52,33.38,55.66,32.16z"/>
	<g>
		<path fill="#AD7440" d="M33.31,63.25c-0.07,0-0.14-0.03-0.19-0.09c-0.01-0.01-0.95-1.12-2.72-1.12c-0.82,0-1.7,0.24-2.62,0.7
			c-0.04,0.02-0.07,0.03-0.11,0.03c-0.08,0-0.16-0.04-0.21-0.11c-0.07-0.1-0.05-0.25,0.04-0.33c0.02-0.02,2.1-1.89,2.1-5.39
			c0-3.48-1.01-4.59-1.02-4.6c-0.09-0.1-0.09-0.26,0.01-0.35l0.56-0.53c0.05-0.05,0.11-0.07,0.17-0.07c0.06,0,0.12,0.02,0.17,0.06
			c0.04,0.03,0.2,0.19,0.38,0.4v-7c0-0.04,0.13-2.99-0.67-4.36c-0.55-0.94-1.19-1.43-2.07-2.09c-0.42-0.32-0.9-0.68-1.43-1.14
			c-0.36-0.31-0.57-0.55-0.48-0.79c0.03-0.08,0.12-0.22,0.38-0.22c0.59,0,2.39,0.79,2.59,0.88c0.52,0.37,1.75,1.22,2.38,1.57
			c0.22-1.03,0.3-2.15,0.07-2.33c-0.08-0.07-0.12-0.18-0.08-0.28s0.13-0.17,0.24-0.17h1.27c0.07,0,0.14,0.03,0.19,0.08
			s0.07,0.12,0.06,0.2c0,0.01-0.13,1.11,0.06,2.1c0.42-0.98,1.08-2.29,1.59-2.38c0.01,0,0.03,0,0.04,0c0.04,0,0.09,0.01,0.12,0.03
			l1.38,0.79c0.1,0.06,0.15,0.18,0.11,0.3c-0.03,0.1-0.13,0.17-0.24,0.17c-0.01,0-0.03,0-0.03,0c-0.21,0-1.85,0.14-1.85,4.61v4.99
			c0.07-0.05,0.14-0.1,0.21-0.13c0.03-0.01,0.07-0.02,0.1-0.02c0.05,0,0.09,0.01,0.14,0.04c0.07,0.05,0.11,0.12,0.11,0.21v0.75
			c0,0.11-0.07,0.21-0.18,0.24l0,0c0.01,0-0.59,0.44-0.59,3.79c0,4.21,0.31,8.39,2.57,10.54c0.06,0.06,0.09,0.14,0.08,0.22
			c-0.01,0.08-0.06,0.15-0.13,0.19c-0.03,0.01-0.19,0.09-0.5,0.09c-0.41,0-1.09-0.13-2.08-0.71c0.05,0.23,0.14,0.53,0.34,0.88
			c0.06,0.11,0.03,0.25-0.08,0.33C33.41,63.24,33.36,63.25,33.31,63.25z"/>
		<path fill="#724524" d="M33.99,36.16l1.38,0.79c0,0-0.02,0-0.05,0c-0.32,0-2.08,0.21-2.08,4.86v5.58c0,0,0.34-0.39,0.56-0.48v0.75
			c0,0-0.78,0.22-0.78,4.03s0.19,8.39,2.64,10.72c0,0-0.12,0.06-0.39,0.06c-0.41,0-1.18-0.15-2.38-0.94c0,0-0.07,0.61,0.41,1.48
			c0,0-0.99-1.22-2.92-1.22c-0.77,0-1.68,0.19-2.73,0.73c0,0,2.18-1.92,2.18-5.58s-1.09-4.78-1.09-4.78l0.56-0.53
			c0,0,0.7,0.63,0.8,1.14v-7.93c0,0,0.15-3.03-0.7-4.49s-1.9-1.87-3.56-3.3c-0.49-0.42-0.49-0.57-0.26-0.57
			c0.55,0,2.49,0.86,2.49,0.86s2.07,1.48,2.66,1.7c0,0,0.6-2.45,0.05-2.89h1.27c0,0-0.22,1.72,0.27,2.89
			C32.32,39.04,33.41,36.26,33.99,36.16 M32.05,36.16L32.05,36.16 M32.06,35.66L32.06,35.66h-1.27c-0.21,0-0.4,0.13-0.47,0.34
			s-0.01,0.42,0.16,0.56c0.1,0.16,0.06,0.92-0.09,1.74c-0.59-0.36-1.46-0.95-2.01-1.35c-0.03-0.02-0.06-0.04-0.09-0.05
			c-0.48-0.21-2.08-0.9-2.69-0.9c-0.43,0-0.58,0.29-0.61,0.38c-0.17,0.45,0.26,0.82,0.55,1.07c0.54,0.47,1.02,0.83,1.45,1.15
			c0.86,0.65,1.48,1.12,2.01,2.02c0.63,1.09,0.67,3.41,0.64,4.21l0,6.41c-0.09-0.07-0.19-0.1-0.3-0.1c-0.12,0-0.25,0.05-0.35,0.14
			l-0.56,0.53c-0.1,0.09-0.15,0.22-0.15,0.35c0,0.13,0.05,0.26,0.14,0.36c0,0,0.95,1.08,0.95,4.43c0,3.37-1.99,5.18-2.01,5.2
			c-0.19,0.17-0.22,0.45-0.08,0.66c0.1,0.14,0.25,0.22,0.41,0.22c0.08,0,0.15-0.02,0.23-0.05c0.88-0.45,1.72-0.68,2.51-0.68
			c1.67,0,2.52,1.02,2.53,1.03c0.1,0.12,0.24,0.18,0.39,0.18c0.1,0,0.19-0.03,0.28-0.09c0.21-0.15,0.28-0.43,0.16-0.66
			c-0.05-0.09-0.09-0.17-0.13-0.25c0.75,0.36,1.3,0.45,1.65,0.45c0.35,0,0.55-0.08,0.62-0.12c0.14-0.07,0.24-0.21,0.27-0.37
			s-0.03-0.32-0.15-0.43c-2.19-2.08-2.49-6.2-2.49-10.35c0-2.83,0.44-3.5,0.52-3.59c0.16-0.09,0.26-0.25,0.26-0.44V46.9
			c0-0.17-0.09-0.33-0.23-0.42c-0.08-0.05-0.18-0.08-0.27-0.08c-0.02,0-0.04,0-0.06,0v-4.6c0-2.3,0.44-3.38,0.82-3.87
			c0.35-0.47,0.7-0.49,0.76-0.49c0.03,0.01,0.06,0.01,0.09,0.01c0.2,0,0.38-0.13,0.45-0.33c0.08-0.23-0.03-0.49-0.24-0.61
			l-1.38-0.79c-0.08-0.04-0.16-0.07-0.25-0.07c-0.03,0-0.05,0-0.08,0.01c-0.17,0.03-0.62,0.1-1.4,1.69
			c-0.02-0.45,0.01-0.86,0.03-1.09c0.01-0.03,0.01-0.07,0.01-0.11C32.56,35.88,32.33,35.66,32.06,35.66L32.06,35.66z"/>
	</g>
	<path fill="#99561F" d="M25.85,37.06c1.65,1.43,2.71,1.84,3.56,3.3c0.85,1.45,0.7,4.49,0.7,4.49v3.22
		c0.19,0.43,0.42,0.82,0.67,0.98c0.69,0.44,0.89,2.33,0.76,4.07c-0.13,1.75,0.84,2.09,0.84,2.09s0.34-0.38,0.68-1.04
		c-0.04-0.84-0.05-1.67-0.05-2.47c0-3.81,0.78-4.03,0.78-4.03V46.9c-0.22,0.1-0.56,0.48-0.56,0.48v-5.58c0-5.12,2.13-4.86,2.13-4.86
		l-1.38-0.79c-0.58,0.1-1.67,2.89-1.67,2.89c-0.48-1.16-0.27-2.89-0.27-2.89h-1.27c0.55,0.44-0.05,2.89-0.05,2.89
		c-0.59-0.22-2.66-1.7-2.66-1.7S24.2,35.62,25.85,37.06z"/>
	<path fill="#16BF2E" stroke="#2AAA00" stroke-width="0.25" stroke-miterlimit="10" d="M44.16,11.48c-0.77-0.15-1.51-0.12-2.14,0.04
		c0.93-1.68,0.22-4.06-1.74-5.5C38.75,4.9,36.9,4.68,35.52,5.3c0.06-0.87-0.21-1.84-0.84-2.68c-1.19-1.58-3.17-2.09-4.42-1.15
		c-0.91,0.68-1.17,1.94-0.8,3.19c-0.32-0.21-0.67-0.33-1.04-0.33c-1.42,0-2.57,1.72-2.57,3.83c0,1.56,0.63,2.89,1.52,3.49
		l-0.51,1.11l-1.5-0.34c0.3-0.45,0.49-0.96,0.49-1.52c0-1.65-1.53-2.98-3.42-2.98c-1.89,0-3.42,1.34-3.42,2.98s1.53,2.98,3.42,2.98
		c0.78,0,1.5-0.24,2.07-0.63l0.51,0.63l1.65,0.54c-1.01,0.88-1.54,1.74-1.27,2.31c0.47,0.99,3.1,0.73,5.88-0.59
		c1.36-0.64,2.5-1.41,3.25-2.15c-0.15,0.4-0.17,0.79-0.01,1.13c0.47,0.99,2.2,1.15,3.86,0.37c0.84-0.4,1.5-0.96,1.89-1.54
		c0.34,0.95,1.49,1.8,2.99,2.09c1.94,0.37,3.71-0.34,3.95-1.6C47.47,13.18,46.1,11.86,44.16,11.48z"/>
	<path fill="#008833" stroke="#2AAA00" stroke-width="0.25" stroke-miterlimit="10" d="M26.49,38.11c-0.4-0.85-1.04-1.44-1.64-1.6
		l-0.56-3.42l-10.14,0.58l-4.23,1.59c-0.59-0.64-1.46-1.06-2.46-1.06c-1.77,0-3.2,1.3-3.2,2.9c0,1.6,1.43,2.9,3.2,2.9
		c0.01,0,0.01,0,0.01,0c-0.31,0.61-0.37,1.27-0.11,1.84c0.55,1.2,2.3,1.58,3.91,0.84c0,0,0,0,0,0c0.7,1.1,2.37,1.8,4.27,1.64
		c1.57-0.13,2.89-0.82,3.59-1.73c0.66,0.51,1.84,0.65,3.06,0.29c1.45-0.43,2.47-1.43,2.49-2.36c0.51,0.45,1.08,0.63,1.52,0.42
		C26.95,40.59,27.07,39.32,26.49,38.11z"/>
	<path fill="#16BF2E" stroke="#2AAA00" stroke-width="0.25" stroke-miterlimit="10" d="M25.85,31.48l-3.93-6.01l-5.24,1.17
		c-0.13-0.72-0.5-1.31-1.1-1.56c-1.11-0.47-2.52,0.39-3.16,1.91c-0.29,0.69-0.36,1.4-0.26,2.01c-0.53-0.7-1.45-1.17-2.48-1.17
		c-1.65,0-2.98,1.17-2.98,2.62c0,0.33,0.08,0.65,0.21,0.94c-0.17-0.04-0.34-0.08-0.51-0.1c-1.64-0.18-3.07,0.63-3.21,1.83
		c-0.1,0.9,0.57,1.76,1.61,2.2C4.86,35.66,5,35.96,5.24,36.2c0.7,0.7,1.92,0.64,2.99-0.05c-0.17,1.18,0.24,2.25,1.11,2.62
		c0.92,0.39,2.06-0.15,2.78-1.22c-0.05,1.14,0.38,2.09,1.15,2.31c0.89,0.26,1.92-0.54,2.47-1.83c0.23,0.52,0.59,0.88,1.03,0.94
		c0.74,0.11,1.48-0.61,1.89-1.71c0.27,0.91,0.9,1.59,1.72,1.71c1.25,0.19,2.47-0.99,2.71-2.62c0.11-0.73-0.01-1.42-0.27-1.98
		L25.85,31.48z"/>
	<path fill="#007F33" stroke="#009949" stroke-width="0.25" stroke-miterlimit="10" d="M30.89,18.86c0.95-0.44,1.6-1.32,1.6-2.34
		c0-1.46-1.31-2.64-2.93-2.64c-1.62,0-2.93,1.18-2.93,2.64c0,0.12,0.02,0.24,0.04,0.36l-11.85,3.47c-0.4-1.22-1.48-2.11-2.75-2.11
		c-1.62,0-2.93,1.41-2.93,3.15c0,1.22,0.65,2.26,1.6,2.79c-0.36,0.36-0.59,0.8-0.59,1.28c0,1.2,1.34,2.17,2.98,2.17
		c0.75,0,1.42-0.21,1.94-0.54c0.15,1.09,1.33,1.94,2.78,1.94c1.55,0,2.81-0.97,2.81-2.17c0-0.07-0.02-0.14-0.03-0.21l5.56-0.76
		l1.79-2.2c0.56,0.2,1.19,0.33,1.88,0.33c2.18,0,3.95-1.18,3.95-2.64C33.8,20.18,32.56,19.17,30.89,18.86z"/>
	<path fill="#00A532" stroke="#2AAA00" stroke-width="0.25" stroke-miterlimit="10" d="M31.23,14.5c-0.47-0.75-1.29-1.1-1.94-0.87
		c0.06-0.13,0.11-0.26,0.14-0.4c0.25-1.18-0.69-2.38-2.1-2.68c-1.07-0.23-2.1,0.12-2.65,0.81c-0.39-0.98-1.3-1.66-2.36-1.66
		c-1.38,0-2.5,1.17-2.56,2.63c-0.54-0.72-1.44-1.19-2.46-1.19c-1.65,0-2.98,1.23-2.98,2.74c0,0.43,0.11,0.82,0.3,1.18
		c-0.1-0.03-0.2-0.07-0.3-0.09c-1.61-0.34-3.13,0.33-3.38,1.51c-0.16,0.75,0.22,1.51,0.93,2.06c-1.31-0.11-2.47,0.56-2.7,1.62
		c-0.25,1.18,0.75,2.39,2.23,2.71c0.79,0.17,1.55,0.04,2.13-0.28c0.17,0.91,0.98,1.72,2.1,1.96c1.35,0.29,2.64-0.36,2.97-1.45
		c0.73,0.52,1.9,0.41,2.8-0.32c0.83-0.68,1.18-1.67,0.95-2.47c0.44,0.44,1.07,0.8,1.81,0.95c1.44,0.31,2.79-0.2,3.25-1.15
		c0.12,0.17,0.27,0.28,0.45,0.33c0.69,0.18,1.51-0.68,1.83-1.92c0.16-0.62,0.17-1.22,0.05-1.69c0.41,0.16,0.84,0.15,1.19-0.06
		C31.62,16.37,31.75,15.34,31.23,14.5z"/>
	<path fill="#007F33" stroke="#009949" stroke-width="0.25" stroke-miterlimit="10" d="M44.06,30.72c-0.89-1.01-2.24-1.28-3.02-0.59
		c-0.05,0.05-0.09,0.1-0.14,0.15l-0.56-0.53l-3.56-1.47l-8.9,0.25l-3.55,0.91c-0.55-0.7-1.38-1.15-2.33-1.15
		c-1.65,0-2.98,1.35-2.98,3.01c0,1.11,0.61,2.07,1.5,2.6c-0.64,0.73-0.93,1.56-0.66,2.28c0.49,1.32,2.61,1.75,4.73,0.97
		c0.23-0.09,0.45-0.19,0.66-0.29c-0.06,0.54,0.06,1.04,0.37,1.43c0.81,1,2.62,0.88,4.04-0.27c0.32-0.26,0.59-0.55,0.81-0.86
		c0.74,0.45,1.72,0.68,2.76,0.58c1.3-0.13,2.4-0.75,3.01-1.59c0.73,0.42,1.66,0.63,2.66,0.53c1.8-0.18,3.19-1.3,3.48-2.63
		c0.68,0.26,1.38,0.2,1.86-0.22C45.04,33.1,44.95,31.73,44.06,30.72z"/>
	<path fill="#00B22E" stroke="#2AAA00" stroke-width="0.25" stroke-miterlimit="10" d="M41.13,28.74c0.09-0.05,0.18-0.1,0.26-0.17
		c1.1-0.91,1.14-2.66,0.11-3.92c-0.73-0.89-1.81-1.27-2.77-1.11c0.26-0.69,0.24-1.45-0.14-2.08c-0.71-1.16-2.36-1.44-3.68-0.63
		c-0.27,0.17-0.5,0.38-0.7,0.6c0.02-0.34-0.04-0.66-0.22-0.94c-0.58-0.94-2.07-1.09-3.32-0.32c-0.74,0.46-1.23,1.13-1.38,1.8
		c-0.01-0.01-0.01-0.02-0.02-0.03c-0.76-1.06-2.47-1.14-3.83-0.17c-1.14,0.81-1.65,2.1-1.34,3.12c-1.29-0.53-2.68-0.23-3.24,0.78
		c-0.46,0.83-0.23,1.89,0.49,2.7c-1.26,0.3-2.16,1.24-2.12,2.32c0.05,1.27,1.39,2.24,2.98,2.18c0.15-0.01,0.3-0.03,0.45-0.06
		c-0.18,0.52-0.18,1.04,0.07,1.45c0.58,0.94,2.19,1.01,3.6,0.14c0.36-0.22,0.67-0.48,0.92-0.76c-0.04,0.5,0.08,0.98,0.38,1.36
		c0.78,0.98,2.46,0.93,3.75-0.1c0.14-0.11,0.26-0.23,0.37-0.35c0.22,0.14,0.45,0.25,0.72,0.31c1.42,0.32,2.87-0.72,3.23-2.34
		c0.07-0.31,0.08-0.61,0.07-0.9c0.08,0.13,0.16,0.25,0.26,0.37c0.94,1.13,2.39,1.48,3.24,0.77c0.53-0.44,0.71-1.19,0.53-1.96
		c0.11,0.05,0.22,0.08,0.34,0.12c0.97,0.26,1.89-0.04,2.06-0.68C42.37,29.69,41.9,29.07,41.13,28.74z"/>
</g>
</svg>
