<?xml version="1.0" encoding="utf-8"?>
<!-- Generator: Adobe Illustrator 18.1.1, SVG Export Plug-In . SVG Version: 6.00 Build 0)  -->
<svg version="1.1" id="Ebene_1" xmlns="http://www.w3.org/2000/svg" xmlns:xlink="http://www.w3.org/1999/xlink" x="0px" y="0px"
	 width="64px" height="64px" viewBox="0 0 64 64" enable-background="new 0 0 64 64" xml:space="preserve">
<g>
	<path fill="#BA7750" d="M27.5,63.5c-1.7,0-3-1.3-3-3v-20c0-1.7,1.3-3,3-3s3,1.3,3,3v20C30.5,62.2,29.2,63.5,27.5,63.5z"/>
	<g>
		<path fill="#A35C3D" d="M27.5,38c1.4,0,2.5,1.1,2.5,2.5v20c0,1.4-1.1,2.5-2.5,2.5S25,61.9,25,60.5v-20C25,39.1,26.1,38,27.5,38
			 M27.5,37c-1.9,0-3.5,1.6-3.5,3.5v20c0,1.9,1.6,3.5,3.5,3.5s3.5-1.6,3.5-3.5v-20C31,38.6,29.5,37,27.5,37L27.5,37z"/>
	</g>
</g>
<g>
	<path fill="#BA7750" d="M36.5,63.5c-1.7,0-3-1.3-3-3v-20c0-1.7,1.3-3,3-3s3,1.3,3,3v20C39.5,62.2,38.2,63.5,36.5,63.5z"/>
	<g>
		<path fill="#A35C3D" d="M36.5,38c1.4,0,2.5,1.1,2.5,2.5v20c0,1.4-1.1,2.5-2.5,2.5S34,61.9,34,60.5v-20C34,39.1,35.1,38,36.5,38
			 M36.5,37c-1.9,0-3.5,1.6-3.5,3.5v20c0,1.9,1.6,3.5,3.5,3.5s3.5-1.6,3.5-3.5v-20C40,38.6,38.5,37,36.5,37L36.5,37z"/>
	</g>
</g>
<g>
	<path fill="#BA7750" d="M43,40.5c-0.8,0-1.5-0.7-1.5-1.5V27.5h3V39C44.5,39.8,43.8,40.5,43,40.5z"/>
	<g>
		<path fill="#A35C3D" d="M44,28v11c0,0.6-0.4,1-1,1s-1-0.4-1-1V28H44 M45,27h-4v12c0,1.1,0.9,2,2,2s2-0.9,2-2V27L45,27z"/>
	</g>
</g>
<g>
	<path d="M30,60v0.5c0,1.4-1.1,2.5-2.5,2.5S25,61.9,25,60.5V60H30 M31,59h-7v1.5c0,1.9,1.6,3.5,3.5,3.5s3.5-1.6,3.5-3.5V59L31,59z"
		/>
</g>
<g>
	<path d="M39,60v0.5c0,1.4-1.1,2.5-2.5,2.5S34,61.9,34,60.5V60H39 M40,59h-7v1.5c0,1.9,1.6,3.5,3.5,3.5s3.5-1.6,3.5-3.5V59L40,59z"
		/>
</g>
<g>
	<path fill="#BA7750" d="M21,40.5c-0.8,0-1.5-0.7-1.5-1.5V27.5h3V39C22.5,39.8,21.9,40.5,21,40.5z"/>
	<g>
		<path fill="#A35C3D" d="M22,28v11c0,0.6-0.4,1-1,1s-1-0.4-1-1V28H22 M23,27h-4v12c0,1.1,0.9,2,2,2s2-0.9,2-2V27L23,27z"/>
	</g>
</g>
<g>
	<rect x="24.5" y="22.5" fill="#BA7750" width="15" height="18"/>
	<g>
		<path fill="#A35C3D" d="M39,23v17H25V23H39 M40,22H24v19h16V22L40,22z"/>
	</g>
</g>
<path fill="#DA4168" d="M35.8,17h-7.5c-5.1,0-9.2,4.1-9.2,9.2v0.6c0,0.1-0.1,0.3-0.1,0.4V30h4v1.6v-3.8c0-1.2,0.4-2.2,1-3.1V36h16
	V24.6c0.5,0.7,0.9,1.6,1,2.5c0,0.1,0,0.1,0,0.1V30h4v-2.2v-0.6v-1.1C45,21.1,40.9,17,35.8,17z"/>
<g>
	<path fill="#472E18" d="M41.1,16.5c-0.8,0-1.4-0.2-1.7-0.5c-0.1-0.1-0.1-0.2-0.1-0.3c0.2-1.4-0.9-4.7-1.2-5.3L37.9,8l1.8,0.4
		c0,0.6-0.1,1.6-0.1,2.6c-0.1,1.4,1.3,3.3,2.3,4.6l0.4,0.5c0.1,0.1,0.1,0.1,0.1,0.1c0,0,0,0,0,0c0,0-0.1,0.1-0.5,0.2
		C41.7,16.5,41.5,16.5,41.1,16.5z"/>
	<path fill="#382211" d="M38.5,8.6l0.7,0.1c0,0.6-0.1,1.4-0.1,2.2c-0.1,1.6,1.3,3.5,2.4,4.9c0,0,0.1,0.1,0.1,0.1c-0.1,0-0.3,0-0.5,0
		c-0.7,0-1.1-0.1-1.3-0.2c0.2-1.5-0.9-4.6-1.2-5.5L38.5,8.6 M37.4,7.4l0.3,3.1c0,0,1.4,3.7,1.2,5.2c-0.2,1,1.2,1.3,2.3,1.3
		c0.4,0,0.7,0,0.9-0.1c0.7-0.2,1.1-0.6,0.7-1.2c-0.9-1.3-2.6-3.3-2.6-4.8s0.1-3,0.1-3L37.4,7.4L37.4,7.4z"/>
</g>
<g>
	<path fill="#BA7750" d="M32,16.8c-4.1,0-7.5-3.4-7.5-7.5s3.4-7.5,7.5-7.5s7.5,3.4,7.5,7.5S36.2,16.8,32,16.8z"/>
	<g>
		<path fill="#A35C3D" d="M32,2.3c3.9,0,7,3.1,7,7s-3.1,7-7,7s-7-3.1-7-7S28.2,2.3,32,2.3 M32,1.3c-4.4,0-8,3.6-8,8c0,4.4,3.6,8,8,8
			s8-3.6,8-8C40,4.9,36.4,1.3,32,1.3L32,1.3z"/>
	</g>
</g>
<g>
	<path fill="#472E18" d="M22,16.4c-0.1,0-0.1,0-0.2,0c0-0.2,0.2-0.6,1-1.6c0.5-0.6,1-1.7,1.8-3.4l0.1-0.2L24.6,11
		c-0.4-0.9-1.1-3.2,0.4-6.2c1.8-3.7,5.9-4.2,5.9-4.2c0,0,1-0.1,2.2-0.1c0.7,0,1.3,0,1.8,0.1c0.8,0.1,1.9,0.5,2.3,1
		c0.1,0.2,0.1,0.4,0.1,0.6l-0.1,0.3l0.2,0.2c0.7,0.6,1.3,1.5,1.9,2.7c0.4,0.9,0.5,2.1,0.5,3.1c-0.3-2.4-1.2-4.2-2.6-5.3l-0.4-0.3
		l-0.3,0.3c-0.3,0.3-0.6,0.6-1.1,0.9l-0.3,0.2l0.1,0.3c0,0,0.1,1.5-4.1,4.2c-0.1,0.1-2.3,1.5-2.6,1.8c0,0-0.1,0.1-0.2,0.1
		c-0.5,0.3-1.5,0.8-2,1.8c-0.1-0.4-0.3-0.8-0.4-1.2l-0.5-2L25,11.4c-0.2,1.1-0.2,2.5-0.3,3.5c0,0.4,0,0.8,0,1
		C24.4,16.1,22.9,16.4,22,16.4z"/>
	<path fill="#382211" d="M33.1,1c0.7,0,1.2,0,1.7,0.1c1,0.2,1.8,0.5,2,0.8c0,0,0,0.1,0,0.2l-0.1,0.3l-0.5,0.5
		c-0.3,0.3-0.6,0.6-1,0.9l-0.5,0.4l0.1,0.5c0,0.2-0.4,1.5-3.8,3.8c-0.2,0.2-2.3,1.5-2.6,1.8c0,0-0.1,0-0.1,0.1
		c-0.3,0.2-1,0.6-1.6,1.2c0-0.1,0-0.2-0.1-0.3l-1.1-4.1l-0.6,3c-0.3-1.1-0.5-2.9,0.6-5.2c1.7-3.5,5.4-3.9,5.6-3.9
		C31,1.1,32,1,33.1,1 M24.3,13.1c0,0.6,0,1.2,0,1.7c0,0.2,0,0.5,0,0.7c-0.4,0.1-1,0.3-1.6,0.3c0.1-0.2,0.3-0.5,0.5-0.8
		C23.5,14.7,23.9,14,24.3,13.1 M33.1,0c-1.2,0-2.3,0.1-2.3,0.1s-4.3,0.4-6.3,4.4c-1.6,3.2-0.8,5.7-0.4,6.7c-0.6,1.3-1.2,2.6-1.7,3.3
		c-1.2,1.6-1.3,2.2-0.8,2.4c0.1,0,0.2,0,0.4,0c1,0,3-0.4,3.2-0.8c0.2-0.4-0.1-2.8,0.3-4.6c0.4,1.5,1.1,2.7,1.1,2.7
		c-0.3-2,2-2.9,2.3-3.1c0.3-0.2,2.6-1.8,2.6-1.8c4.6-3.1,4.3-4.8,4.3-4.8c0.5-0.3,0.8-0.7,1.1-1C37.9,4.4,39,6,39.3,9
		c0,0,0.7,0.5,0.8,1.1c0,0,0.5-3-0.4-4.8c-0.7-1.4-1.3-2.3-2.1-2.9c0.3-1.4-1.6-2-2.8-2.2C34.3,0,33.7,0,33.1,0L33.1,0z"/>
</g>
<polygon fill="#B6384D" points="40,37 24,37 20,47 44,47 "/>
</svg>
