<?xml version="1.0" encoding="utf-8"?>
<!-- Generator: Adobe Illustrator 18.1.1, SVG Export Plug-In . SVG Version: 6.00 Build 0)  -->
<svg version="1.1" id="Ebene_1" xmlns="http://www.w3.org/2000/svg" xmlns:xlink="http://www.w3.org/1999/xlink" x="0px" y="0px"
	 width="64px" height="64px" viewBox="0 0 64 64" enable-background="new 0 0 64 64" xml:space="preserve">
<g>
	<path d="M10.92,3.96c-0.04,0.07-0.08,0.14-0.12,0.21c0.15,0.18,0.29,0.36,0.45,0.53c0.52,0.54,1.07,1.06,1.58,1.61
		c4.16,4.42,7.03,9.63,9.18,15.24c3.27,8.53,4.82,17.43,5.5,26.49c0.29,3.86,0.32,7.75,0.47,11.62c0,0.12,0.04,0.24,0.05,0.35
		c2.71,0,5.39,0,8.09,0c0-0.19,0-0.33,0-0.48c-0.04-4.99-0.35-9.95-1.08-14.89c-0.79-5.34-2.02-10.56-3.89-15.63
		c-2.51-6.81-5.98-13.05-10.97-18.37c-2.14-2.28-4.49-4.3-7.23-5.81C12.31,4.48,11.6,4.25,10.92,3.96z M40.9,60.02
		c2.85,0,5.59,0,8.38,0c0-0.32,0-0.6,0-0.87c0.07-4.45,0.44-8.88,1.31-13.25c1.1-5.53,2.84-10.83,5.61-15.75
		c1.07-1.9,2.3-3.71,3.44-5.58c0.18-0.31,0.25-0.69,0.37-1.03c-0.38,0.07-0.79,0.07-1.13,0.23c-1.75,0.84-3.2,2.09-4.56,3.43
		c-5.04,4.94-8.61,10.8-10.88,17.47c-1.2,3.53-1.95,7.15-2.28,10.86C41.01,57,40.98,58.49,40.9,60.02z M25.29,60.04
		c-0.06-1.2-0.1-2.33-0.18-3.47c-0.25-3.72-1.04-7.34-2.27-10.85c-2.27-6.46-5.91-12.04-10.77-16.84c-1.82-1.8-3.78-3.44-6.02-4.71
		C5.44,23.82,4.82,23.46,4,23.55c1.16,1.87,2.73,3.43,3.89,5.27c1.17,1.86,2.38,3.71,3.38,5.67c0.99,1.96,1.85,4,2.57,6.08
		c0.72,2.07,1.3,4.21,1.75,6.36c0.46,2.15,0.77,4.34,1,6.53c0.23,2.18,0.28,4.38,0.41,6.58C19.75,60.04,22.46,60.04,25.29,60.04z
		 M38.58,41.09c0.03-0.14,0.06-0.32,0.09-0.49c0.6-3.8,1.44-7.53,2.72-11.17c2.14-6.08,5.23-11.53,10.22-15.76
		c0.1-0.08,0.15-0.21,0.23-0.32c-0.03-0.05-0.06-0.1-0.09-0.15c-0.56,0.16-1.13,0.26-1.66,0.47c-2.88,1.12-5.18,3.05-7.21,5.31
		c-2.44,2.72-4.19,5.88-5.74,9.17c-0.77,1.64-1.22,3.23-0.34,4.96c0.02,0.03,0.01,0.07,0.02,0.11C37.41,35.85,38,38.47,38.58,41.09z
		"/>
	<path fill="#16BF2E" stroke="#2AAA00" stroke-width="0.25" stroke-miterlimit="10" d="M10.92,3.96c0.68,0.29,1.39,0.52,2.03,0.88
		c2.75,1.52,5.1,3.54,7.23,5.81c4.99,5.32,8.46,11.57,10.97,18.37c1.87,5.07,3.1,10.29,3.89,15.63c0.73,4.94,1.04,9.9,1.08,14.89
		c0,0.14,0,0.29,0,0.48c-2.71,0-5.38,0-8.09,0c-0.02-0.1-0.05-0.22-0.05-0.35c-0.15-3.88-0.18-7.76-0.47-11.62
		c-0.68-9.06-2.23-17.97-5.5-26.49c-2.16-5.62-5.02-10.83-9.18-15.24c-0.52-0.55-1.06-1.07-1.58-1.61c-0.16-0.17-0.3-0.35-0.45-0.53
		C10.83,4.1,10.87,4.03,10.92,3.96z"/>
	<path fill="#00A532" stroke="#2AAA00" stroke-width="0.25" stroke-miterlimit="10" d="M40.9,60.02c0.08-1.53,0.11-3.02,0.24-4.49
		c0.34-3.71,1.08-7.33,2.28-10.86c2.27-6.67,5.84-12.53,10.88-17.47c1.37-1.34,2.81-2.6,4.56-3.43c0.34-0.16,0.75-0.16,1.13-0.23
		c-0.12,0.35-0.18,0.73-0.37,1.03c-1.13,1.87-2.37,3.68-3.44,5.58c-2.77,4.93-4.51,10.23-5.61,15.75c-0.87,4.37-1.24,8.8-1.31,13.25
		c0,0.27,0,0.55,0,0.87C46.5,60.02,43.75,60.02,40.9,60.02z"/>
	<path fill="#008833" stroke="#2AAA00" stroke-width="0.25" stroke-miterlimit="10" d="M25.29,60.04c-2.82,0-5.54,0-8.28,0
		c-0.13-2.2-0.18-4.4-0.41-6.58c-0.23-2.19-0.54-4.38-1-6.53c-0.46-2.15-1.03-4.29-1.75-6.36c-0.72-2.07-1.57-4.12-2.57-6.08
		c-0.99-1.96-2.2-3.81-3.38-5.67c-1.16-1.85-2.73-3.4-3.89-5.27c0.82-0.09,1.44,0.27,2.05,0.62c2.24,1.27,4.2,2.91,6.02,4.71
		c4.86,4.8,8.5,10.39,10.77,16.84c1.24,3.52,2.02,7.13,2.27,10.85C25.18,57.71,25.22,58.85,25.29,60.04z"/>
	<path fill="#006633" stroke="#009949" stroke-width="0.25" stroke-miterlimit="10" d="M38.58,41.09c-0.59-2.62-1.17-5.24-1.76-7.87
		c-0.01-0.04-0.01-0.08-0.02-0.11c-0.88-1.72-0.42-3.32,0.34-4.96c1.55-3.29,3.3-6.44,5.74-9.17c2.03-2.27,4.33-4.2,7.21-5.31
		c0.53-0.21,1.11-0.32,1.66-0.47c0.03,0.05,0.06,0.1,0.09,0.15c-0.08,0.11-0.13,0.24-0.23,0.32c-4.99,4.23-8.08,9.68-10.22,15.76
		c-1.28,3.63-2.12,7.37-2.72,11.17C38.64,40.78,38.61,40.95,38.58,41.09z"/>
</g>
</svg>
