<?xml version="1.0" encoding="utf-8"?>
<!-- Generator: Adobe Illustrator 18.1.1, SVG Export Plug-In . SVG Version: 6.00 Build 0)  -->
<svg version="1.1" id="Ebene_1" xmlns="http://www.w3.org/2000/svg" xmlns:xlink="http://www.w3.org/1999/xlink" x="0px" y="0px"
	 width="64px" height="64px" viewBox="0 0 64 64" enable-background="new 0 0 64 64" xml:space="preserve">
<g>
	<path fill="#D9F1FF" d="M3,24.5c-0.21,0-0.39-0.13-0.47-0.32s-0.03-0.41,0.13-0.55l14-13c0.04-0.04,0.1-0.08,0.15-0.1l15-6
		C31.87,4.51,31.94,4.5,32,4.5s0.13,0.01,0.19,0.04l15,6c0.06,0.02,0.11,0.06,0.15,0.1l14,13c0.15,0.14,0.2,0.36,0.13,0.55
		S61.21,24.5,61,24.5H3z"/>
	<path fill="#7AADCC" d="M32,5l15,6l14,13H47H17H3l14-13L32,5 M32,4c-0.13,0-0.25,0.02-0.37,0.07l-15,6
		c-0.11,0.05-0.22,0.11-0.31,0.2l-14,13c-0.3,0.28-0.4,0.72-0.25,1.1S2.59,25,3,25h14h30h14c0.41,0,0.78-0.25,0.93-0.63
		s0.05-0.82-0.25-1.1l-14-13c-0.09-0.08-0.19-0.15-0.31-0.2l-15-6C32.25,4.02,32.13,4,32,4L32,4z"/>
</g>
<g>
	<polygon fill="#D9F1FF" points="17,24.5 16.5,24 16.5,11 17,10.5 47,10.5 47.5,11 47.5,24 47,24.5 	"/>
	<path fill="#7AADCC" d="M47,11v13H17V11H47 M47,10H17l-1,1v13l1,1h30l1-1V11L47,10L47,10z"/>
</g>
<g>
	<rect x="2.5" y="24.5" fill="#D9F1FF" width="15" height="35"/>
	<g>
		<path fill="#7AADCC" d="M17,25v34H3V25H17 M18,24h-1H3H2v1v34v1h1h14h1v-1V25V24L18,24z"/>
	</g>
</g>
<g>
	<rect x="46.5" y="24.5" fill="#D9F1FF" width="15" height="35"/>
	<g>
		<path fill="#7AADCC" d="M61,25v34H47V25H61 M62,24h-1H47h-1v1v34v1h1h14h1v-1V25V24L62,24z"/>
	</g>
</g>
<g>
	<rect x="16.5" y="24.5" fill="#D9F1FF" width="31" height="35"/>
	<g>
		<path fill="#7AADCC" d="M47,25v34H17V25H47 M48,24h-1H17h-1v1v34v1h1h30h1v-1V25V24L48,24z"/>
	</g>
</g>
<g>
	<rect x="25.5" y="36.5" fill="#C99A61" width="13" height="23"/>
	<g>
		<path fill="#664B3D" d="M38,37v22H26V37H38 M39,36h-1H26h-1v1v22v1h1h12h1v-1V37V36L39,36z"/>
	</g>
</g>
<rect x="35" y="47" fill="#734A00" width="2" height="1"/>
<rect x="36" y="49" fill="#734A00" width="1" height="1"/>
</svg>
