<?xml version="1.0" encoding="utf-8"?>
<!-- Generator: Adobe Illustrator 18.1.1, SVG Export Plug-In . SVG Version: 6.00 Build 0)  -->
<svg version="1.1" id="Ebene_1" xmlns="http://www.w3.org/2000/svg" xmlns:xlink="http://www.w3.org/1999/xlink" x="0px" y="0px"
	 width="64px" height="64px" viewBox="0 0 64 64" enable-background="new 0 0 64 64" xml:space="preserve">
<g>
	<path fill="#F0F0F0" d="M31.99,52.5c-3.07,0-6.02-0.96-8.51-2.77c-6.47-4.7-7.91-13.79-3.21-20.25c2.72-3.74,7.11-5.98,11.74-5.98
		c3.07,0,6.02,0.96,8.51,2.77c6.47,4.7,7.91,13.79,3.21,20.25C41.01,50.27,36.62,52.5,31.99,52.5z"/>
	<g>
		<path fill="#B4B4B4" d="M32.01,24L32.01,24c2.97,0,5.81,0.92,8.22,2.67c3.03,2.2,5.01,5.44,5.6,9.14s-0.3,7.39-2.5,10.42
			C40.7,49.84,36.46,52,31.99,52c-2.97,0-5.81-0.92-8.22-2.67c-3.03-2.2-5.01-5.44-5.6-9.14s0.3-7.39,2.5-10.42
			C23.3,26.16,27.54,24,32.01,24 M32.01,23c-4.64,0-9.21,2.14-12.15,6.18c-4.87,6.7-3.38,16.08,3.32,20.95
			c2.66,1.93,5.75,2.87,8.8,2.87c4.64,0,9.21-2.14,12.15-6.18c4.87-6.7,3.38-16.08-3.32-20.95C38.15,23.93,35.07,23,32.01,23
			L32.01,23z"/>
	</g>
</g>
<g>
	<path fill="#2E7DE5" d="M4.03,37h10.03c0.18-3.21,1.19-6.2,2.83-8.75l-8.11-5.89C5.93,26.57,4.22,31.59,4.03,37z"/>
</g>
<g>
	<path fill="#FF6400" d="M38.5,21.23c2.93,1.14,5.49,3.01,7.45,5.4l8.1-5.88c-3.19-4.08-7.49-7.25-12.44-9.06L38.5,21.23z"/>
</g>
<g>
	<path fill="#C4CACC" d="M47.12,28.25c1.65,2.55,2.65,5.53,2.83,8.75h10.03c-0.19-5.41-1.91-10.43-4.75-14.64L47.12,28.25z"/>
</g>
<g>
	<path fill="#00C83C" d="M18.05,26.63c1.95-2.39,4.52-4.26,7.45-5.4l-3.1-9.54c-4.95,1.81-9.25,4.98-12.44,9.06L18.05,26.63z"/>
</g>
<g>
	<path fill="#FFD200" d="M27.4,20.62C28.87,20.23,30.41,20,32,20s3.13,0.23,4.6,0.62l3.1-9.54C37.25,10.38,34.67,10,32,10
		s-5.25,0.38-7.7,1.08L27.4,20.62z"/>
</g>
<g opacity="0.6">
	<path fill="#1A171B" d="M36.44,27.73l1.01-2.63l-0.87-0.33l-1.01,2.62C35.87,27.48,36.16,27.6,36.44,27.73z"/>
	<path fill="#1A171B" d="M22.94,31.42c0.09-0.13,0.2-0.24,0.29-0.36l-2.28-1.66l-0.55,0.76l2.28,1.66
		C22.77,31.68,22.85,31.54,22.94,31.42z"/>
	<path fill="#1A171B" d="M33.63,26.92l0.29-2.8L33,24.03l-0.29,2.8C33.01,26.85,33.32,26.88,33.63,26.92z"/>
	<path fill="#1A171B" d="M27.88,27.6l-1.15-2.58l-0.85,0.38l1.14,2.57C27.3,27.83,27.59,27.71,27.88,27.6z"/>
	<path fill="#1A171B" d="M25.32,29.01l-1.77-2.18l-0.73,0.59l1.77,2.19C24.83,29.39,25.07,29.19,25.32,29.01z"/>
	<path fill="#1A171B" d="M30.71,26.89l-0.44-2.79l-0.92,0.15l0.44,2.79C30.1,26.97,30.4,26.92,30.71,26.89z"/>
	<path fill="#1A171B" d="M43.08,39.63l2.8,0.29l0.1-0.93l-2.8-0.29C43.15,39.01,43.12,39.32,43.08,39.63z"/>
	<path fill="#1A171B" d="M42.27,42.44l2.63,1.01l0.33-0.87l-2.62-1.01C42.52,41.87,42.4,42.16,42.27,42.44z"/>
	<path fill="#1A171B" d="M43.11,36.71l2.79-0.44l-0.15-0.92l-2.79,0.44C43.03,36.1,43.08,36.4,43.11,36.71z"/>
	<path fill="#1A171B" d="M42.4,33.88l2.58-1.15l-0.38-0.85l-2.57,1.14C42.17,33.3,42.29,33.59,42.4,33.88z"/>
	<path fill="#1A171B" d="M40.99,31.32l2.18-1.77l-0.59-0.73L40.4,30.6C40.61,30.83,40.81,31.07,40.99,31.32z"/>
	<path d="M33.82,35.5c0.27,0.2,0.5,0.45,0.76,0.66l6.47-8.9l-1.62-1.18l-6.47,8.9C33.24,35.16,33.54,35.3,33.82,35.5z"/>
	<path fill="#1A171B" d="M36.12,48.4l1.15,2.58l0.85-0.38l-1.14-2.57C36.7,48.17,36.41,48.29,36.12,48.4z"/>
	<path fill="#1A171B" d="M27.56,48.27l-1.01,2.63l0.87,0.33l1.01-2.62C28.13,48.52,27.84,48.4,27.56,48.27z"/>
	<path fill="#1A171B" d="M30.37,49.08l-0.29,2.8l0.93,0.1l0.29-2.8C30.99,49.15,30.68,49.12,30.37,49.08z"/>
	<path fill="#1A171B" d="M33.29,49.11l0.44,2.79l0.92-0.15l-0.44-2.79C33.9,49.03,33.6,49.08,33.29,49.11z"/>
	<path fill="#1A171B" d="M38.68,46.99l1.77,2.18l0.73-0.59L39.4,46.4C39.17,46.61,38.93,46.81,38.68,46.99z"/>
	<path fill="#1A171B" d="M41.32,44.19c-0.09,0.13-0.16,0.26-0.26,0.39s-0.2,0.24-0.29,0.36l2.28,1.66l0.55-0.76L41.32,44.19z"/>
	<path fill="#1A171B" d="M21.6,42.12l-2.58,1.15l0.38,0.85l2.57-1.14C21.83,42.7,21.71,42.41,21.6,42.12z"/>
	<path fill="#1A171B" d="M20.92,36.37l-2.8-0.29L18.03,37l2.8,0.29C20.85,36.99,20.88,36.68,20.92,36.37z"/>
	<path fill="#1A171B" d="M25.42,47.06c-0.13-0.09-0.24-0.2-0.36-0.29l-1.66,2.28l0.76,0.55l1.66-2.28
		C25.68,47.23,25.54,47.15,25.42,47.06z"/>
	<path fill="#1A171B" d="M20.89,39.29l-2.79,0.44l0.15,0.92l2.79-0.44C20.97,39.9,20.92,39.6,20.89,39.29z"/>
	<path fill="#1A171B" d="M23.01,44.68l-2.18,1.77l0.59,0.73l2.19-1.77C23.39,45.17,23.19,44.93,23.01,44.68z"/>
	<path fill="#1A171B" d="M21.73,33.56l-2.63-1.01l-0.33,0.87l2.62,1.01C21.48,34.13,21.6,33.84,21.73,33.56z"/>
</g>
</svg>
