<?xml version="1.0" encoding="utf-8"?>
<!-- Generator: Adobe Illustrator 18.1.1, SVG Export Plug-In . SVG Version: 6.00 Build 0)  -->
<svg version="1.1" id="Ebene_1" xmlns="http://www.w3.org/2000/svg" xmlns:xlink="http://www.w3.org/1999/xlink" x="0px" y="0px"
	 width="64px" height="64px" viewBox="0 0 64 64" enable-background="new 0 0 64 64" xml:space="preserve">
<g>
	<path fill="#F0F0F0" d="M32.01,52.5c-4.63,0-9.02-2.23-11.74-5.98c-4.7-6.47-3.26-15.55,3.21-20.25c2.49-1.81,5.44-2.77,8.51-2.77
		c4.63,0,9.02,2.23,11.74,5.98c4.7,6.47,3.26,15.55-3.21,20.25C38.03,51.54,35.09,52.5,32.01,52.5z"/>
	<g>
		<path fill="#B4B4B4" d="M31.99,24L31.99,24c4.47,0,8.71,2.16,11.34,5.77c2.2,3.03,3.09,6.73,2.5,10.42
			c-0.58,3.69-2.57,6.94-5.6,9.14C37.82,51.08,34.98,52,32.01,52c-4.47,0-8.71-2.16-11.34-5.77c-2.2-3.03-3.09-6.73-2.5-10.42
			c0.58-3.69,2.57-6.94,5.6-9.14C26.18,24.92,29.02,24,31.99,24 M31.99,23c-3.06,0-6.14,0.93-8.8,2.87
			c-6.7,4.87-8.19,14.25-3.32,20.95C22.8,50.86,27.37,53,32.01,53c3.06,0,6.14-0.93,8.8-2.87c6.7-4.87,8.19-14.25,3.32-20.95
			C41.2,25.14,36.63,23,31.99,23L31.99,23z"/>
	</g>
</g>
<g>
	<path fill="#2E7DE5" d="M4.03,37h10.03c0.18-3.21,1.19-6.2,2.83-8.75l-8.11-5.89C5.93,26.57,4.22,31.59,4.03,37z"/>
</g>
<g>
	<path fill="#C4CACC" d="M38.5,21.23c2.93,1.14,5.49,3.01,7.45,5.4l8.1-5.88c-3.19-4.08-7.49-7.25-12.44-9.06L38.5,21.23z"/>
</g>
<g>
	<path fill="#C4CACC" d="M47.12,28.25c1.65,2.55,2.65,5.53,2.83,8.75h10.03c-0.19-5.41-1.91-10.43-4.75-14.64L47.12,28.25z"/>
</g>
<g>
	<path fill="#00C83C" d="M18.05,26.63c1.95-2.39,4.52-4.26,7.45-5.4l-3.1-9.54c-4.95,1.81-9.25,4.98-12.44,9.06L18.05,26.63z"/>
</g>
<g>
	<path fill="#C4CACC" d="M27.4,20.62C28.87,20.23,30.41,20,32,20s3.13,0.23,4.6,0.62l3.1-9.54C37.25,10.38,34.67,10,32,10
		s-5.25,0.38-7.7,1.08L27.4,20.62z"/>
</g>
<g opacity="0.6">
	<path fill="#1A171B" d="M23.6,30.6l-2.19-1.77l-0.59,0.73l2.18,1.77C23.19,31.07,23.39,30.83,23.6,30.6z"/>
	<path fill="#1A171B" d="M22.94,44.58c-0.09-0.13-0.17-0.26-0.26-0.39l-2.28,1.66l0.55,0.76l2.28-1.66
		C23.14,44.82,23.03,44.71,22.94,44.58z"/>
	<path fill="#1A171B" d="M21.97,33.02l-2.57-1.14l-0.38,0.85l2.58,1.15C21.71,33.59,21.83,33.3,21.97,33.02z"/>
	<path fill="#1A171B" d="M20.83,38.7L18.03,39l0.1,0.93l2.8-0.29C20.88,39.32,20.85,39.01,20.83,38.7z"/>
	<path fill="#1A171B" d="M21.38,41.58l-2.62,1.01l0.33,0.87l2.63-1.01C21.6,42.16,21.48,41.87,21.38,41.58z"/>
	<path fill="#1A171B" d="M21.03,35.79l-2.79-0.44l-0.15,0.92l2.79,0.44C20.92,36.4,20.97,36.1,21.03,35.79z"/>
	<path fill="#1A171B" d="M36.98,27.97l1.14-2.57l-0.85-0.38l-1.15,2.58C36.41,27.71,36.7,27.83,36.98,27.97z"/>
	<path fill="#1A171B" d="M39.4,29.6l1.77-2.19l-0.73-0.59l-1.77,2.18C38.93,29.19,39.17,29.39,39.4,29.6z"/>
	<path fill="#1A171B" d="M34.21,27.03l0.44-2.79l-0.92-0.15l-0.44,2.79C33.6,26.92,33.9,26.97,34.21,27.03z"/>
	<path fill="#1A171B" d="M31.3,26.83L31,24.03l-0.93,0.1l0.29,2.8C30.68,26.88,30.99,26.85,31.3,26.83z"/>
	<path fill="#1A171B" d="M28.42,27.38l-1.01-2.62l-0.87,0.33l1.01,2.63C27.84,27.6,28.13,27.48,28.42,27.38z"/>
	<path d="M30.18,35.5c0.27-0.2,0.58-0.34,0.86-0.51l-6.47-8.9l-1.62,1.18l6.47,8.9C29.68,35.94,29.91,35.7,30.18,35.5z"/>
	<path fill="#1A171B" d="M43.17,37.3l2.8-0.29l-0.1-0.93l-2.8,0.29C43.12,36.68,43.15,36.99,43.17,37.3z"/>
	<path fill="#1A171B" d="M40.4,45.4l2.19,1.77l0.59-0.73l-2.18-1.77C40.81,44.93,40.61,45.17,40.4,45.4z"/>
	<path fill="#1A171B" d="M42.03,42.98l2.57,1.14l0.38-0.85l-2.58-1.15C42.29,42.41,42.17,42.7,42.03,42.98z"/>
	<path fill="#1A171B" d="M42.97,40.21l2.79,0.44l0.15-0.92l-2.79-0.44C43.08,39.6,43.03,39.9,42.97,40.21z"/>
	<path fill="#1A171B" d="M42.62,34.42l2.62-1.01l-0.33-0.87l-2.63,1.01C42.4,33.84,42.52,34.13,42.62,34.42z"/>
	<path fill="#1A171B" d="M40.77,31.05c0.1,0.12,0.2,0.24,0.29,0.36s0.17,0.26,0.26,0.39l2.28-1.66l-0.55-0.76L40.77,31.05z"/>
	<path fill="#1A171B" d="M32.7,49.17l0.29,2.8l0.93-0.1l-0.29-2.8C33.32,49.12,33.01,49.15,32.7,49.17z"/>
	<path fill="#1A171B" d="M27.02,48.03l-1.14,2.57l0.85,0.38l1.15-2.58C27.59,48.29,27.3,48.17,27.02,48.03z"/>
	<path fill="#1A171B" d="M38.58,47.06c-0.13,0.09-0.26,0.17-0.39,0.26l1.66,2.28l0.76-0.55l-1.66-2.28
		C38.82,46.86,38.71,46.97,38.58,47.06z"/>
	<path fill="#1A171B" d="M29.79,48.97l-0.44,2.79l0.92,0.15l0.44-2.79C30.4,49.08,30.1,49.03,29.79,48.97z"/>
	<path fill="#1A171B" d="M35.58,48.62l1.01,2.62l0.87-0.33l-1.01-2.63C36.16,48.4,35.87,48.52,35.58,48.62z"/>
	<path fill="#1A171B" d="M24.6,46.4l-1.77,2.19l0.73,0.59l1.77-2.18C25.07,46.81,24.83,46.61,24.6,46.4z"/>
</g>
</svg>
