<?xml version="1.0" encoding="utf-8"?>
<!-- Generator: Adobe Illustrator 18.1.1, SVG Export Plug-In . SVG Version: 6.00 Build 0)  -->
<svg version="1.1" id="Ebene_1" xmlns="http://www.w3.org/2000/svg" xmlns:xlink="http://www.w3.org/1999/xlink" x="0px" y="0px"
	 width="64px" height="64px" viewBox="0 0 64 64" enable-background="new 0 0 64 64" xml:space="preserve">
<g>
	<g>
		<path fill="#F0F0F0" d="M32,52.5c-6.3,0-11.84-4.03-13.79-10.02c-1.2-3.68-0.89-7.61,0.87-11.06s4.76-6.01,8.44-7.21
			c1.46-0.47,2.97-0.71,4.48-0.71c6.3,0,11.84,4.03,13.79,10.02c1.2,3.68,0.89,7.61-0.87,11.06s-4.76,6.01-8.44,7.21
			C35.02,52.26,33.51,52.5,32,52.5z"/>
		<g>
			<path fill="#B4B4B4" d="M32,24L32,24c6.08,0,11.43,3.89,13.31,9.68c1.16,3.56,0.86,7.35-0.84,10.68c-1.7,3.33-4.59,5.8-8.15,6.96
				C34.92,51.77,33.46,52,32,52c-6.08,0-11.43-3.89-13.31-9.68c-1.16-3.56-0.86-7.35,0.84-10.68c1.7-3.33,4.59-5.8,8.15-6.96
				C29.08,24.23,30.54,24,32,24 M32,23c-1.54,0-3.1,0.24-4.64,0.74c-7.88,2.56-12.19,11.02-9.63,18.9C19.79,48.97,25.67,53,32,53
				c1.54,0,3.1-0.24,4.64-0.74c7.88-2.56,12.19-11.02,9.63-18.9C44.21,27.03,38.33,23,32,23L32,23z"/>
		</g>
	</g>
	<g>
		<path fill="#2E7DE5" d="M4.03,37h10.03c0.18-3.21,1.19-6.2,2.83-8.75l-8.11-5.89C5.93,26.57,4.22,31.59,4.03,37z"/>
	</g>
	<g>
		<path fill="#FF6400" d="M38.5,21.23c2.93,1.14,5.49,3.01,7.45,5.4l8.1-5.88c-3.19-4.08-7.49-7.25-12.44-9.06L38.5,21.23z"/>
	</g>
	<g>
		<path fill="#F00014" d="M47.12,28.25c1.65,2.55,2.65,5.53,2.83,8.75h10.03c-0.19-5.41-1.91-10.43-4.75-14.64L47.12,28.25z"/>
	</g>
	<g>
		<path fill="#00C83C" d="M18.05,26.63c1.95-2.39,4.52-4.26,7.45-5.4l-3.1-9.54c-4.95,1.81-9.25,4.98-12.44,9.06L18.05,26.63z"/>
	</g>
	<g>
		<path fill="#FFD200" d="M27.4,20.62C28.87,20.23,30.41,20,32,20s3.13,0.23,4.6,0.62l3.1-9.54C37.25,10.38,34.67,10,32,10
			s-5.25,0.38-7.7,1.08L27.4,20.62z"/>
	</g>
	<g opacity="0.6">
		<path fill="#1A171B" d="M41.63,32.3L44,30.77l-0.51-0.78l-2.35,1.53C41.31,31.77,41.48,32.03,41.63,32.3z"/>
		<path fill="#1A171B" d="M28.54,27.35c0.15-0.05,0.3-0.08,0.45-0.12l-0.87-2.69l-0.89,0.29l0.87,2.69
			C28.25,27.46,28.39,27.4,28.54,27.35z"/>
		<path fill="#1A171B" d="M39.83,30l1.88-2.09l-0.69-0.62l-1.89,2.09C39.37,29.58,39.61,29.78,39.83,30z"/>
		<path fill="#1A171B" d="M34.78,27.16l0.59-2.76l-0.91-0.19l-0.59,2.75C34.18,27.01,34.48,27.08,34.78,27.16z"/>
		<path fill="#1A171B" d="M31.88,26.8l-0.15-2.8l-0.93,0.05l0.15,2.81C31.26,26.83,31.57,26.8,31.88,26.8z"/>
		<path fill="#1A171B" d="M37.49,28.25l1.28-2.51l-0.83-0.42l-1.28,2.51C36.94,27.96,37.22,28.1,37.49,28.25z"/>
		<path fill="#1A171B" d="M40,45.83l2.09,1.88l0.62-0.69l-2.09-1.89C40.42,45.37,40.22,45.61,40,45.83z"/>
		<path fill="#1A171B" d="M37.7,47.63L39.23,50l0.78-0.51l-1.53-2.35C38.23,47.31,37.97,47.48,37.7,47.63z"/>
		<path fill="#1A171B" d="M41.75,43.49l2.51,1.28l0.42-0.83l-2.51-1.28C42.04,42.94,41.9,43.22,41.75,43.49z"/>
		<path fill="#1A171B" d="M42.84,40.78l2.76,0.59l0.19-0.91l-2.75-0.59C42.99,40.18,42.92,40.48,42.84,40.78z"/>
		<path fill="#1A171B" d="M43.2,37.88l2.8-0.15l-0.05-0.93l-2.81,0.15C43.17,37.26,43.2,37.57,43.2,37.88z"/>
		<path d="M34.94,37.04c0.1,0.32,0.14,0.65,0.22,0.98l10.46-3.4l-0.62-1.9l-10.46,3.4C34.67,36.43,34.84,36.72,34.94,37.04z"/>
		<path fill="#1A171B" d="M29.22,48.84l-0.59,2.76l0.91,0.19l0.59-2.75C29.82,48.99,29.52,48.92,29.22,48.84z"/>
		<path fill="#1A171B" d="M22.37,43.7L20,45.23l0.51,0.78l2.35-1.53C22.69,44.23,22.52,43.97,22.37,43.7z"/>
		<path fill="#1A171B" d="M24.17,46l-1.88,2.09l0.69,0.62l1.89-2.09C24.63,46.42,24.39,46.22,24.17,46z"/>
		<path fill="#1A171B" d="M26.51,47.75l-1.28,2.51l0.83,0.42l1.28-2.51C27.06,48.04,26.78,47.9,26.51,47.75z"/>
		<path fill="#1A171B" d="M32.12,49.2l0.15,2.8l0.93-0.05l-0.15-2.81C32.74,49.17,32.43,49.2,32.12,49.2z"/>
		<path fill="#1A171B" d="M35.9,48.49c-0.15,0.05-0.29,0.12-0.44,0.17s-0.3,0.08-0.45,0.12l0.87,2.69l0.89-0.29L35.9,48.49z"/>
		<path fill="#1A171B" d="M21.16,35.22l-2.76-0.59l-0.19,0.91l2.75,0.59C21.01,35.82,21.08,35.52,21.16,35.22z"/>
		<path fill="#1A171B" d="M24,30.17l-2.09-1.88l-0.62,0.69l2.09,1.89C23.58,30.63,23.78,30.39,24,30.17z"/>
		<path fill="#1A171B" d="M21.35,41.46c-0.05-0.15-0.08-0.3-0.12-0.45l-2.69,0.87l0.29,0.89l2.69-0.87
			C21.46,41.75,21.4,41.61,21.35,41.46z"/>
		<path fill="#1A171B" d="M22.25,32.51l-2.51-1.28l-0.42,0.83l2.51,1.28C21.96,33.06,22.1,32.78,22.25,32.51z"/>
		<path fill="#1A171B" d="M20.8,38.12l-2.8,0.15l0.05,0.93l2.81-0.15C20.83,38.74,20.8,38.43,20.8,38.12z"/>
		<path fill="#1A171B" d="M26.3,28.37L24.77,26l-0.78,0.51l1.53,2.35C25.77,28.69,26.03,28.52,26.3,28.37z"/>
	</g>
</g>
</svg>
