<?xml version="1.0" encoding="utf-8"?>
<!-- Generator: Adobe Illustrator 18.1.1, SVG Export Plug-In . SVG Version: 6.00 Build 0)  -->
<svg version="1.1" id="Ebene_1" xmlns="http://www.w3.org/2000/svg" xmlns:xlink="http://www.w3.org/1999/xlink" x="0px" y="0px"
	 width="64px" height="64px" viewBox="0 0 64 64" enable-background="new 0 0 64 64" xml:space="preserve">
<g>
	<path fill="#F0F0F0" d="M32,52.5c-8,0-14.5-6.5-14.5-14.5S24,23.5,32,23.5S46.5,30,46.5,38S40,52.5,32,52.5z"/>
	<g>
		<path fill="#B4B4B4" d="M32,24c7.72,0,14,6.28,14,14s-6.28,14-14,14s-14-6.28-14-14S24.28,24,32,24 M32,23c-8.28,0-15,6.72-15,15
			s6.72,15,15,15s15-6.72,15-15S40.28,23,32,23L32,23z"/>
	</g>
</g>
<g>
	<path fill="#2E7DE5" d="M4.03,37h10.03c0.18-3.21,1.19-6.2,2.83-8.75l-8.11-5.89C5.93,26.57,4.22,31.59,4.03,37z"/>
</g>
<g>
	<path fill="#C4CACC" d="M38.5,21.23c2.93,1.14,5.49,3.01,7.45,5.4l8.1-5.88c-3.19-4.08-7.49-7.25-12.44-9.06L38.5,21.23z"/>
</g>
<g>
	<path fill="#C4CACC" d="M47.12,28.25c1.65,2.55,2.65,5.53,2.83,8.75h10.03c-0.19-5.41-1.91-10.43-4.75-14.64L47.12,28.25z"/>
</g>
<g>
	<path fill="#00C83C" d="M18.05,26.63c1.95-2.39,4.52-4.26,7.45-5.4l-3.1-9.54c-4.95,1.81-9.25,4.98-12.44,9.06L18.05,26.63z"/>
</g>
<g>
	<path fill="#FFD200" d="M27.4,20.62C28.87,20.23,30.41,20,32,20s3.13,0.23,4.6,0.62l3.1-9.54C37.25,10.38,34.67,10,32,10
		s-5.25,0.38-7.7,1.08L27.4,20.62z"/>
</g>
<g opacity="0.6">
	<path fill="#1A171B" d="M29.56,27.08l-0.73-2.72l-0.9,0.24l0.73,2.71C28.95,27.22,29.25,27.14,29.56,27.08z"/>
	<path fill="#1A171B" d="M20.8,38c0-0.16,0.02-0.31,0.02-0.47H18v0.93h2.82C20.82,38.31,20.8,38.16,20.8,38z"/>
	<path fill="#1A171B" d="M26.81,28.08l-1.41-2.44l-0.81,0.47l1.41,2.44C26.27,28.38,26.53,28.22,26.81,28.08z"/>
	<path fill="#1A171B" d="M22.55,32.01l-2.44-1.41l-0.47,0.81l2.44,1.41C22.22,32.53,22.38,32.27,22.55,32.01z"/>
	<path fill="#1A171B" d="M21.31,34.65l-2.71-0.73l-0.24,0.9l2.72,0.73C21.14,35.25,21.22,34.95,21.31,34.65z"/>
	<path fill="#1A171B" d="M24.43,29.77l-2-2l-0.66,0.66l2,2C23.98,30.2,24.2,29.98,24.43,29.77z"/>
	<path fill="#1A171B" d="M41.92,32.81l2.44-1.41l-0.47-0.81l-2.44,1.41C41.62,32.27,41.78,32.53,41.92,32.81z"/>
	<path fill="#1A171B" d="M42.92,35.56l2.72-0.73l-0.24-0.9l-2.71,0.73C42.78,34.95,42.86,35.25,42.92,35.56z"/>
	<path fill="#1A171B" d="M40.23,30.43l2-2l-0.66-0.66l-2,2C39.8,29.98,40.02,30.2,40.23,30.43z"/>
	<path fill="#1A171B" d="M37.99,28.55l1.41-2.44l-0.81-0.47l-1.41,2.44C37.47,28.22,37.73,28.38,37.99,28.55z"/>
	<path fill="#1A171B" d="M35.35,27.31l0.73-2.71l-0.9-0.24l-0.73,2.72C34.75,27.14,35.05,27.22,35.35,27.31z"/>
	<path d="M32,34.91c0.34,0,0.67,0.07,1,0.09V24h-2v11C31.33,34.97,31.66,34.91,32,34.91z"/>
	<path fill="#1A171B" d="M41.45,43.99l2.44,1.41l0.47-0.81l-2.44-1.41C41.78,43.47,41.62,43.73,41.45,43.99z"/>
	<path fill="#1A171B" d="M34.44,48.92l0.73,2.72l0.9-0.24l-0.73-2.71C35.05,48.78,34.75,48.86,34.44,48.92z"/>
	<path fill="#1A171B" d="M37.19,47.92l1.41,2.44l0.81-0.47l-1.41-2.44C37.73,47.62,37.47,47.78,37.19,47.92z"/>
	<path fill="#1A171B" d="M39.57,46.23l2,2l0.66-0.66l-2-2C40.02,45.8,39.8,46.02,39.57,46.23z"/>
	<path fill="#1A171B" d="M42.69,41.35l2.71,0.73l0.24-0.9l-2.72-0.73C42.86,40.75,42.78,41.05,42.69,41.35z"/>
	<path fill="#1A171B" d="M43.18,37.53c0.01,0.16,0.02,0.31,0.02,0.47s-0.02,0.31-0.02,0.47H46v-0.93H43.18z"/>
	<path fill="#1A171B" d="M26.01,47.45l-1.41,2.44l0.81,0.47l1.41-2.44C26.53,47.78,26.27,47.62,26.01,47.45z"/>
	<path fill="#1A171B" d="M22.08,43.19l-2.44,1.41l0.47,0.81l2.44-1.41C22.38,43.73,22.22,43.47,22.08,43.19z"/>
	<path fill="#1A171B" d="M32,49.2c-0.16,0-0.31-0.02-0.47-0.02V52h0.93v-2.82C32.31,49.18,32.16,49.2,32,49.2z"/>
	<path fill="#1A171B" d="M23.77,45.57l-2,2l0.66,0.66l2-2C24.2,46.02,23.98,45.8,23.77,45.57z"/>
	<path fill="#1A171B" d="M28.65,48.69l-0.73,2.71l0.9,0.24l0.73-2.72C29.25,48.86,28.95,48.78,28.65,48.69z"/>
	<path fill="#1A171B" d="M21.08,40.44l-2.72,0.73l0.24,0.9l2.71-0.73C21.22,41.05,21.14,40.75,21.08,40.44z"/>
</g>
</svg>
