<?xml version="1.0" encoding="utf-8"?>
<!-- Generator: Adobe Illustrator 18.1.1, SVG Export Plug-In . SVG Version: 6.00 Build 0)  -->
<svg version="1.1" id="Ebene_1" xmlns="http://www.w3.org/2000/svg" xmlns:xlink="http://www.w3.org/1999/xlink" x="0px" y="0px"
	 width="64px" height="64px" viewBox="0 0 64 64" enable-background="new 0 0 64 64" xml:space="preserve">
<g>
	<path fill="#F0F0F0" d="M32,52.5c-1.52,0-3.03-0.24-4.48-0.71c-3.68-1.2-6.68-3.76-8.44-7.21s-2.07-7.38-0.87-11.06
		c1.95-6,7.49-10.02,13.79-10.02c1.52,0,3.03,0.24,4.48,0.71c3.68,1.2,6.68,3.76,8.44,7.21s2.07,7.38,0.87,11.06
		C43.84,48.48,38.3,52.5,32,52.5z"/>
	<g>
		<path fill="#B4B4B4" d="M32,23v1c1.46,0,2.92,0.23,4.33,0.69c7.34,2.39,11.37,10.3,8.99,17.64C43.43,48.11,38.08,52,32,52
			c-1.47,0-2.92-0.23-4.33-0.69c-7.34-2.39-11.37-10.3-8.99-17.64C20.57,27.89,25.92,24,32,24L32,23 M32,23
			c-6.32,0-12.2,4.03-14.26,10.37c-2.56,7.88,1.75,16.34,9.63,18.9C28.91,52.77,30.47,53,32,53c6.32,0,12.2-4.03,14.26-10.37
			c2.56-7.88-1.75-16.34-9.63-18.9C35.09,23.23,33.53,23,32,23L32,23z"/>
	</g>
</g>
<g>
	<path fill="#2E7DE5" d="M4.03,37h10.03c0.18-3.21,1.19-6.2,2.83-8.75l-8.11-5.89C5.93,26.57,4.22,31.59,4.03,37z"/>
</g>
<g>
	<path fill="#C4CACC" d="M38.5,21.23c2.93,1.14,5.49,3.01,7.45,5.4l8.1-5.88c-3.19-4.08-7.49-7.25-12.44-9.06L38.5,21.23z"/>
</g>
<g>
	<path fill="#C4CACC" d="M47.12,28.25c1.65,2.55,2.65,5.53,2.83,8.75h10.03c-0.19-5.41-1.91-10.43-4.75-14.64L47.12,28.25z"/>
</g>
<g>
	<path fill="#C4CACC" d="M18.05,26.63c1.95-2.39,4.52-4.26,7.45-5.4l-3.1-9.54c-4.95,1.81-9.25,4.98-12.44,9.06L18.05,26.63z"/>
</g>
<g>
	<path fill="#C4CACC" d="M27.4,20.62C28.87,20.23,30.41,20,32,20s3.13,0.23,4.6,0.62l3.1-9.54C37.25,10.38,34.67,10,32,10
		s-5.25,0.38-7.7,1.08L27.4,20.62z"/>
</g>
<g opacity="0.6">
	<path fill="#1A171B" d="M20.86,36.95l-2.81-0.15l-0.05,0.93l2.8,0.15C20.8,37.57,20.83,37.26,20.86,36.95z"/>
	<path fill="#1A171B" d="M28.54,48.65c-0.15-0.05-0.29-0.11-0.44-0.17l-0.87,2.69l0.89,0.29l0.87-2.69
		C28.84,48.73,28.69,48.7,28.54,48.65z"/>
	<path fill="#1A171B" d="M20.96,39.87l-2.75,0.59l0.19,0.91l2.76-0.59C21.08,40.48,21.01,40.18,20.96,39.87z"/>
	<path fill="#1A171B" d="M23.38,45.13l-2.09,1.89l0.62,0.69L24,45.83C23.78,45.61,23.58,45.37,23.38,45.13z"/>
	<path fill="#1A171B" d="M25.51,47.13l-1.53,2.35L24.77,50l1.53-2.36C26.03,47.48,25.77,47.31,25.51,47.13z"/>
	<path fill="#1A171B" d="M21.83,42.66l-2.51,1.28l0.42,0.83l2.51-1.28C22.1,43.22,21.96,42.94,21.83,42.66z"/>
	<path fill="#1A171B" d="M30.13,26.96l-0.59-2.75l-0.91,0.19l0.59,2.76C29.52,27.08,29.82,27.01,30.13,26.96z"/>
	<path fill="#1A171B" d="M33.05,26.86l0.15-2.81l-0.93-0.05l-0.15,2.8C32.43,26.8,32.74,26.83,33.05,26.86z"/>
	<path fill="#1A171B" d="M27.34,27.83l-1.28-2.51l-0.83,0.42l1.28,2.51C26.78,28.1,27.06,27.96,27.34,27.83z"/>
	<path fill="#1A171B" d="M24.87,29.38l-1.89-2.09l-0.69,0.62L24.17,30C24.39,29.78,24.63,29.58,24.87,29.38z"/>
	<path fill="#1A171B" d="M22.87,31.51l-2.35-1.53L20,30.77l2.36,1.53C22.52,32.03,22.69,31.77,22.87,31.51z"/>
	<path d="M29.06,37.04c0.1-0.32,0.27-0.61,0.4-0.92l-10.46-3.4l-0.62,1.9l10.46,3.4C28.92,37.7,28.96,37.37,29.06,37.04z"/>
	<path fill="#1A171B" d="M40.62,30.87l2.09-1.89l-0.62-0.69L40,30.17C40.22,30.39,40.42,30.63,40.62,30.87z"/>
	<path fill="#1A171B" d="M43.14,39.05l2.81,0.15l0.05-0.93l-2.8-0.15C43.2,38.43,43.17,38.74,43.14,39.05z"/>
	<path fill="#1A171B" d="M43.04,36.13l2.75-0.59l-0.19-0.91l-2.76,0.59C42.92,35.52,42.99,35.82,43.04,36.13z"/>
	<path fill="#1A171B" d="M42.17,33.34l2.51-1.28l-0.42-0.83l-2.51,1.28C41.9,32.78,42.04,33.06,42.17,33.34z"/>
	<path fill="#1A171B" d="M38.49,28.87l1.53-2.35L39.23,26l-1.53,2.36C37.97,28.52,38.23,28.69,38.49,28.87z"/>
	<path fill="#1A171B" d="M35.01,27.23c0.15,0.04,0.3,0.07,0.45,0.12s0.29,0.11,0.44,0.17l0.87-2.69l-0.89-0.29L35.01,27.23z"/>
	<path fill="#1A171B" d="M39.13,46.62l1.89,2.09l0.69-0.62L39.83,46C39.61,46.22,39.37,46.42,39.13,46.62z"/>
	<path fill="#1A171B" d="M33.87,49.04l0.59,2.75l0.91-0.19l-0.59-2.76C34.48,48.92,34.18,48.99,33.87,49.04z"/>
	<path fill="#1A171B" d="M42.65,41.46c-0.05,0.15-0.11,0.29-0.17,0.44l2.69,0.87l0.29-0.89l-2.69-0.87
		C42.73,41.16,42.7,41.31,42.65,41.46z"/>
	<path fill="#1A171B" d="M36.66,48.17l1.28,2.51l0.83-0.42l-1.28-2.51C37.22,47.9,36.94,48.04,36.66,48.17z"/>
	<path fill="#1A171B" d="M41.13,44.49l2.35,1.53L44,45.23l-2.36-1.53C41.48,43.97,41.31,44.23,41.13,44.49z"/>
	<path fill="#1A171B" d="M30.95,49.14l-0.15,2.81l0.93,0.05l0.15-2.8C31.57,49.2,31.26,49.17,30.95,49.14z"/>
</g>
</svg>
