<?xml version="1.0" encoding="utf-8"?>
<!-- Generator: Adobe Illustrator 18.1.1, SVG Export Plug-In . SVG Version: 6.00 Build 0)  -->
<svg version="1.1" id="Ebene_1" xmlns="http://www.w3.org/2000/svg" xmlns:xlink="http://www.w3.org/1999/xlink" x="0px" y="0px"
	 width="64px" height="64px" viewBox="0 0 64 64" enable-background="new 0 0 64 64" xml:space="preserve">
<g>
	<g>
		<path fill="#E6F3FF" d="M0.5,49.5v-7h0.2l0.05-0.44C2.71,26.35,16.15,14.5,32,14.5s29.29,11.85,31.25,27.56l0.05,0.44h0.2v7H0.5z
			 M32,21.5c-12.01,0-22.17,8.59-24.16,20.42l-0.1,0.58h48.51l-0.1-0.58C54.17,30.09,44.01,21.5,32,21.5z"/>
	</g>
	<g>
		<path fill="#C0E4FF" d="M32,15c15.6,0,28.82,11.66,30.75,27.12L62.86,43H63v6H1v-6h0.14l0.11-0.88C3.18,26.66,16.4,15,32,15
			 M7.16,43h1.18h47.32h1.18l-0.2-1.17C54.62,29.76,44.26,21,32,21S9.38,29.76,7.35,41.83L7.16,43 M32,14
			C15.68,14,2.23,26.22,0.26,42H0v8h64v-8h-0.26C61.77,26.22,48.32,14,32,14L32,14z M8.34,42C10.24,30.65,20.11,22,32,22
			s21.76,8.65,23.66,20H8.34L8.34,42z"/>
	</g>
</g>
<line opacity="0.4" fill="none" stroke="#1A171B" stroke-width="0.5" stroke-miterlimit="10" x1="28.5" y1="47" x2="28.5" y2="49"/>
<line opacity="0.4" fill="none" stroke="#1A171B" stroke-width="0.5" stroke-miterlimit="10" x1="20.5" y1="47" x2="20.5" y2="49"/>
<line opacity="0.4" fill="none" stroke="#1A171B" stroke-width="0.5" stroke-miterlimit="10" x1="51.5" y1="47" x2="51.5" y2="49"/>
<line opacity="0.4" fill="none" stroke="#1A171B" stroke-width="0.5" stroke-miterlimit="10" x1="43.5" y1="47" x2="43.5" y2="49"/>
<line opacity="0.4" fill="none" stroke="#1A171B" stroke-width="0.5" stroke-miterlimit="10" x1="59.5" y1="47" x2="59.5" y2="49"/>
<line opacity="0.4" fill="none" stroke="#1A171B" stroke-width="0.5" stroke-miterlimit="10" x1="4.5" y1="47" x2="4.5" y2="49"/>
<line opacity="0.4" fill="none" stroke="#1A171B" stroke-width="0.5" stroke-miterlimit="10" x1="12.5" y1="47" x2="12.5" y2="49"/>
<line opacity="0.4" fill="none" stroke="#1A171B" stroke-width="0.5" stroke-miterlimit="10" x1="35.5" y1="47" x2="35.5" y2="49"/>
<g opacity="0.4">
	<path fill="none" stroke="#000000" stroke-width="0.5" stroke-miterlimit="10" d="M26.57,15.47l1.04,5.85 M21.35,16.86l2.05,5.58
		 M16.46,19.13l3,5.15 M12.04,22.21l3.86,4.55 M8.22,26.01l4.6,3.82 M5.13,30.41l5.19,2.97 M2.84,35.28l5.64,2.03 M1.45,40.47
		l5.91,1.03 M62.45,40.47l-5.91,1.03 M61.05,35.28l-5.64,2.03 M58.77,30.41l-5.19,2.97 M55.67,26.01l-4.6,3.82 M51.85,22.21
		L48,26.76 M47.43,19.13l-3,5.15 M42.54,16.86l-2.05,5.58 M37.32,15.47l-1.04,5.85 M31.95,15v5.94"/>
</g>
<g opacity="0.6">
	<path fill="#1A171B" d="M32,44.5c0.55,0,1,0.45,1,1s-0.45,1-1,1s-1-0.45-1-1S31.45,44.5,32,44.5 M32,44c-0.83,0-1.5,0.67-1.5,1.5
		S31.17,47,32,47s1.5-0.67,1.5-1.5S32.83,44,32,44L32,44z"/>
</g>
<line opacity="0.15" fill="none" stroke="#1A171B" stroke-width="0.5" stroke-miterlimit="10" x1="3" y1="45.5" x2="29" y2="45.5"/>
<line opacity="0.15" fill="none" stroke="#1A171B" stroke-width="0.5" stroke-miterlimit="10" x1="35" y1="45.5" x2="61" y2="45.5"/>
</svg>
