<?xml version="1.0" encoding="utf-8"?>
<!-- Generator: Adobe Illustrator 18.1.1, SVG Export Plug-In . SVG Version: 6.00 Build 0)  -->
<svg version="1.1" id="Ebene_1" xmlns="http://www.w3.org/2000/svg" xmlns:xlink="http://www.w3.org/1999/xlink" x="0px" y="0px"
	 width="64px" height="64px" viewBox="0 0 64 64" enable-background="new 0 0 64 64" xml:space="preserve">
<g>
	<path fill="#1E82FF" d="M2.5,43.5v-23h35.29L49.29,32l-11.5,11.5H2.5z M42,28.5c-1.93,0-3.5,1.57-3.5,3.5s1.57,3.5,3.5,3.5
		s3.5-1.57,3.5-3.5S43.93,28.5,42,28.5z"/>
	<path fill="#1271D8" d="M37.59,21l11,11l-11,11H3V21H37.59 M42,36c2.21,0,4-1.79,4-4s-1.79-4-4-4s-4,1.79-4,4S39.79,36,42,36
		 M38,20H2v24h36l12-12L38,20L38,20z M42,35c-1.66,0-3-1.34-3-3s1.34-3,3-3s3,1.34,3,3S43.66,35,42,35L42,35z"/>
</g>
<path fill="none" stroke="#B4B4B4" stroke-width="2" stroke-linecap="round" stroke-linejoin="round" stroke-miterlimit="10" d="
	M44.45,38.55C46.29,40.66,48.98,42,52,42c5.52,0,10-4.48,10-10c0-5.52-4.48-10-10-10s-10,4.48-10,10c0,0.68,0.07,1.34,0.2,1.98"/>
<g>
	<rect x="5.5" y="23.5" fill="#ECECED" width="29" height="17"/>
	<path fill="#9B9C9E" d="M34,24v16H6V24H34 M35,23H5v18h30V23L35,23z"/>
</g>
<g>
	<rect x="9" y="28" fill="#646464" width="22" height="2"/>
</g>
<g>
	<rect x="9" y="34" fill="#646464" width="16" height="2"/>
</g>
</svg>
