<?xml version="1.0" encoding="utf-8"?>
<!-- Generator: Adobe Illustrator 18.1.1, SVG Export Plug-In . SVG Version: 6.00 Build 0)  -->
<svg version="1.1" id="Ebene_1" xmlns="http://www.w3.org/2000/svg" xmlns:xlink="http://www.w3.org/1999/xlink" x="0px" y="0px"
	 width="64px" height="64px" viewBox="0 0 64 64" enable-background="new 0 0 64 64" xml:space="preserve">
<g>
	<linearGradient id="SVGID_1_" gradientUnits="userSpaceOnUse" x1="21.8288" y1="4.055" x2="42.1712" y2="59.945">
		<stop  offset="0" style="stop-color:#000000"/>
		<stop  offset="0.5" style="stop-color:#191919"/>
		<stop  offset="0.5" style="stop-color:#000000"/>
		<stop  offset="1" style="stop-color:#000000"/>
	</linearGradient>
	<rect y="12" fill="url(#SVGID_1_)" width="64" height="40"/>
	<circle fill="#C8C8C8" cx="32" cy="45" r="2"/>
	<g opacity="0.5">
		<path fill="#C8C8C8" d="M52,16c3.87,0,7,3.13,7,7s-3.13,7-7,7s-7-3.13-7-7S48.13,16,52,16 M52,15c-4.41,0-8,3.59-8,8s3.59,8,8,8
			s8-3.59,8-8S56.41,15,52,15L52,15z"/>
	</g>
	<g opacity="0.5">
		<path fill="#C8C8C8" d="M14,34c3.87,0,7,3.13,7,7s-3.13,7-7,7s-7-3.13-7-7S10.13,34,14,34 M14,33c-4.41,0-8,3.59-8,8s3.59,8,8,8
			s8-3.59,8-8S18.41,33,14,33L14,33z"/>
	</g>
	<g opacity="0.5">
		<path fill="#C8C8C8" d="M14,37.5c1.93,0,3.5,1.57,3.5,3.5s-1.57,3.5-3.5,3.5s-3.5-1.57-3.5-3.5S12.07,37.5,14,37.5 M14,36.5
			c-2.48,0-4.5,2.02-4.5,4.5s2.02,4.5,4.5,4.5s4.5-2.02,4.5-4.5S16.48,36.5,14,36.5L14,36.5z"/>
	</g>
	<g opacity="0.5">
		<path fill="#C8C8C8" d="M50,40c1.66,0,3,1.34,3,3s-1.34,3-3,3s-3-1.34-3-3S48.34,40,50,40 M50,39c-2.21,0-4,1.79-4,4s1.79,4,4,4
			s4-1.79,4-4S52.21,39,50,39L50,39z"/>
	</g>
	<g opacity="0.5">
		<path fill="#C8C8C8" d="M50,37c3.31,0,6,2.69,6,6s-2.69,6-6,6s-6-2.69-6-6S46.69,37,50,37 M50,36c-3.86,0-7,3.14-7,7s3.14,7,7,7
			s7-3.14,7-7S53.86,36,50,36L50,36z"/>
	</g>
	<g opacity="0.5">
		<path fill="#C8C8C8" d="M14,16c3.87,0,7,3.13,7,7s-3.13,7-7,7s-7-3.13-7-7S10.13,16,14,16 M14,15c-4.41,0-8,3.59-8,8s3.59,8,8,8
			s8-3.59,8-8S18.41,15,14,15L14,15z"/>
	</g>
	<g opacity="0.5">
		<path fill="#C8C8C8" d="M14,19c2.21,0,4,1.79,4,4s-1.79,4-4,4s-4-1.79-4-4S11.79,19,14,19 M14,18c-2.76,0-5,2.24-5,5s2.24,5,5,5
			s5-2.24,5-5S16.76,18,14,18L14,18z"/>
	</g>
	<g opacity="0.5">
		<path fill="#C8C8C8" d="M14,22c0.55,0,1,0.45,1,1s-0.45,1-1,1s-1-0.45-1-1S13.45,22,14,22 M14,21c-1.1,0-2,0.9-2,2s0.9,2,2,2
			s2-0.9,2-2S15.1,21,14,21L14,21z"/>
	</g>
	<g opacity="0.5">
		<path fill="#C8C8C8" d="M52,19c2.21,0,4,1.79,4,4s-1.79,4-4,4s-4-1.79-4-4S49.79,19,52,19 M52,18c-2.76,0-5,2.24-5,5s2.24,5,5,5
			s5-2.24,5-5S54.76,18,52,18L52,18z"/>
	</g>
	<g opacity="0.5">
		<path fill="#C8C8C8" d="M52,22c0.55,0,1,0.45,1,1s-0.45,1-1,1s-1-0.45-1-1S51.45,22,52,22 M52,21c-1.1,0-2,0.9-2,2s0.9,2,2,2
			s2-0.9,2-2S53.1,21,52,21L52,21z"/>
	</g>
	<g opacity="0.3">
		<path fill="#FFFFFF" d="M32,41c2.21,0,4,1.79,4,4s-1.79,4-4,4s-4-1.79-4-4S29.79,41,32,41 M32,40c-2.76,0-5,2.24-5,5s2.24,5,5,5
			s5-2.24,5-5S34.76,40,32,40L32,40z"/>
	</g>
	<path opacity="0.5" fill="none" stroke="#C8C8C8" stroke-linecap="round" stroke-miterlimit="10" d="M46.5,15.5h-4v0.03
		c-0.17-0.01-2.33-0.03-2.5-0.03c-4.14,0-7.5,3.36-7.5,7.5s3.36,7.5,7.5,7.5c0.17,0,2.33-0.01,2.5-0.03v0.03h4"/>
</g>
</svg>
