<?xml version="1.0" encoding="utf-8"?>
<!-- Generator: Adobe Illustrator 18.1.1, SVG Export Plug-In . SVG Version: 6.00 Build 0)  -->
<svg version="1.1" id="Ebene_1" xmlns="http://www.w3.org/2000/svg" xmlns:xlink="http://www.w3.org/1999/xlink" x="0px" y="0px"
	 width="64px" height="64px" viewBox="0 0 64 64" enable-background="new 0 0 64 64" xml:space="preserve">
<g>
	<path fill="#797878" d="M37.25,50h-10.5c-0.55,0-1-0.45-1-1l0,0c0-0.55,0.45-1,1-1h10.5c0.55,0,1,0.45,1,1l0,0
		C38.25,49.55,37.8,50,37.25,50z"/>
	<path fill="#797878" d="M37.25,53h-10.5c-0.55,0-1-0.45-1-1l0,0c0-0.55,0.45-1,1-1h10.5c0.55,0,1,0.45,1,1l0,0
		C38.25,52.55,37.8,53,37.25,53z"/>
	<path fill="#797878" d="M37.07,56H26.93c-0.65,0-1.18-0.53-1.18-1.18v0c0-0.45,0.37-0.82,0.82-0.82h10.85
		c0.45,0,0.82,0.37,0.82,0.82v0C38.25,55.47,37.72,56,37.07,56z"/>
	<path fill="#797878" d="M32,60c2.21,0,4-1.34,4-3h-8C28,58.66,29.79,60,32,60z"/>
	<path fill="#DAE1E4" d="M48,20.58C48,11.97,40.84,5,32,5s-16,6.97-16,15.58c0,2.73,0.72,5.29,1.98,7.51
		c0.77,1.49,1.32,2.56,1.67,3.23c0.72,1.4,1.14,2.21,1.66,3.42c0.22,0.51,0.55,1.28,0.86,2.16c1.23,3.49,1.7,6.82,1.7,6.82
		s0.23,1.74,1.16,2.59c0.26,0.24,0.52,0.38,0.65,0.44c0.45,0.21,0.86,0.25,1.11,0.25c0.16,0,0.32,0,0.48,0l0,0h4.66h0.13h4.66l0,0
		c0.16,0,0.32,0,0.48,0c0.24,0,0.66-0.04,1.11-0.25c0.13-0.06,0.39-0.2,0.65-0.44c0.93-0.85,1.16-2.59,1.16-2.59s0.47-3.33,1.7-6.82
		c0.31-0.88,0.64-1.65,0.86-2.16c0.52-1.21,0.94-2.02,1.66-3.42c0.35-0.68,0.9-1.74,1.67-3.23C47.28,25.86,48,23.3,48,20.58z"/>
</g>
</svg>
