<?xml version="1.0" encoding="utf-8"?>
<!-- Generator: Adobe Illustrator 18.1.1, SVG Export Plug-In . SVG Version: 6.00 Build 0)  -->
<!DOCTYPE svg PUBLIC "-//W3C//DTD SVG 1.1//EN" "http://www.w3.org/Graphics/SVG/1.1/DTD/svg11.dtd">
<svg version="1.1" id="Ebene_1" xmlns="http://www.w3.org/2000/svg" xmlns:xlink="http://www.w3.org/1999/xlink" x="0px" y="0px"
	 width="64px" height="64px" viewBox="0 0 64 64" enable-background="new 0 0 64 64" xml:space="preserve">
<g>
	<path fill="#3C201D" d="M43,40.5c-0.8,0-1.5-0.7-1.5-1.5v-3.5h3V39C44.5,39.8,43.8,40.5,43,40.5z"/>
	<g>
		<path fill="#1E0E0E" d="M44,36v3c0,0.6-0.4,1-1,1s-1-0.4-1-1v-3H44 M45,35h-4v4c0,1.1,0.9,2,2,2s2-0.9,2-2V35L45,35z"/>
	</g>
</g>
<g>
	<path fill="#3C201D" d="M21,40.5c-0.8,0-1.5-0.7-1.5-1.5v-3.5h3V39C22.5,39.8,21.9,40.5,21,40.5z"/>
	<g>
		<path fill="#1E0E0E" d="M22,36v3c0,0.6-0.4,1-1,1c-0.6,0-1-0.4-1-1v-3H22 M23,35h-4v4c0,1.1,0.9,2,2,2s2-0.9,2-2V35L23,35z"/>
	</g>
</g>
<path fill="#00783C" d="M35.8,17h-7.5c-5.1,0-9.2,4.1-9.2,9.2v0.6c0,0.1-0.1,0.3-0.1,0.4V37h4v-5.4v-3.8c0-1.2,0.4-2.2,1-3.1V37h16
	V24.6c0.5,0.7,0.9,1.6,1,2.5c0,0.1,0,0.1,0,0.1V37h4v-9.2v-0.6v-1.1C45,21.1,40.9,17,35.8,17z"/>
<path d="M27.5,64L27.5,64c-1.9,0-3.5-1.6-3.5-3.5V59h7v1.5C31,62.4,29.5,64,27.5,64z"/>
<path d="M36.5,64L36.5,64c-1.9,0-3.5-1.6-3.5-3.5V59h7v1.5C40,62.4,38.5,64,36.5,64z"/>
<ellipse fill="#FFFFFF" cx="32" cy="17" rx="3.5" ry="2"/>
<path fill="#505050" d="M24,37v22h7V42c0-0.6,0.5-1,1-1s1,0.4,1,1l0,17h7V37H24z"/>
<rect x="31" y="20" opacity="0.2" width="1" height="17"/>
<path opacity="0.2" d="M32.5,34L32.5,34c-0.3,0-0.5,0.2-0.5,0.5l0,0c0,0.3,0.2,0.5,0.5,0.5l0,0c0.3,0,0.5-0.2,0.5-0.5l0,0
	C33,34.2,32.8,34,32.5,34z"/>
<path opacity="0.2" d="M32.5,32L32.5,32c-0.3,0-0.5,0.2-0.5,0.5l0,0c0,0.3,0.2,0.5,0.5,0.5l0,0c0.3,0,0.5-0.2,0.5-0.5l0,0
	C33,32.2,32.8,32,32.5,32z"/>
<path opacity="0.2" d="M32.5,30L32.5,30c-0.3,0-0.5,0.2-0.5,0.5l0,0c0,0.3,0.2,0.5,0.5,0.5l0,0c0.3,0,0.5-0.2,0.5-0.5l0,0
	C33,30.2,32.8,30,32.5,30z"/>
<path opacity="0.2" d="M32.5,28L32.5,28c-0.3,0-0.5,0.2-0.5,0.5l0,0c0,0.3,0.2,0.5,0.5,0.5l0,0c0.3,0,0.5-0.2,0.5-0.5l0,0
	C33,28.2,32.8,28,32.5,28z"/>
<g>
	<defs>
		<path id="SVGID_13_" d="M29.3,17.3c0,0,2.7,7.9,2.7,10.7c0-2.7,2.7-10.7,2.7-10.7H29.3z"/>
	</defs>
	<clipPath id="SVGID_2_">
		<use xlink:href="#SVGID_13_"  overflow="visible"/>
	</clipPath>
	<path clip-path="url(#SVGID_2_)" fill="#FFFFFF" d="M29.3,17.3c0,0,2.7,7.9,2.7,10.7c0-2.7,2.7-10.7,2.7-10.7H29.3z"/>
	<polygon clip-path="url(#SVGID_2_)" fill="#E70003" points="30,17 31.5,19 30,22 32,28 34,22 32.5,19 34,17 	"/>
</g>
<rect x="32.8" y="16.5" transform="matrix(0.9397 -0.342 0.342 0.9397 -3.8192 12.84)" fill="#FFFFFF" width="3.3" height="1.5"/>
<rect x="27.8" y="16.5" transform="matrix(0.9397 0.342 -0.342 0.9397 7.6789 -9.0493)" fill="#FFFFFF" width="3.3" height="1.5"/>
<g>
	<path fill="#3C201D" d="M32,16.5c-4.1,0-7.5-3.4-7.5-7.5s3.4-7.5,7.5-7.5s7.5,3.4,7.5,7.5S36.1,16.5,32,16.5z"/>
	<g>
		<path fill="#1E0E0E" d="M32,2c3.9,0,7,3.1,7,7s-3.1,7-7,7s-7-3.1-7-7S28.1,2,32,2 M32,1c-4.4,0-8,3.6-8,8c0,4.4,3.6,8,8,8
			s8-3.6,8-8C40,4.6,36.4,1,32,1L32,1z"/>
	</g>
</g>
<g>
	<path d="M32,1c-4.4,0-8,3.6-8,8c0,0.3,0,0.6,0.1,0.9C25,9.2,26,8,26.7,6c2.1,0.8,5,1.2,8.8,0.6c0,0-1.3-0.4-2.7-1.2
		c1.1,0.2,2.4,0.2,4,0.1C37.3,7,38.3,8.5,40,9.9c0-0.3,0-0.6,0-0.9C40,4.6,36.4,1,32,1z"/>
</g>
</svg>
