<?xml version="1.0" encoding="utf-8"?>
<!-- Generator: Adobe Illustrator 18.1.1, SVG Export Plug-In . SVG Version: 6.00 Build 0)  -->
<svg version="1.1" id="Ebene_1" xmlns="http://www.w3.org/2000/svg" xmlns:xlink="http://www.w3.org/1999/xlink" x="0px" y="0px"
	 width="64px" height="64px" viewBox="0 0 64 64" enable-background="new 0 0 64 64" xml:space="preserve">
<g>
	<g>
		<path fill="#EFE8DA" d="M35.3,61.5c-11.4,0-21.9-6.7-26.8-17c-3.3-7.1-3.7-15.2-1-22.6S15.7,8.6,22.8,5.3c2.2-1,4.5-1.8,6.9-2.2
			c-10.5,5-13.6,20.6-7,34.8c5.2,11.1,14.9,18.5,24.3,18.5c2.4,0,4.7-0.5,6.8-1.5c-1.9,1.5-3.9,2.8-6.1,3.8
			C43.8,60.6,39.6,61.5,35.3,61.5z"/>
		<path fill="#DBD4C8" d="M26.6,4.3c-8.4,6.4-10.4,20.6-4.3,33.7c5.2,11.2,15.2,18.8,24.8,18.8c1.3,0,2.6-0.1,3.8-0.4
			c-1.1,0.7-2.2,1.3-3.3,1.8c-3.9,1.8-8,2.7-12.2,2.7C24.1,61,13.8,54.4,9,44.3C2.3,29.8,8.5,12.5,23,5.7
			C24.2,5.2,25.4,4.7,26.6,4.3 M35.3,2C31,2,26.7,2.9,22.6,4.8c-15,7-21.5,24.9-14.5,39.9C13.2,55.6,24,62,35.3,62
			c4.2,0,8.6-0.9,12.7-2.8c4.3-2,7.9-4.9,10.7-8.4c-1.4,1.5-3.1,2.8-5,3.7c-2.1,1-4.4,1.5-6.7,1.5c-9,0-18.7-7-23.9-18.2
			C16.6,23.6,19.6,8.3,30,3.4c1.9-0.9,3.9-1.4,6-1.4C35.7,2,35.5,2,35.3,2L35.3,2z"/>
	</g>
</g>
</svg>
