<?xml version="1.0" encoding="utf-8"?>
<!-- Generator: Adobe Illustrator 18.1.1, SVG Export Plug-In . SVG Version: 6.00 Build 0)  -->
<svg version="1.1" id="Ebene_1" xmlns="http://www.w3.org/2000/svg" xmlns:xlink="http://www.w3.org/1999/xlink" x="0px" y="0px"
	 width="64px" height="64px" viewBox="0 0 64 64" enable-background="new 0 0 64 64" xml:space="preserve">
<g>
	<g>
		<path fill="#FCD703" d="M30.59,20.69l2.12,2.12c0.39,0.39,0.39,1.02,0,1.41l-8.49,8.49c-0.39,0.39-1.02,0.39-1.41,0l-2.12-2.12
			L3.72,47.56l12.73,12.73l43.84-43.84L47.56,3.72L30.59,20.69z M19.23,50.34c-1.56,1.56-4.09,1.56-5.66,0
			c-1.56-1.56-1.56-4.09,0-5.66s4.09-1.56,5.66,0C20.79,46.25,20.79,48.78,19.23,50.34z"/>
		<path d="M60.28,16.44L60.28,16.44c0.78-0.78,0.78-2.05,0-2.83l-9.9-9.9c-0.78-0.78-2.05-0.78-2.83,0v0L60.28,16.44z"/>
		<path d="M16.44,60.28L16.44,60.28c-0.78,0.78-2.05,0.78-2.83,0l-9.9-9.9c-0.78-0.78-0.78-2.05,0-2.83h0L16.44,60.28z"/>
		<circle fill="#FFFFFF" cx="16.4" cy="47.51" r="4"/>
		<g>
			<path d="M16.44,43.56c1.02,0,2.05,0.39,2.83,1.17c1.56,1.56,1.56,4.09,0,5.66c-0.78,0.78-1.8,1.17-2.83,1.17
				c-1.02,0-2.05-0.39-2.83-1.17c-1.56-1.56-1.56-4.09,0-5.66C14.4,43.95,15.42,43.56,16.44,43.56 M16.44,42.56
				c-1.34,0-2.59,0.52-3.54,1.46s-1.46,2.2-1.46,3.54c0,1.34,0.52,2.59,1.46,3.54c0.94,0.94,2.2,1.46,3.54,1.46
				c1.34,0,2.59-0.52,3.54-1.46c0.94-0.94,1.46-2.2,1.46-3.54c0-1.34-0.52-2.59-1.46-3.54S17.78,42.56,16.44,42.56L16.44,42.56z"/>
		</g>
		
			<rect x="15.44" y="43.56" transform="matrix(0.7071 -0.7071 0.7071 0.7071 -28.8112 25.5564)" fill="#C4E500" width="2" height="8"/>
		
			<rect x="14.88" y="44.79" transform="matrix(0.7071 -0.7071 0.7071 0.7071 -27.8718 24.2886)" fill="#F1FF33" width="1" height="2"/>
		<g>
			<g>
				<path d="M12.59,46.53c-0.35,1.33-0.02,2.81,1.02,3.85c1.04,1.04,2.52,1.37,3.85,1.02L12.59,46.53z"/>
			</g>
			<g>
				<path d="M15.42,43.71l4.87,4.87c0.35-1.33,0.02-2.81-1.02-3.85C18.23,43.68,16.75,43.35,15.42,43.71z"/>
			</g>
		</g>
		<path d="M30.59,20.69l2.12,2.12c0.39,0.39,0.39,1.02,0,1.41l-8.49,8.49c-0.39,0.39-1.02,0.39-1.41,0l-2.12-2.12l-0.71,0.71
			l2.12,2.12c0.78,0.78,2.05,0.78,2.83,0l8.49-8.49c0.78-0.78,0.78-2.05,0-2.83l-2.12-2.12L30.59,20.69z"/>
		
			<rect x="25.2" y="19.7" transform="matrix(-0.7071 -0.7071 0.7071 -0.7071 26.6967 64.4515)" fill="#C4E500" width="3" height="14"/>
		
			<rect x="25.34" y="24.34" transform="matrix(-0.7071 -0.7071 0.7071 -0.7071 26.3431 63.598)" fill="#F1FF33" width="2" height="4"/>
	</g>
	<rect x="14.88" y="47.62" transform="matrix(0.7071 -0.7071 0.7071 0.7071 -29.8718 25.117)" opacity="0.2" width="1" height="2"/>
	
		<rect x="24.99" y="25.49" transform="matrix(0.7071 -0.7071 0.7071 0.7071 -10.7652 25.9896)" opacity="0.2" width="2" height="1"/>
	
		<rect x="22.31" y="29.09" transform="matrix(0.7071 -0.7071 0.7071 0.7071 -14.9472 25.0858)" opacity="0.2" width="1" height="3"/>
	<rect x="30.09" y="21.31" transform="matrix(0.7071 -0.7071 0.7071 0.7071 -7.1691 28.3076)" opacity="0.2" width="1" height="3"/>
	<rect x="12.26" y="46.7" transform="matrix(0.7071 -0.7071 0.7071 0.7071 -29.4932 23.2028)" opacity="0.2" width="2" height="1"/>
	<rect x="15.8" y="50.24" transform="matrix(0.7071 -0.7071 0.7071 0.7071 -30.9576 26.7383)" opacity="0.2" width="2" height="1"/>
</g>
</svg>
