<?xml version="1.0" encoding="utf-8"?>
<!-- Generator: Adobe Illustrator 18.1.1, SVG Export Plug-In . SVG Version: 6.00 Build 0)  -->
<svg version="1.1" id="Ebene_1" xmlns="http://www.w3.org/2000/svg" xmlns:xlink="http://www.w3.org/1999/xlink" x="0px" y="0px"
	 width="64px" height="64px" viewBox="0 0 64 64" enable-background="new 0 0 64 64" xml:space="preserve">
<g>
	<g>
		<rect x="4.5" y="8.5" fill="#FF4545" width="13" height="43"/>
		<path fill="#D82B2B" d="M17,9v42H5V9H17 M18,8H4v44h14V8L18,8z"/>
	</g>
	<circle fill="#828B7D" cx="11" cy="44" r="3"/>
	<circle cx="11" cy="44" r="2"/>
	<rect x="6" y="14" fill="#E7F4F5" width="10" height="16"/>
	<rect x="8" y="16" fill="#FADC00" width="6" height="3"/>
	<rect x="7" y="21" fill="#C8C8C8" width="8" height="1"/>
	<rect x="7" y="24" fill="#C8C8C8" width="8" height="1"/>
	<rect x="7" y="27" fill="#C8C8C8" width="8" height="1"/>
	<g>
		<rect x="20.5" y="8.5" fill="#70CE2E" width="13" height="43"/>
		<path fill="#62B224" d="M33,9v42H21V9H33 M34,8H20v44h14V8L34,8z"/>
	</g>
	<circle fill="#828B7D" cx="27" cy="44" r="3"/>
	<circle cx="27" cy="44" r="2"/>
	<rect x="22" y="14" fill="#E7F4F5" width="10" height="16"/>
	<rect x="24" y="16" fill="#FF845C" width="6" height="3"/>
	<rect x="23" y="21" fill="#C8C8C8" width="8" height="1"/>
	<rect x="23" y="24" fill="#C8C8C8" width="8" height="1"/>
	<rect x="23" y="27" fill="#C8C8C8" width="8" height="1"/>
	<g>
		
			<rect x="41.58" y="8.42" transform="matrix(-0.9431 0.3325 -0.3325 -0.9431 103.3826 42.1595)" fill="#1E82FF" width="13" height="43"/>
		<path fill="#1271D8" d="M46.76,8.12l13.96,39.61l-11.32,3.99L35.44,12.11L46.76,8.12 M47.37,6.85l-13.2,4.65L48.8,53L62,48.35
			L47.37,6.85L47.37,6.85z"/>
	</g>
	<circle fill="#828B7D" cx="52.74" cy="43.13" r="3"/>
	<circle cx="52.74" cy="43.13" r="2"/>
	
		<rect x="40.42" y="14.38" transform="matrix(0.9431 -0.3324 0.3324 0.9431 -4.8562 16.374)" fill="#E7F4F5" width="10" height="16"/>
	
		<rect x="40.93" y="16.64" transform="matrix(0.9431 -0.3324 0.3324 0.9431 -3.5304 15.6353)" fill="#5FBC15" width="6" height="3"/>
	
		<rect x="41.26" y="21.41" transform="matrix(0.9431 -0.3324 0.3324 0.9431 -4.7089 16.2919)" fill="#C8C8C8" width="8" height="1"/>
	
		<rect x="42.26" y="24.24" transform="matrix(0.9431 -0.3324 0.3324 0.9431 -5.5927 16.7844)" fill="#C8C8C8" width="8" height="1"/>
	
		<rect x="43.25" y="27.07" transform="matrix(0.9431 -0.3324 0.3324 0.9431 -6.4766 17.2769)" fill="#C8C8C8" width="8" height="1"/>
</g>
</svg>
