<?xml version="1.0" encoding="utf-8"?>
<!-- Generator: Adobe Illustrator 18.1.1, SVG Export Plug-In . SVG Version: 6.00 Build 0)  -->
<!DOCTYPE svg PUBLIC "-//W3C//DTD SVG 1.1//EN" "http://www.w3.org/Graphics/SVG/1.1/DTD/svg11.dtd">
<svg version="1.1" id="Ebene_1" xmlns="http://www.w3.org/2000/svg" xmlns:xlink="http://www.w3.org/1999/xlink" x="0px" y="0px"
	 width="64px" height="64px" viewBox="0 0 64 64" enable-background="new 0 0 64 64" xml:space="preserve">
<g>
	<g>
		<path fill="#A55D2B" d="M28.5,53.5c-1.1,0-2-0.9-2-2V47h4v4.5C30.5,52.6,29.6,53.5,28.5,53.5z"/>
		<g>
			<path fill="#89471B" d="M30,47.5v4c0,0.9-0.7,1.5-1.5,1.5c-0.8,0-1.5-0.7-1.5-1.5v-4H30 M31,46.5h-5v5c0,1.4,1.1,2.5,2.5,2.5
				c1.4,0,2.5-1.1,2.5-2.5V46.5L31,46.5z"/>
		</g>
	</g>
	<g>
		<path fill="#A55D2B" d="M55.5,53.5c-1.1,0-2-0.9-2-2V47h4v4.5C57.5,52.6,56.6,53.5,55.5,53.5z"/>
		<g>
			<path fill="#89471B" d="M57,47.5v4c0,0.9-0.7,1.5-1.5,1.5c-0.8,0-1.5-0.7-1.5-1.5v-4H57 M58,46.5h-5v5c0,1.4,1.1,2.5,2.5,2.5
				c1.4,0,2.5-1.1,2.5-2.5V46.5L58,46.5z"/>
		</g>
	</g>
	<path fill="#00783C" d="M46.7,24h-9.3c-6.3,0-11.3,5.2-11.3,11.5v0.8c0,0.2-0.1,0.4-0.1,0.6V49h4.9v-6.7v-4.8
		c0-1.5,0.5-2.8,1.3-3.9V49h19.7V33.5c0.6,0.9,1.1,2,1.2,3.2c0,0.1,0,0.1,0,0.2V49H58V37.6v-0.7v-1.3C58,29.2,52.9,24,46.7,24z"/>
	<ellipse fill="#FFFFFF" cx="42" cy="24.4" rx="4.3" ry="2.5"/>
	<rect x="41" y="30" opacity="0.2" width="1" height="19"/>
	<path opacity="0.2" d="M42.5,39L42.5,39c-0.3,0-0.5,0.2-0.5,0.5l0,0c0,0.3,0.2,0.5,0.5,0.5l0,0c0.3,0,0.5-0.2,0.5-0.5l0,0
		C43,39.2,42.8,39,42.5,39z"/>
	<path opacity="0.2" d="M42.5,42L42.5,42c-0.3,0-0.5,0.2-0.5,0.5l0,0c0,0.3,0.2,0.5,0.5,0.5l0,0c0.3,0,0.5-0.2,0.5-0.5l0,0
		C43,42.2,42.8,42,42.5,42z"/>
	<path opacity="0.2" d="M42.5,45L42.5,45c-0.3,0-0.5,0.2-0.5,0.5l0,0c0,0.3,0.2,0.5,0.5,0.5l0,0c0.3,0,0.5-0.2,0.5-0.5l0,0
		C43,45.2,42.8,45,42.5,45z"/>
	<g>
		<defs>
			<path id="SVGID_69_" d="M38.7,24.9c0,0,3.3,9.8,3.3,13.1c0-3.4,3.3-13.1,3.3-13.1H38.7z"/>
		</defs>
		<clipPath id="SVGID_2_">
			<use xlink:href="#SVGID_69_"  overflow="visible"/>
		</clipPath>
		<path clip-path="url(#SVGID_2_)" fill="#FFFFFF" d="M38.7,24.9c0,0,3.3,9.8,3.3,13.1c0-3.4,3.3-13.1,3.3-13.1H38.7z"/>
		<polygon clip-path="url(#SVGID_2_)" fill="#E70003" points="39.5,24.4 41.4,26.9 39.5,30.6 42,38 44.4,30.6 42.6,26.9 44.4,24.4 
					"/>
	</g>
	<rect x="43" y="23.8" transform="matrix(0.9397 -0.342 0.342 0.9397 -5.7438 16.9047)" fill="#FFFFFF" width="4.1" height="1.8"/>
	
		<rect x="36.9" y="23.8" transform="matrix(0.9397 0.342 -0.342 0.9397 10.8077 -11.8139)" fill="#FFFFFF" width="4.1" height="1.8"/>
	<g>
		<path fill="#A55D2B" d="M42,23.5c-5.2,0-9.5-4.3-9.5-9.5s4.3-9.5,9.5-9.5s9.5,4.3,9.5,9.5S47.2,23.5,42,23.5z"/>
		<g>
			<path fill="#89471B" d="M42,5c5,0,9,4,9,9s-4,9-9,9s-9-4-9-9S37,5,42,5 M42,4c-5.5,0-10,4.5-10,10c0,5.5,4.5,10,10,10
				s10-4.5,10-10C52,8.5,47.5,4,42,4L42,4z"/>
		</g>
	</g>
	<g>
		<path fill="#1C1914" d="M32.5,14c0-5.2,4.3-9.5,9.5-9.5s9.5,4.3,9.5,9.5c0,0,0,0,0,0c-1.4-1.3-2.4-2.8-3-4.6l-0.1-0.4l-0.4,0
			c-0.7,0.1-1.4,0.1-2,0.1c-1,0-1.9-0.1-2.8-0.2l-2.7-0.4l2.4,1.3c0.6,0.3,1.1,0.6,1.6,0.8c-0.8,0.1-1.5,0.1-2.3,0.1
			c-2.5,0-4.7-0.4-6.6-1.1l-0.5-0.2l-0.2,0.5c-0.6,1.7-1.4,3-2.4,4C32.5,14.1,32.5,14,32.5,14z"/>
		<g>
			<path fill="#0A0907" d="M42,5c4.5,0,8.3,3.3,8.9,7.7c-0.9-1-1.5-2.2-1.9-3.4l-0.3-0.7l-0.8,0.1c-0.7,0.1-1.4,0.1-2,0.1
				c-0.9,0-1.9-0.1-2.7-0.2l-5.4-0.8l4.7,2.6c-0.1,0-0.2,0-0.4,0c-2.4,0-4.6-0.4-6.4-1l-0.9-0.4l-0.3,0.9c-0.4,1-0.8,1.9-1.3,2.6
				C33.8,8.3,37.5,5,42,5 M42,4c-5.5,0-10,4.5-10,10c0,0.4,0,0.8,0.1,1.2c1.1-0.9,2.4-2.4,3.3-4.9c1.8,0.7,4,1.1,6.8,1.1
				c1.3,0,2.7-0.1,4.2-0.3c0,0-1.6-0.6-3.3-1.5c0.9,0.1,1.8,0.2,2.9,0.2c0.7,0,1.4,0,2.1-0.1c0.7,1.9,1.9,3.8,3.9,5.5
				c0-0.4,0.1-0.7,0.1-1.1C52,8.5,47.5,4,42,4L42,4z"/>
		</g>
	</g>
</g>
<g>
	<g>
		<path fill="#1C1914" d="M22,32.9c-4.9,0-9.5-1.7-12.8-4.8c2.5-1,4.1-2.8,4.3-4.9h16.9c0.2,2.1,1.9,3.9,4.3,4.9
			C31.5,31.1,26.9,32.9,22,32.9z"/>
		<g>
			<path fill="#0A0907" d="M30,23.7c0.4,1.9,1.8,3.5,3.8,4.5c-3.1,2.7-7.4,4.2-11.9,4.2c-4.5,0-8.7-1.5-11.9-4.2
				c2.1-1,3.5-2.7,3.8-4.5H30 M31,22.7H13.1c0,0,0,0,0,0c0,2.3-2,4.3-4.8,5.2c3.3,3.4,8.2,5.5,13.7,5.5c5.5,0,10.4-2.1,13.7-5.5
				C32.9,27,31,25,31,22.7C31,22.7,31,22.7,31,22.7L31,22.7z"/>
		</g>
	</g>
	<g>
		<path fill="#A55D2B" d="M35.5,59.5c-1.1,0-2-0.9-2-2V42.8c-0.2-1.3-0.6-2.4-1.2-3.3L32,39l-10,8l-9.9-8l-0.3,0.4
			c-0.8,1.2-1.3,2.6-1.3,4.2v13.9c0,1.1-0.9,2-2,2c-1.1,0-2-0.9-2-2V42.2c4.4-0.2,5.6-3.6,6.6-6.6c0.9-2.5,1.7-4.7,4.2-4.7h9.3
			c2.6,0,3.3,2.2,4.2,4.7c1.1,3,2.2,6.3,6.6,6.6v15.3C37.5,58.6,36.6,59.5,35.5,59.5z"/>
		<g>
			<path fill="#89471B" d="M26.7,31.4c2.1,0,2.8,1.6,3.8,4.4c0.3,0.9,0.7,1.9,1.2,2.9L31.3,39L22,46.4L12.8,39l-0.4-0.3
				c0.5-0.9,0.8-1.9,1.2-2.9c1-2.8,1.7-4.4,3.8-4.4H26.7 M10.3,41.4c-0.2,0.7-0.3,1.4-0.3,2.2v13.9c0,0.8-0.7,1.5-1.5,1.5
				C7.7,59,7,58.3,7,57.5V42.7C8.4,42.5,9.4,42.1,10.3,41.4 M33.8,41.4c0.8,0.6,1.9,1.1,3.2,1.2v14.9c0,0.8-0.7,1.5-1.5,1.5
				c-0.8,0-1.5-0.7-1.5-1.5V43v-0.3v-0.1l0-0.1C33.9,42.2,33.9,41.8,33.8,41.4 M26.7,30.4h-9.3c-6.3,0-3.1,11.3-11.4,11.3v15.8
				C6,58.9,7.1,60,8.5,60h0c1.4,0,2.5-1.1,2.5-2.5V43.6c0-1.4,0.4-2.8,1.2-3.9l9.8,7.9l9.9-7.9c0.6,0.9,1,1.9,1.1,3V43v14.5
				c0,1.4,1.2,2.5,2.5,2.5h0c1.4,0,2.5-1.1,2.5-2.5V41.7C29.8,41.7,32.9,30.4,26.7,30.4L26.7,30.4z"/>
		</g>
	</g>
	<path fill="#BD0926" d="M33.1,56H22V41.5c3.9-3.9,5.3-7.2,5.9-9.4c0.1-0.3,0.1-0.6,0.2-0.8c0-0.3,0.1-0.5,0.1-0.8
		c6.1,0,9.8,9.3,9.8,11.2l-4.9,1.9c0-1.4-0.5-2.8-1.2-3.9l-2.4,7.9l2.5,3.7L33.1,56z"/>
	<path fill="#BD0926" d="M10.9,56H22V41.5c-3.9-3.9-5.3-7.2-5.9-9.4c-0.1-0.3-0.1-0.6-0.2-0.8c0-0.3-0.1-0.5-0.1-0.8
		c-6.1,0-9.8,9.3-9.8,11.2l4.9,1.9c0-1.4,0.5-2.8,1.2-3.9l2.4,7.9l-2.5,3.7L10.9,56z"/>
	<g>
		<path fill="#A55D2B" d="M22,29.5c-5.2,0-9.5-4.3-9.5-9.5s4.3-9.5,9.5-9.5s9.5,4.3,9.5,9.5S27.2,29.5,22,29.5z"/>
		<g>
			<path fill="#89471B" d="M22,11c5,0,9,4,9,9s-4,9-9,9s-9-4-9-9S17,11,22,11 M22,10c-5.5,0-10,4.5-10,10c0,5.5,4.5,10,10,10
				s10-4.5,10-10C32,14.5,27.5,10,22,10L22,10z"/>
		</g>
	</g>
	<g>
		<path fill="#1C1914" d="M12.7,21.9c-0.1-0.6-0.2-1.3-0.2-1.9c0-5.2,4.3-9.5,9.5-9.5s9.5,4.3,9.5,9.5c0,0.2,0,0.4,0,0.7l0-0.1
			l-0.1-0.1c-1.1-1.2-2.1-2.8-2.9-4.8l-0.2-0.4l-0.4,0.1c-0.7,0.2-1.6,0.3-2.5,0.3c-1.5,0-3.2-0.3-5-0.9l-3-1l2.6,1.9
			c1.2,0.9,2.3,1.4,3.3,1.7c-0.3,0-0.7,0-1,0c-2.3,0-4.5-0.5-6.5-1.5l-0.5-0.2l-0.2,0.5C14.4,18.3,13.6,20.2,12.7,21.9z"/>
		<g>
			<path fill="#0A0907" d="M22,11c4.7,0,8.6,3.6,9,8.2c-0.8-1-1.4-2.3-2.1-3.8l-0.3-0.8l-0.9,0.3c-0.7,0.2-1.5,0.3-2.3,0.3
				c-1.4,0-3-0.3-4.8-0.9l-4.1-1.4C18,11.7,19.9,11,22,11 M15.9,13.4l3.7,2.7c0.4,0.3,0.8,0.6,1.2,0.8c-1.7-0.2-3.3-0.6-4.9-1.4
				L15,15l-0.4,1.1c-0.5,1.4-1,2.8-1.6,4.1c0-0.1,0-0.1,0-0.2C13,17.4,14.1,15,15.9,13.4 M22,10c-5.5,0-10,4.5-10,10
				c0,1.1,0.2,2.2,0.5,3.3c0.1-0.2,0.2-0.3,0.3-0.5c1.2-2.1,2-4.3,2.7-6.4c1.8,0.9,4.1,1.5,6.7,1.5c1.3,0,2.7-0.2,4.1-0.5
				c0,0,0,0-0.1,0c-0.5,0-3.2-0.1-6.1-2.2c1.6,0.5,3.4,0.9,5.1,0.9c0.9,0,1.8-0.1,2.6-0.4c0.8,1.9,1.8,3.6,3,5
				c0.2,0.8,0.3,1.5,0.5,2.2C31.8,22,32,21,32,20C32,14.5,27.5,10,22,10L22,10z"/>
		</g>
	</g>
	<path fill="none" stroke="#E5AE00" stroke-miterlimit="10" d="M18.3,30.4c0,0,0,6.2,3.7,6.2c3.7,0,3.7-6.2,3.7-6.2"/>
	<polygon fill="#660619" points="30.6,50.1 13.4,50.1 14.6,47.7 29.4,47.7 	"/>
</g>
</svg>
