<?xml version="1.0" encoding="utf-8"?>
<!-- Generator: Adobe Illustrator 18.1.1, SVG Export Plug-In . SVG Version: 6.00 Build 0)  -->
<!DOCTYPE svg PUBLIC "-//W3C//DTD SVG 1.1//EN" "http://www.w3.org/Graphics/SVG/1.1/DTD/svg11.dtd">
<svg version="1.1" id="Ebene_1" xmlns="http://www.w3.org/2000/svg" xmlns:xlink="http://www.w3.org/1999/xlink" x="0px" y="0px"
	 width="64px" height="64px" viewBox="0 0 64 64" enable-background="new 0 0 64 64" xml:space="preserve">
<g>
	<g>
		<path fill="#F4D0B1" d="M28.5,52.5c-1.1,0-2-0.9-2-2V46h4v4.5C30.5,51.6,29.6,52.5,28.5,52.5z"/>
		<g>
			<path fill="#E5B795" d="M30,46.5v4c0,0.9-0.7,1.5-1.5,1.5c-0.8,0-1.5-0.7-1.5-1.5v-4H30 M31,45.5h-5v5c0,1.4,1.1,2.5,2.5,2.5
				c1.4,0,2.5-1.1,2.5-2.5V45.5L31,45.5z"/>
		</g>
	</g>
	<g>
		<path fill="#F4D0B1" d="M55.5,52.5c-1.1,0-2-0.9-2-2V46h4v4.5C57.5,51.6,56.6,52.5,55.5,52.5z"/>
		<g>
			<path fill="#E5B795" d="M57,46.5v4c0,0.9-0.7,1.5-1.5,1.5c-0.8,0-1.5-0.7-1.5-1.5v-4H57 M58,45.5h-5v5c0,1.4,1.1,2.5,2.5,2.5
				s2.5-1.1,2.5-2.5V45.5L58,45.5z"/>
		</g>
	</g>
	<path fill="#00783C" d="M46.7,23h-9.3c-6.3,0-11.3,5.2-11.3,11.5v0.8c0,0.2-0.1,0.4-0.1,0.6V48h4.9v-6.7v-4.8
		c0-1.5,0.5-2.8,1.3-3.9V48h19.7V32.5c0.6,0.9,1.1,2,1.2,3.2c0,0.1,0,0.1,0,0.2V48H58V36.6v-0.7v-1.3C58,28.2,52.9,23,46.7,23z"/>
	<ellipse fill="#FFFFFF" cx="42" cy="23.4" rx="4.3" ry="2.5"/>
	<rect x="41" y="29" opacity="0.2" width="1" height="19"/>
	<path opacity="0.2" d="M42.5,38L42.5,38c-0.3,0-0.5,0.2-0.5,0.5l0,0c0,0.3,0.2,0.5,0.5,0.5l0,0c0.3,0,0.5-0.2,0.5-0.5l0,0
		C43,38.2,42.8,38,42.5,38z"/>
	<path opacity="0.2" d="M42.5,41L42.5,41c-0.3,0-0.5,0.2-0.5,0.5l0,0c0,0.3,0.2,0.5,0.5,0.5l0,0c0.3,0,0.5-0.2,0.5-0.5l0,0
		C43,41.2,42.8,41,42.5,41z"/>
	<path opacity="0.2" d="M42.5,44L42.5,44c-0.3,0-0.5,0.2-0.5,0.5l0,0c0,0.3,0.2,0.5,0.5,0.5l0,0c0.3,0,0.5-0.2,0.5-0.5l0,0
		C43,44.2,42.8,44,42.5,44z"/>
	<g>
		<defs>
			<path id="SVGID_49_" d="M38.7,23.9c0,0,3.3,9.8,3.3,13.1c0-3.4,3.3-13.1,3.3-13.1H38.7z"/>
		</defs>
		<clipPath id="SVGID_2_">
			<use xlink:href="#SVGID_49_"  overflow="visible"/>
		</clipPath>
		<path clip-path="url(#SVGID_2_)" fill="#FFFFFF" d="M38.7,23.9c0,0,3.3,9.8,3.3,13.1c0-3.4,3.3-13.1,3.3-13.1H38.7z"/>
		<polygon clip-path="url(#SVGID_2_)" fill="#E70003" points="39.5,23.4 41.4,25.9 39.5,29.6 42,37 44.4,29.6 42.6,25.9 44.4,23.4 
					"/>
	</g>
	<rect x="43" y="22.8" transform="matrix(0.9397 -0.342 0.342 0.9397 -5.4018 16.8444)" fill="#FFFFFF" width="4.1" height="1.8"/>
	
		<rect x="36.9" y="22.8" transform="matrix(0.9397 0.342 -0.342 0.9397 10.4657 -11.8742)" fill="#FFFFFF" width="4.1" height="1.8"/>
	<g>
		<path fill="#F4D0B1" d="M42,22.5c-5.2,0-9.5-4.3-9.5-9.5s4.3-9.5,9.5-9.5s9.5,4.3,9.5,9.5S47.2,22.5,42,22.5z"/>
		<g>
			<path fill="#E5B795" d="M42,4c5,0,9,4,9,9s-4,9-9,9s-9-4-9-9S37,4,42,4 M42,3c-5.5,0-10,4.5-10,10c0,5.5,4.5,10,10,10
				s10-4.5,10-10C52,7.5,47.5,3,42,3L42,3z"/>
		</g>
	</g>
	<g>
		<path fill="#E67831" d="M32.5,13c0-5.2,4.3-9.5,9.5-9.5s9.5,4.3,9.5,9.5c0,0,0,0,0,0c-1.4-1.3-2.4-2.8-3-4.6l-0.1-0.4l-0.4,0
			c-0.7,0.1-1.4,0.1-2,0.1c-1,0-1.9-0.1-2.8-0.2l-2.7-0.4l2.4,1.3c0.6,0.3,1.1,0.6,1.6,0.8c-0.8,0.1-1.5,0.1-2.3,0.1
			c-2.5,0-4.7-0.4-6.6-1.1l-0.5-0.2l-0.2,0.5c-0.6,1.7-1.4,3-2.4,4C32.5,13.1,32.5,13,32.5,13z"/>
		<path fill="#DD6022" d="M42,4c4.5,0,8.3,3.3,8.9,7.7c-0.9-1-1.5-2.2-1.9-3.4l-0.3-0.7l-0.8,0.1c-0.7,0.1-1.4,0.1-2,0.1
			c-0.9,0-1.9-0.1-2.7-0.2l-5.4-0.8l4.7,2.6c-0.1,0-0.2,0-0.4,0c-2.4,0-4.6-0.4-6.4-1l-0.9-0.4l-0.3,0.9c-0.4,1-0.8,1.9-1.3,2.6
			C33.8,7.3,37.5,4,42,4 M42,3c-5.5,0-10,4.5-10,10c0,0.4,0,0.8,0.1,1.2c1.1-0.9,2.4-2.4,3.3-4.9c1.8,0.7,4,1.1,6.8,1.1
			c1.3,0,2.7-0.1,4.2-0.3c0,0-1.6-0.6-3.3-1.5c0.9,0.1,1.8,0.2,2.9,0.2c0.7,0,1.4,0,2.1-0.1c0.7,1.9,1.9,3.8,3.9,5.5
			c0-0.4,0.1-0.7,0.1-1.1C52,7.5,47.5,3,42,3L42,3z"/>
	</g>
</g>
<g>
	<g>
		<path fill="#472E18" d="M22,31.9c-4.9,0-9.5-1.7-12.8-4.8c2.5-1,4.1-2.8,4.3-4.9h16.9c0.2,2.1,1.9,3.9,4.3,4.9
			C31.5,30.1,26.9,31.9,22,31.9z"/>
		<g>
			<path fill="#382211" d="M30,22.7c0.4,1.9,1.8,3.5,3.8,4.5c-3.1,2.7-7.4,4.2-11.9,4.2s-8.7-1.5-11.9-4.2c2.1-1,3.5-2.7,3.8-4.5H30
				 M31,21.7H13.1c0,0,0,0,0,0c0,2.3-2,4.3-4.8,5.2c3.3,3.4,8.2,5.5,13.7,5.5s10.4-2.1,13.7-5.5C32.9,26,31,24,31,21.7
				C31,21.7,31,21.7,31,21.7L31,21.7z"/>
		</g>
	</g>
	<g>
		<path fill="#BA7750" d="M35.5,58.5c-1.1,0-2-0.9-2-2V41.8c-0.2-1.3-0.6-2.4-1.2-3.3L32,38l-10,8l-9.9-8l-0.3,0.4
			c-0.8,1.2-1.3,2.6-1.3,4.2v13.9c0,1.1-0.9,2-2,2c-1.1,0-2-0.9-2-2V41.2c4.4-0.2,5.6-3.6,6.6-6.6c0.9-2.5,1.7-4.7,4.2-4.7h9.3
			c2.6,0,3.3,2.2,4.2,4.7c1.1,3,2.2,6.3,6.6,6.6v15.3C37.5,57.6,36.6,58.5,35.5,58.5z"/>
		<g>
			<path fill="#A35C3D" d="M26.7,30.4c2.1,0,2.8,1.6,3.8,4.4c0.3,0.9,0.7,1.9,1.2,2.9L31.3,38L22,45.4L12.8,38l-0.4-0.3
				c0.5-0.9,0.8-1.9,1.2-2.9c1-2.8,1.7-4.4,3.8-4.4H26.7 M10.3,40.4c-0.2,0.7-0.3,1.4-0.3,2.2v13.9c0,0.8-0.7,1.5-1.5,1.5
				C7.7,58,7,57.3,7,56.5V41.7C8.4,41.5,9.4,41.1,10.3,40.4 M33.8,40.4c0.8,0.6,1.9,1.1,3.2,1.2v14.9c0,0.8-0.7,1.5-1.5,1.5
				c-0.8,0-1.5-0.7-1.5-1.5V42v-0.3v-0.1l0-0.1C33.9,41.2,33.9,40.8,33.8,40.4 M26.7,29.4h-9.3c-6.3,0-3.1,11.3-11.4,11.3v15.8
				C6,57.9,7.1,59,8.5,59h0c1.4,0,2.5-1.1,2.5-2.5V42.6c0-1.4,0.4-2.8,1.2-3.9l9.8,7.9l9.9-7.9c0.6,0.9,1,1.9,1.1,3V42v14.5
				c0,1.4,1.2,2.5,2.5,2.5h0c1.4,0,2.5-1.1,2.5-2.5V40.7C29.8,40.7,32.9,29.4,26.7,29.4L26.7,29.4z"/>
		</g>
	</g>
	<path fill="#BD0926" d="M33.1,55H22l0-14.5c3.9-3.9,5.3-7.2,5.9-9.4c0.1-0.3,0.1-0.6,0.2-0.8c0-0.3,0.1-0.5,0.1-0.8
		c6.1,0,9.8,9.3,9.8,11.2l-4.9,1.9c0-1.4-0.5-2.8-1.2-3.9l-2.4,7.9l2.5,3.7L33.1,55z"/>
	<path fill="#BD0926" d="M10.9,55H22V40.5c-3.9-3.9-5.3-7.2-5.9-9.4c-0.1-0.3-0.1-0.6-0.2-0.8c0-0.3-0.1-0.5-0.1-0.8
		c-6.1,0-9.8,9.3-9.8,11.2l4.9,1.9c0-1.4,0.5-2.8,1.2-3.9l2.4,7.9l-2.5,3.7L10.9,55z"/>
	<g>
		<path fill="#BA7750" d="M22,28.5c-5.2,0-9.5-4.3-9.5-9.5s4.3-9.5,9.5-9.5s9.5,4.3,9.5,9.5S27.2,28.5,22,28.5z"/>
		<g>
			<path fill="#A35C3D" d="M22,10c5,0,9,4,9,9s-4,9-9,9s-9-4-9-9S17,10,22,10 M22,9c-5.5,0-10,4.5-10,10c0,5.5,4.5,10,10,10
				s10-4.5,10-10C32,13.5,27.5,9,22,9L22,9z"/>
		</g>
	</g>
	<g>
		<path fill="#472E18" d="M12.7,20.9c-0.1-0.6-0.2-1.3-0.2-1.9c0-5.2,4.3-9.5,9.5-9.5s9.5,4.3,9.5,9.5c0,0.2,0,0.4,0,0.7l0-0.1
			l-0.1-0.1c-1.1-1.2-2.1-2.8-2.9-4.8l-0.2-0.4l-0.4,0.1c-0.7,0.2-1.6,0.3-2.5,0.3c-1.5,0-3.2-0.3-5-0.9l-3-1l2.6,1.9
			c1.2,0.9,2.3,1.4,3.3,1.7c-0.3,0-0.7,0-1,0c-2.3,0-4.5-0.5-6.5-1.5l-0.5-0.2l-0.2,0.5C14.4,17.3,13.6,19.2,12.7,20.9z"/>
		<g>
			<path fill="#382211" d="M22,10c4.7,0,8.6,3.6,9,8.2c-0.8-1-1.4-2.3-2.1-3.8l-0.3-0.8l-0.9,0.3c-0.7,0.2-1.5,0.3-2.3,0.3
				c-1.4,0-3-0.3-4.8-0.9l-4.1-1.4C18,10.7,19.9,10,22,10 M15.9,12.4l3.7,2.7c0.4,0.3,0.8,0.6,1.2,0.8c-1.7-0.2-3.3-0.6-4.9-1.4
				L15,14l-0.4,1.1c-0.5,1.4-1,2.8-1.6,4.1c0-0.1,0-0.1,0-0.2C13,16.4,14.1,14,15.9,12.4 M22,9c-5.5,0-10,4.5-10,10
				c0,1.1,0.2,2.2,0.5,3.3c0.1-0.2,0.2-0.3,0.3-0.5c1.2-2.1,2-4.3,2.7-6.4c1.8,0.9,4.1,1.5,6.7,1.5c1.3,0,2.7-0.2,4.1-0.5
				c0,0,0,0-0.1,0c-0.5,0-3.2-0.1-6.1-2.2c1.6,0.5,3.4,0.9,5.1,0.9c0.9,0,1.8-0.1,2.6-0.4c0.8,1.9,1.8,3.6,3,5
				c0.2,0.8,0.3,1.5,0.5,2.2C31.8,21,32,20,32,19C32,13.5,27.5,9,22,9L22,9z"/>
		</g>
	</g>
	<path fill="none" stroke="#E5AE00" stroke-miterlimit="10" d="M18.3,29.4c0,0,0,6.2,3.7,6.2c3.7,0,3.7-6.2,3.7-6.2"/>
	<polygon fill="#660619" points="30.6,49.1 13.4,49.1 14.6,46.7 29.4,46.7 	"/>
</g>
</svg>
