<?xml version="1.0" encoding="utf-8"?>
<!-- Generator: Adobe Illustrator 18.1.1, SVG Export Plug-In . SVG Version: 6.00 Build 0)  -->
<svg version="1.1" id="Ebene_1" xmlns="http://www.w3.org/2000/svg" xmlns:xlink="http://www.w3.org/1999/xlink" x="0px" y="0px"
	 width="64px" height="64px" viewBox="0 0 64 64" enable-background="new 0 0 64 64" xml:space="preserve">
<g>
	<path opacity="0.9" fill="#E5395E" d="M53.5,10.21l0.02-0.02C50.32,8.32,42.34,7,33,7s-17.32,1.32-20.51,3.19l0.02,0.02h-0.03
		L33,33.5l20.53-23.29H53.5z"/>
	<ellipse opacity="0.9" fill="none" stroke="#CEC6C6" stroke-miterlimit="10" cx="33" cy="8.5" rx="22" ry="5"/>
	<polyline opacity="0.9" fill="none" stroke="#CEC6C6" stroke-miterlimit="10" points="11,8.5 33,33.5 55,8.5 	"/>
	<polyline opacity="0.8" fill="none" stroke="#CEC6C6" stroke-miterlimit="10" points="35,31 35,60 31,60 31,31 	"/>
	<g>
		<path fill="#F7AD39" d="M19,8.5C19,3.81,15.19,0,10.5,0S2,3.81,2,8.5c0,4.69,3.81,8.5,8.5,8.5c2.35,0,4.47-0.95,6.01-2.49
			L10.5,8.5H19z"/>
	</g>
	<g>
		<path fill="#F7CE52" d="M10.5,16.5c-4.41,0-8-3.59-8-8s3.59-8,8-8s8,3.59,8,8V9h-6.79l4.8,4.8l-0.35,0.35
			C14.65,15.67,12.64,16.5,10.5,16.5z"/>
		<path fill="#F7AD39" d="M10.5,1C14.64,1,18,4.36,18,8.5h-7.5l5.3,5.3c-1.36,1.36-3.23,2.2-5.3,2.2C6.36,16,3,12.64,3,8.5
			S6.36,1,10.5,1 M10.5,0C5.81,0,2,3.81,2,8.5S5.81,17,10.5,17c2.27,0,4.4-0.88,6.01-2.49l0.71-0.71l-0.71-0.71l-3.6-3.6H18h1v-1
			C19,3.81,15.19,0,10.5,0L10.5,0z"/>
	</g>
	<path fill="#F7CE52" stroke="#F7AD39" stroke-miterlimit="10" d="M33,33"/>
	<line opacity="0.6" fill="none" stroke="#FFFFFF" stroke-width="0.5" stroke-miterlimit="10" x1="8" y1="2" x2="10" y2="7"/>
	<line opacity="0.6" fill="none" stroke="#FFFFFF" stroke-width="0.5" stroke-miterlimit="10" x1="15" y1="4" x2="12" y2="7"/>
	<line opacity="0.6" fill="none" stroke="#FFFFFF" stroke-width="0.5" stroke-miterlimit="10" x1="4" y1="8" x2="9" y2="8.5"/>
	<line opacity="0.6" fill="none" stroke="#FFFFFF" stroke-width="0.5" stroke-miterlimit="10" x1="10" y1="10" x2="6" y2="14"/>
	<line opacity="0.6" fill="none" stroke="#FFFFFF" stroke-width="0.5" stroke-miterlimit="10" x1="11" y1="10" x2="13" y2="15"/>
	<g opacity="0.8">
		<path fill="#CEC6C6" d="M35,57.25c7.13,0.31,10.31,2.16,10.31,2.85c0,0.87-4.19,2.9-12.31,2.9s-12.31-2.03-12.31-2.9
			c0-0.69,3.18-2.54,10.31-2.85V59v1h1h2h1v-1V57.25 M34,56.22V59h-2v-2.78c-6.88,0.15-12.31,1.83-12.31,3.88
			c0,2.15,5.96,3.9,13.31,3.9s13.31-1.75,13.31-3.9C46.31,58.05,40.88,56.37,34,56.22L34,56.22z"/>
	</g>
	<g opacity="0.8">
		<path fill="#CEC6C6" d="M35,57.24c6.18,0.21,9.61,1.34,10.25,1.99C44.51,60,40.1,61.25,33,61.25S21.49,60,20.75,59.23
			c0.63-0.65,4.07-1.78,10.25-1.99V59v1h1h2h1v-1V57.24 M34,56.21V59h-2v-2.79c-6.88,0.12-12.31,1.42-12.31,3.01
			c0,1.67,5.96,3.02,13.31,3.02s13.31-1.35,13.31-3.02C46.31,57.63,40.88,56.33,34,56.21L34,56.21z"/>
	</g>
</g>
</svg>
