<?xml version="1.0" encoding="utf-8"?>
<!-- Generator: Adobe Illustrator 18.1.1, SVG Export Plug-In . SVG Version: 6.00 Build 0)  -->
<svg version="1.1" id="Ebene_1" xmlns="http://www.w3.org/2000/svg" xmlns:xlink="http://www.w3.org/1999/xlink" x="0px" y="0px"
	 width="64px" height="64px" viewBox="0 0 64 64" enable-background="new 0 0 64 64" xml:space="preserve">
<g>
	<path fill="#FF9100" d="M35.18,30.5L48.45,7.52c7.71,5.19,12.54,13.72,13,22.98H35.18z"/>
	<g>
		<path fill="#E57200" d="M48.61,8.24C55.79,13.27,60.32,21.27,60.92,30H36.05L48.61,8.24 M48.28,6.81L34.32,31h27.66
			C61.64,20.85,56.27,11.98,48.28,6.81L48.28,6.81z"/>
	</g>
</g>
<g>
	<path fill="#00B450" d="M2.55,30.5C3.33,14.76,16.17,2.5,32,2.5c5.01,0,9.95,1.28,14.31,3.71L32.29,30.5H2.55z"/>
	<g>
		<path fill="#008C39" d="M32,3c4.75,0,9.44,1.17,13.62,3.4L32,30H3.08c0.49-7.15,3.57-13.8,8.74-18.82C17.26,5.9,24.42,3,32,3
			 M32,2C15.77,2,2.55,14.9,2.03,31h30.55L47,6.02C42.58,3.47,37.47,2,32,2L32,2z"/>
	</g>
</g>
<g>
	<path fill="#1E82FF" d="M32,61.5c-16.1,0-29.23-12.96-29.5-29H61.5C61.23,48.54,48.1,61.5,32,61.5z"/>
	<g>
		<path fill="#1271D8" d="M60.98,33C60.45,48.53,47.66,61,32,61S3.55,48.53,3.02,33H32h9H60.98 M62,32H41h-9H2
			c0,16.57,13.43,30,30,30S62,48.57,62,32L62,32z"/>
	</g>
</g>
</svg>
