<?xml version="1.0" encoding="utf-8"?>
<!-- Generator: Adobe Illustrator 18.1.1, SVG Export Plug-In . SVG Version: 6.00 Build 0)  -->
<svg version="1.1" id="Ebene_1" xmlns="http://www.w3.org/2000/svg" xmlns:xlink="http://www.w3.org/1999/xlink" x="0px" y="0px"
	 width="64px" height="64px" viewBox="0 0 64 64" enable-background="new 0 0 64 64" xml:space="preserve">
<rect x="18" y="24" fill="#633833" width="18" height="4"/>
<circle fill="#FFFFFF" cx="51" cy="36" r="2"/>
<circle fill="#FFFFFF" cx="51" cy="36" r="2"/>
<circle cx="51.75" cy="36.75" r="0.75"/>
<circle cx="51.75" cy="36.75" r="0.75"/>
<g>
	<path fill="#F9B1A2" d="M10.26,59.5c-2.12-3.15-3.03-8.19-3.42-11.9l-0.02-0.15l-0.1-0.12C4.61,44.81,3.5,41.93,3.5,39
		c0-2.47,0.76-4.84,2.26-7.06l0.23-0.34l-0.28-0.29C5.16,30.75,4.5,29.89,4.5,29c0-0.95,0.51-1.58,1.08-1.97
		c-0.31,0.55-0.53,1.21-0.39,1.82c0.16,0.65,0.67,1.12,1.53,1.38l0.3,0.09l0.21-0.23C11.6,25.34,18.98,22.5,27,22.5
		c6.31,0,12.24,1.74,16.69,4.9l0.34,0.24l0.3-0.29c2.45-2.38,4.64-3.68,6.53-3.87c-0.75,0.99-1.69,2.82-1.42,5.65l0.03,0.27
		l0.24,0.12c3.68,1.88,6.52,5.4,8.25,8.03l0.16,0.25l0.3-0.03c0.46-0.04,0.92-0.06,1.37-0.06c1.75,0,2.35,0.38,2.55,0.61
		c0.09,0.1,0.2,0.28,0.16,0.62c-0.3,2.43-2.6,10.66-19.47,14.63l-0.45,0.1l0.83,5.83l-7.06-0.04c-0.37-0.46-1.41-1.88-2.19-4.03
		l-0.13-0.37l-0.39,0.04c-1,0.11-1.97,0.2-2.93,0.27l0.07-0.05l-1.72,0.1C28.38,55.47,27.7,55.5,27,55.5
		c-3.24,0-6.38-0.46-9.34-1.36l-0.24-0.07l-0.97,0.73l1.02,4.63L10.26,59.5z M51,33.5c-1.38,0-2.5,1.12-2.5,2.5s1.12,2.5,2.5,2.5
		s2.5-1.12,2.5-2.5S52.38,33.5,51,33.5z M27,23.78c-3.01,0-5.94,0.54-8.47,1.56c-0.64,0.26-0.95,0.99-0.69,1.63
		c0.19,0.47,0.65,0.78,1.16,0.78c0.16,0,0.32-0.03,0.47-0.09c2.24-0.9,4.84-1.38,7.53-1.38s5.29,0.48,7.53,1.38
		c0.15,0.06,0.31,0.09,0.47,0.09c0.51,0,0.97-0.31,1.16-0.78c0.26-0.64-0.05-1.37-0.69-1.63C32.94,24.32,30.01,23.78,27,23.78z"/>
	<path fill="#CC7266" d="M27,23c6.21,0,12.04,1.71,16.4,4.8l0.68,0.48l0.6-0.58c1.87-1.81,3.61-3,5.14-3.49
		c-0.59,1.14-1.08,2.78-0.87,4.96L49,29.72l0.49,0.25c3.58,1.83,6.36,5.28,8.06,7.86l0.33,0.5l0.59-0.05
		c0.48-0.04,0.92-0.06,1.32-0.06c1.7,0,2.11,0.37,2.18,0.44c0.02,0.02,0.06,0.07,0.04,0.23c-0.29,2.35-2.54,10.31-19.09,14.2
		l-0.89,0.21l0.13,0.91l0.69,4.8l-6.24-0.03c-0.43-0.57-1.3-1.85-1.96-3.7l-0.27-0.74l-0.78,0.08c-0.37,0.04-0.75,0.08-1.11,0.11
		l-3.45,0.21C28.3,54.98,27.64,55,27,55c-3.19,0-6.29-0.45-9.2-1.34l-0.49-0.15l-0.41,0.3L16.4,54.2l-0.52,0.39l0.14,0.63l0.82,3.71
		l-6.31,0.07c-1.56-2.46-2.66-6.4-3.2-11.45l-0.03-0.3l-0.2-0.23C5.07,44.58,4,41.81,4,39c0-2.37,0.73-4.65,2.18-6.78l0.46-0.68
		l-0.57-0.58c-0.25-0.26-0.53-0.59-0.74-0.94c0.28,0.27,0.69,0.51,1.25,0.69l0.6,0.19l0.43-0.47C11.87,25.78,19.12,23,27,23
		 M19,28.25c0.23,0,0.45-0.04,0.66-0.13c2.18-0.88,4.72-1.35,7.34-1.35s5.17,0.47,7.35,1.35c0.21,0.08,0.43,0.13,0.65,0.13
		c0.72,0,1.35-0.43,1.62-1.09c0.36-0.89-0.07-1.92-0.97-2.28c-2.59-1.05-5.58-1.6-8.66-1.6s-6.07,0.55-8.66,1.6
		c-0.89,0.36-1.33,1.38-0.97,2.28C17.65,27.82,18.28,28.25,19,28.25 M51,39c1.65,0,3-1.35,3-3s-1.35-3-3-3s-3,1.35-3,3
		S49.35,39,51,39 M27,22c-8.44,0-15.85,3.09-20.13,7.75C4.04,28.87,7,26,7,26c-0.83,0-3,0.83-3,3c0,1.01,0.65,1.94,1.35,2.66
		C3.84,33.88,3,36.37,3,39c0,3.16,1.22,6.11,3.34,8.65C6.78,51.77,7.77,56.85,10,60l8.08-0.08L17,55l0.51-0.38
		C20.42,55.51,23.63,56,27,56c0.71,0,1.4-0.03,2.09-0.07L29,56c1.65-0.1,3.21-0.24,4.7-0.4c1,2.77,2.42,4.35,2.42,4.35L44,60
		l-0.85-5.95C60.17,50.05,62.66,41.71,63,39c0.17-1.39-1.36-1.79-3.21-1.79c-0.46,0-0.93,0.02-1.41,0.07
		c-1.68-2.55-4.61-6.24-8.44-8.2C49.53,24.87,52,23,52,23c-0.22-0.03-0.44-0.05-0.66-0.05c-2.5,0-5.15,1.89-7.36,4.03
		C39.64,23.91,33.63,22,27,22L27,22z M19,27.25c-0.3,0-0.58-0.18-0.69-0.47c-0.16-0.38,0.03-0.82,0.41-0.98
		c2.52-1.02,5.4-1.53,8.28-1.53s5.76,0.51,8.28,1.53c0.38,0.16,0.57,0.59,0.41,0.98c-0.12,0.29-0.4,0.47-0.7,0.47
		c-0.09,0-0.19-0.02-0.28-0.05c-2.34-0.95-5.03-1.42-7.72-1.42s-5.38,0.47-7.72,1.42C19.19,27.23,19.09,27.25,19,27.25L19,27.25z
		 M51,38c-1.1,0-2-0.9-2-2c0-1.1,0.9-2,2-2s2,0.9,2,2C53,37.1,52.1,38,51,38L51,38z"/>
</g>
<g>
	<path fill="#EEC165" d="M27,18.5c-4.69,0-8.5-3.81-8.5-8.5s3.81-8.5,8.5-8.5s8.5,3.81,8.5,8.5S31.69,18.5,27,18.5z"/>
	<path fill="#EDA526" d="M27,2c4.42,0,8,3.58,8,8s-3.58,8-8,8s-8-3.58-8-8S22.58,2,27,2 M27,1c-4.96,0-9,4.04-9,9s4.04,9,9,9
		s9-4.04,9-9S31.96,1,27,1L27,1z"/>
</g>
<g>
	<path fill="#B2B2B2" d="M27,15.5c-3.03,0-5.5-2.47-5.5-5.5s2.47-5.5,5.5-5.5s5.5,2.47,5.5,5.5S30.03,15.5,27,15.5z"/>
	<path fill="#8C8C8C" d="M27,5c2.76,0,5,2.24,5,5s-2.24,5-5,5s-5-2.24-5-5S24.24,5,27,5 M27,4c-3.31,0-6,2.69-6,6s2.69,6,6,6
		s6-2.69,6-6S30.31,4,27,4L27,4z"/>
</g>
<text transform="matrix(1 0 0 1 21 15)" opacity="0.2" font-family="'TimesNewRomanPS-BoldItalicMT'" font-size="12">1</text>
<text transform="matrix(1 0 0 1 28 12)" opacity="0.2" font-family="'TimesNewRomanPS-BoldItalicMT'" font-size="2">EURO</text>
<path fill="none" stroke="#CC7266" stroke-miterlimit="10" d="M53,45c0,0,1.33,2,4,2"/>
</svg>
