<?xml version="1.0" encoding="utf-8"?>
<!-- Generator: Adobe Illustrator 18.1.1, SVG Export Plug-In . SVG Version: 6.00 Build 0)  -->
<svg version="1.1" id="Ebene_1" xmlns="http://www.w3.org/2000/svg" xmlns:xlink="http://www.w3.org/1999/xlink" x="0px" y="0px"
	 width="64px" height="64px" viewBox="0 0 64 64" enable-background="new 0 0 64 64" xml:space="preserve">
<path fill="#212121" stroke="#000000" stroke-width="0.5" stroke-miterlimit="10" d="M5.24,29.78l-0.19,3.41l0.01,0.15l0.52,5.6
	c0,0-0.09,1.81,2.94,1.81h44.97c0,0,3.66,0.12,4.31-0.84s0.94-4.59,0.94-4.59v-5.16L5.24,29.78z"/>
<linearGradient id="SVGID_1_" gradientUnits="userSpaceOnUse" x1="3" y1="29.6925" x2="61" y2="29.6925">
	<stop  offset="0" style="stop-color:#1D1A1E"/>
	<stop  offset="0.0305" style="stop-color:#444145"/>
	<stop  offset="0.0676" style="stop-color:#242424"/>
	<stop  offset="0.2319" style="stop-color:#000000"/>
	<stop  offset="0.4164" style="stop-color:#282629"/>
	<stop  offset="1" style="stop-color:#38373A"/>
</linearGradient>
<path fill="url(#SVGID_1_)" stroke="#000000" stroke-width="0.5" stroke-miterlimit="10" d="M3.49,23.28l-0.42,8.67
	c0,0-0.59,1.97,1.77,2.59s30.59,3.93,41.15,3.84s13.67-2.86,13.67-2.86s1.5-0.65,1.33-4.38l-0.51-8.54c0,0-6.78-1.99-18.78-1.54
	S3.49,23.28,3.49,23.28z"/>
<rect x="29" y="41" width="8" height="2"/>
<rect x="51" y="41" width="2" height="1"/>
<path fill="#FF0898" d="M5.24,32.48"/>
<circle cx="56" cy="35.08" r="1"/>
<g>
	<path fill="#222222" d="M47,36.88c-3.79,0-6.88-3.08-6.88-6.88s3.08-6.88,6.88-6.88s6.88,3.08,6.88,6.88S50.79,36.88,47,36.88z"/>
	<path d="M47,23.25c3.72,0,6.75,3.03,6.75,6.75s-3.03,6.75-6.75,6.75s-6.75-3.03-6.75-6.75S43.28,23.25,47,23.25 M47,23
		c-3.87,0-7,3.13-7,7s3.13,7,7,7s7-3.13,7-7S50.87,23,47,23L47,23z"/>
</g>
<g>
	<path fill="#DADADA" d="M47,34.87c-2.69,0-4.88-2.19-4.88-4.87s2.19-4.87,4.88-4.87s4.88,2.19,4.88,4.87S49.69,34.87,47,34.87z"/>
	<g>
		<path fill="#6D6D6D" d="M47,25.25c2.62,0,4.75,2.13,4.75,4.75s-2.13,4.75-4.75,4.75s-4.75-2.13-4.75-4.75S44.38,25.25,47,25.25
			 M47,25c-2.76,0-5,2.24-5,5s2.24,5,5,5s5-2.24,5-5S49.76,25,47,25L47,25z"/>
	</g>
</g>
<g>
	<path fill="#797689" d="M47,32.88c-1.59,0-2.88-1.29-2.88-2.88s1.29-2.88,2.88-2.88s2.88,1.29,2.88,2.88S48.59,32.88,47,32.88z"/>
	<g>
		<path d="M47,27.25c1.52,0,2.75,1.23,2.75,2.75s-1.23,2.75-2.75,2.75s-2.75-1.23-2.75-2.75S45.48,27.25,47,27.25 M47,27
			c-1.66,0-3,1.34-3,3s1.34,3,3,3s3-1.34,3-3S48.66,27,47,27L47,27z"/>
	</g>
</g>
<g>
	<circle fill="#4F3542" cx="47" cy="30" r="1.75"/>
</g>
<circle cx="47" cy="30" r="1.05"/>
<g>
	<path fill="#C8C8C8" d="M13.7,28.01c-0.52,0-0.89,0.38-0.89,0.93v0.06c0,0.55,0.38,0.91,0.97,0.91c0.13,0,0.45,0,0.75-0.23v-0.41
		c-0.25,0.19-0.41,0.21-0.62,0.21c-0.31,0-0.51-0.12-0.55-0.4h1.2c0-0.03,0-0.06,0-0.09C14.58,28.36,14.18,28.01,13.7,28.01z
		 M13.38,28.74c0.03-0.16,0.15-0.28,0.31-0.28c0.16,0,0.28,0.12,0.31,0.28H13.38z"/>
	<path fill="#C8C8C8" d="M15.79,28.02c-0.22,0-0.39,0.09-0.56,0.29v-0.24h-0.54v1.79h0.54v-1.12c0.14-0.23,0.24-0.3,0.38-0.3
		c0.15,0,0.27,0.1,0.27,0.36v1.06h0.54v-1.15C16.42,28.18,16.06,28.02,15.79,28.02z"/>
	<path fill="#C8C8C8" d="M12.45,28.88c0.15-0.08,0.24-0.22,0.24-0.4c0-0.26-0.18-0.37-0.35-0.43c-0.1-0.03-0.18-0.03-0.29-0.03H11
		v1.85h1.09c0.15,0,0.3-0.01,0.45-0.12c0.16-0.12,0.2-0.29,0.2-0.42c0-0.17-0.08-0.28-0.16-0.35C12.55,28.93,12.5,28.91,12.45,28.88
		z M11.52,28.46h0.41c0.09,0,0.22,0.02,0.22,0.14c0,0.14-0.13,0.14-0.22,0.14h-0.41V28.46z M11.97,29.46h-0.45v-0.37h0.45
		c0.11,0,0.22,0.05,0.22,0.19C12.19,29.42,12.08,29.46,11.97,29.46z"/>
	<path fill="#C8C8C8" d="M17.95,29.82L17.95,29.82c0.32-0.12,0.54-0.43,0.54-0.86c0-0.71-0.55-0.96-0.98-0.96
		c-0.52,0-0.99,0.33-0.99,0.95c0,0.57,0.42,0.95,0.99,0.95c0.08,0.1,0.54,0.49,1.24,0.27l0.08-0.59
		C18.49,29.86,18.02,29.84,17.95,29.82z M17.78,29.37c-0.07,0.09-0.18,0.13-0.29,0.13c-0.14,0-0.25-0.07-0.33-0.18
		c-0.06-0.09-0.09-0.21-0.09-0.33c0-0.16,0.05-0.3,0.14-0.4c0.08-0.09,0.16-0.13,0.28-0.13c0.08,0,0.16,0.02,0.22,0.07
		c0.12,0.1,0.19,0.27,0.19,0.46C17.91,29.13,17.86,29.28,17.78,29.37z"/>
</g>
<rect x="47" y="29" fill="#FFFFFF" width="1" height="1"/>
</svg>
