<?xml version="1.0" encoding="utf-8"?>
<!-- Generator: Adobe Illustrator 18.1.1, SVG Export Plug-In . SVG Version: 6.00 Build 0)  -->
<svg version="1.1" id="Ebene_1" xmlns="http://www.w3.org/2000/svg" xmlns:xlink="http://www.w3.org/1999/xlink" x="0px" y="0px"
	 width="64px" height="64px" viewBox="0 0 64 64" enable-background="new 0 0 64 64" xml:space="preserve">
<g>
	<g>
		<linearGradient id="SVGID_1_" gradientUnits="userSpaceOnUse" x1="18.4618" y1="60.8841" x2="8.1831" y2="53.6869">
			<stop  offset="0" style="stop-color:#82828C"/>
			<stop  offset="0.5" style="stop-color:#CCD3E7"/>
			<stop  offset="1" style="stop-color:#82828C"/>
		</linearGradient>
		<polygon fill="url(#SVGID_1_)" points="6.68,62.5 10.33,50.62 23.1,54.26 15.78,62.5 		"/>
		<path fill="#666E7F" d="M10.67,51.23l11.53,3.29L15.55,62h-8.2L10.67,51.23 M10,50L6,63h10l8-9L10,50L10,50z"/>
	</g>
	<g>
		
			<linearGradient id="SVGID_2_" gradientUnits="userSpaceOnUse" x1="876.1832" y1="53.6869" x2="886.4618" y2="60.8841" gradientTransform="matrix(-1 0 0 1 922 0)">
			<stop  offset="0" style="stop-color:#82828C"/>
			<stop  offset="0.5" style="stop-color:#CCD3E7"/>
			<stop  offset="1" style="stop-color:#82828C"/>
		</linearGradient>
		<polygon fill="url(#SVGID_2_)" points="38.22,62.5 30.9,54.26 43.67,50.62 47.32,62.5 		"/>
		<path fill="#666E7F" d="M43.33,51.23L46.65,62h-8.2l-6.64-7.48L43.33,51.23 M44,50l-14,4l8,9h10L44,50L44,50z"/>
	</g>
	<g>
		<linearGradient id="SVGID_3_" gradientUnits="userSpaceOnUse" x1="10" y1="63.5" x2="10" y2="61.5">
			<stop  offset="0" style="stop-color:#82828C"/>
			<stop  offset="0.5" style="stop-color:#CCD3E7"/>
			<stop  offset="1" style="stop-color:#82828C"/>
		</linearGradient>
		<rect x="1.5" y="61.5" fill="url(#SVGID_3_)" width="17" height="2"/>
		<path fill="#666E7F" d="M18,62v1H2v-1H18 M19,61H1v3h18V61L19,61z"/>
	</g>
	<g>
		<linearGradient id="SVGID_4_" gradientUnits="userSpaceOnUse" x1="44" y1="63.5" x2="44" y2="61.5">
			<stop  offset="0" style="stop-color:#82828C"/>
			<stop  offset="0.5" style="stop-color:#CCD3E7"/>
			<stop  offset="1" style="stop-color:#82828C"/>
		</linearGradient>
		<rect x="35.5" y="61.5" fill="url(#SVGID_4_)" width="17" height="2"/>
		<path fill="#666E7F" d="M52,62v1H36v-1H52 M53,61H35v3h18V61L53,61z"/>
	</g>
</g>
<linearGradient id="SVGID_5_" gradientUnits="userSpaceOnUse" x1="29" y1="15.5" x2="58" y2="15.5">
	<stop  offset="0" style="stop-color:#82828C;stop-opacity:0"/>
	<stop  offset="0.25" style="stop-color:#666E7F"/>
	<stop  offset="1" style="stop-color:#666E7F"/>
</linearGradient>
<path fill="url(#SVGID_5_)" d="M57,6v19H30V6H57 M58,5H29v21h29V5L58,5z"/>
<g>
	<radialGradient id="SVGID_6_" cx="27" cy="32" r="26.5" gradientUnits="userSpaceOnUse">
		<stop  offset="0.2965" style="stop-color:#82828C"/>
		<stop  offset="0.65" style="stop-color:#CCD3E7"/>
		<stop  offset="1" style="stop-color:#82828C"/>
	</radialGradient>
	<path fill="url(#SVGID_6_)" d="M27,58.5C12.39,58.5,0.5,46.61,0.5,32S12.39,5.5,27,5.5S53.5,17.39,53.5,32S41.61,58.5,27,58.5z"/>
	<g>
		<path fill="#666E7F" d="M27,6c14.34,0,26,11.66,26,26c0,14.34-11.66,26-26,26S1,46.34,1,32C1,17.66,12.66,6,27,6 M27,5
			C12.09,5,0,17.09,0,32s12.09,27,27,27s27-12.09,27-27S41.91,5,27,5L27,5z"/>
	</g>
</g>
<g>
	<radialGradient id="SVGID_7_" cx="27" cy="32" r="23.5" gradientUnits="userSpaceOnUse">
		<stop  offset="0.5" style="stop-color:#82828C"/>
		<stop  offset="0.7902" style="stop-color:#CCD3E7"/>
		<stop  offset="1" style="stop-color:#82828C"/>
	</radialGradient>
	<path fill="url(#SVGID_7_)" d="M27,55.5C14.04,55.5,3.5,44.96,3.5,32S14.04,8.5,27,8.5S50.5,19.04,50.5,32S39.96,55.5,27,55.5z"/>
	<g>
		<path fill="#666E7F" d="M27,9c12.68,0,23,10.32,23,23S39.68,55,27,55S4,44.68,4,32S14.32,9,27,9 M27,8C13.75,8,3,18.75,3,32
			s10.75,24,24,24s24-10.75,24-24S40.25,8,27,8L27,8z"/>
	</g>
</g>
<g>
	<radialGradient id="SVGID_8_" cx="27" cy="32" r="10.5" gradientUnits="userSpaceOnUse">
		<stop  offset="0.55" style="stop-color:#000000"/>
		<stop  offset="1" style="stop-color:#1A1A1A"/>
	</radialGradient>
	<path fill="url(#SVGID_8_)" d="M27,42.5c-5.79,0-10.5-4.71-10.5-10.5S21.21,21.5,27,21.5S37.5,26.21,37.5,32S32.79,42.5,27,42.5z"
		/>
	<path fill="#191919" d="M27,22c5.51,0,10,4.49,10,10c0,5.51-4.49,10-10,10s-10-4.49-10-10C17,26.49,21.49,22,27,22 M27,21
		c-6.08,0-11,4.92-11,11s4.92,11,11,11s11-4.92,11-11S33.08,21,27,21L27,21z"/>
</g>
<circle fill="#D8BB41" stroke="#484E59" stroke-miterlimit="10" cx="27" cy="32" r="2.5"/>
<g>
	<linearGradient id="SVGID_9_" gradientUnits="userSpaceOnUse" x1="60.5" y1="27.5" x2="60.5" y2="3.5">
		<stop  offset="0" style="stop-color:#82828C"/>
		<stop  offset="0.5" style="stop-color:#CCD3E7"/>
		<stop  offset="1" style="stop-color:#82828C"/>
	</linearGradient>
	<rect x="57.5" y="3.5" fill="url(#SVGID_9_)" width="6" height="24"/>
	<path fill="#666E7F" d="M63,4v23h-5V4H63 M64,3h-7v25h7V3L64,3z"/>
</g>
<g>
	<linearGradient id="SVGID_10_" gradientUnits="userSpaceOnUse" x1="42" y1="25" x2="42" y2="6">
		<stop  offset="0" style="stop-color:#82828C"/>
		<stop  offset="0.5" style="stop-color:#CCD3E7"/>
		<stop  offset="1" style="stop-color:#82828C"/>
	</linearGradient>
	<path fill="url(#SVGID_10_)" d="M27,6c10.85,0,19.98,8.04,22.76,19H57V6H27z"/>
</g>
</svg>
