<?xml version="1.0" encoding="utf-8"?>
<!-- Generator: Adobe Illustrator 18.1.1, SVG Export Plug-In . SVG Version: 6.00 Build 0)  -->
<svg version="1.1" id="Ebene_1" xmlns="http://www.w3.org/2000/svg" xmlns:xlink="http://www.w3.org/1999/xlink" x="0px" y="0px"
	 width="64px" height="64px" viewBox="0 0 64 64" enable-background="new 0 0 64 64" xml:space="preserve">
<g>
	<rect x="6" y="13" fill="#505050" width="6" height="3"/>
</g>
<g>
	<rect x="6" y="49" fill="#505050" width="6" height="3"/>
</g>
<g>
	<linearGradient id="SVGID_1_" gradientUnits="userSpaceOnUse" x1="36.5" y1="10.5" x2="36.5" y2="53.5">
		<stop  offset="0" style="stop-color:#FAFAFA"/>
		<stop  offset="1" style="stop-color:#DCDCDC"/>
	</linearGradient>
	<path fill="url(#SVGID_1_)" d="M12,53.5c-0.83,0-1.5-0.67-1.5-1.5V12c0-0.83,0.67-1.5,1.5-1.5h49c0.83,0,1.5,0.67,1.5,1.5v40
		c0,0.83-0.67,1.5-1.5,1.5H12z"/>
	<path fill="#A0A0A0" d="M61,11c0.55,0,1,0.45,1,1v40c0,0.55-0.45,1-1,1H12c-0.55,0-1-0.45-1-1V12c0-0.55,0.45-1,1-1H61 M61,10H12
		c-1.1,0-2,0.9-2,2v40c0,1.1,0.9,2,2,2h49c1.1,0,2-0.9,2-2V12C63,10.9,62.1,10,61,10L61,10z"/>
</g>
<g>
	<linearGradient id="SVGID_2_" gradientUnits="userSpaceOnUse" x1="14.5" y1="32" x2="18.5" y2="32">
		<stop  offset="0" style="stop-color:#DCDCDC"/>
		<stop  offset="1" style="stop-color:#FAFAFA"/>
	</linearGradient>
	<path fill="url(#SVGID_2_)" d="M15,51.5c-0.28,0-0.5-0.22-0.5-0.5V13c0-0.28,0.22-0.5,0.5-0.5h3c0.28,0,0.5,0.22,0.5,0.5v38
		c0,0.28-0.22,0.5-0.5,0.5H15z"/>
	<path fill="#B4B4B4" d="M18,13v38h-3V13H18 M18,12h-3c-0.55,0-1,0.45-1,1v38c0,0.55,0.45,1,1,1h3c0.55,0,1-0.45,1-1V13
		C19,12.45,18.55,12,18,12L18,12z"/>
</g>
<g>
	<linearGradient id="SVGID_3_" gradientUnits="userSpaceOnUse" x1="22.5" y1="32" x2="26.5" y2="32">
		<stop  offset="0" style="stop-color:#DCDCDC"/>
		<stop  offset="1" style="stop-color:#FAFAFA"/>
	</linearGradient>
	<path fill="url(#SVGID_3_)" d="M23,51.5c-0.28,0-0.5-0.22-0.5-0.5V13c0-0.28,0.22-0.5,0.5-0.5h3c0.28,0,0.5,0.22,0.5,0.5v38
		c0,0.28-0.22,0.5-0.5,0.5H23z"/>
	<path fill="#B4B4B4" d="M26,13v38h-3V13H26 M26,12h-3c-0.55,0-1,0.45-1,1v38c0,0.55,0.45,1,1,1h3c0.55,0,1-0.45,1-1V13
		C27,12.45,26.55,12,26,12L26,12z"/>
</g>
<g>
	<linearGradient id="SVGID_4_" gradientUnits="userSpaceOnUse" x1="30.5" y1="32" x2="34.5" y2="32">
		<stop  offset="0" style="stop-color:#DCDCDC"/>
		<stop  offset="1" style="stop-color:#FAFAFA"/>
	</linearGradient>
	<path fill="url(#SVGID_4_)" d="M31,51.5c-0.28,0-0.5-0.22-0.5-0.5V13c0-0.28,0.22-0.5,0.5-0.5h3c0.28,0,0.5,0.22,0.5,0.5v38
		c0,0.28-0.22,0.5-0.5,0.5H31z"/>
	<path fill="#B4B4B4" d="M34,13v38h-3V13H34 M34,12h-3c-0.55,0-1,0.45-1,1v38c0,0.55,0.45,1,1,1h3c0.55,0,1-0.45,1-1V13
		C35,12.45,34.55,12,34,12L34,12z"/>
</g>
<g>
	<linearGradient id="SVGID_5_" gradientUnits="userSpaceOnUse" x1="38.5" y1="32" x2="42.5" y2="32">
		<stop  offset="0" style="stop-color:#DCDCDC"/>
		<stop  offset="1" style="stop-color:#FAFAFA"/>
	</linearGradient>
	<path fill="url(#SVGID_5_)" d="M39,51.5c-0.28,0-0.5-0.22-0.5-0.5V13c0-0.28,0.22-0.5,0.5-0.5h3c0.28,0,0.5,0.22,0.5,0.5v38
		c0,0.28-0.22,0.5-0.5,0.5H39z"/>
	<path fill="#B4B4B4" d="M42,13v38h-3V13H42 M42,12h-3c-0.55,0-1,0.45-1,1v38c0,0.55,0.45,1,1,1h3c0.55,0,1-0.45,1-1V13
		C43,12.45,42.55,12,42,12L42,12z"/>
</g>
<g>
	<linearGradient id="SVGID_6_" gradientUnits="userSpaceOnUse" x1="46.5" y1="32" x2="50.5" y2="32">
		<stop  offset="0" style="stop-color:#DCDCDC"/>
		<stop  offset="1" style="stop-color:#FAFAFA"/>
	</linearGradient>
	<path fill="url(#SVGID_6_)" d="M47,51.5c-0.28,0-0.5-0.22-0.5-0.5V13c0-0.28,0.22-0.5,0.5-0.5h3c0.28,0,0.5,0.22,0.5,0.5v38
		c0,0.28-0.22,0.5-0.5,0.5H47z"/>
	<path fill="#B4B4B4" d="M50,13v38h-3V13H50 M50,12h-3c-0.55,0-1,0.45-1,1v38c0,0.55,0.45,1,1,1h3c0.55,0,1-0.45,1-1V13
		C51,12.45,50.55,12,50,12L50,12z"/>
</g>
<g>
	<linearGradient id="SVGID_7_" gradientUnits="userSpaceOnUse" x1="54.5" y1="32" x2="58.5" y2="32">
		<stop  offset="0" style="stop-color:#DCDCDC"/>
		<stop  offset="1" style="stop-color:#FAFAFA"/>
	</linearGradient>
	<path fill="url(#SVGID_7_)" d="M55,51.5c-0.28,0-0.5-0.22-0.5-0.5V13c0-0.28,0.22-0.5,0.5-0.5h3c0.28,0,0.5,0.22,0.5,0.5v38
		c0,0.28-0.22,0.5-0.5,0.5H55z"/>
	<path fill="#B4B4B4" d="M58,13v38h-3V13H58 M58,12h-3c-0.55,0-1,0.45-1,1v38c0,0.55,0.45,1,1,1h3c0.55,0,1-0.45,1-1V13
		C59,12.45,58.55,12,58,12L58,12z"/>
</g>
<g>
	<path fill="#FFFFFF" d="M2,17.5c-1.03,0-1.5-1.54-1.5-2.97c0-1.46,0.47-3.03,1.5-3.03h6.5v6H2z"/>
	<path fill="#A0A0A0" d="M8,12v5H2c-0.55,0-1-1.09-1-2.47C1,13.15,1.45,12,2,12H8 M9,11H8H2c-1.38,0-2,1.77-2,3.53
		C0,16.61,0.8,18,2,18h6h1v-1v-5V11L9,11z"/>
</g>
<circle fill="#A0A0A0" cx="6.5" cy="50.5" r="2.5"/>
<circle fill="#505050" cx="6.5" cy="50.5" r="1.5"/>
<rect x="2" y="13" fill="#C8C8C8" width="6" height="1"/>
<rect x="2" y="15" fill="#C8C8C8" width="6" height="1"/>
</svg>
