<?xml version="1.0" encoding="utf-8"?>
<!-- Generator: Adobe Illustrator 18.1.1, SVG Export Plug-In . SVG Version: 6.00 Build 0)  -->
<svg version="1.1" id="Ebene_1" xmlns="http://www.w3.org/2000/svg" xmlns:xlink="http://www.w3.org/1999/xlink" x="0px" y="0px"
	 width="64px" height="64px" viewBox="0 0 64 64" enable-background="new 0 0 64 64" xml:space="preserve">
<g>
	<g>
		<rect x="3.5" y="21.5" fill="#E7EBF4" width="57" height="19"/>
		<path fill="#C4C6CC" d="M60,22v18H4V22H60 M61,21h-1H4H3v1v18v1h1h56h1v-1V22V21L61,21z"/>
	</g>
	<rect x="10" y="25" width="42" height="5"/>
	<rect x="7" y="41" width="6" height="1"/>
	<rect x="51" y="41" width="6" height="1"/>
	<circle fill="#B6C7D1" cx="7.5" cy="26.5" r="1.5"/>
	<circle cx="9" cy="37" r="1"/>
	<g>
		<path fill="#B6C7D1" d="M53.5,30.88c-1.86,0-3.38-1.51-3.38-3.38s1.51-3.38,3.38-3.38s3.38,1.51,3.38,3.38S55.36,30.88,53.5,30.88
			z"/>
		<path fill="#889499" d="M53.5,24.25c1.79,0,3.25,1.46,3.25,3.25s-1.46,3.25-3.25,3.25s-3.25-1.46-3.25-3.25
			S51.71,24.25,53.5,24.25 M53.5,24c-1.93,0-3.5,1.57-3.5,3.5s1.57,3.5,3.5,3.5s3.5-1.57,3.5-3.5S55.43,24,53.5,24L53.5,24z"/>
	</g>
	<rect x="6" y="32" fill="#3C3C3C" width="52" height="1"/>
	<rect x="6" y="33" fill="#FFFFFF" width="52" height="1"/>
	<rect x="47" y="36" fill="#899BA7" width="11" height="2"/>
	<text transform="matrix(1 0 0 1 21 29)" fill="#FFFFFF" font-family="'MyriadPro-Regular'" font-size="4">POWER ON</text>
</g>
</svg>
