<?xml version="1.0" encoding="utf-8"?>
<!-- Generator: Adobe Illustrator 18.1.1, SVG Export Plug-In . SVG Version: 6.00 Build 0)  -->
<svg version="1.1" id="Ebene_1" xmlns="http://www.w3.org/2000/svg" xmlns:xlink="http://www.w3.org/1999/xlink" x="0px" y="0px"
	 width="64px" height="64px" viewBox="0 0 64 64" enable-background="new 0 0 64 64" xml:space="preserve">
<g>
	<path fill="#36AEFF" d="M32,60.29c-0.4,0-0.78-0.16-1.06-0.44L3.78,31.07c-0.53-0.53-0.52-1.2-0.33-1.65
		c0.19-0.45,0.65-0.93,1.39-0.93H14c1.38,0,2.5-1.12,2.5-2.5V6c0-0.83,0.67-1.5,1.5-1.5h28c0.83,0,1.5,0.67,1.5,1.5v20
		c0,1.38,1.12,2.5,2.5,2.5h9.17c0.74,0,1.2,0.48,1.39,0.93c0.19,0.45,0.2,1.11-0.33,1.63l-27.18,28.8
		C32.78,60.14,32.4,60.29,32,60.29z"/>
	<g>
		<path fill="#2B8ED8" d="M46,5c0.55,0,1,0.45,1,1v20c0,1.65,1.35,3,3,3h9.17c0.62,0,0.86,0.47,0.92,0.62
			c0.06,0.14,0.22,0.65-0.24,1.11L32.71,59.5c-0.19,0.19-0.44,0.29-0.71,0.29s-0.52-0.1-0.69-0.27L4.12,30.71
			c-0.44-0.44-0.28-0.94-0.22-1.09C3.96,29.47,4.21,29,4.83,29H14c1.65,0,3-1.35,3-3V6c0-0.55,0.45-1,1-1H46 M46,4H18
			c-1.1,0-2,0.9-2,2v20c0,1.1-0.9,2-2,2H4.83c-1.78,0-2.67,2.15-1.41,3.41l27.17,28.79c0.39,0.39,0.9,0.59,1.41,0.59
			s1.02-0.2,1.41-0.59l27.17-28.79c1.26-1.26,0.37-3.41-1.41-3.41H50c-1.1,0-2-0.9-2-2V6C48,4.9,47.1,4,46,4L46,4z"/>
	</g>
</g>
</svg>
