<?xml version="1.0" encoding="utf-8"?>
<!-- Generator: Adobe Illustrator 18.1.1, SVG Export Plug-In . SVG Version: 6.00 Build 0)  -->
<svg version="1.1" id="Ebene_1" xmlns="http://www.w3.org/2000/svg" xmlns:xlink="http://www.w3.org/1999/xlink" x="0px" y="0px"
	 width="64px" height="64px" viewBox="0 0 64 64" enable-background="new 0 0 64 64" xml:space="preserve">
<g>
	<path fill="#FFFFFF" d="M32,29c-2.8,2.51-4.82,5.88-5.62,9.7c1.77,0.58,3.65,0.91,5.62,0.91s3.85-0.33,5.62-0.91
		C36.82,34.88,34.8,31.52,32,29z"/>
	<g>
		<path fill="#FF00FF" d="M32,39.61c-1.96,0-3.84-0.32-5.61-0.9C26.14,39.89,26,41.13,26,42.39c0,5.32,2.33,10.09,6,13.39
			c3.67-3.3,6-8.07,6-13.39c0-1.27-0.14-2.5-0.39-3.69C35.84,39.28,33.96,39.61,32,39.61z"/>
	</g>
	<g>
		<path fill="#FF0000" d="M26,42.39c0-1.27,0.13-2.5,0.38-3.69c-6.05-1.99-10.67-7.09-11.99-13.41C7.2,27.65,2,34.41,2,42.39
			c0,9.94,8.06,18,18,18c4.62,0,8.81-1.75,12-4.61C28.33,52.49,26,47.72,26,42.39z"/>
	</g>
	<g>
		<path fill="#00FF00" d="M32,3.61c-9.94,0-18,8.06-18,18c0,1.27,0.14,2.5,0.39,3.69c1.77-0.58,3.65-0.9,5.61-0.9
			c4.62,0,8.81,1.75,12,4.61c3.19-2.86,7.38-4.61,12-4.61c1.96,0,3.85,0.33,5.62,0.91c0.25-1.19,0.38-2.43,0.38-3.69
			C50,11.67,41.94,3.61,32,3.61z"/>
	</g>
	<g>
		<path fill="#00FFFF" d="M44,24.39c-4.62,0-8.81,1.75-12,4.61c2.8,2.51,4.82,5.88,5.62,9.7c6.05-1.99,10.68-7.08,12-13.4
			C47.85,24.72,45.96,24.39,44,24.39z"/>
	</g>
	<path fill="#0000FF" d="M49.62,25.3c-1.32,6.32-5.96,11.42-12.01,13.4c0.25,1.19,0.39,2.43,0.39,3.69c0,5.32-2.33,10.09-6,13.39
		c3.19,2.86,7.38,4.61,12,4.61c9.94,0,18-8.06,18-18C62,34.41,56.81,27.66,49.62,25.3z"/>
	<g>
		<path fill="#FFFF00" d="M32,29c-3.19-2.86-7.38-4.61-12-4.61c-1.96,0-3.85,0.33-5.62,0.91c1.32,6.32,5.96,11.41,12,13.4
			C27.18,34.88,29.2,31.51,32,29z"/>
	</g>
</g>
</svg>
