<?xml version="1.0" encoding="utf-8"?>
<!-- Generator: Adobe Illustrator 18.1.1, SVG Export Plug-In . SVG Version: 6.00 Build 0)  -->
<svg version="1.1" id="Ebene_1" xmlns="http://www.w3.org/2000/svg" xmlns:xlink="http://www.w3.org/1999/xlink" x="0px" y="0px"
	 width="64px" height="64px" viewBox="0 0 64 64" enable-background="new 0 0 64 64" xml:space="preserve">
<g>
	<rect x="15.5" y="15.5" fill="#F0F0F0" width="33" height="33"/>
	<path fill="#646464" d="M48,16v32H16V16H48 M49,15H15v34h34V15L49,15z"/>
</g>
<g>
	<rect x="19.5" y="19.5" fill="#D9F1FF" width="25" height="25"/>
	<g>
		<path fill="#7AADCC" d="M44,20v24H20V20H44 M45,19H19v26h26V19L45,19z"/>
	</g>
</g>
<g>
	<path fill="#ECECED" d="M10.5,53.5v-43h43v43H10.5z M14.5,49.5h35v-35h-35V49.5z"/>
	<path fill="#9B9C9E" d="M53,11v42H11V11H53 M14,50h1h34h1v-1V15v-1h-1H15h-1v1v34V50 M54,10H10v44h44V10L54,10z M15,49V15h34v34H15
		L15,49z"/>
</g>
<g>
	<g>
		<rect x="14.5" y="14.5" fill="#C8C8C8" width="35" height="21"/>
		<path fill="#646464" d="M49,15v20H15V15H49 M50,14H14v22h36V14L50,14z"/>
	</g>
	<g>
		<rect x="15" y="19" opacity="0.25" width="34" height="1"/>
		<rect x="15" y="23" opacity="0.25" width="34" height="1"/>
		<rect x="15" y="27" opacity="0.25" width="34" height="1"/>
		<rect x="15" y="31" opacity="0.25" width="34" height="1"/>
	</g>
</g>
<rect x="14" y="14" fill="#282828" width="36" height="4"/>
</svg>
