<?xml version="1.0" encoding="utf-8"?>
<!-- Generator: Adobe Illustrator 18.1.1, SVG Export Plug-In . SVG Version: 6.00 Build 0)  -->
<svg version="1.1" id="Ebene_1" xmlns="http://www.w3.org/2000/svg" xmlns:xlink="http://www.w3.org/1999/xlink" x="0px" y="0px"
	 width="64px" height="64px" viewBox="0 0 64 64" enable-background="new 0 0 64 64" xml:space="preserve">
<g>
	<path fill="#8B96AC" d="M29.97,59.5c-0.91,0-1.65-0.74-1.65-1.65l-0.01-2.58c-0.01-1.41-1.07-2.84-2.42-3.26l-3.58-1.45
		c-0.39-0.21-0.92-0.34-1.48-0.34c-0.95,0-1.87,0.36-2.47,0.97l-1.83,1.84c-0.31,0.31-0.73,0.49-1.17,0.49
		c-0.44,0-0.85-0.17-1.16-0.48l-3.07-3.03c-0.64-0.64-0.65-1.69-0.01-2.34l1.82-1.84c0.99-0.98,1.24-2.79,0.57-4.02l-1.48-3.55
		c-0.41-1.3-1.84-2.35-3.25-2.35l-2.59,0.01c-0.92,0-1.66-0.74-1.66-1.65L4.5,29.97c0-0.91,0.73-1.66,1.65-1.66l2.59-0.01
		c1.41-0.01,2.84-1.07,3.26-2.42l1.45-3.58c0.65-1.2,0.38-2.96-0.63-3.96l-1.83-1.82c-0.31-0.31-0.49-0.73-0.49-1.17
		c0-0.44,0.17-0.86,0.48-1.17l3.03-3.06c0.31-0.31,0.73-0.49,1.17-0.49c0.44,0,0.85,0.17,1.16,0.48l1.85,1.82
		c0.6,0.59,1.51,0.95,2.45,0.95c0.57,0,1.11-0.13,1.56-0.37l3.55-1.48c1.31-0.41,2.36-1.85,2.35-3.27l-0.01-2.58
		c0-0.91,0.74-1.66,1.65-1.66l4.31-0.02c0.92,0,1.66,0.74,1.66,1.65l0.01,2.58c0.01,1.39,1.09,2.85,2.42,3.26l3.56,1.45
		c0.4,0.21,0.93,0.34,1.48,0.34c0.95,0,1.88-0.36,2.48-0.97l1.83-1.84c0.31-0.31,0.73-0.49,1.17-0.49c0.44,0,0.85,0.17,1.16,0.48
		l3.07,3.03c0.65,0.64,0.65,1.69,0.01,2.34l-1.83,1.84c-0.99,1.01-1.24,2.77-0.57,4.01l1.48,3.55c0.41,1.3,1.85,2.35,3.25,2.35
		l2.59-0.01c0.92,0,1.66,0.74,1.66,1.64l0.02,4.31c0,0.44-0.17,0.86-0.48,1.17c-0.31,0.31-0.73,0.49-1.17,0.49l-2.58,0.01
		c-1.39,0.01-2.85,1.09-3.26,2.42l-1.45,3.57c-0.63,1.19-0.36,2.99,0.63,3.96l1.85,1.82c0.65,0.64,0.65,1.69,0.01,2.34l-3.04,3.06
		c-0.31,0.31-0.73,0.49-1.17,0.49l0,0c-0.44,0-0.85-0.17-1.16-0.48l-1.84-1.82c-0.6-0.59-1.52-0.94-2.45-0.94
		c-0.57,0-1.11,0.13-1.56,0.38l-3.56,1.48c-1.31,0.42-2.36,1.86-2.35,3.27l0.01,2.58c0,0.44-0.17,0.85-0.48,1.17
		c-0.31,0.31-0.73,0.49-1.17,0.49L29.97,59.5z M31.96,20.73c-6.21,0.03-11.24,5.11-11.22,11.32c0.03,6.18,5.08,11.21,11.27,11.21
		c6.27-0.03,11.3-5.11,11.27-11.32c-0.03-6.18-5.08-11.21-11.26-11.21h0H31.96z"/>
	<path fill="#676B72" d="M34.03,4l0,1c0.63,0,1.15,0.52,1.16,1.15l0.01,2.58c0.01,1.61,1.2,3.23,2.73,3.72l3.53,1.43
		c0.5,0.26,1.1,0.39,1.71,0.39c1.09,0,2.15-0.42,2.83-1.12l1.83-1.84c0.22-0.22,0.51-0.34,0.82-0.34c0.31,0,0.59,0.12,0.81,0.33
		l3.07,3.03c0.45,0.45,0.45,1.18,0.01,1.63l-1.83,1.84c-1.12,1.14-1.42,3.13-0.68,4.55l1.47,3.52c0.51,1.52,2.13,2.7,3.75,2.7
		l2.59-0.01c0.63,0,1.15,0.51,1.15,1.15L59,34.03c0,0.31-0.12,0.6-0.34,0.82c-0.22,0.22-0.51,0.34-0.81,0.34l-2.58,0.01
		c-1.6,0.01-3.23,1.2-3.72,2.73l-1.43,3.53c-0.73,1.43-0.41,3.42,0.73,4.55l1.84,1.82c0.45,0.45,0.46,1.18,0.01,1.64l-3.04,3.06
		c-0.22,0.22-0.51,0.34-0.82,0.34c-0.31,0-0.6-0.12-0.81-0.33l-1.84-1.83c-0.69-0.68-1.74-1.09-2.8-1.09
		c-0.63,0-1.24,0.14-1.75,0.41l-3.52,1.47c-1.52,0.51-2.7,2.14-2.69,3.74l0.01,2.58c0,0.3-0.12,0.59-0.34,0.81
		c-0.22,0.22-0.51,0.34-0.81,0.34L29.97,59c-0.63,0-1.15-0.51-1.16-1.15l-0.01-2.58c-0.01-1.6-1.2-3.23-2.73-3.72l-3.54-1.43
		c-0.5-0.26-1.09-0.4-1.71-0.4c-1.08,0-2.14,0.42-2.83,1.11l-1.83,1.84c-0.22,0.22-0.51,0.34-0.82,0.34c-0.31,0-0.59-0.12-0.81-0.33
		l-3.06-3.03c-0.45-0.45-0.45-1.18-0.01-1.64l1.82-1.84c1.14-1.14,1.44-3.13,0.69-4.56l-1.47-3.52c-0.5-1.52-2.13-2.7-3.74-2.7
		l-2.59,0.01c-0.63,0-1.15-0.52-1.15-1.15L5,29.97c0-0.64,0.51-1.15,1.15-1.16l2.59-0.01c1.6-0.01,3.22-1.2,3.72-2.73l1.43-3.53
		c0.73-1.43,0.42-3.42-0.73-4.55l-1.84-1.83c-0.22-0.22-0.34-0.5-0.34-0.81c0-0.31,0.12-0.6,0.33-0.82l3.03-3.06
		c0.22-0.22,0.5-0.34,0.81-0.34c0.31,0,0.59,0.12,0.81,0.33l1.85,1.82c0.69,0.68,1.74,1.09,2.8,1.09c0.63,0,1.23-0.14,1.75-0.41
		l3.52-1.46c1.52-0.5,2.7-2.14,2.69-3.75l-0.01-2.58c0-0.31,0.12-0.59,0.34-0.82c0.22-0.22,0.51-0.34,0.81-0.34L34.03,5L34.03,4
		 M32.01,43.76l0.06,0c6.49-0.03,11.74-5.33,11.71-11.82c-0.03-6.46-5.31-11.71-11.76-11.71l-0.06,0c-3.14,0.01-6.1,1.25-8.31,3.48
		c-2.21,2.23-3.42,5.19-3.41,8.34C20.27,38.51,25.55,43.76,32.01,43.76 M34.03,4c0,0-0.01,0-0.01,0l-4.31,0.02
		C28.53,4.03,27.57,5,27.57,6.19l0.01,2.58c0.01,1.19-0.91,2.45-2.04,2.8l-3.6,1.5c-0.39,0.21-0.85,0.31-1.32,0.31
		c-0.78,0-1.57-0.28-2.1-0.8l-1.85-1.82c-0.42-0.41-0.97-0.62-1.51-0.62c-0.55,0-1.11,0.21-1.53,0.64l-3.03,3.06
		c-0.84,0.84-0.83,2.21,0.01,3.05l1.83,1.82c0.84,0.83,1.08,2.37,0.52,3.42l-1.46,3.62c-0.35,1.13-1.6,2.06-2.78,2.07l-2.59,0.01
		C4.96,27.82,3.99,28.79,4,29.98l0.02,4.31c0.01,1.18,0.98,2.15,2.15,2.15c0,0,0.01,0,0.01,0l2.59-0.01c0,0,0,0,0.01,0
		c1.18,0,2.44,0.92,2.79,2.04l1.5,3.6c0.57,1.04,0.35,2.59-0.49,3.43l-1.82,1.84c-0.83,0.84-0.83,2.21,0.01,3.05l3.06,3.03
		c0.42,0.41,0.96,0.62,1.51,0.62c0.55,0,1.11-0.21,1.53-0.63l1.83-1.84c0.52-0.53,1.33-0.82,2.12-0.82c0.46,0,0.91,0.1,1.29,0.3
		l3.62,1.47c1.13,0.35,2.06,1.6,2.07,2.78l0.01,2.58c0.01,1.18,0.98,2.14,2.16,2.14c0,0,0.01,0,0.01,0l4.31-0.02
		c1.19-0.01,2.15-0.98,2.15-2.16l-0.01-2.58c-0.01-1.18,0.92-2.44,2.04-2.8l3.6-1.5c0.39-0.21,0.85-0.32,1.32-0.32
		c0.78,0,1.58,0.28,2.1,0.8l1.84,1.83c0.42,0.41,0.97,0.62,1.51,0.62c0.55,0,1.11-0.21,1.53-0.63l3.04-3.06
		c0.83-0.84,0.83-2.21-0.01-3.05l-1.85-1.82c-0.84-0.83-1.07-2.37-0.52-3.42l1.47-3.61c0.35-1.13,1.61-2.06,2.79-2.07l2.58-0.01
		c1.19-0.01,2.15-0.98,2.14-2.16l-0.02-4.31c-0.01-1.18-0.97-2.14-2.15-2.14c0,0-0.01,0-0.01,0l-2.58,0.01c0,0-0.01,0-0.01,0
		c-1.18,0-2.44-0.92-2.79-2.04l-1.5-3.6c-0.56-1.04-0.34-2.58,0.49-3.42l1.83-1.84c0.83-0.84,0.83-2.22-0.01-3.05l-3.07-3.03
		c-0.42-0.41-0.97-0.62-1.51-0.62c-0.55,0-1.11,0.21-1.53,0.64l-1.83,1.84c-0.52,0.53-1.33,0.82-2.12,0.82
		c-0.46,0-0.91-0.1-1.29-0.3l-3.61-1.46c-1.13-0.34-2.06-1.6-2.07-2.78l-0.01-2.58C36.18,4.97,35.21,4,34.03,4L34.03,4z
		 M32.01,42.76c-5.93,0-10.74-4.78-10.77-10.71c-0.03-5.95,4.77-10.79,10.72-10.82c0.02,0,0.03,0,0.05,0
		c5.92,0,10.74,4.79,10.76,10.71C42.8,37.89,38,42.73,32.06,42.76C32.04,42.76,32.02,42.76,32.01,42.76L32.01,42.76z"/>
</g>
</svg>
