<?xml version="1.0" encoding="utf-8"?>
<!-- Generator: Adobe Illustrator 18.1.1, SVG Export Plug-In . SVG Version: 6.00 Build 0)  -->
<svg version="1.1" id="Ebene_1" xmlns="http://www.w3.org/2000/svg" xmlns:xlink="http://www.w3.org/1999/xlink" x="0px" y="0px"
	 width="64px" height="64px" viewBox="0 0 64 64" enable-background="new 0 0 64 64" xml:space="preserve">
<g opacity="0.5">
	<path fill="#FFFFFF" d="M31.7,62.4C16.32,50.85,7.5,33.21,7.5,14c0-0.25,0.01-0.5,0.02-0.75c0.01-0.17,0.02-0.91,0.02-0.91
		l0.39-0.08C16.67,10.47,24.66,6.89,31.7,1.6L32,1.37l0.3,0.23c7.04,5.29,15.03,8.87,23.76,10.65l0.39,0.08c0,0,0.02,0.74,0.02,0.91
		c0.01,0.25,0.02,0.5,0.02,0.75c0,19.21-8.82,36.85-24.2,48.4L32,62.62L31.7,62.4z"/>
	<path fill="#C8C8C8" d="M32,2c6.96,5.23,15.12,8.94,23.96,10.74C55.97,13.16,56,13.58,56,14c0,19.63-9.43,37.05-24,48
		C17.43,51.05,8,33.63,8,14c0-0.42,0.03-0.84,0.04-1.26C16.88,10.94,25.04,7.23,32,2 M32,0.75L31.4,1.2
		C24.42,6.44,16.5,9.99,7.84,11.76l-0.78,0.16l-0.02,0.8c0,0.17-0.01,0.33-0.02,0.5C7.01,13.48,7,13.74,7,14
		c0,19.37,8.89,37.15,24.4,48.8l0.6,0.45l0.6-0.45C48.11,51.15,57,33.36,57,14c0-0.26-0.01-0.52-0.02-0.78
		c-0.01-0.17-0.01-0.33-0.02-0.5l-0.02-0.8l-0.78-0.16C47.5,9.99,39.58,6.44,32.6,1.2L32,0.75L32,0.75z"/>
</g>
<g>
	<path fill="#00C864" d="M32,58.37C18.59,48.15,10.9,32.66,10.9,15.8c0-0.22,0.01-0.43,0.02-0.64l0-0.08
		c7.72-1.63,14.81-4.81,21.08-9.45c6.27,4.64,13.36,7.82,21.08,9.45l0,0.08c0.01,0.21,0.02,0.43,0.02,0.64
		C53.1,32.66,45.41,48.15,32,58.37z"/>
	<path fill="#009949" d="M32,6.24c6.15,4.49,13.07,7.6,20.59,9.24c0,0.11,0.01,0.21,0.01,0.32c0,16.57-7.5,31.82-20.6,41.94
		C18.9,47.62,11.4,32.37,11.4,15.8c0-0.11,0-0.21,0.01-0.32C18.93,13.84,25.85,10.74,32,6.24 M32,5
		c-6.27,4.71-13.61,8.04-21.57,9.67c-0.01,0.38-0.03,0.75-0.03,1.13c0,17.67,8.48,33.35,21.6,43.2c13.12-9.85,21.6-25.53,21.6-43.2
		c0-0.38-0.03-0.75-0.03-1.13C45.61,13.04,38.27,9.71,32,5L32,5z"/>
</g>
</svg>
