<?xml version="1.0" encoding="utf-8"?>
<!-- Generator: Adobe Illustrator 18.1.1, SVG Export Plug-In . SVG Version: 6.00 Build 0)  -->
<svg version="1.1" id="Ebene_1" xmlns="http://www.w3.org/2000/svg" xmlns:xlink="http://www.w3.org/1999/xlink" x="0px" y="0px"
	 width="64px" height="64px" viewBox="0 0 64 64" enable-background="new 0 0 64 64" xml:space="preserve">
<g>
	<path fill="#AFAFAF" d="M6,58.5c-0.83,0-1.5-0.67-1.5-1.5v-4.15c0-0.83,0.67-1.5,1.5-1.5h52c0.83,0,1.5,0.67,1.5,1.5V57
		c0,0.83-0.67,1.5-1.5,1.5H6z"/>
	<path fill="#787878" d="M58,51.86c0.55,0,1,0.45,1,1V57c0,0.55-0.45,1-1,1H6c-0.55,0-1-0.45-1-1v-4.15c0-0.55,0.45-1,1-1H58
		 M58,50.86H6c-1.1,0-2,0.9-2,2V57c0,1.1,0.9,2,2,2h52c1.1,0,2-0.9,2-2v-4.15C60,51.75,59.1,50.86,58,50.86L58,50.86z"/>
</g>
<g>
	<path fill="#C6C6C6" d="M8.42,50.5l0.06-0.55c0.41-3.83,0.75-7.97,1.08-11.99c1.25-15.24,2.43-29.63,7.3-31.43
		C22.12,4.58,30.98,4.5,31.97,4.5c1.04,0,9.91,0.08,15.17,2.03c4.87,1.81,6.05,16.2,7.3,31.43c0.33,4.01,0.67,8.16,1.08,11.99
		l0.06,0.55H8.42z"/>
	<path fill="#999999" d="M32.02,5L32.02,5c0.51,0,9.68,0.04,14.95,2c5.83,2.17,6.17,25.33,8.05,43h-8.78H32.02h-0.05H17.76H8.98
		c1.88-17.67,2.22-40.84,8.05-43c5.27-1.96,14.45-2,14.95-2v0c0,0,0.02,0,0.02,0S32.02,5,32.02,5 M32.02,4l0,1L32,4
		c-1.03,0-9.97,0.07-15.32,2.06c-5.17,1.92-6.3,15.8-7.62,31.86c-0.33,4.01-0.67,8.15-1.07,11.97L7.86,51h1.11h8.78h14.22h14.27
		h8.78h1.11l-0.12-1.11c-0.41-3.82-0.75-7.96-1.07-11.97c-1.32-16.07-2.45-29.94-7.62-31.86C41.96,4.07,33.03,4,32.02,4L32.02,4
		L32.02,4L32.02,4z"/>
</g>
<g>
	<path fill="#F2F2F2" d="M32.01,6.99c0,0-10.38-0.94-14.01,2.01c-4.92,4-6.08,22.75-7,39h21.01V6.99z"/>
</g>
</svg>
