<?xml version="1.0" encoding="utf-8"?>
<!-- Generator: Adobe Illustrator 18.1.1, SVG Export Plug-In . SVG Version: 6.00 Build 0)  -->
<svg version="1.1" id="Ebene_1" xmlns="http://www.w3.org/2000/svg" xmlns:xlink="http://www.w3.org/1999/xlink" x="0px" y="0px"
	 width="64px" height="64px" viewBox="0 0 64 64" enable-background="new 0 0 64 64" xml:space="preserve">
<g>
	<g>
		<linearGradient id="SVGID_1_" gradientUnits="userSpaceOnUse" x1="32" y1="20.54" x2="32" y2="42.54">
			<stop  offset="0" style="stop-color:#C80000"/>
			<stop  offset="0.2659" style="stop-color:#A60000"/>
			<stop  offset="0.6588" style="stop-color:#950000"/>
			<stop  offset="1" style="stop-color:#8C0000"/>
		</linearGradient>
		<path fill="url(#SVGID_1_)" d="M15,42.54c-3.58,0-6.5-2.92-6.5-6.5v-9c0-3.58,2.92-6.5,6.5-6.5h34c3.58,0,6.5,2.92,6.5,6.5v9
			c0,3.58-2.92,6.5-6.5,6.5H15z"/>
		<path fill="#8C0000" d="M49,21.04c3.31,0,6,2.69,6,6v9c0,3.31-2.69,6-6,6H15c-3.31,0-6-2.69-6-6v-9c0-3.31,2.69-6,6-6H49
			 M49,20.04H15c-3.85,0-7,3.15-7,7v9c0,3.85,3.15,7,7,7h34c3.85,0,7-3.15,7-7v-9C56,23.19,52.85,20.04,49,20.04L49,20.04z"/>
	</g>
	<g>
		<linearGradient id="SVGID_2_" gradientUnits="userSpaceOnUse" x1="32" y1="36" x2="32" y2="46">
			<stop  offset="0" style="stop-color:#C80000"/>
			<stop  offset="0.1" style="stop-color:#A60000"/>
			<stop  offset="0.5817" style="stop-color:#950000"/>
			<stop  offset="1" style="stop-color:#8C0000"/>
		</linearGradient>
		<rect x="7" y="36" fill="url(#SVGID_2_)" width="50" height="10"/>
	</g>
	<g>
		<linearGradient id="SVGID_3_" gradientUnits="userSpaceOnUse" x1="54.5" y1="36" x2="62.5" y2="36">
			<stop  offset="0" style="stop-color:#C80000"/>
			<stop  offset="0.1" style="stop-color:#A60000"/>
			<stop  offset="0.5817" style="stop-color:#950000"/>
			<stop  offset="1" style="stop-color:#8C0000"/>
		</linearGradient>
		<path fill="url(#SVGID_3_)" d="M54.5,46.5v-16h0.06l-0.01-0.56l-0.02-0.16c-0.01-0.09-0.03-0.19-0.03-0.28c0-2.21,1.79-4,4-4
			s4,1.79,4,4c0,2.03-1.53,3.73-3.56,3.95L58.5,33.5v13H54.5z"/>
		<path fill="#8C0000" d="M58.5,26c1.93,0,3.5,1.57,3.5,3.5c0,1.77-1.34,3.26-3.11,3.46L58,33.06v0.89V46h-3V31h0.17l-0.12-1.11
			l-0.02-0.17C55.01,29.65,55,29.58,55,29.5C55,27.57,56.57,26,58.5,26 M58.5,25c-2.49,0-4.5,2.01-4.5,4.5
			c0,0.17,0.03,0.33,0.05,0.5H54v17h5V33.95c2.25-0.25,4-2.14,4-4.45C63,27.01,60.99,25,58.5,25L58.5,25z"/>
	</g>
	<g>
		<linearGradient id="SVGID_4_" gradientUnits="userSpaceOnUse" x1="9.5" y1="36" x2="1.5" y2="36">
			<stop  offset="0" style="stop-color:#C80000"/>
			<stop  offset="0.1" style="stop-color:#A60000"/>
			<stop  offset="0.5817" style="stop-color:#950000"/>
			<stop  offset="1" style="stop-color:#8C0000"/>
		</linearGradient>
		<path fill="url(#SVGID_4_)" d="M5.5,46.5v-13l-0.44-0.05C3.03,33.23,1.5,31.53,1.5,29.5c0-2.21,1.79-4,4-4s4,1.79,4,4
			c0,0.1-0.01,0.19-0.03,0.28L9.39,30.5H9.5v16H5.5z"/>
		<path fill="#8C0000" d="M5.5,26C7.43,26,9,27.57,9,29.5c0,0.08-0.01,0.15-0.02,0.22l-0.02,0.17L8.83,31H9v15H6V33.95v-0.89
			l-0.89-0.1C3.34,32.76,2,31.27,2,29.5C2,27.57,3.57,26,5.5,26 M5.5,25C3.01,25,1,27.01,1,29.5c0,2.31,1.75,4.2,4,4.45V47h5V30
			H9.95C9.97,29.83,10,29.67,10,29.5C10,27.01,7.99,25,5.5,25L5.5,25z"/>
	</g>
	<rect x="13" y="46" width="4" height="1"/>
	<rect x="47" y="46" width="4" height="1"/>
	<circle fill="#845340" stroke="#663629" stroke-miterlimit="10" cx="5.5" cy="29.5" r="2.04"/>
	<circle fill="#845340" stroke="#663629" stroke-miterlimit="10" cx="58.5" cy="29.5" r="2.04"/>
</g>
</svg>
