<?xml version="1.0" encoding="utf-8"?>
<!-- Generator: Adobe Illustrator 18.1.1, SVG Export Plug-In . SVG Version: 6.00 Build 0)  -->
<svg version="1.1" id="Ebene_1" xmlns="http://www.w3.org/2000/svg" xmlns:xlink="http://www.w3.org/1999/xlink" x="0px" y="0px"
	 width="64px" height="64px" viewBox="0 0 64 64" enable-background="new 0 0 64 64" xml:space="preserve">
<g>
	<rect x="30.5" y="25.5" fill="#ECECED" width="3" height="9"/>
	<g>
		<path fill="#9B9C9E" d="M33,26v8h-2v-8H33 M34,25h-1h-2h-1v1v8v1h1h2h1v-1v-8V25L34,25z"/>
	</g>
</g>
<g>
	<path fill="#36AEFF" d="M14,56.5c-1.38,0-2.5-1.12-2.5-2.5V34c0-1.38,1.12-2.5,2.5-2.5h36c1.38,0,2.5,1.12,2.5,2.5v20
		c0,1.38-1.12,2.5-2.5,2.5H14z"/>
	<path fill="#2B8ED8" d="M50,32c1.1,0,2,0.9,2,2v20c0,1.1-0.9,2-2,2H14c-1.1,0-2-0.9-2-2V34c0-1.1,0.9-2,2-2H50 M50,31H14
		c-1.65,0-3,1.35-3,3v20c0,1.65,1.35,3,3,3h36c1.65,0,3-1.35,3-3V34C53,32.35,51.65,31,50,31L50,31z"/>
</g>
<g>
	<rect x="21.5" y="11.5" fill="#646464" width="21" height="15"/>
	<g>
		<path fill="#282828" d="M42,12v14H22V12H42 M43,11h-1H22h-1v1v14v1h1h20h1v-1V12V11L43,11z"/>
	</g>
</g>
<g>
	<rect x="24.5" y="14.5" fill="#ECECED" width="15" height="9"/>
	<path fill="#9B9C9E" d="M39,15v8H25v-8H39 M40,14H24v10h16V14L40,14z"/>
</g>
<path fill="none" stroke="#C56C33" stroke-width="3" stroke-miterlimit="10" d="M24.5,11c0-1.93-1.57-3.5-3.5-3.5H7"/>
<path fill="none" stroke="#C56C33" stroke-width="3" stroke-miterlimit="10" d="M39.5,11c0-1.93,1.57-3.5,3.5-3.5h15"/>
<g>
	<rect x="26" y="16" fill="#646464" width="9" height="1"/>
</g>
<g>
	<rect x="26" y="18" fill="#646464" width="5" height="1"/>
</g>
<g>
	<rect x="26" y="20" fill="#646464" width="7" height="1"/>
</g>
</svg>
