<?xml version="1.0" encoding="utf-8"?>
<!-- Generator: Adobe Illustrator 18.1.1, SVG Export Plug-In . SVG Version: 6.00 Build 0)  -->
<svg version="1.1" id="Ebene_1" xmlns="http://www.w3.org/2000/svg" xmlns:xlink="http://www.w3.org/1999/xlink" x="0px" y="0px"
	 width="64px" height="64px" viewBox="0 0 64 64" enable-background="new 0 0 64 64" xml:space="preserve">
<g>
	<rect x="2.5" y="2.5" fill="#ECECED" width="59" height="59"/>
	<g>
		<path fill="#9B9C9E" d="M61,3v58H3V3H61 M62,2H2v60h60V2L62,2z"/>
	</g>
</g>
<g>
	<radialGradient id="SVGID_1_" cx="16.3333" cy="15.1667" r="43.6679" gradientUnits="userSpaceOnUse">
		<stop  offset="0" style="stop-color:#6C9AC2"/>
		<stop  offset="1" style="stop-color:#005096"/>
	</radialGradient>
	<rect x="5" y="5" fill="url(#SVGID_1_)" width="54" height="54"/>
</g>
<rect x="15" y="3" fill="#ECECED" width="1" height="58"/>
<g>
	<rect x="7" y="3" opacity="0.25" fill="#ECECED" width="1" height="58"/>
	<rect x="12" y="3" opacity="0.25" fill="#ECECED" width="1" height="58"/>
	<rect x="18" y="3" opacity="0.25" fill="#ECECED" width="1" height="58"/>
	<rect x="23" y="3" opacity="0.25" fill="#ECECED" width="1" height="58"/>
	<rect x="29" y="3" opacity="0.25" fill="#ECECED" width="1" height="58"/>
	<rect x="34" y="3" opacity="0.25" fill="#ECECED" width="1" height="58"/>
	<rect x="40" y="3" opacity="0.25" fill="#ECECED" width="1" height="58"/>
	<rect x="45" y="3" opacity="0.25" fill="#ECECED" width="1" height="58"/>
	<rect x="51" y="3" opacity="0.25" fill="#ECECED" width="1" height="58"/>
	<rect x="56" y="3" opacity="0.25" fill="#ECECED" width="1" height="58"/>
</g>
<rect x="26" y="3" fill="#ECECED" width="1" height="58"/>
<rect x="48" y="3" fill="#ECECED" width="1" height="58"/>
<rect x="37" y="3" fill="#ECECED" width="1" height="58"/>
<rect x="3" y="48" fill="#ECECED" width="58" height="1"/>
<rect x="3" y="37" fill="#ECECED" width="58" height="1"/>
<rect x="3" y="26" fill="#ECECED" width="58" height="1"/>
<rect x="3" y="15" fill="#ECECED" width="58" height="1"/>
<rect x="14" y="14" transform="matrix(0.7071 0.7071 -0.7071 0.7071 15.5 -6.4203)" fill="#ECECED" width="3" height="3"/>
<rect x="25" y="14" transform="matrix(0.7071 0.7071 -0.7071 0.7071 18.7218 -14.1985)" fill="#ECECED" width="3" height="3"/>
<rect x="36" y="14" transform="matrix(0.7071 0.7071 -0.7071 0.7071 21.9437 -21.9767)" fill="#ECECED" width="3" height="3"/>
<rect x="47" y="14" transform="matrix(0.7071 0.7071 -0.7071 0.7071 25.1655 -29.7548)" fill="#ECECED" width="3" height="3"/>
<rect x="14" y="25" transform="matrix(0.7071 0.7071 -0.7071 0.7071 23.2782 -3.1985)" fill="#ECECED" width="3" height="3"/>
<rect x="25" y="25" transform="matrix(0.7071 0.7071 -0.7071 0.7071 26.5 -10.9767)" fill="#ECECED" width="3" height="3"/>
<rect x="36" y="25" transform="matrix(0.7071 0.7071 -0.7071 0.7071 29.7218 -18.7548)" fill="#ECECED" width="3" height="3"/>
<rect x="47" y="25" transform="matrix(0.7071 0.7071 -0.7071 0.7071 32.9437 -26.533)" fill="#ECECED" width="3" height="3"/>
<rect x="14" y="36" transform="matrix(0.7071 0.7071 -0.7071 0.7071 31.0564 0.0233)" fill="#ECECED" width="3" height="3"/>
<rect x="25" y="36" transform="matrix(0.7071 0.7071 -0.7071 0.7071 34.2782 -7.7548)" fill="#ECECED" width="3" height="3"/>
<rect x="36" y="36" transform="matrix(0.7071 -0.7071 0.7071 0.7071 -15.533 37.5)" fill="#ECECED" width="3" height="3"/>
<rect x="47" y="36" transform="matrix(0.7071 -0.7071 0.7071 0.7071 -12.3112 45.2782)" fill="#ECECED" width="3" height="3"/>
<rect x="14" y="47" transform="matrix(0.7071 0.7071 -0.7071 0.7071 38.8345 3.2452)" fill="#ECECED" width="3" height="3"/>
<rect x="25" y="47" transform="matrix(0.7071 0.7071 -0.7071 0.7071 42.0564 -4.533)" fill="#ECECED" width="3" height="3"/>
<rect x="36" y="47" transform="matrix(0.7071 0.7071 -0.7071 0.7071 45.2782 -12.3112)" fill="#ECECED" width="3" height="3"/>
<rect x="47" y="47" transform="matrix(0.7071 0.7071 -0.7071 0.7071 48.5 -20.0894)" fill="#ECECED" width="3" height="3"/>
</svg>
