<?xml version="1.0" encoding="utf-8"?>
<!-- Generator: Adobe Illustrator 18.1.1, SVG Export Plug-In . SVG Version: 6.00 Build 0)  -->
<svg version="1.1" id="Ebene_1" xmlns="http://www.w3.org/2000/svg" xmlns:xlink="http://www.w3.org/1999/xlink" x="0px" y="0px"
	 width="64px" height="64px" viewBox="0 0 64 64" enable-background="new 0 0 64 64" xml:space="preserve">
<path fill="none" stroke="#000000" stroke-width="2" stroke-miterlimit="10" d="M14,44c0,0,2,2.83,2,5s2.33,10,11,10s16-10.42,16-22
	"/>
<circle fill="#CECECF" cx="11.5" cy="41.5" r="4.5"/>
<path d="M38,35v1l5,5l5-5v-1C48,35,37.92,35,38,35z"/>
<path fill="none" stroke="#B4B4B4" stroke-miterlimit="10" d="M35,6c0,0-4.33-0.08-5,2s-0.42,26,8,26s5,0,5,0s-3.65,0,4.77,0
	s8.67-23.92,8-26c-0.67-2.08-5-2-5-2"/>
<ellipse fill="#1A171B" cx="35.5" cy="6.5" rx="3.5" ry="2.5"/>
<ellipse fill="#1A171B" cx="50.5" cy="6.5" rx="3.5" ry="2.5"/>
</svg>
