<?xml version="1.0" encoding="utf-8"?>
<!-- Generator: Adobe Illustrator 18.1.1, SVG Export Plug-In . SVG Version: 6.00 Build 0)  -->
<svg version="1.1" id="Ebene_1" xmlns="http://www.w3.org/2000/svg" xmlns:xlink="http://www.w3.org/1999/xlink" x="0px" y="0px"
	 width="64px" height="64px" viewBox="0 0 64 64" enable-background="new 0 0 64 64" xml:space="preserve">
<path fill="#4B2B1E" d="M39,18H25c-1.1,0-2-0.9-2-2v-6c0-1.66,1.34-3,3-3h12c1.66,0,3,1.34,3,3v6C41,17.1,40.1,18,39,18z"/>
<path fill="#F3F3F3" d="M37,20H27c-0.55,0-1-0.45-1-1v-8c0-1.1,0.9-2,2-2h8c1.1,0,2,0.9,2,2v8C38,19.55,37.55,20,37,20z"/>
<linearGradient id="SVGID_1_" gradientUnits="userSpaceOnUse" x1="32.5" y1="57" x2="32.5" y2="12">
	<stop  offset="0" style="stop-color:#A35C48"/>
	<stop  offset="1" style="stop-color:#CD814C"/>
</linearGradient>
<path fill="url(#SVGID_1_)" d="M56,57H9c-3.31,0-6-2.69-6-6V18c0-3.31,2.69-6,6-6h47c3.31,0,6,2.69,6,6v33C62,54.31,59.31,57,56,57z
	"/>
<linearGradient id="SVGID_2_" gradientUnits="userSpaceOnUse" x1="5.75" y1="18" x2="5.75" y2="11.5">
	<stop  offset="0" style="stop-color:#4D2C19"/>
	<stop  offset="1" style="stop-color:#793B20"/>
</linearGradient>
<path fill="url(#SVGID_2_)" d="M7,18H4.5c-1.1,0-2-0.9-2-2v-0.5c0-2.21,1.79-4,4-4H7c1.1,0,2,0.9,2,2V16C9,17.1,8.1,18,7,18z"/>
<linearGradient id="SVGID_3_" gradientUnits="userSpaceOnUse" x1="56.5858" y1="17.4142" x2="61.3284" y2="12.6716">
	<stop  offset="0" style="stop-color:#4D2C19"/>
	<stop  offset="1" style="stop-color:#793B20"/>
</linearGradient>
<path fill="url(#SVGID_3_)" d="M60.5,18H58c-1.1,0-2-0.9-2-2v-2.5c0-1.1,0.9-2,2-2h0.5c2.21,0,4,1.79,4,4V16
	C62.5,17.1,61.6,18,60.5,18z"/>
<linearGradient id="SVGID_4_" gradientUnits="userSpaceOnUse" x1="55.7925" y1="55.4996" x2="62.4297" y2="52.4046">
	<stop  offset="0" style="stop-color:#4D2C19"/>
	<stop  offset="1" style="stop-color:#793B20"/>
</linearGradient>
<path fill="url(#SVGID_4_)" d="M58.5,57.5H58c-1.1,0-2-0.9-2-2V53c0-1.1,0.9-2,2-2h2.5c1.1,0,2,0.9,2,2v0.5
	C62.5,55.71,60.71,57.5,58.5,57.5z"/>
<linearGradient id="SVGID_5_" gradientUnits="userSpaceOnUse" x1="3.6716" y1="56.3284" x2="8.4142" y2="51.5858">
	<stop  offset="0" style="stop-color:#4D2C19"/>
	<stop  offset="1" style="stop-color:#793B20"/>
</linearGradient>
<path fill="url(#SVGID_5_)" d="M7,57.5H6.5c-2.21,0-4-1.79-4-4V53c0-1.1,0.9-2,2-2H7c1.1,0,2,0.9,2,2v2.5C9,56.6,8.1,57.5,7,57.5z"
	/>
<linearGradient id="SVGID_6_" gradientUnits="userSpaceOnUse" x1="16" y1="57.5" x2="16" y2="11.5">
	<stop  offset="0" style="stop-color:#4D2C19"/>
	<stop  offset="1" style="stop-color:#793B20"/>
</linearGradient>
<rect x="14" y="11.5" fill="url(#SVGID_6_)" width="4" height="46"/>
<rect x="10" y="27" fill="#4D2C19" width="12" height="2"/>
<rect x="42" y="27" fill="#4D2C19" width="12" height="2"/>
<linearGradient id="SVGID_7_" gradientUnits="userSpaceOnUse" x1="48" y1="57.5" x2="48" y2="11.5">
	<stop  offset="0" style="stop-color:#4D2C19"/>
	<stop  offset="1" style="stop-color:#793B20"/>
</linearGradient>
<rect x="46" y="11.5" fill="url(#SVGID_7_)" width="4" height="46"/>
</svg>
