<?xml version="1.0" encoding="utf-8"?>
<!-- Generator: Adobe Illustrator 18.1.1, SVG Export Plug-In . SVG Version: 6.00 Build 0)  -->
<svg version="1.1" id="Ebene_1" xmlns="http://www.w3.org/2000/svg" xmlns:xlink="http://www.w3.org/1999/xlink" x="0px" y="0px"
	 width="64px" height="64px" viewBox="0 0 64 64" enable-background="new 0 0 64 64" xml:space="preserve">
<radialGradient id="SVGID_1_" cx="33" cy="30" r="20" gradientTransform="matrix(1.25 0 0 1.25 -8.25 -7.5)" gradientUnits="userSpaceOnUse">
	<stop  offset="0.8" style="stop-color:#F8F5E5;stop-opacity:0"/>
	<stop  offset="0.8" style="stop-color:#FFDE52;stop-opacity:0.2"/>
	<stop  offset="1" style="stop-color:#FFDE52;stop-opacity:0"/>
</radialGradient>
<circle fill="url(#SVGID_1_)" cx="33" cy="30" r="25"/>
<circle fill="#FFDE52" cx="33" cy="30" r="18"/>
<path fill="#D9F1FF" stroke="#7AADCC" stroke-linejoin="bevel" stroke-miterlimit="10" d="M25.98,44.7c0.01-0.07,0.02-0.13,0.02-0.2
	c0-2.49-4.03-4.5-9-4.5s-9,2.01-9,4.5c0,0.4,0.11,0.78,0.31,1.15C5.74,46.51,4,48.14,4,50c0,2.76,3.81,5,8.5,5
	c3.09,0,5.78-0.97,7.27-2.42C20.6,52.85,21.52,53,22.5,53c3.59,0,6.5-2.01,6.5-4.5C29,46.9,27.79,45.5,25.98,44.7z"/>
<path fill="#D9F1FF" stroke="#7AADCC" stroke-linejoin="bevel" stroke-miterlimit="10" d="M59,44.5c0-3.04-2.46-5.5-5.5-5.5
	c-0.71,0-1.39,0.14-2.02,0.39C50.11,37.94,47.94,37,45.5,37c-0.75,0-1.47,0.09-2.15,0.25C41.98,35.88,39.87,35,37.5,35
	c-3.27,0-6.04,1.67-7.07,4C26.32,39.03,23,41.7,23,45s3.32,5.97,7.43,6c1.03,2.33,3.8,4,7.07,4c1.69,0,3.25-0.45,4.5-1.21
	c1.25,0.76,2.81,1.21,4.5,1.21c3.72,0,6.81-2.17,7.39-5.02C56.75,49.78,59,47.41,59,44.5z"/>
</svg>
