<?xml version="1.0" encoding="utf-8"?>
<!-- Generator: Adobe Illustrator 18.1.1, SVG Export Plug-In . SVG Version: 6.00 Build 0)  -->
<svg version="1.1" id="Ebene_1" xmlns="http://www.w3.org/2000/svg" xmlns:xlink="http://www.w3.org/1999/xlink" x="0px" y="0px"
	 width="64px" height="64px" viewBox="0 0 64 64" enable-background="new 0 0 64 64" xml:space="preserve">
<linearGradient id="SVGID_1_" gradientUnits="userSpaceOnUse" x1="29.8663" y1="61" x2="29.8663" y2="13.3611">
	<stop  offset="0" style="stop-color:#A35C48"/>
	<stop  offset="1" style="stop-color:#CD814C"/>
</linearGradient>
<linearGradient id="SVGID_2_" gradientUnits="userSpaceOnUse" x1="25.2326" y1="36.9425" x2="34.6551" y2="36.9425">
	<stop  offset="0" style="stop-color:#4D2C19"/>
	<stop  offset="1" style="stop-color:#793B20"/>
</linearGradient>
<path fill="url(#SVGID_1_)" stroke="url(#SVGID_2_)" stroke-miterlimit="10" d="M29,16.36c0,0-4.38,42.56-3,44s5,0,5,0
	s1.44,1.06,1-15c-0.44-16.06,2-32,2-32L29,16.36z"/>
<linearGradient id="SVGID_3_" gradientUnits="userSpaceOnUse" x1="29.0408" y1="53.4891" x2="29.0408" y2="52.1296">
	<stop  offset="0" style="stop-color:#4D2C19"/>
	<stop  offset="1" style="stop-color:#793B20"/>
</linearGradient>
<path fill="none" stroke="url(#SVGID_3_)" stroke-miterlimit="10" d="M26,53c0,0,3.92-0.83,6,0"/>
<linearGradient id="SVGID_4_" gradientUnits="userSpaceOnUse" x1="29.0175" y1="46.4858" x2="29.0175" y2="45.1296">
	<stop  offset="0" style="stop-color:#4D2C19"/>
	<stop  offset="1" style="stop-color:#793B20"/>
</linearGradient>
<path fill="none" stroke="url(#SVGID_4_)" stroke-miterlimit="10" d="M26,46c0,0,3.42-0.83,6,0"/>
<linearGradient id="SVGID_5_" gradientUnits="userSpaceOnUse" x1="29.0587" y1="40.4859" x2="29.0587" y2="39.2037">
	<stop  offset="0" style="stop-color:#4D2C19"/>
	<stop  offset="1" style="stop-color:#793B20"/>
</linearGradient>
<path fill="none" stroke="url(#SVGID_5_)" stroke-miterlimit="10" d="M27,40c0,0,2.75-0.67,4,0"/>
<linearGradient id="SVGID_6_" gradientUnits="userSpaceOnUse" x1="29.5827" y1="34.4779" x2="29.5827" y2="33.2037">
	<stop  offset="0" style="stop-color:#4D2C19"/>
	<stop  offset="1" style="stop-color:#793B20"/>
</linearGradient>
<path fill="none" stroke="url(#SVGID_6_)" stroke-miterlimit="10" d="M28,34c0,0,2.17-0.67,3,0"/>
<linearGradient id="SVGID_7_" gradientUnits="userSpaceOnUse" x1="30.0614" y1="28.4897" x2="30.0614" y2="27.2407">
	<stop  offset="0" style="stop-color:#4D2C19"/>
	<stop  offset="1" style="stop-color:#793B20"/>
</linearGradient>
<path fill="none" stroke="url(#SVGID_7_)" stroke-miterlimit="10" d="M28,28c0,0,2.83-0.58,4,0"/>
<linearGradient id="SVGID_8_" gradientUnits="userSpaceOnUse" x1="30.5907" y1="23.484" x2="30.5907" y2="22.2407">
	<stop  offset="0" style="stop-color:#4D2C19"/>
	<stop  offset="1" style="stop-color:#793B20"/>
</linearGradient>
<path fill="none" stroke="url(#SVGID_8_)" stroke-miterlimit="10" d="M29,23c0,0,2.25-0.58,3,0"/>
<g>
	<path fill="#006633" d="M38.92,33.12c-1.26-1.19-2.42-2.53-3.45-3.98l0.77-2.06l-1.56,0.89c-4.05-6.31-4.55-12.56-4.55-12.62
		l-0.01-0.09l-5.22-1.04l-0.02,0.13c-1.29,8.39-9.35,13.06-10.73,13.8c0.11-1.15,0.25-2.29,0.41-3.39l1.53-1.3l0.39-0.34l-1.73,0.43
		c1.76-10.42,5.27-12.05,5.31-12.07l0.46-0.2l-0.5-0.04c-0.44-0.03-0.88-0.05-1.32-0.05c-5.06,0-9.84,2.12-11.3,2.84
		C12.67,6.69,18.94,6.49,19,6.49l13.96,4.99l6.08-2c10.33,0.39,12.43,9.35,12.77,11.46c-0.51-0.62-1.03-1.22-1.58-1.82l-0.11-0.77
		l-0.04-0.24l-0.41,0.41c-6.75-7.07-12.03-7.28-12.61-7.28h-0.17l-0.01,0.17c1.39,4.26,2.21,8.61,2.46,12.92l-1.66,1.11l1.73,0.34
		c0.01,0.41,0.02,0.8,0.02,1.18l-1.8,0.36l1.78,0.89C39.32,30.78,39.03,32.53,38.92,33.12z"/>
	<path fill="#009949" d="M18.96,6.61l13.95,4.98L33,11.63l0.08-0.03l5.96-1.99c9.75,0.38,12.07,8.21,12.58,10.89
		c-0.4-0.48-0.81-0.95-1.24-1.42l-0.13-0.77l-0.08-0.48l-0.34,0.34l-0.15,0.15c-6.75-7.02-12.03-7.22-12.61-7.22l-0.08,0l-0.33,0.02
		l0.1,0.31c1.38,4.23,2.2,8.54,2.45,12.81l-1.35,0.9l-0.5,0.33l0.59,0.12l1.33,0.27c0.01,0.33,0.01,0.66,0.01,0.97l-1.35,0.27
		l-0.71,0.14l0.65,0.33l1.38,0.69c-0.07,2.25-0.3,3.86-0.43,4.59c-1.17-1.13-2.26-2.39-3.23-3.75l0.63-1.67l0.24-0.65l-0.6,0.34
		l-1.16,0.66c-3.97-6.24-4.46-12.4-4.47-12.46l-0.01-0.19l-0.19-0.04l-5-1l-0.26-0.05l-0.04,0.26c-1.23,7.99-8.64,12.58-10.46,13.6
		c0.1-1.04,0.23-2.07,0.37-3.06l1.5-1.31l0.78-0.68l-1,0.25l-1.04,0.26c1.75-10.12,5.17-11.77,5.2-11.79l0.92-0.4l-1.01-0.08
		c-0.43-0.03-0.88-0.05-1.33-0.05c-4.65,0-9.06,1.78-10.9,2.64C12.73,7.13,18.41,6.64,18.96,6.61 M19,6.36c0,0-6.56,0.12-12,8
		c0,0,5.61-3.05,11.69-3.05c0.43,0,0.87,0.02,1.31,0.05c0,0-3.63,1.58-5.41,12.35L16,23.36l-1.57,1.37
		c-0.16,1.12-0.31,2.32-0.43,3.63c0,0,9.56-4.69,11-14l5,1c0,0,0.46,6.34,4.64,12.78L36,27.36l-0.67,1.79
		c1.02,1.44,2.23,2.86,3.67,4.21c0,0,0.44-1.94,0.53-5.24L38,27.36l1.55-0.31c0-0.44,0-0.9-0.02-1.39L38,25.36l1.47-0.98
		c-0.2-3.58-0.85-8.03-2.47-13.02c0,0,0.02,0,0.06,0c0.63,0,5.86,0.22,12.61,7.33L50,18.36l0.14,0.84c0.61,0.66,1.23,1.38,1.86,2.16
		c0,0-1.06-11.56-13-12l-6,2L19,6.36L19,6.36z"/>
</g>
<g>
	<path fill="#008833" d="M61.64,21.84c-0.87-0.81-3-2.64-6.12-4.34l-0.43-3.41l-2.16,2.16c-0.68-0.29-1.41-0.57-2.15-0.83l0.4-2.42
		l-1.94,1.94c-0.7-0.2-1.41-0.38-2.13-0.53v-3.35l-2.89,2.89c-1.02-0.11-2.05-0.16-3.08-0.16c-1.71,0-3.45,0.15-5.18,0.45
		c-2.83,0.49-5,0.74-6.43,0.74c-1.65,0-1.97-0.33-2.02-0.53c-0.18-0.71,2.07-2.2,3.53-2.98c0.09-0.08,5.85-5.74,12.97-5.74
		C51.12,5.73,57.04,11.15,61.64,21.84z"/>
	<path fill="#2AAA00" d="M44.02,5.86c6.92,0,12.73,5.21,17.27,15.5c-1.05-0.92-2.99-2.47-5.66-3.93l-0.39-3.1l-0.06-0.51l-0.36,0.36
		l-1.92,1.92c-0.64-0.27-1.3-0.53-1.98-0.77l0.32-1.93l0.13-0.77l-0.55,0.55l-1.61,1.61c-0.65-0.18-1.3-0.35-1.97-0.49v-2.94v-0.6
		l-0.43,0.43l-2.63,2.63c-1-0.1-2.02-0.16-3.03-0.16c-1.72,0-3.47,0.15-5.2,0.45c-2.83,0.49-4.98,0.74-6.41,0.74
		c-1.66,0-1.88-0.33-1.9-0.44c-0.13-0.54,1.7-1.89,3.47-2.84l0.03-0.02l0.03-0.03C31.23,11.48,36.96,5.86,44.02,5.86 M44.02,5.61
		C36.77,5.61,31,11.36,31,11.36s-7.04,3.74-1.45,3.74c1.34,0,3.4-0.21,6.45-0.74c1.79-0.31,3.51-0.45,5.15-0.45
		c1.08,0,2.12,0.06,3.13,0.17L47,11.36v3.15c0.79,0.16,1.55,0.35,2.29,0.56L51,13.36l-0.36,2.14c0.81,0.28,1.59,0.58,2.32,0.9
		L55,14.36l0.4,3.22c4.22,2.28,6.6,4.78,6.6,4.78C56.51,9.26,49.8,5.61,44.02,5.61L44.02,5.61z"/>
</g>
<g>
	<path fill="#008833" d="M22.71,10.64c-4.16,0-8.33-0.39-12.4-1.17l2.27-2.59L8.6,9.16C7.89,8.97,7.17,8.8,6.51,8.63l1.95-3.91
		l-3.47,3.5C3.54,7.79,2.57,7.45,2.21,7.31C4.97,4.07,8.4,2.42,12.39,2.42c8.01,0,15.94,6.64,17.32,7.84
		C27.4,10.52,25.05,10.64,22.71,10.64C22.71,10.64,22.71,10.64,22.71,10.64z"/>
	<g>
		<path fill="#2AAA00" d="M12.39,2.55c7.61,0,15.18,6.05,17.02,7.63c-2.21,0.23-4.46,0.35-6.7,0.35c-4.08,0-8.17-0.38-12.16-1.12
			l1.64-1.87l0.98-1.12l-1.29,0.74L8.62,9C7.96,8.86,7.31,8.7,6.69,8.55l1.54-3.07l0.7-1.4l-1.1,1.11L4.96,8.07
			c-1.23-0.36-2.1-0.66-2.54-0.82C5.14,4.13,8.49,2.55,12.39,2.55 M12.39,2.3C8.77,2.3,5.12,3.63,2,7.36c0,0,1.08,0.44,3.03,0.99
			L8,5.36L6.33,8.71c0.7,0.18,1.48,0.37,2.34,0.56L12,7.36l-1.92,2.2c3.4,0.66,7.71,1.21,12.63,1.21c2.31,0,4.75-0.12,7.29-0.41
			C30,10.36,21.3,2.3,12.39,2.3L12.39,2.3z"/>
	</g>
</g>
<g>
	<path fill="#16BF2E" d="M16.13,41.18C16.65,15.65,28.45,11,29.89,10.53c0.37,4.48,0.2,8.63-0.5,12.35l-3.67,1.47l2.9,1.74
		c-0.79,2.71-1.91,5.17-3.34,7.32L21.68,31l2.17,4.35c-0.17,0.21-0.35,0.41-0.52,0.61l-2.49-1.86l0.39,3.94
		C18.85,40.08,16.72,40.96,16.13,41.18z"/>
	<g>
		<path fill="#2AAA00" d="M29.78,10.7c0.35,4.38,0.18,8.44-0.5,12.08l-3.37,1.35l-0.47,0.19l0.43,0.26l2.6,1.56
			c-0.77,2.62-1.86,5-3.22,7.09l-3.11-2.07l-0.78-0.52l0.42,0.84l1.93,3.86c-0.13,0.16-0.26,0.31-0.39,0.46l-2.17-1.62l-0.45-0.34
			l0.06,0.57l0.36,3.59c-2.16,1.85-4.1,2.73-4.85,3.03C16.81,16.47,27.85,11.39,29.78,10.7 M30,10.36c0,0-13.5,3.38-14,31
			c0,0,2.48-0.78,5.37-3.28c-0.2-2.01-0.37-3.72-0.37-3.72l2.35,1.76c0.22-0.24,0.43-0.5,0.65-0.76l-2-4l3.32,2.21
			c1.34-2,2.56-4.49,3.45-7.55L26,24.36l3.5-1.4C30.17,19.44,30.41,15.28,30,10.36L30,10.36z"/>
	</g>
</g>
<g>
	<path fill="#00A532" d="M48.13,36.94c-0.02-1.4-0.26-2.9-0.73-4.45l1.87-2.25h-2.68c-0.43-1.02-0.96-2.08-1.57-3.15l2.35-4.12
		l-3.46,2.31c-0.29-0.45-0.59-0.89-0.9-1.33l2.29-2.75l-3.92,0.56c-4.15-5.29-8.95-9.37-10.07-10.29c0.31-0.02,0.84-0.05,1.53-0.05
		c3.52,0,12.12,0.78,16.05,8.01C53.34,27.62,49.18,35.24,48.13,36.94z"/>
	<g>
		<path fill="#2AAA00" d="M32.84,11.53c3.49,0,12.04,0.77,15.94,7.95c4.15,7.65,0.75,14.8-0.54,17.03
			c-0.06-1.27-0.29-2.61-0.71-3.99l1.66-1.99l0.34-0.41H49h-2.33c-0.42-0.98-0.92-2-1.51-3.03l2.06-3.6l0.53-0.92l-0.88,0.59
			l-2.92,1.94c-0.26-0.4-0.52-0.78-0.77-1.15l2.02-2.43l0.42-0.5l-0.64,0.09l-3.52,0.5c-3.9-4.95-8.35-8.84-9.8-10.05
			C31.94,11.55,32.35,11.53,32.84,11.53 M32.84,11.28c-1.14,0-1.84,0.08-1.84,0.08s5.57,4.44,10.33,10.52L45,21.36l-2.14,2.57
			c0.35,0.5,0.69,1,1.02,1.51L47,23.36l-2.13,3.72c0.61,1.07,1.17,2.17,1.63,3.28H49l-1.75,2.1c0.5,1.64,0.78,3.28,0.75,4.9
			c0,0,6.12-8.56,1-18C45.07,12.13,36.59,11.28,32.84,11.28L32.84,11.28z"/>
	</g>
</g>
<g>
	<path fill="#00A532" d="M4.18,31.96c1.19-8.55,5.33-22.37,19.7-22.37c2.43,0,4.42,0.43,5.41,0.69c-2.08,0.31-5.14,2.17-9.12,5.52
		l-1.29-0.64v1.76c-0.56,0.5-1.13,1.01-1.69,1.53l-1.24-2.48l-0.73,4.38c-0.92,0.86-1.86,1.79-2.76,2.7l-2.69-2.02l1.19,3.56
		l-0.49,0.51l-1.52-2.03L8,27.74C6.15,29.72,4.75,31.31,4.18,31.96z"/>
	<g>
		<path fill="#2AAA00" d="M23.88,9.72c2.04,0,3.76,0.3,4.84,0.55c-2.07,0.52-4.94,2.33-8.57,5.39l-1.04-0.52l-0.36-0.18v0.4v1.5
			c-0.51,0.45-1.02,0.91-1.53,1.38l-1-1.99l-0.34-0.69l-0.13,0.76l-0.65,3.92c-0.87,0.84-1.76,1.72-2.67,2.64l-2.28-1.71l-0.64-0.48
			l0.25,0.76l1.04,3.11l-0.33,0.35L9.2,23.21l-0.34-0.45l-0.11,0.55l-0.87,4.33c-1.6,1.73-2.85,3.15-3.53,3.92
			c1.19-8.18,3.92-14.16,8.13-17.79C15.6,11.08,19.43,9.72,23.88,9.72 M23.88,9.47C17.03,9.47,6.55,12.8,4,32.36
			c0,0,1.64-1.91,4.12-4.6L9,23.36l1.44,1.92c0.21-0.22,0.43-0.44,0.64-0.67L10,21.36l2.46,1.84c0.93-0.94,1.89-1.9,2.87-2.85
			l0.67-4l1.14,2.29c0.62-0.57,1.24-1.13,1.86-1.68v-1.61l1.18,0.59c3.78-3.2,7.38-5.59,9.7-5.59c0.04,0,0.08,0,0.12,0
			C30,10.36,27.42,9.47,23.88,9.47L23.88,9.47z"/>
	</g>
</g>
</svg>
