<?xml version="1.0" encoding="utf-8"?>
<!-- Generator: Adobe Illustrator 18.1.1, SVG Export Plug-In . SVG Version: 6.00 Build 0)  -->
<svg version="1.1" id="Ebene_1" xmlns="http://www.w3.org/2000/svg" xmlns:xlink="http://www.w3.org/1999/xlink" x="0px" y="0px"
	 width="64px" height="64px" viewBox="0 0 64 64" enable-background="new 0 0 64 64" xml:space="preserve">
<g>
	<path fill="#222222" d="M11.5,62.5v-61h41v61H11.5z M46.5,61.5h5v-5h-5V61.5z M12.5,61.5h5v-5h-5V61.5z M46.5,55.5h5v-5h-5V55.5z
		 M12.5,55.5h5v-5h-5V55.5z M46.5,49.5h5v-5h-5V49.5z M12.5,49.5h5v-5h-5V49.5z M46.5,43.5h5v-5h-5V43.5z M12.5,43.5h5v-5h-5V43.5z
		 M46.5,37.5h5v-5h-5V37.5z M12.5,37.5h5v-5h-5V37.5z M46.5,31.5h5v-5h-5V31.5z M12.5,31.5h5v-5h-5V31.5z M46.5,25.5h5v-5h-5V25.5z
		 M12.5,25.5h5v-5h-5V25.5z M46.5,19.5h5v-5h-5V19.5z M12.5,19.5h5v-5h-5V19.5z M46.5,13.5h5v-5h-5V13.5z M12.5,13.5h5v-5h-5V13.5z
		 M46.5,7.5h5v-5h-5V7.5z M12.5,7.5h5v-5h-5V7.5z"/>
	<path d="M46,2v1v4v1v1v4v1v1v4v1v1v4v1v1v4v1v1v4v1v1v4v1v1v4v1v1v4v1v1v4v1h1h4h1H12V2v1v4v1v1v4v1v1v4v1v1v4v1v1v4v1v1v4v1v1v4v1
		v1v4v1v1v4v1v1v4v1h1h4h1v-1v-4v-1v-1v-4v-1v-1v-4v-1v-1v-4v-1v-1v-4v-1v-1v-4v-1v-1v-4v-1v-1v-4v-1v-1V9V8V7V3V2H46 M53,1H11v62
		h42V1L53,1z M47,7V3h4v4H47L47,7z M13,7V3h4v4H13L13,7z M47,13V9h4v4H47L47,13z M13,13V9h4v4H13L13,13z M47,19v-4h4v4H47L47,19z
		 M13,19v-4h4v4H13L13,19z M47,25v-4h4v4H47L47,25z M13,25v-4h4v4H13L13,25z M47,31v-4h4v4H47L47,31z M13,31v-4h4v4H13L13,31z
		 M47,37v-4h4v4H47L47,37z M13,37v-4h4v4H13L13,37z M47,43v-4h4v4H47L47,43z M13,43v-4h4v4H13L13,43z M47,49v-4h4v4H47L47,49z
		 M13,49v-4h4v4H13L13,49z M47,55v-4h4v4H47L47,55z M13,55v-4h4v4H13L13,55z M47,61v-4h4v4H47L47,61z M13,61v-4h4v4H13L13,61z"/>
</g>
<g>
	<rect x="19.5" y="51.5" fill="#36AEFF" width="25" height="9"/>
	<path fill="#2B8ED8" d="M44,52v8H20v-8H44 M45,51H19v10h26V51L45,51z"/>
</g>
<g>
	<rect x="19.5" y="3.5" fill="#36AEFF" width="25" height="9"/>
	<path fill="#2B8ED8" d="M44,4v8H20V4H44 M45,3H19v10h26V3L45,3z"/>
</g>
<g>
	<rect x="19.5" y="15.5" fill="#36AEFF" width="25" height="33"/>
	<path fill="#2B8ED8" d="M44,16v32H20V16H44 M45,15H19v34h26V15L45,15z"/>
</g>
</svg>
