<?xml version="1.0" encoding="utf-8"?>
<!-- Generator: Adobe Illustrator 18.1.1, SVG Export Plug-In . SVG Version: 6.00 Build 0)  -->
<svg version="1.1" id="Ebene_1" xmlns="http://www.w3.org/2000/svg" xmlns:xlink="http://www.w3.org/1999/xlink" x="0px" y="0px"
	 width="64px" height="64px" viewBox="0 0 64 64" enable-background="new 0 0 64 64" xml:space="preserve">
<g>
	<path fill="#282828" d="M27.92,51.29c-0.43,0-0.79-0.15-1.11-0.47L15.82,39.5H7.08c-0.43,0-0.79-0.15-1.11-0.47
		c-0.32-0.32-0.47-0.68-0.47-1.11V26.08c0-0.43,0.15-0.79,0.47-1.11c0.32-0.32,0.68-0.47,1.11-0.47h8.74l10.99-11.33
		c0.31-0.31,0.68-0.47,1.11-0.47s0.79,0.15,1.11,0.47c0.32,0.32,0.47,0.68,0.47,1.11v35.42c0,0.43-0.15,0.79-0.47,1.11
		C28.71,51.14,28.35,51.29,27.92,51.29z"/>
	<path d="M27.92,13.21c0.3,0,0.53,0.1,0.76,0.33C28.9,13.76,29,13.99,29,14.29v35.42c0,0.3-0.1,0.53-0.33,0.76
		c-0.23,0.23-0.46,0.33-0.76,0.33c-0.3,0-0.53-0.1-0.75-0.31L16.33,39.3L16.04,39h-0.42H7.08c-0.3,0-0.53-0.1-0.76-0.33
		C6.1,38.45,6,38.22,6,37.92V26.08c0-0.3,0.1-0.53,0.33-0.76C6.55,25.1,6.78,25,7.08,25h8.53h0.42l0.29-0.3l10.83-11.16
		C27.38,13.31,27.62,13.21,27.92,13.21 M27.92,12.21c-0.56,0-1.05,0.21-1.46,0.62L15.61,24H7.08c-0.56,0-1.05,0.21-1.46,0.62
		C5.21,25.03,5,25.52,5,26.08v11.83c0,0.56,0.21,1.05,0.62,1.46C6.03,39.79,6.52,40,7.08,40h8.53l10.84,11.17
		c0.41,0.41,0.9,0.62,1.46,0.62c0.56,0,1.05-0.21,1.46-0.62S30,50.27,30,49.71V14.29c0-0.56-0.21-1.05-0.62-1.46
		C28.97,12.41,28.48,12.21,27.92,12.21L27.92,12.21z"/>
</g>
<g>
	<path fill="#282828" d="M37.18,39.26c-0.43,0-0.79-0.15-1.11-0.46c-0.31-0.3-0.46-0.67-0.46-1.11c0-0.34,0.09-0.61,0.27-0.83
		c0.22-0.27,0.5-0.51,0.82-0.7c0.38-0.23,0.76-0.49,1.13-0.77c0.43-0.31,0.79-0.76,1.09-1.32c0.29-0.57,0.44-1.26,0.44-2.08
		s-0.15-1.51-0.44-2.08c-0.29-0.56-0.66-1.01-1.09-1.32c-0.38-0.28-0.76-0.53-1.13-0.77c-0.32-0.2-0.59-0.43-0.82-0.7
		c-0.18-0.22-0.27-0.49-0.27-0.83c0-0.45,0.15-0.81,0.46-1.11c0.32-0.31,0.68-0.46,1.11-0.46c0.24,0,0.44,0.04,0.58,0.11
		c1.45,0.56,2.59,1.51,3.44,2.83c0.86,1.33,1.3,2.79,1.3,4.32c0,1.53-0.44,2.98-1.29,4.31c-0.85,1.32-2,2.27-3.41,2.83
		C37.62,39.23,37.42,39.26,37.18,39.26z"/>
	<path d="M37.18,25.24c0.22,0,0.33,0.04,0.36,0.06l0.04,0.02l0.04,0.02c1.32,0.51,2.35,1.36,3.16,2.62C41.6,29.22,42,30.54,42,32
		c0,1.46-0.4,2.77-1.21,4.03c-0.81,1.25-1.85,2.11-3.17,2.64l-0.04,0.02l-0.04,0.02c-0.03,0.02-0.14,0.06-0.36,0.06
		c-0.3,0-0.53-0.1-0.76-0.31c-0.22-0.21-0.31-0.44-0.31-0.76c0-0.29,0.09-0.43,0.16-0.51c0.19-0.23,0.42-0.43,0.69-0.6
		c0.39-0.24,0.78-0.5,1.17-0.79c0.49-0.36,0.9-0.86,1.23-1.49c0.33-0.64,0.5-1.41,0.5-2.31c0-0.89-0.17-1.67-0.5-2.31
		c-0.33-0.63-0.74-1.13-1.23-1.49c-0.39-0.28-0.78-0.55-1.17-0.79c-0.27-0.17-0.51-0.37-0.69-0.6c-0.07-0.08-0.16-0.22-0.16-0.51
		c0-0.31,0.1-0.55,0.31-0.76C36.64,25.33,36.88,25.24,37.18,25.24 M37.18,24.24c-0.56,0-1.05,0.2-1.46,0.6
		c-0.41,0.4-0.61,0.89-0.61,1.47c0,0.45,0.13,0.84,0.39,1.15c0.26,0.31,0.57,0.58,0.94,0.81c0.37,0.23,0.73,0.47,1.1,0.74
		c0.37,0.27,0.68,0.65,0.94,1.15c0.26,0.5,0.39,1.11,0.39,1.84c0,0.73-0.13,1.35-0.39,1.84c-0.26,0.5-0.57,0.88-0.94,1.15
		c-0.37,0.27-0.73,0.52-1.1,0.74c-0.37,0.23-0.68,0.5-0.94,0.81c-0.26,0.31-0.39,0.7-0.39,1.15c0,0.58,0.2,1.07,0.61,1.47
		c0.41,0.4,0.89,0.6,1.46,0.6c0.32,0,0.59-0.05,0.81-0.16c1.51-0.6,2.72-1.61,3.64-3.02C42.54,35.16,43,33.64,43,32
		s-0.46-3.17-1.37-4.59c-0.92-1.42-2.13-2.43-3.64-3.01C37.77,24.29,37.5,24.24,37.18,24.24L37.18,24.24z"/>
</g>
<g>
	<path fill="#282828" d="M40.16,46.9c-0.45,0-0.82-0.15-1.13-0.47c-0.32-0.31-0.47-0.68-0.47-1.1c0-0.65,0.31-1.12,0.99-1.46
		c1.24-0.64,2.07-1.12,2.53-1.47c1.65-1.2,2.96-2.74,3.88-4.56c0.93-1.82,1.4-3.79,1.4-5.84s-0.47-4.02-1.4-5.84
		c-0.93-1.82-2.23-3.35-3.89-4.56c-0.45-0.34-1.28-0.82-2.52-1.46c-0.68-0.35-0.99-0.81-0.99-1.46c0-0.43,0.15-0.79,0.47-1.1
		c0.31-0.32,0.68-0.47,1.1-0.47c0.22,0,0.44,0.04,0.66,0.13c2.9,1.22,5.27,3.21,7.04,5.91c1.77,2.7,2.67,5.68,2.67,8.86
		s-0.9,6.17-2.67,8.86c-1.77,2.7-4.14,4.68-7.06,5.91C40.57,46.85,40.36,46.9,40.16,46.9z"/>
	<path d="M40.13,17.6c0.16,0,0.32,0.03,0.45,0.08c2.82,1.19,5.12,3.11,6.83,5.72C49.13,26.02,50,28.91,50,32s-0.87,5.98-2.59,8.59
		c-1.71,2.61-4.01,4.54-6.8,5.71c-0.16,0.06-0.32,0.1-0.45,0.1c-0.32,0-0.56-0.1-0.78-0.32c-0.22-0.22-0.32-0.45-0.32-0.75
		c0-0.34,0.09-0.7,0.72-1.02c1.27-0.66,2.12-1.15,2.59-1.5c1.72-1.25,3.08-2.85,4.04-4.74c0.96-1.89,1.45-3.93,1.45-6.07
		s-0.49-4.17-1.45-6.07c-0.96-1.89-2.32-3.48-4.03-4.73c-0.48-0.36-1.33-0.85-2.6-1.51c-0.63-0.32-0.72-0.68-0.72-1.02
		c0-0.3,0.1-0.53,0.32-0.75C39.6,17.7,39.84,17.6,40.13,17.6 M40.13,16.6c-0.56,0-1.05,0.2-1.46,0.61
		c-0.41,0.41-0.61,0.89-0.61,1.46c0,0.84,0.42,1.48,1.26,1.91c1.21,0.63,2.03,1.1,2.46,1.42c1.6,1.16,2.84,2.63,3.74,4.38
		c0.89,1.76,1.34,3.63,1.34,5.61s-0.45,3.85-1.34,5.61c-0.89,1.76-2.14,3.22-3.74,4.38c-0.43,0.32-1.25,0.8-2.46,1.42
		c-0.84,0.43-1.26,1.07-1.26,1.91c0,0.56,0.2,1.05,0.61,1.46c0.41,0.41,0.91,0.61,1.49,0.61c0.26,0,0.53-0.05,0.81-0.16
		c3.02-1.27,5.45-3.3,7.28-6.1C50.08,38.35,51,35.3,51,32s-0.92-6.35-2.75-9.14c-1.83-2.79-4.26-4.83-7.28-6.1
		C40.69,16.66,40.41,16.6,40.13,16.6L40.13,16.6z"/>
</g>
<g>
	<path fill="#282828" d="M43.12,54.5c-0.43,0-0.79-0.15-1.1-0.47s-0.47-0.68-0.47-1.1c0-0.59,0.33-1.08,1.02-1.48
		c0.13-0.08,0.36-0.18,0.67-0.31c0.36-0.15,0.62-0.27,0.78-0.37c1-0.54,1.91-1.11,2.7-1.68c2.71-2,4.85-4.53,6.36-7.52
		c1.52-2.99,2.29-6.21,2.29-9.57s-0.77-6.58-2.29-9.57c-1.52-2.99-3.66-5.52-6.36-7.52c-0.79-0.57-1.7-1.14-2.71-1.69
		c-0.15-0.09-0.41-0.21-0.77-0.36c-0.31-0.13-0.53-0.23-0.67-0.31c-0.68-0.4-1.01-0.88-1.01-1.47c0-0.43,0.15-0.79,0.47-1.1
		s0.68-0.47,1.1-0.47c0.22,0,0.44,0.04,0.66,0.13c4.42,1.91,8.02,4.93,10.7,8.98c2.67,4.05,4.03,8.55,4.03,13.39
		s-1.35,9.34-4.03,13.39c-2.67,4.05-6.28,7.07-10.71,8.99C43.56,54.46,43.33,54.5,43.12,54.5z"/>
	<path d="M43.12,10c0.16,0,0.32,0.03,0.45,0.08c4.35,1.87,7.88,4.84,10.5,8.8C56.67,22.85,58,27.26,58,32
		c0,4.74-1.33,9.15-3.94,13.12c-2.62,3.97-6.15,6.93-10.46,8.79c-0.17,0.06-0.32,0.1-0.48,0.1c-0.3,0-0.53-0.1-0.75-0.32
		c-0.22-0.22-0.32-0.45-0.32-0.75c0-0.28,0.09-0.64,0.76-1.04c0.06-0.04,0.23-0.12,0.62-0.29c0.38-0.16,0.65-0.29,0.82-0.38
		c1.02-0.56,1.95-1.13,2.77-1.72c2.77-2.05,4.96-4.64,6.51-7.69c1.55-3.06,2.34-6.36,2.34-9.8s-0.79-6.74-2.34-9.8
		c-1.55-3.06-3.74-5.65-6.52-7.7c-0.81-0.58-1.74-1.16-2.74-1.71c-0.19-0.11-0.46-0.24-0.84-0.39c-0.39-0.16-0.55-0.25-0.61-0.28
		c-0.68-0.4-0.77-0.77-0.77-1.05c0-0.3,0.1-0.53,0.32-0.75C42.59,10.1,42.82,10,43.12,10 M43.12,9c-0.56,0-1.05,0.2-1.46,0.61
		c-0.41,0.41-0.61,0.89-0.61,1.46c0,0.78,0.42,1.41,1.26,1.91c0.15,0.09,0.39,0.2,0.73,0.34c0.33,0.14,0.58,0.25,0.73,0.34
		c0.99,0.54,1.88,1.09,2.65,1.65c2.65,1.96,4.72,4.41,6.21,7.34c1.49,2.93,2.23,6.05,2.23,9.35s-0.74,6.42-2.23,9.35
		c-1.49,2.93-3.56,5.38-6.21,7.34c-0.78,0.56-1.66,1.11-2.65,1.65c-0.15,0.09-0.39,0.2-0.73,0.34c-0.33,0.14-0.58,0.25-0.73,0.34
		c-0.84,0.5-1.26,1.13-1.26,1.91c0,0.56,0.2,1.05,0.61,1.46C42.07,54.8,42.56,55,43.12,55c0.28,0,0.56-0.05,0.84-0.16
		c4.55-1.96,8.2-5.02,10.93-9.17C57.63,41.52,59,36.96,59,32c0-4.96-1.37-9.52-4.11-13.67c-2.74-4.15-6.38-7.21-10.93-9.17
		C43.68,9.05,43.4,9,43.12,9L43.12,9z"/>
</g>
</svg>
