<?xml version="1.0" encoding="utf-8"?>
<!-- Generator: Adobe Illustrator 18.1.1, SVG Export Plug-In . SVG Version: 6.00 Build 0)  -->
<svg version="1.1" id="Ebene_1" xmlns="http://www.w3.org/2000/svg" xmlns:xlink="http://www.w3.org/1999/xlink" x="0px" y="0px"
	 width="64px" height="64px" viewBox="0 0 64 64" enable-background="new 0 0 64 64" xml:space="preserve">
<g>
	<path fill="#282828" d="M27.92,51.29c-0.43,0-0.79-0.15-1.11-0.47L15.82,39.5H7.08c-0.43,0-0.79-0.15-1.11-0.47
		c-0.32-0.32-0.47-0.68-0.47-1.11V26.08c0-0.43,0.15-0.79,0.47-1.11c0.32-0.32,0.68-0.47,1.11-0.47h8.74l10.99-11.33
		c0.31-0.31,0.68-0.47,1.11-0.47s0.79,0.15,1.11,0.47c0.32,0.32,0.47,0.68,0.47,1.11v35.42c0,0.43-0.15,0.79-0.47,1.11
		C28.71,51.14,28.35,51.29,27.92,51.29z"/>
	<path d="M27.92,13.21c0.3,0,0.53,0.1,0.76,0.33C28.9,13.76,29,13.99,29,14.29v35.42c0,0.3-0.1,0.53-0.33,0.76
		c-0.23,0.23-0.46,0.33-0.76,0.33c-0.3,0-0.53-0.1-0.75-0.31L16.33,39.3L16.04,39h-0.42H7.08c-0.3,0-0.53-0.1-0.76-0.33
		C6.1,38.45,6,38.22,6,37.92V26.08c0-0.3,0.1-0.53,0.33-0.76C6.55,25.1,6.78,25,7.08,25h8.53h0.42l0.29-0.3l10.83-11.16
		C27.38,13.31,27.62,13.21,27.92,13.21 M27.92,12.21c-0.56,0-1.05,0.21-1.46,0.62L15.61,24H7.08c-0.56,0-1.05,0.21-1.46,0.62
		S5,25.52,5,26.08v11.83c0,0.56,0.21,1.05,0.62,1.46S6.52,40,7.08,40h8.53l10.84,11.17c0.41,0.41,0.9,0.62,1.46,0.62
		s1.05-0.21,1.46-0.62S30,50.27,30,49.71V14.29c0-0.56-0.21-1.05-0.62-1.46C28.97,12.41,28.48,12.21,27.92,12.21L27.92,12.21z"/>
</g>
</svg>
