<?xml version="1.0" encoding="utf-8"?>
<!-- Generator: Adobe Illustrator 18.1.1, SVG Export Plug-In . SVG Version: 6.00 Build 0)  -->
<svg version="1.1" id="Ebene_1" xmlns="http://www.w3.org/2000/svg" xmlns:xlink="http://www.w3.org/1999/xlink" x="0px" y="0px"
	 width="64px" height="64px" viewBox="0 0 64 64" enable-background="new 0 0 64 64" xml:space="preserve">
<path fill="none" stroke="#B4B4B4" stroke-width="1.5" stroke-linecap="round" stroke-linejoin="round" stroke-miterlimit="10" d="
	M32,25c0,0-0.37-2.34,1.8-4.19c2.05-1.74,1.15-4,0-5.15s-4.1-0.99-4.76,1.92"/>
<path d="M23.57,31.64c0,0-1.56,1.78-11.78,5.77s-9.74,7.2-9.74,7.2s-0.53,3.5,2.24,1.48C7.06,44.07,28.82,31.01,32,31.01v-5.99
	h-2.47c0,0-1.8-0.38-2.78,2.63S23.57,31.64,23.57,31.64z"/>
<path d="M40.43,31.64c0,0,1.56,1.78,11.78,5.77s9.74,7.2,9.74,7.2s0.53,3.5-2.24,1.48C56.94,44.07,35.18,31.01,32,31.01v-5.99h2.47
	c0,0,1.8-0.38,2.78,2.63S40.43,31.64,40.43,31.64z"/>
</svg>
