<?xml version="1.0" encoding="utf-8"?>
<!-- Generator: Adobe Illustrator 18.1.1, SVG Export Plug-In . SVG Version: 6.00 Build 0)  -->
<svg version="1.1" id="Ebene_1" xmlns="http://www.w3.org/2000/svg" xmlns:xlink="http://www.w3.org/1999/xlink" x="0px" y="0px"
	 width="64px" height="64px" viewBox="0 0 64 64" enable-background="new 0 0 64 64" xml:space="preserve">
<g>
	<g>
		<rect x="47" y="53" fill="#CACACC" width="6" height="1"/>
	</g>
	<g>
		<rect x="10.5" y="4.5" fill="#FAFAFA" width="43" height="54"/>
		<path fill="#666666" d="M53,5v53H11V5H53 M54,4H10v55h44V4L54,4z"/>
	</g>
	<g>
		<polygon fill="#B2B2B2" points="53,14.12 11,14.12 11,14.88 53,14.88 53,14.12 		"/>
	</g>
	<g>
		<polygon fill="#B2B2B2" points="23,5 22,5 22,15 23,15 23,5 		"/>
	</g>
	<g>
		<circle fill="#FFFFFF" cx="44.5" cy="9.5" r="2"/>
		<path fill="#666666" d="M44.5,8C45.33,8,46,8.67,46,9.5S45.33,11,44.5,11S43,10.33,43,9.5S43.67,8,44.5,8 M44.5,7
			C43.12,7,42,8.12,42,9.5s1.12,2.5,2.5,2.5S47,10.88,47,9.5S45.88,7,44.5,7L44.5,7z"/>
	</g>
	<rect x="25" y="7" width="11" height="4"/>
	<rect x="48" y="7" fill="#999999" width="4" height="1"/>
	<rect x="48" y="9" fill="#999999" width="4" height="1"/>
	<rect x="48" y="11" fill="#999999" width="4" height="1"/>
	<rect x="37" y="7" fill="#999999" width="4" height="1"/>
	<rect x="37" y="9" fill="#999999" width="4" height="1"/>
	<rect x="37" y="11" fill="#999999" width="4" height="1"/>
	<g>
		<path fill="#ACACB7" d="M32,46.5c-8,0-14.5-6.5-14.5-14.5S24,17.5,32,17.5S46.5,24,46.5,32S40,46.5,32,46.5z"/>
		<path fill="#646464" d="M32,18c7.73,0,14,6.27,14,14s-6.27,14-14,14s-14-6.27-14-14S24.27,18,32,18 M32,17c-8.27,0-15,6.73-15,15
			s6.73,15,15,15c8.27,0,15-6.73,15-15S40.27,17,32,17L32,17z"/>
	</g>
	<g>
		<circle fill="#494949" cx="32" cy="32" r="11"/>
	</g>
	<g>
		<circle fill="#E1F5FF" cx="32" cy="32" r="9"/>
	</g>
	<rect x="13" y="59" width="4" height="2"/>
	<rect x="47" y="59" width="4" height="2"/>
	<text transform="matrix(1 0 0 1 27 9)"><tspan x="0" y="0" fill="#FFFFFF" font-family="'MyriadPro-Regular'" font-size="0.9197">W</tspan><tspan x="0.75" y="0" fill="#FFFFFF" font-family="'MyriadPro-Regular'" font-size="0.9197">aschen</tspan></text>
	<g>
		<path fill="#B2B2B2" d="M22,49v6h-8v-6H22 M22,48h-8c-0.55,0-1,0.45-1,1v6c0,0.55,0.45,1,1,1h8c0.55,0,1-0.45,1-1v-6
			C23,48.45,22.55,48,22,48L22,48z"/>
	</g>
	<g>
		<path fill="#B2B2B2" d="M20,7v1h-7V7H20 M20,6h-7c-0.55,0-1,0.45-1,1v1c0,0.55,0.45,1,1,1h7c0.55,0,1-0.45,1-1V7
			C21,6.45,20.55,6,20,6L20,6z"/>
	</g>
	<g>
		<path fill="#B2B2B2" d="M20,51c-0.55,0-1,0.45-1,1s0.45,1,1,1s1-0.45,1-1S20.55,51,20,51L20,51z"/>
	</g>
</g>
</svg>
