<?xml version="1.0" encoding="utf-8"?>
<!-- Generator: Adobe Illustrator 18.1.1, SVG Export Plug-In . SVG Version: 6.00 Build 0)  -->
<svg version="1.1" id="Ebene_1" xmlns="http://www.w3.org/2000/svg" xmlns:xlink="http://www.w3.org/1999/xlink" x="0px" y="0px"
	 width="64px" height="64px" viewBox="0 0 64 64" enable-background="new 0 0 64 64" xml:space="preserve">
<g>
	<path fill="#DB5336" stroke="#DB5336" stroke-miterlimit="10" d="M61.55,22.14c-3.06-0.84-7.3-2.16-9.33-3.51
		c-3.39-2.25-4.77-2.26-7.12-3.02c-2.35-0.76-4.78-2.08-4.78-2.08s-2.57-2.17-6.5-2.77c-3.92-0.6-5.65-2.61-5.65-2.61
		s-0.6-1.38-2.2-1.96c-2.54-1.01-6.25,2.29-8.28,7.38c-2.03,5.09-1.61,10.04,0.94,11.05c0,0,6.32,2.52,10.66,2.08
		c4.34-0.44,7.8,0.39,7.8,0.39s3.64,0.85,7.37,0.58c3.72-0.27,6.09,0.62,6.09,0.62s2.41,0.67,10.18,0.27
		c0.31-0.43,0.57-0.91,0.77-1.43C62.17,25.44,62.14,23.66,61.55,22.14z"/>
	<ellipse transform="matrix(-0.929 -0.37 0.37 -0.929 37.3113 37.9507)" fill="#CA2A14" cx="22.3" cy="15.4" rx="4.96" ry="9.92"/>
	<path fill="#FFFFFF" d="M61.55,22.14c-1.77-0.48-3.92-1.13-5.82-1.84c0.77,1.74,0.88,3.69,0.16,5.5c-0.46,1.15-1.2,2.1-2.12,2.84
		c1.58,0.07,3.84,0.09,6.97-0.07c0.31-0.43,0.57-0.91,0.77-1.43C62.17,25.44,62.14,23.66,61.55,22.14z"/>
	<path fill="#FFFFFF" d="M50.1,17.36c-1.98-1.03-3.21-1.17-5-1.75c-0.5-0.16-1.01-0.35-1.49-0.54c1.27,2.47,1.49,5.53,0.35,8.41
		c-0.67,1.68-1.73,3.09-3.01,4.15c1.08,0.08,2.29,0.12,3.51,0.03c1.07-0.08,2.02-0.06,2.84,0.01c1.21-0.93,2.19-2.2,2.8-3.73
		C50.99,21.73,50.92,19.38,50.1,17.36z"/>
	<path fill="#FFFFFF" d="M37.81,12c-1.06-0.5-2.42-1-3.99-1.24c-0.84-0.13-1.57-0.32-2.22-0.54c1.6,2.52,1.73,6.77,0.05,10.99
		c-0.89,2.24-2.16,4.14-3.59,5.53c0.42,0,0.83-0.01,1.23-0.05c1.8-0.18,3.45-0.15,4.76-0.04c1.75-1.09,3.32-2.98,4.29-5.4
		C39.74,17.72,39.44,14.11,37.81,12z"/>
	<g>
		<path fill="#FFFFFF" d="M24.53,15.02c-1.09,2.73-1.32,5.44-0.8,7.43c1.21-1.31,2.34-3.11,3.18-5.22c1.08-2.72,1.47-5.4,1.2-7.46
			C26.71,10.96,25.41,12.79,24.53,15.02z"/>
	</g>
	<line fill="none" stroke="#1A171B" stroke-miterlimit="10" x1="13.55" y1="10.5" x2="18.25" y2="12.69"/>
	<line fill="none" stroke="#1A171B" stroke-miterlimit="10" x1="13.55" y1="10.5" x2="26.83" y2="6.63"/>
	<line fill="none" stroke="#1A171B" stroke-miterlimit="10" x1="13.55" y1="10.5" x2="22.29" y2="23.95"/>
	<line fill="none" stroke="#1A171B" stroke-miterlimit="10" x1="13.55" y1="10.5" x2="7" y2="9"/>
</g>
<g>
	<path fill="#8B96AC" d="M4.5,59.5V9c0-1.38,1.12-2.5,2.5-2.5S9.5,7.62,9.5,9c0,1.21-0.86,2.22-2,2.45V59.5H4.5z"/>
	<path fill="#676B72" d="M7,7c1.1,0,2,0.9,2,2c0,1.1-0.9,2-2,2v48H5V29V9C5,7.9,5.9,7,7,7 M7,6C5.35,6,4,7.35,4,9v20v30v1h1h2h1v-1
		V11.83c1.16-0.41,2-1.52,2-2.83C10,7.35,8.65,6,7,6L7,6z"/>
</g>
</svg>
