<?xml version="1.0" encoding="utf-8"?>
<!-- Generator: Adobe Illustrator 18.1.1, SVG Export Plug-In . SVG Version: 6.00 Build 0)  -->
<!DOCTYPE svg PUBLIC "-//W3C//DTD SVG 1.1//EN" "http://www.w3.org/Graphics/SVG/1.1/DTD/svg11.dtd">
<svg version="1.1" id="Ebene_1" xmlns="http://www.w3.org/2000/svg" xmlns:xlink="http://www.w3.org/1999/xlink" x="0px" y="0px"
	 width="64px" height="64px" viewBox="0 0 64 64" enable-background="new 0 0 64 64" xml:space="preserve">
<path d="M39.3,10.7C39.3,10.7,39.3,10.7,39.3,10.7l-14.5,0c0,0,0,0,0,0c0,1.9-1.6,3.5-3.9,4.2c2.7,2.7,6.6,4.5,11.1,4.5
	s8.5-1.7,11.1-4.5C40.9,14.2,39.3,12.6,39.3,10.7z"/>
<g>
	<path fill="#3C201D" d="M27.5,63.5c-1.7,0-3-1.3-3-3v-20c0-1.7,1.3-3,3-3s3,1.3,3,3v20C30.5,62.2,29.2,63.5,27.5,63.5z"/>
	<g>
		<path fill="#1E0E0E" d="M27.5,38c1.4,0,2.5,1.1,2.5,2.5v20c0,1.4-1.1,2.5-2.5,2.5S25,61.9,25,60.5v-20C25,39.1,26.1,38,27.5,38
			 M27.5,37c-1.9,0-3.5,1.6-3.5,3.5v20c0,1.9,1.6,3.5,3.5,3.5c1.9,0,3.5-1.6,3.5-3.5v-20C31,38.6,29.5,37,27.5,37L27.5,37z"/>
	</g>
</g>
<g>
	<path fill="#3C201D" d="M36.5,63.5c-1.7,0-3-1.3-3-3v-20c0-1.7,1.3-3,3-3s3,1.3,3,3v20C39.5,62.2,38.2,63.5,36.5,63.5z"/>
	<g>
		<path fill="#1E0E0E" d="M36.5,38c1.4,0,2.5,1.1,2.5,2.5v20c0,1.4-1.1,2.5-2.5,2.5S34,61.9,34,60.5v-20C34,39.1,35.1,38,36.5,38
			 M36.5,37c-1.9,0-3.5,1.6-3.5,3.5v20c0,1.9,1.6,3.5,3.5,3.5c1.9,0,3.5-1.6,3.5-3.5v-20C40,38.6,38.5,37,36.5,37L36.5,37z"/>
	</g>
</g>
<g>
	<path fill="#3C201D" d="M43,40.5c-0.8,0-1.5-0.7-1.5-1.5V27c-0.1-1-0.5-1.9-1-2.7l-0.3-0.4L32,30.4l-8.1-6.5l-0.3,0.4
		c-0.7,1-1.1,2.2-1.1,3.4V39c0,0.8-0.7,1.5-1.5,1.5s-1.5-0.7-1.5-1.5V27.2l0-0.1l0-0.1l0-0.1l0-0.3c3.5-0.2,4.5-3.1,5.3-5.4
		c0.8-2.3,1.4-3.8,3.3-3.8h7.5c1.9,0,2.5,1.4,3.3,3.8c0.8,2.3,1.8,5.1,5.3,5.4V39C44.5,39.8,43.8,40.5,43,40.5z"/>
	<g>
		<path fill="#1E0E0E" d="M35.8,18c1.5,0,2,1.1,2.9,3.4c0.2,0.7,0.5,1.5,0.9,2.2l-0.2,0.1L32,29.7l-7.3-5.9l-0.2-0.1
			c0.4-0.8,0.6-1.5,0.9-2.2c0.8-2.4,1.4-3.4,2.9-3.4H35.8 M41.9,26.4c0.6,0.4,1.3,0.6,2.1,0.7v0.1v0.6V30v9c0,0.6-0.4,1-1,1
			c-0.6,0-1-0.4-1-1v-9v-2.8V27V27l0-0.1C41.9,26.7,41.9,26.6,41.9,26.4 M22.2,26.4c-0.1,0.4-0.1,0.9-0.1,1.3l0,2.3v9
			c0,0.6-0.4,1-1,1s-1-0.4-1-1V27.3l0-0.1c0,0,0,0,0,0C20.9,27,21.6,26.8,22.2,26.4 M35.8,17h-7.5c-5.1,0-2.5,9.2-9.2,9.2v0.6
			c0,0.1,0,0.1,0,0.2h0v12c0,1.1,0.9,2,2,2h0c1.1,0,2-0.9,2-2v-9h0v-2.3c0-1.2,0.4-2.2,1-3.1l8,6.4l8-6.4c0.5,0.7,0.8,1.5,0.9,2.4
			v0.2V30v9c0,1.1,0.9,2,2,2h0c1.1,0,2-0.9,2-2v-9v-2.2v-0.6V27v-0.8C38.3,26.2,40.9,17,35.8,17L35.8,17z"/>
	</g>
</g>
<path fill="#BD0926" d="M41,38h-9V26c3.1-3.1,4.3-5.8,4.8-7.6c0.1-0.2,0.1-0.4,0.1-0.7c0-0.2,0.1-0.4,0.1-0.6c5,0,7.9,7.6,7.9,9.1
	L41,27.7c0-1.2-0.4-2.2-1-3.1L38,31l2,3L41,38z"/>
<path fill="#BD0926" d="M23,38h9V26c-3.1-3.1-4.3-5.8-4.8-7.6c-0.1-0.2-0.1-0.4-0.1-0.7c0-0.2-0.1-0.4-0.1-0.6c-5,0-7.9,7.6-7.9,9.1
	l3.9,1.5c0-1.2,0.4-2.2,1-3.1l2,6.4l-2,3L23,38z"/>
<g>
	<g>
		<path fill="#660619" d="M30,60v0.5c0,1.4-1.1,2.5-2.5,2.5S25,61.9,25,60.5V60H30 M31,59h-7v1.5c0,1.9,1.6,3.5,3.5,3.5
			c1.9,0,3.5-1.6,3.5-3.5V59L31,59z"/>
	</g>
</g>
<g>
	<g>
		<path fill="#660619" d="M39,60v0.5c0,1.4-1.1,2.5-2.5,2.5S34,61.9,34,60.5V60H39 M40,59h-7v1.5c0,1.9,1.6,3.5,3.5,3.5
			c1.9,0,3.5-1.6,3.5-3.5V59L40,59z"/>
	</g>
</g>
<g>
	<path fill="#3C201D" d="M32,16.8c-4.1,0-7.5-3.4-7.5-7.5s3.4-7.5,7.5-7.5s7.5,3.4,7.5,7.5S36.2,16.8,32,16.8z"/>
	<g>
		<path fill="#1E0E0E" d="M32,2.3c3.9,0,7,3.1,7,7s-3.1,7-7,7s-7-3.1-7-7S28.2,2.3,32,2.3 M32,1.3c-4.4,0-8,3.6-8,8c0,4.4,3.6,8,8,8
			s8-3.6,8-8C40,4.9,36.4,1.3,32,1.3L32,1.3z"/>
	</g>
</g>
<g>
	<path d="M32,1.3c-4.4,0-8,3.6-8,8c0,0.9,0.2,1.8,0.4,2.6c0.1-0.1,0.2-0.3,0.2-0.4c0.9-1.7,1.6-3.5,2.2-5.1c2.2,1.1,5.1,1.7,8.7,0.8
		c0,0-2.4,0.1-4.9-1.7c1.9,0.6,4.2,1.1,6.2,0.5c0.6,1.5,1.4,2.9,2.4,4c0.1,0.6,0.3,1.2,0.4,1.7c0.2-0.8,0.4-1.6,0.4-2.4
		C40,4.9,36.4,1.3,32,1.3z"/>
</g>
<polygon fill="#BD0926" points="37,52 37,45 38,41 38,52 40,52 40,47 41,38 23,38 24,47 24,52 "/>
<path fill="none" stroke="#E5AE00" stroke-miterlimit="10" d="M29,17c0,0,0,5,3,5c3,0,3-5,3-5"/>
<polygon fill="#660619" points="39,33 25,33 26,31 38,31 "/>
</svg>
